<?xml version="1.0" encoding="UTF-8"?>
<svg id="a" data-name="Layer 1 copy" xmlns="http://www.w3.org/2000/svg" width="3001" height="3001" viewBox="0 0 300.1 300.1">
  <path d="M252.779,280.377l-70.513-31.833,3.393-15.057-13.334-.048,2.417-5.337-27.871-12.625-3.898,8.605,12.793,5.795c-.203.255-.484.468-.853.632-.523.233-1.18.379-1.969.439-.79.061-1.689.029-2.699-.094-1.01-.123-2.104-.326-3.281-.609-1.178-.283-2.418-.657-3.722-1.122-1.304-.465-2.641-1.008-4.009-1.628-1.491-.675-2.86-1.399-4.107-2.174-1.248-.773-2.378-1.588-3.39-2.444-1.012-.855-1.866-1.749-2.562-2.68-.696-.931-1.216-1.893-1.561-2.884-.345-.991-.499-2.012-.462-3.061.036-1.049.298-2.11.785-3.185l.023-.052c.487-1.074,1.117-1.969,1.89-2.685s1.661-1.258,2.665-1.628c1.003-.371,2.083-.586,3.239-.648,1.155-.061,2.367-.003,3.634.173,1.267.178,2.564.472,3.892.886,1.327.413,2.649.918,3.967,1.515,1.161.526,2.362,1.138,3.602,1.835,1.24.698,2.407,1.43,3.501,2.197,1.094.767,2.063,1.567,2.909,2.398.845.833,1.47,1.653,1.876,2.464l16.717,7.572.026.012c.277-2.318-.16-4.709-1.31-7.173-1.151-2.463-2.846-4.866-5.086-7.207-2.24-2.341-4.936-4.575-8.087-6.703-2.54-1.714-5.269-3.275-8.169-4.699,1.054-.255,2.097-.578,3.118-1.012,3.12-1.327,5.75-3.417,7.816-6.212,2.044-2.766,3.26-5.879,3.613-9.251.353-3.371-.141-6.66-1.466-9.777-1.326-3.12-3.402-5.739-6.169-7.784l-.234-.173c2.059-.158,4.043-.355,5.988-.578,10.581-1.212,20.772-3.557,28.503-7.962,1.895-1.079,3.671-2.348,5.119-4.014.833-.959,1.63-2.15,2.034-3.542h0c.272-.939.367-1.969.174-3.082-.593-3.42-3.678-5.969-6.156-7.561-.61-.392-.969-.567-1.438-.836-6.357-3.643-14.251-5.585-22.715-7.025-6.138-1.044-11.917-1.526-18.572-1.679,3.329-2.291,5.521-7.273,4.91-13.417-.25-2.518-.982-5.214-2.275-8.031-1.417-3.072-3.278-5.785-5.351-8.002,6.938,2.085,13.277,1.422,17.174-2.475,5.366-5.365,4.616-15.357-1.021-25.171-.422-.735-.872-1.469-1.349-2.2-1.106-1.698-2.358-3.379-3.749-5.02h3.297v-10.038h-12.389c5.603,4.409,6.121,6.814,6.121,6.814-2.669-2.668-5.506-4.95-8.388-6.814-.398-.257-.797-.491-1.197-.732,2.019-.322,3.803-.978,5.341-1.984,2.261-1.479,4.162-3.806,5.703-6.982l-.352-.202c-1.758,1.619-3.446,2.799-5.062,3.542s-3.312,1.113-5.087,1.113c-.352,0-.699-.012-1.042-.038-.343-.025-.674-.062-.992-.114l-.025-13.79h8.088c.268-.569.691-1.445,1.269-2.626.578-1.18,1.008-2.088,1.293-2.726h-5.401l6.983-7.636c-.167,0-.352.004-.553.012-.201.009-.511.013-.929.013-1.859,0-3.58-.217-5.162-.654-1.583-.435-3.027-1.088-4.333-1.959l-9.897,8.457v12.685c0,.843-.046,1.493-.139,1.948-.092.456-.247.835-.464,1.139-.972-1.192-1.712-2.566-2.223-4.12-.511-1.554-.766-3.205-.766-4.952,0-2.351.515-4.501,1.545-6.45,1.03-1.949,2.591-3.721,4.685-5.316l-.101-.201c-3.199,1.159-5.74,3.158-7.624,5.998-1.884,2.84-2.826,6.091-2.826,9.753,0,3.943,1.105,7.264,3.309,9.964-4.539-.3-8.515.827-11.268,3.579-5.365,5.366-4.616,15.357,1.022,25.171v14.748c0,.733.235,1.333.706,1.804s1.071.706,1.804.706h8.146c-1.772,1.32-2.198,3.304-2.221,4.185-.068.586.21.839.46.807.338.004.707-.525.896-1.175.446-1.453,1.18-2.992,3.577-3.494,3.883-.838,9.667,2.167,13.931,13.646,1.373,3.624,2.181,7.081,2.473,10.026.567,5.702-.856,9.639-4.319,10.038-5.8.653-10.047-4.716-12.437-14.321-.653-2.754-1.093-5.055-1.282-6.956-.425-4.275.414-6.453,2.765-6.998,3.341-.769,7.469,5.098,9.203,11.082.587,2.089.901,3.974,1.057,5.542.288,2.898.06,4.852-.049,5.877-.082.876.215,1.319.517,1.377.254.015.522-.26.679-.81.138-.74.397-3.228.071-6.506-.231-2.328-.755-5.051-1.793-7.853-2.271-5.866-5.905-10.593-9.738-10.098-.417.054-.782.197-1.189.346-2.956,1.249-4.764,5.139-4.202,10.792.227,2.281.815,4.803,1.89,7.551,2.084,5.433,5.11,9.221,8.4,11.15-4.076.127-7.638.429-11.523.901-7.841.952-15.745,2.575-22.281,5.019-3.145,1.175-6.42,2.802-8.966,4.75-2.375,1.817-5.237,4.771-4.516,8.832.429,2.417,1.95,4.172,3.546,5.587,1.681,1.49,3.553,2.598,5.554,3.613,8.034,4.076,18.711,6.213,28.904,7.227,1.274.126,2.561.236,3.867.33-1.626,1.154-3.064,2.562-4.29,4.22-2.066,2.795-3.293,5.922-3.646,9.294-.353,3.37.146,6.653,1.482,9.757.771,1.792,1.804,3.417,3.068,4.873-2.716-.329-5.264-.361-7.635-.083-3.442.404-6.455,1.463-9.037,3.176s-4.577,4.121-5.982,7.223l-.023.052c-.935,2.062-1.464,4.12-1.59,6.173-.126,2.053.104,4.069.691,6.047.016.052.037.103.053.154l-27.735-12.563,39.197,28.462-39.848-2.174,68.116,21.134,8.712,7.575h-61.265c-1.243,0-2.254,1.011-2.254,2.254v9.377c0,1.243,1.011,2.254,2.254,2.254h77.236l2.455,2.134.407-2.134h22.844c1.243,0,2.254-1.011,2.254-2.254v-3.242c0-.134-.017-.264-.04-.392l49.81,13.956ZM147.106,25.173l5.828,2.311-5.828,6.38v-8.691ZM142.635,40.345c.753-1.392,1.13-2.999,1.13-4.82v-9.573l2.16-1.758v24.69c-1.457-.303-2.792-.796-4.006-1.48-1.215-.683-2.291-1.556-3.228-2.619,1.875-1.569,3.19-3.049,3.944-4.44ZM165.404,95.018c-3.997,3.997-11.429,3.567-19.257-.382h19.614c-.115.13-.233.258-.357.382ZM166.277,79.579h.404c2.09,5.753,2.085,10.994-.404,14.415v-9.396h-32.624v-5.019h32.624ZM156.975,64.522c1.551,1.633,2.956,3.316,4.205,5.02h-17.489v-5.02h13.284ZM124.32,70.325c-.224.224-.394.471-.511.742-2.93-6.962-2.927-13.361.678-16.966,3.048-3.048,8.097-3.514,13.793-1.815,1.062.562,2.208.969,3.421,1.252.677.292,1.357.6,2.042.945h-7.582c-.732,0-1.333.263-1.804.785-.47.47-.706,1.046-.706,1.725v12.548h-7.529c-.732,0-1.333.262-1.804.784ZM135.721,93.862c-5.684-4.731-9.037-11.814-9.037-11.814.635.854,1.308,1.7,2.016,2.536.933,1.101,1.927,2.183,2.982,3.238,2.069,2.069,4.24,3.898,6.453,5.487-.185.012-.374.01-.556.033-.637.083-1.258.274-1.859.521ZM142.888,185.288l3.23,2.224,13.071-17.685c1.764,1.611,3.064,3.574,3.867,5.84.838,2.365,1.087,4.823.741,7.304-.347,2.48-1.295,4.783-2.819,6.845-1.628,2.202-3.716,3.86-6.207,4.927-2.492,1.068-5.11,1.461-7.782,1.167-2.669-.293-5.154-1.278-7.385-2.926-2.202-1.628-3.858-3.704-4.922-6.17-1.063-2.467-1.456-5.086-1.167-7.782.29-2.695,1.262-5.178,2.89-7.379,1.606-2.173,3.707-3.833,6.247-4.934,1.555-.691,3.177-1.097,4.847-1.222.746.008,1.501.013,2.269.013.015,0,.029,0,.044,0,.193.016.385.026.579.049l.28.033.011-.089c2.465-.017,4.788-.1,7.004-.233l-14.798,20.02ZM119.308,158.526c-.974-.23-1.921-.473-2.841-.727v-21.284c4.567-1.236,9.796-2.225,15.436-2.91,5.458-.663,9.947-.936,15.493-.941h.309c9.342,0,16.021.488,23.055,1.685,4.17.709,7.572,1.437,10.59,2.268v21.069c-.375.107-.754.212-1.138.314-4.313,1.149-9.28,2.05-14.763,2.678-5.528.634-10.245.924-15.215.942-.812-.053-1.631-.059-2.453-.018-4.922-.049-9.446-.271-13.722-.696-5.372-.534-10.335-1.334-14.752-2.379ZM97.812,270.77c-.395,0-.716-.321-.716-.716v-9.377c0-.395.321-.716.716-.716h63.034l5.288,4.598h-64.013v1.538h65.783l5.375,4.673h-75.467ZM201.47,270.054c0,.395-.321.716-.716.716h-22.55l.892-4.673h21.658c.395,0,.716.321.716.716v3.242ZM179.39,264.559l.859-4.504,16.074,4.504h-16.933Z"/>
</svg>