<?xml version="1.0" encoding="UTF-8"?>
<svg id="a" data-name="Layer 1 copy" xmlns="http://www.w3.org/2000/svg" width="3001" height="3001" viewBox="0 0 300.1 300.1">
  <polygon points="226.593 194.83 226.593 182.036 92.27 182.036 85.873 188.433 85.873 194.831 98.667 194.831 98.667 194.83 226.593 194.83"/>
  <polygon points="69.88 214.022 69.88 236.413 76.277 242.81 236.189 242.81 242.586 236.413 242.586 172.44 236.189 166.043 76.277 166.043 69.88 172.44 69.88 194.831 82.674 194.831 82.674 178.837 229.792 178.837 229.792 230.015 82.674 230.015 82.674 214.022 69.88 214.022"/>
  <polygon points="85.873 214.022 85.873 220.419 92.27 226.817 213.761 226.817 213.761 226.817 226.555 226.817 226.555 220.457 226.593 220.419 226.593 204.426 226.555 204.388 226.555 198.029 213.761 198.029 213.761 198.029 200.95 198.029 200.95 210.823 213.761 210.823 213.761 214.022 98.667 214.022 98.667 214.022 85.873 214.022"/>
  <polygon points="258.579 202.827 258.579 150.05 69.842 150.05 53.887 150.05 41.054 150.05 41.054 162.844 53.887 162.844 53.887 246.008 41.054 246.008 41.054 258.803 53.887 258.803 69.842 258.803 258.579 258.803 258.579 206.026 245.785 206.026 245.785 246.008 69.842 246.008 66.681 246.008 66.681 210.824 79.712 210.824 79.712 210.823 83.504 210.823 83.504 210.824 197.752 210.824 197.752 198.029 83.504 198.029 83.504 198.029 79.712 198.029 79.712 198.029 66.681 198.029 66.681 162.844 69.842 162.844 245.785 162.844 245.785 202.827 258.579 202.827"/>
  <polygon points="50.426 166.043 48.218 177.039 41.073 177.039 46.853 183.835 44.645 194.831 50.426 188.035 50.426 166.043"/>
  <polygon points="50.426 214.022 48.218 225.018 41.073 225.018 46.853 231.814 44.645 242.81 50.426 236.014 50.426 214.022"/>
  <rect x="41.073" y="198.029" width="25.608" height="12.794"/>
  <polygon points="258.57 146.86 41.045 57.313 41.045 41.297 258.57 130.844 258.57 146.86"/>
</svg>