<?xml version="1.0" encoding="UTF-8"?>
<svg id="a" data-name="Layer 1 copy" xmlns="http://www.w3.org/2000/svg" width="3001" height="3001" viewBox="0 0 300.1 300.1">
  <path d="M127.539,145.689h-14.51c.627,15.511,13.127,28.011,28.639,28.639v-14.509c-7.521-.594-13.536-6.609-14.129-14.129Z"/>
  <path d="M144.112,204.845c32.384-.643,58.514-26.773,59.157-59.157h-14.808c-.641,24.173-20.175,43.707-44.349,44.348v14.809Z"/>
  <path d="M140.743,114.666c-.229.016-.458.031-.685.052-.266.025-.53.058-.794.09-.22.027-.441.053-.66.084-.266.038-.53.083-.794.129-.213.037-.426.073-.637.114-.266.052-.531.109-.794.168-.204.046-.408.092-.611.141-.266.065-.531.135-.795.208-.195.054-.389.108-.582.166-.268.079-.533.163-.797.249-.184.06-.366.122-.549.186-.269.094-.537.191-.802.293-.171.065-.34.133-.51.201-.272.11-.543.222-.811.34-.156.068-.31.139-.464.21-.277.127-.553.257-.825.392-.136.068-.271.139-.406.208-.285.147-.569.296-.849.452-.112.063-.223.129-.335.193-.298.171-.594.344-.885.525-.08.05-.159.102-.238.153-.318.202-.634.406-.944.62-.034.024-.067.049-.101.072-7.458,5.184-12.453,13.673-12.844,23.332h14.51c.593-7.521,6.608-13.536,14.129-14.129v-14.504c-.044.002-.089.001-.133.003-.265.012-.529.032-.792.051Z"/>
  <path d="M134.37,145.689h-6.219c.591,7.184,6.333,12.926,13.517,13.517v-6.219c0-4.03-3.267-7.298-7.298-7.298Z"/>
  <path d="M203.269,143.245v-13.517h-59.157v6.219c0,4.03,3.267,7.298,7.297,7.298h51.859Z"/>
  <path d="M128.151,143.245h6.219c4.03,0,7.298-3.267,7.298-7.298v-6.219c-7.184.591-12.926,6.333-13.517,13.517Z"/>
  <path d="M97.32,145.689h-14.809c.643,32.384,26.773,58.514,59.157,59.157v-14.809c-24.173-.641-43.708-20.175-44.349-44.348Z"/>
  <path d="M217.589,114.606c0-7.896-6.424-14.32-14.321-14.32-.166,0-.331.007-.496.013-4.385-6.14-9.7-11.617-15.713-16.21h-14.309s-4.381,0-4.381,0h-9.518s-14.74,0-14.74,0v14.809h9.482l-9.483,30.219h35.568v-14.227h9.276c.152,7.766,6.512,14.038,14.313,14.038,1.495,0,2.937-.231,4.293-.658,11.313,41.268-19.346,84.343-64.672,85.275,0,0,0,2.444,0,2.444,23.466.632,46.873-11.36,60.326-30.738,12.466-17.523,16.314-40.442,10.779-61.17,2.234-2.527,3.594-5.843,3.594-9.473ZM203.269,126.482c-6.453,0-11.71-5.177-11.862-11.594h8.046c1.782,0,3.419,1.019,4.169,2.635,1.289,2.777,2.37,5.58,3.253,8.395-1.138.364-2.349.564-3.606.564ZM210.507,114.056c-1.668-3.936-3.698-7.701-6.029-11.266,5.983.608,10.668,5.675,10.668,11.815,0,2.427-.735,4.685-1.989,6.567-.754-2.411-1.633-4.788-2.649-7.116Z"/>
  <path d="M144.112,174.327c15.511-.628,28.011-13.127,28.639-28.639h-14.51c-.594,7.521-6.608,13.536-14.129,14.129v14.509Z"/>
  <path d="M82.511,143.245h14.809c.641-24.173,20.175-43.707,44.349-44.348v-14.809c-32.384.643-58.514,26.773-59.157,59.157Z"/>
  <path d="M144.112,159.205c7.183-.591,12.926-6.333,13.516-13.517h-6.219c-4.03,0-7.298,3.267-7.298,7.298v6.219Z"/>
</svg>