<?xml version="1.0" encoding="UTF-8"?>
<svg id="a" data-name="Layer 1 copy" xmlns="http://www.w3.org/2000/svg" width="3001" height="3001" viewBox="0 0 300.1 300.1">
  <path d="M151.766,66.907c5.648,2.61,7.87.81,13.028,2.775,2.325.886,25.643,15.445,26.718,16.754,4.958,6.032,10.108,25.551,12.105,33.715.613,2.507-.172,5.338.51,7.715.602,2.102,11.435,14.259,14.075,21.171,30.272,79.243-96.005,129.009-120.904,32.787-.645-2.491.136-5.357-.556-7.669-.754-2.521-5.324-4.971-3.302-10.22-7.197,7.47-31.537,31.162-32.935,7.598-.941-15.867,27.797-20.587,38.809-14.648.466-3.36.058-3.824-3.197-4.374-11.566-1.956-26.605-.21-35.551,7.898-.483-2.22,1.101-2.848,2.434-4.015,8.774-7.681,29.025-10.572,28.113-25.351,1.969-.528.538,2.253,1.869,2.441,2.456.349,12.637-3.033,16.466-3.485,23.567-2.78,47.477.35,70.947-3.666,1.755-1.758-6.755-22.773-8.394-26.262-2.606-5.547-13.552-24.935-17.411-28.401-4.318-3.88-8.875.455-14.143-.564,3.008-6.049,5.231-7.014,11.318-4.2M154.546,167.449c20.692-1.336,45.208-17.957,28.784-39.911-6.408,5.39-4.362,9.245-5.347,15.777-1.377,9.131-10.501,7.722-15.288,11.734-1.022.857-8.735,11.946-8.148,12.4M134.565,172.165l-9.785,2.23c-3.671-6.451-10.086-5.106-16.044-8.108,1.479,9.801,13.536,10.209,21.417,9.054,1.883-.275,5.284-.212,4.411-3.176M195.651,166.289c-1.794-1.738-4.375,3.786-4.394,5.049-.056,3.653,3.647,11.168,4.992,14.915,5.338-5.017.268-13.793-.598-19.964M183.925,201.527c1.24,1.299,9.285-6.742,9.421-8.864l-4.742-19.324-9.118,7.779,4.439,20.409ZM176.862,182.728l-18.712,8.966,7.521,21.417,15.721-8.857-4.529-21.525ZM154.532,192.129l-14.066,4.762,6.015,17.407c2.684.003,14.539,1.344,15.115-1.635l-7.064-20.534ZM137.99,198.125l-11.648,1.065c.287,9.516,7.066,15.177,16.454,14.08l-4.806-15.145ZM195.658,199.191c-1.62-1.201-12.826,8.66-8.203,12.915,2.694,1.952,11.872-8.894,8.203-12.915M178.911,212.272c-.981.14-10.444,5.033-10.924,5.685.712,8.928,11.386,2.252,15.417-1.119.051-2.875-1.56-4.984-4.493-4.566M146.316,222.674c-.932-6.702-9.557-5.46-14.081-8.218-2.483,2.473,11.416,9.742,14.081,8.218M163.836,218.077c-4.066.532-8.129.759-12.232,1.092-1.726.14-3.422-.955-2.913,1.724l3.107,3.948,13.324.184-1.286-6.948ZM96.807,126.324c-.212.014-.367-.041-.464-.168s-.156-.346-.177-.66c-.027-.421.07-.752.29-.992.052-.053.09-.095.116-.126.096-.124.157-.264.184-.417.026-.155.024-.462-.006-.922l-.016-.249-.949-14.436c-.03-.461-.068-.766-.114-.915-.046-.149-.125-.28-.237-.389-.029-.029-.072-.064-.13-.11-.25-.21-.389-.521-.416-.932-.021-.323.008-.553.088-.691.079-.137.225-.214.438-.228l3.44-.225,1.394,21.235-3.439.226ZM99.313,104.832l2.996-.197.372,5.654c.017.274-.003.496-.062.668s-.148.261-.267.268c-.213.014-.416-.38-.611-1.184-.13-.523-.245-.914-.344-1.173-.232-.623-.518-1.113-.856-1.47-.338-.356-.705-.562-1.101-.614l-.128-1.954ZM100.053,116.111l-.129-1.953c.196-.141.341-.311.435-.509.095-.197.162-.465.203-.802.034-.247.072-.57.115-.966.068-.693.195-1.045.38-1.058.141-.009.25.102.327.333.076.231.134.65.174,1.257l.35,5.332c.036.548.031.937-.015,1.165-.047.23-.141.349-.281.358-.19.013-.365-.32-.522-.999-.088-.368-.165-.671-.232-.914-.086-.338-.189-.601-.311-.79-.121-.188-.285-.34-.494-.454M100.707,126.068l-.129-1.954c.435-.107.798-.36,1.086-.757.289-.398.508-.95.657-1.659.06-.259.109-.671.145-1.233.065-.88.204-1.326.418-1.34.177-.012.31.127.396.416.088.289.161.875.219,1.755l.3,4.568-3.093.203ZM108.154,126.007l-.134-2.027c.413-.086.709-.312.887-.677.178-.366.245-.886.201-1.561-.074-1.126-.728-2.22-1.962-3.279-.044-.036-.077-.063-.102-.081-1.213-1.021-2.057-2.051-2.534-3.09-.476-1.04-.765-2.352-.869-3.937-.138-2.103.053-3.841.576-5.217.521-1.375,1.267-2.094,2.236-2.158l.116-.008.121,1.851c-.269.136-.473.417-.613.845-.139.426-.192.92-.155,1.477.07,1.068.744,2.082,2.022,3.04.092.072.163.127.216.162,1.048.806,1.826,1.773,2.333,2.9.507,1.127.817,2.567.932,4.319.141,2.155-.087,3.914-.68,5.28-.595,1.367-1.459,2.087-2.591,2.162M107.609,124.051l.127,1.939c-.39.016-.807-.104-1.249-.36-.442-.255-.69-.382-.744-.378-.118.008-.217.162-.297.462-.081.3-.189.455-.325.463-.144.01-.265-.094-.361-.307-.096-.215-.157-.523-.184-.925l-.363-5.536c-.04-.597-.034-1.011.017-1.24.051-.229.16-.35.328-.361.226-.015.425.434.593,1.348.084.447.157.796.22,1.048.242.997.561,1.834.956,2.511.394.677.822,1.124,1.282,1.339M107.102,105.736l-.117-1.791c.417-.017.84.107,1.269.374.43.267.649.4.658.4.104-.007.202-.163.293-.47.092-.306.205-.463.341-.472.149-.009.26.066.333.225.072.161.122.453.149.878l.326,4.964c.036.548.029.922-.021,1.123-.051.2-.154.305-.307.315-.223.014-.417-.395-.586-1.23-.076-.388-.141-.694-.197-.916-.24-.938-.543-1.7-.91-2.285-.369-.586-.779-.957-1.231-1.115M112.739,125.278c-.212.014-.368-.042-.464-.168-.097-.127-.156-.346-.177-.66-.027-.421.07-.752.29-.992.052-.053.09-.095.116-.127.096-.124.157-.263.183-.416.026-.155.025-.463-.006-.923l-.016-.25-.949-14.435c-.03-.461-.068-.765-.114-.915-.046-.149-.125-.28-.237-.39-.029-.027-.072-.064-.13-.109-.25-.21-.389-.521-.416-.932-.021-.323.008-.553.088-.691.079-.138.226-.214.438-.228l3.438-.226,1.395,21.236-3.439.226ZM115.245,103.786l2.998-.197.37,5.654c.018.274-.002.497-.061.668-.059.172-.148.262-.267.269-.213.014-.417-.38-.611-1.184-.13-.523-.245-.914-.344-1.173-.232-.623-.518-1.114-.856-1.47-.338-.355-.705-.561-1.101-.613l-.129-1.954ZM115.986,115.065l-.129-1.954c.196-.14.341-.31.435-.508.094-.198.161-.465.202-.802.034-.247.072-.57.115-.965.068-.693.195-1.045.38-1.058.139-.009.249.103.326.333.076.23.134.649.174,1.256l.35,5.332c.036.548.031.937-.015,1.166-.047.23-.14.348-.282.358-.189.013-.364-.32-.521-.998-.088-.368-.165-.672-.232-.914-.086-.338-.189-.601-.311-.791-.121-.187-.285-.34-.494-.453M116.64,125.022l-.129-1.954c.435-.107.798-.36,1.086-.757.289-.398.508-.951.656-1.659.061-.259.109-.671.146-1.234.065-.88.204-1.326.418-1.34.177-.011.31.127.396.416.088.29.161.875.219,1.755l.3,4.568-3.093.204ZM124.372,122.789l.139,2.114c-1.347-.068-2.463-1.05-3.349-2.943-.886-1.894-1.439-4.49-1.655-7.789-.217-3.299-.013-5.939.613-7.917.626-1.977,1.607-3.104,2.944-3.379l.139,2.114c-.295.079-.495.331-.599.756-.104.424-.127,1.073-.07,1.944l.822,12.513c.057.872.166,1.51.324,1.919.159.408.39.631.691.67M123.625,104.946l-.139-2.099c.375.034.767.215,1.175.542.408.327.644.488.708.484.1-.007.195-.192.284-.556.09-.365.223-.553.4-.565.137-.009.24.061.311.208.071.148.122.458.153.927l.011.161.368,5.595c.039.588.032,1.016-.018,1.284-.051.27-.151.409-.301.419-.258.016-.493-.503-.702-1.562-.137-.69-.262-1.241-.375-1.657-.276-1.005-.571-1.776-.89-2.316-.317-.541-.646-.829-.984-.865M124.934,124.875l-.139-2.114c.338-.121.639-.344.905-.671.265-.327.469-.722.611-1.183.12-.401.218-.978.296-1.73.078-.752.21-1.135.395-1.147.132-.009.245.084.34.28.094.195.153.464.176.807.041.626-.037,1.377-.235,2.25-.197.875-.47,1.608-.817,2.2-.205.358-.435.644-.689.856-.255.214-.535.365-.843.453M128.822,118.337l-.795-12.101c-.031-.46-.068-.766-.112-.915-.044-.149-.124-.28-.241-.389-.03-.028-.072-.064-.129-.109-.255-.21-.396-.52-.423-.931-.02-.313.01-.541.091-.685.082-.142.232-.222.449-.235l3.643-.24c.275-.018.468.034.576.154.107.12.172.333.192.636.029.451-.107.814-.408,1.088-.046.043-.081.074-.102.096-.119.115-.195.239-.225.369-.03.129-.032.394-.006.796l.026.397.855,13.026c.068,1.038.177,1.737.326,2.096.147.358.391.561.726.608l.152,2.217c-.144.019-.322.045-.534.079-.211.034-.338.052-.378.055-1.128.074-1.989-.373-2.582-1.342-.593-.969-.96-2.525-1.101-4.669M133.826,124.099l-.136-2.071c.604-.226,1.013-.73,1.224-1.512.214-.78.266-1.979.16-3.594l-.628-9.561c-.036-.538-.102-1.003-.198-1.395-.096-.392-.22-.712-.373-.957-.084-.132-.209-.281-.37-.447-.278-.287-.428-.611-.452-.973-.024-.343.006-.593.087-.751.081-.158.22-.243.42-.256l2.072-.137c.2-.013.35.053.451.199.101.147.162.391.185.734.023.353-.069.673-.275.962-.207.289-.349.533-.427.736-.099.282-.163.621-.189,1.016-.026.393-.009,1.056.051,1.987l.528,8.033c.167,2.546.087,4.426-.24,5.643-.328,1.216-.958,1.998-1.89,2.344M136.437,102.394l1.971-.129.132,2.012c-.187.208-.337.602-.451,1.18-.115.576-.192,1.33-.23,2.257-.004.148-.006.363-.006.649-.006.954-.153,1.441-.443,1.461-.172.011-.302-.094-.393-.315-.089-.22-.154-.639-.195-1.254l-.385-5.86ZM142.252,102.013l1.203,18.313c.031.47.19.809.476,1.015.004,0,.012.005.022.014.184.117.313.248.384.395.07.148.114.349.132.604.021.313-.014.535-.102.664-.09.128-.271.201-.542.22l-3.656.24c-.272.019-.461-.031-.566-.147-.106-.117-.168-.33-.19-.644-.029-.451.105-.819.405-1.104.039-.032.069-.059.092-.08.119-.114.195-.236.225-.361.031-.124.033-.392.005-.803l-.026-.397-1.163-17.711,3.302-.217ZM144.644,101.855l.417,6.344c.022.333-.006.606-.083.817-.077.211-.188.322-.333.331-.29.019-.496-.444-.623-1.389-.036-.283-.069-.501-.098-.657-.156-.905-.327-1.636-.516-2.193-.188-.558-.392-.928-.609-1.111l-.132-2.012,1.976-.13ZM148.077,108.724l-.566,9.89c-.013.158-.019.314-.02.466-.001.153.002.297.011.434.022.323.074.601.157.83.084.231.193.406.328.525.054.055.119.114.197.178.25.21.389.526.417.947.02.313-.019.548-.117.708-.099.159-.268.247-.508.262l-1.705.112c-.249.016-.426-.038-.529-.164-.104-.126-.167-.356-.188-.689-.031-.45.089-.782.357-.996.107-.087.185-.159.231-.221.146-.207.257-.482.335-.827.076-.345.135-.837.175-1.479l.789-13.548.638,3.572ZM150.067,117.516l-2.045.134.136-2.192,1.529-.101-2.155-11.908.122-1.793,2.935-.192,3.222,17.783c.021.106.045.228.072.363.026.137.041.22.044.25.019.293.161.559.427.797.266.237.412.547.438.929.023.353-.015.599-.113.738-.098.139-.305.219-.622.24l-3.174.208c-.285.019-.491-.043-.616-.188-.126-.144-.201-.397-.225-.759-.022-.333.057-.628.235-.886.179-.257.257-.542.237-.855-.003-.039-.011-.106-.024-.198-.013-.092-.031-.207-.053-.343l-.372-2.026ZM152.976,101.308l1.971-.129.132,2.012c-.187.209-.337.603-.451,1.181-.115.577-.192,1.33-.23,2.256-.005.149-.006.364-.006.649-.006.955-.153,1.441-.443,1.46-.172.011-.302-.093-.393-.314-.089-.22-.154-.639-.195-1.254l-.385-5.861ZM158.793,100.926l1.202,18.313c.031.471.19.809.476,1.016.004,0,.012.005.022.014.184.116.313.247.384.395s.114.349.131.604c.021.314-.013.534-.102.664-.091.129-.271.201-.542.22l-3.656.24c-.272.019-.461-.031-.566-.147-.107-.117-.169-.33-.189-.644-.029-.451.106-.819.405-1.104.039-.032.068-.059.091-.08.119-.115.195-.236.224-.361.031-.125.033-.393.006-.804l-.026-.397-1.163-17.711,3.302-.217ZM161.185,100.769l.416,6.344c.022.333-.006.605-.084.816-.077.212-.187.323-.333.333-.29.019-.497-.445-.624-1.391-.036-.282-.069-.501-.097-.657-.156-.905-.327-1.635-.516-2.192-.188-.558-.392-.928-.609-1.111l-.132-2.012,1.978-.129ZM166.106,117.539c.07,1.068.167,1.784.289,2.15.122.364.314.569.575.611l.119,1.806c-1.333-.129-2.431-1.138-3.294-3.028-.863-1.891-1.402-4.461-1.615-7.711-.215-3.251-.016-5.864.593-7.842.61-1.977,1.566-3.127,2.869-3.448l.119,1.806c-.254.076-.418.303-.49.681-.074.379-.076,1.102-.006,2.169l.841,12.806ZM167.874,117.423l-.842-12.806c-.071-1.088-.166-1.808-.286-2.165-.119-.355-.306-.555-.563-.597l-.119-1.806c1.338.149,2.437,1.163,3.297,3.043.861,1.881,1.398,4.446,1.613,7.696.213,3.25.016,5.864-.592,7.841-.607,1.976-1.564,3.126-2.871,3.448l-.119-1.806c.25-.076.41-.298.481-.666.072-.368.072-1.096,0-2.183"/>
</svg>