<?xml version="1.0" encoding="UTF-8"?>
<svg id="a" data-name="Layer 1 copy" xmlns="http://www.w3.org/2000/svg" width="3001" height="3001" viewBox="0 0 300.1 300.1">
  <g>
    <path d="M235.979,227.217c-.136-1.432-1.933-1.62-2.994-1.84-3.233-.669-2.642-10.828-3.902-15.808-.82-3.239-2.776-5.93-4.464-8.717-1.085-1.793-1.666-3.773-2.055-5.836-.501-2.654-1.289-5.03-2.063-7.643-1.153-3.895,2.805-11.482-3.566-15.224-1.458-.856-2.974-1.789-4.146-3.008-.962-1-.931-2.598-.077-3.649l4.472-5.507,1.653-.16c-.322-.312-.813-.553-.735-.768l.313-.86.534.774c.12.173.949.127.848.017-.836-4.784,1.898-2.253,1.356-5.58-.228-1.398-.174-2.873-.17-4.291l-1.185-2.566c-1.809-3.917.694-1.449-3.509-8.562-1.647-2.788-5.624-3.738-8.123-1.542-.974.856-1.318,2.268-2.233,3.451-1.743-2.929-2.687-7.001-4.795-9.082-2.413-2.382-4.382-4.897-6.204-7.817-3.83-6.138-1.328-4.811-2.123-9.294l-.002-.01c-.037-.211-.126-.401-.253-.559.212-.74.373-1.424.474-2.04-29.652,33.122-66.37,49.288-68.697,50.292v.009c20.19-7.161,38.338-17.271,48.253-24.803,3.215-2.442,4.083-1.525,3.94,1.752-.199,4.563-1.982,10.04-1.982,10.04,0,0,9.878-16.059,15.242-28.028.052.085.105.179.138.251.024.038.062.099.086.138.304.359.622.707.924,1.068.634.756,1.134,1.485,1.56,2.308l.004-.168,2.385,4.487,5.729,8.896,3.456,7.646c.495,1.095.793,1.95-.104,3.016-1.157,1.375,1.754,1.754.529,3.957-.663,1.192-1.604,1.758-2.702,2.471l-1.279.831,1.647.309c-.842,1.654-.652,3.291.342,4.688.364.511.57,2.108-.334,2.136-.421.013-.839.008-1.256-.01-.401-.017-.703-.375-.665-.781,0-.005,0-.01.001-.016.048-.504-.002-1.014-.174-1.489-.209-.578-.296-1.147-.301-1.726-.005-.596-.282-1.143-.729-1.498.042-7.197-.302-11.835-.302-11.835-4.282,17.203-19.945,32.531-19.945,32.531l8.946-6.699c1.361-1.12,4.147-2.237,4.147,1.87,0,.053,0,.106,0,.159,0,0-.013,0-.013,0-.003.086-.007.172-.01.259-.183,5.062-.594,10.11-1.296,15.098-2.523,18.329-10.288,42.383-31.621,43.728-27.194,1.905-36.731-32.326-37.487-54.492-.142-6.075.274-12.166,1.109-18.182,2.276-16.226,7.741-31.92,15.439-46.293,2.123-3.939,4.415-7.788,6.889-11.508.396-.595.808-1.2,1.229-1.812,1.695-2.46,3.538-5.018,5.145-7.425,2.07-2.737,4.038-5.046,5.819-6.857,18.269-18.579,36.058-20.045,36.058-20.045,0,0-1.17,12.012,1.813,18.851,0,0,.021-.226.059-.625.142-1.503.518-5.453.872-8.971.321-1.903,2.695-1.666,4.26-.517.378-1.615-1.925-4.253-3.642-5.218.023-.175.043-.318.06-.425,0-.004.001-.007.002-.011.312-1.917,2.694-1.681,4.262-.53.429-1.833-2.595-4.983-4.296-5.511-.026-.009-.052-.017-.08-.023-.065-.017-.127-.024-.186-.022-.905-.098-5.048-.449-10.913.547-17.008,2.548-35.903,12.292-48.436,20.152,2.481-2.229,3.971-5.487,3.971-8.867,0-7.654-6.465-11.972-12.448-11.972-8.202,0-14.764,7.164-14.764,15.112,0,2.453.579,4.907,1.93,7.262l3.57,6.477c1.737,3.238,2.605,6.967,2.605,10.304,0,10.696-8.492,21-20.651,21-4.521,0-9.153-1.68-12.466-4.869-.075-.227-.171-.449-.292-.663-.382-.683-.946-1.201-1.597-1.529-1.75-2.472-2.822-5.562-2.822-9.228,0-1.564.234-3.111.675-4.593,1.105-.825,1.663-2.198,1.519-3.54,2.683-4.68,7.617-8.059,13.632-8.059,8.202,0,15.922,6.869,15.922,16.094,0,1.57-.193,3.042-.579,4.416l1.351.393c.482-1.472.675-3.14.675-4.808,0-9.911-8.395-17.566-17.37-17.566-5.997,0-11.153,3.233-14.233,7.846-1.083-1.659-3.296-2.216-5.021-1.218-1.799,1.042-2.44,3.414-1.416,5.244.789,1.409,2.353,2.119,3.853,1.895-.299,1.271-.457,2.578-.457,3.897,0,3.196.899,6.221,2.417,8.824-.584.023-1.169.182-1.707.493-1.799,1.042-2.44,3.414-1.416,5.244,1.024,1.83,3.357,2.481,5.156,1.44.968-.56,1.6-1.506,1.819-2.545,1.874,1.61,4.053,2.801,6.372,3.423,1.93.589,3.956.883,5.983.883,12.545,0,22.098-10.795,22.098-22.472,0-3.729-.868-7.556-2.798-10.991l-3.57-6.477c-1.158-2.061-1.737-4.416-1.737-6.575,0-4.318,2.026-8.439,5.597-11.089-2.123,2.257-2.991,5.103-2.991,7.949,0,6.869,5.5,11.776,11.58,11.776,1.628,0,3.143-.331,4.506-.918-5.156,3.386-8.857,6.223-10.335,7.665,0,0,12.671-3.797,7.01,12.67,5.966-8.513,11.426-13.458,15.516-16.305-1.681,1.87-3.211,3.868-4.651,5.931-.257.369-.512.739-.764,1.112-1.881,2.766-3.66,5.604-5.344,8.498-1.335,2.301-2.627,4.683-3.834,7.057-8.478,16.701-13.898,35.078-15.323,53.845,0,.002,0,.003,0,.005,0,.011-.002.023-.003.034-11.701,3.873-21.615,6.014-29.617,7.152-2.572-.856-4.745-2.422-6.52-4.7-2.445-3.135-3.44-6.691-2.988-10.666.452-3.974,2.218-7.192,5.299-9.654,3.084-2.486,6.568-3.501,10.452-3.044,3.859.454,7.036,2.252,9.528,5.394l3.394-2.769c-3.181-4.082-7.322-6.423-12.421-7.023-5.099-.6-9.656.719-13.67,3.954-4.015,3.237-6.317,7.448-6.907,12.634-.59,5.186.706,9.821,3.888,13.904.816,1.047,1.695,1.979,2.637,2.797-10.989.905-16.76-.23-16.76-.23,10.763,2.406,28.676,9.669,28.676,9.669,0,0,2.57-1.619,7.988-2.996-1.11,3.208-.497,7.477-.497,7.477,0,0,1.407.767,8.23,6.948-1.251.661-2.767,1.763-4.19,2.803-2.125,1.629-9.816,5.942-13.79,7.423-.809.293-1.503.381-2.009.277-.795-.162-1.141-.692-.996-1.426.551-2.791,7.32-10.044,7.726-12.101.319-1.616-1.023-2.807-2.613-3.132-1.228-.251-2.716.056-4.913.525-3.064.673-15.174,3.778-22.212,5.549-1.373.484-.839,1.586.418,1.308,9.423-2.431,19.409-5.052,21.576-4.609.506.103.823.397.707.985-.406,2.057-6.147,7.15-6.814,10.529-.464,2.351,1.254,3.924,3.854,4.456,2.6.531,4.941.092,7.413-1.007,2.298-.982,8.211-4.283,11.116-6.059-.217,2.464.399,4.615,1.752,6.27l-26.023,5.59c-2.088.448-3.732,1.449-4.933,3.001-1.201,1.553-1.62,3.203-1.256,4.952l2.64,12.71c.362,1.741,1.399,3.072,3.114,3.992,1.714.92,3.614,1.156,5.702.708l19.339-4.155-1.317-6.34-14.901,3.201c-1.231.264-2.353.119-3.365-.437-1.013-.556-1.628-1.356-1.845-2.402l-1.058-5.095c-.217-1.045.033-2.031.75-2.959.718-.928,1.69-1.524,2.919-1.787l17.95-3.866,3.951,19.021,7.52-1.615-4.481-21.57c.342.1.696.188,1.063.263,4.475.914,7.915.499,12.338-.542.066.176.133.353.2.529,6.397,16.583,18.447,29.644,37.184,28.394,18.485-1.065,28.931-16.141,33.958-32.772,3.109-10.186,4.507-20.846,5.009-31.456.006-.136.013-.272.019-.408.243-2.824.413-5.542.528-8.1l2.154.546c.387.098.624.835.791,1.314l2.608,7.473c.978,2.801,4.343,6.165,4.367,7.938.03,2.268-.025,4.476.175,6.73l.963,10.898c.081.922.02,1.751.312,2.597l1.019,2.96c.885,2.569-.304,5.436-.511,8.059-.352,4.444-1.67,8.422-3.667,12.313-2.906,5.662-1.206,9.138-5.882,9.625.113.715.18,1.393.044,1.862l7.042-.028.668-2.196c.349-1.148.74-2.049,1.906-2.931l.574,4.256c.215-2.25.691-4.366,1.626-6.42.614-1.349-.893-2.297-1.222-3.417-.381-1.298.594-2.978,1.123-4.256,1.343-3.246,2.625-6.29,3.764-9.582.72-2.081.889-4.271.619-6.402l-.552-4.354c-.114-.898-.738-1.55-.066-2.609l2.016,3.957,2.716,3.644c1.415,1.899,5.188,14.198,5.68,18.44.367,3.159,1.411,5.925,2.887,8.825-.391.437-1.049.693-1.745.952l-1.311,1.777,5.974-.036c1.679-3.422.175-3.286,1.382-6.271,1.04-2.57,2.982,4.355,3.42,4.026-.83-2.721-1.493-4.99-1.735-7.532ZM83.646,99.679c-.167-.114-.335-.228-.569-.092-.235.136-.224.34-.213.545l.011.204c-.023.329-.258.465-.459.476-.201.011-.413-.182-.424-.387l-.011-.204c-.055-.284-.144-.443-.312-.557-.167-.114-.447-.057-.603.033l-.078.045c-.235.136-.48.067-.614-.171-.134-.239-.066-.488.169-.624l.078-.045c.156-.091.347-.306.336-.51-.011-.204-.1-.364-.312-.557l-.167-.114c-.167-.114-.223-.398-.111-.568.112-.17.347-.306.637-.158l.167.114c.167.114.335.228.569.092.235-.136.224-.34.213-.545l-.011-.204c.023-.329.258-.465.459-.476.201-.011.413.182.424.387l.011.204c.055.284.144.443.312.557.167.114.447.058.603-.033l.078-.045c.235-.136.48-.067.614.171.134.239.066.488-.169.624l-.078.045c-.156.091-.347.306-.336.51.01.181.081.326.244.491-.128.282-.249.568-.363.856l-.095-.065ZM87.141,119.988c-.112.17-.347.306-.637.158l-.167-.114c-.167-.114-.335-.228-.569-.092-.235.136-.224.34-.213.545l.011.204c-.023.329-.258.465-.459.476-.201.011-.413-.182-.424-.387l-.011-.204c-.055-.284-.144-.443-.312-.557-.167-.114-.447-.058-.603.033l-.078.045c-.235.136-.48.067-.614-.171-.134-.239-.066-.488.169-.624l.078-.045c.156-.091.347-.306.336-.51-.011-.204-.1-.364-.312-.557l-.167-.114c-.167-.114-.223-.398-.111-.568.112-.17.347-.306.637-.158l.167.114c.167.114.335.228.569.092.235-.136.224-.34.213-.545l-.011-.204c.023-.329.258-.465.459-.476.201-.011.413.182.424.387l.011.204c.055.284.144.443.312.557.167.114.447.058.603-.033l.078-.045c.039-.022.077-.039.116-.05.174.211.353.417.535.619-.037.09-.106.168-.206.226l-.078.045c-.156.091-.347.306-.336.51.011.204.1.364.312.557l.167.114c.167.114.223.398.111.568ZM119.189,74.195c0-5.299,4.053-10.304,10.132-10.304,5.018,0,10.132,4.023,10.132,10.304,0,.981-.097,1.864-.386,2.846-1.061,4.122-5.018,7.458-9.746,7.458-5.018,0-10.132-3.925-10.132-10.304ZM113.362,207.889c-4.262-.871-5.951-2.591-5.065-7.072.352-1.783,1.108-2.661,1.676-3.511,1.831,1.694,3.946,3.676,6.386,5.994-8.329-12.727-8.524-27.262-.261-37.734,0,.003,0,.005,0,.008-1.131,14.175.55,28.565,5.348,41.949-3.139.67-5.45.905-8.084.367ZM233.001,233.75c-.605-.532-1.037-2.941.06-3.493.115-.058.503.409.479.537l-.54,2.956Z"/>
    <path d="M94.63,163.578c-1.25,1.008-2.649,1.42-4.198,1.237-1.549-.182-2.818-.908-3.808-2.179l-3.43,2.764c1.751,2.221,3.997,3.491,6.738,3.814l.004-.037c2.74.322,5.211-.381,7.412-2.112,2.182-1.781,3.432-4.064,3.749-6.851.317-2.786-.389-5.288-2.116-7.506-1.728-2.216-3.974-3.487-6.738-3.813-2.764-.325-5.236.391-7.416,2.147l2.723,3.451c1.222-.985,2.62-1.386,4.193-1.201l.004-.037c1.549.182,2.818.909,3.809,2.179.99,1.271,1.396,2.694,1.217,4.269-.179,1.575-.894,2.866-2.143,3.873Z"/>
    <path d="M70.085,123.012c-1.799,1.042-2.44,3.414-1.416,5.244,1.024,1.83,3.357,2.481,5.156,1.44,1.799-1.042,2.44-3.414,1.416-5.244-1.024-1.83-3.357-2.481-5.156-1.44ZM73.719,126.914l.167.114c.167.114.223.398.111.568-.112.17-.347.306-.637.158l-.167-.114c-.167-.114-.335-.228-.569-.092-.235.136-.224.34-.213.545l.011.204c-.023.329-.258.465-.459.476-.201.011-.413-.182-.424-.387l-.011-.204c-.055-.284-.144-.443-.312-.557-.167-.114-.447-.058-.603.033l-.078.045c-.235.136-.48.067-.614-.171-.134-.239-.066-.488.169-.624l.078-.045c.156-.091.347-.306.336-.51-.011-.204-.1-.364-.312-.557l-.167-.114c-.167-.114-.223-.398-.111-.568.112-.17.347-.306.637-.158l.167.114c.167.114.335.228.569.092.235-.136.224-.34.213-.545l-.011-.204c.023-.329.258-.465.459-.476.201-.011.413.182.424.387l.011.204c.055.284.144.443.312.557.167.114.447.058.603-.033l.078-.045c.235-.136.48-.067.614.171.134.239.066.488-.169.624l-.078.045c-.156.091-.347.306-.336.511.011.204.1.363.312.557Z"/>
    <path d="M102.804,134.833c1.799-1.042,2.44-3.414,1.416-5.244-1.024-1.83-3.357-2.481-5.156-1.44-1.799,1.042-2.44,3.414-1.416,5.244,1.024,1.83,3.357,2.481,5.156,1.44ZM99.17,130.932l-.167-.114c-.167-.114-.223-.398-.111-.568.112-.17.347-.306.637-.158l.167.114c.167.114.335.228.569.092.235-.136.224-.34.213-.545l-.011-.204c.023-.329.258-.465.459-.476.201-.011.413.182.424.387l.011.204c.055.284.144.443.312.557.167.114.447.058.603-.033l.078-.045c.235-.136.48-.067.614.171.134.239.066.488-.169.624l-.078.045c-.156.091-.347.306-.336.51.011.204.1.363.312.557l.167.114c.167.114.223.398.111.568-.112.17-.347.306-.637.158l-.167-.114c-.167-.114-.335-.228-.569-.092-.235.136-.224.34-.213.545l.011.204c-.023.329-.258.465-.459.476-.201.011-.413-.183-.424-.387l-.011-.204c-.055-.284-.144-.443-.312-.557s-.447-.058-.603.033l-.078.045c-.235.136-.48.067-.614-.171-.134-.239-.066-.488.169-.624l.078-.045c.156-.091.347-.306.336-.51-.011-.204-.1-.364-.312-.557Z"/>
    <path d="M76.657,119.209c-1.799,1.042-2.44,3.414-1.416,5.244,1.024,1.83,3.357,2.481,5.156,1.44,1.799-1.042,2.44-3.414,1.416-5.244-1.024-1.83-3.357-2.481-5.156-1.44ZM80.291,123.11l.167.114c.167.114.223.398.111.568-.112.17-.347.306-.637.158l-.167-.114c-.167-.114-.335-.228-.569-.092-.235.136-.224.34-.213.545l.011.204c-.023.329-.258.465-.459.476-.201.011-.413-.182-.424-.387l-.011-.204c-.055-.284-.144-.443-.312-.557-.167-.114-.447-.058-.603.033l-.078.045c-.235.136-.48.067-.614-.171s-.066-.488.169-.624l.078-.045c.156-.091.347-.306.336-.51-.011-.204-.1-.364-.312-.557l-.167-.114c-.167-.114-.223-.398-.111-.568.112-.17.347-.306.637-.158l.167.114c.167.114.335.228.569.092.235-.136.224-.34.213-.545l-.011-.204c.023-.329.258-.465.459-.476.201-.011.413.182.424.387l.011.204c.055.284.144.443.312.557s.447.058.603-.033l.078-.045c.235-.136.48-.067.614.171s.066.488-.169.624l-.078.045c-.156.091-.347.306-.336.511.011.204.1.363.312.557Z"/>
    <path d="M109.376,131.029c1.799-1.042,2.44-3.414,1.416-5.244-1.024-1.83-3.357-2.481-5.156-1.44-1.799,1.042-2.44,3.413-1.416,5.244,1.024,1.83,3.357,2.481,5.156,1.44ZM105.742,127.128l-.167-.114c-.167-.114-.223-.398-.111-.568.112-.17.347-.306.637-.158l.167.114c.167.114.335.228.569.092.235-.136.224-.34.213-.545l-.011-.204c.023-.329.258-.465.459-.476.201-.011.413.182.424.387l.011.204c.055.284.144.443.312.557.167.114.447.057.603-.033l.078-.045c.235-.136.48-.067.614.171.134.239.066.488-.169.624l-.078.045c-.156.091-.347.306-.336.51.011.204.1.364.312.557l.167.114c.167.114.223.398.111.568-.112.17-.347.306-.637.158l-.167-.114c-.167-.114-.335-.228-.569-.092-.235.136-.224.34-.213.545l.011.204c-.023.329-.258.465-.459.476-.201.011-.413-.183-.424-.387l-.011-.204c-.055-.284-.144-.443-.312-.557-.167-.114-.447-.058-.603.033l-.078.045c-.235.136-.48.067-.614-.171-.134-.239-.066-.488.169-.624l.078-.045c.156-.091.347-.306.336-.51-.011-.205-.1-.364-.312-.557Z"/>
    <path d="M91.742,99.522c-1.799,1.042-2.44,3.413-1.416,5.244,1.024,1.83,3.357,2.481,5.156,1.44,1.799-1.042,2.44-3.414,1.416-5.244-1.024-1.83-3.357-2.481-5.156-1.44ZM95.376,103.423l.167.114c.167.114.223.398.111.568-.112.17-.347.306-.637.158l-.167-.114c-.167-.114-.335-.228-.569-.092-.235.136-.224.34-.213.545l.011.204c-.023.329-.258.465-.459.476-.201.011-.413-.182-.424-.387l-.011-.204c-.055-.284-.144-.443-.312-.557-.167-.114-.447-.058-.603.033l-.078.045c-.235.136-.48.067-.614-.171-.134-.239-.066-.488.169-.624l.078-.045c.156-.091.347-.306.336-.51-.011-.204-.1-.364-.312-.557l-.167-.114c-.167-.114-.223-.398-.111-.568.112-.17.347-.306.637-.158l.167.114c.167.114.335.228.569.092.235-.136.224-.34.213-.545l-.011-.204c.023-.329.258-.465.459-.476.201-.011.413.182.424.387l.011.204c.055.284.144.443.312.557s.447.058.603-.033l.078-.045c.235-.136.48-.067.614.171.134.239.066.488-.169.624l-.078.045c-.156.091-.347.306-.336.51.011.204.1.364.312.557Z"/>
    <path d="M85.029,134.166c1.799-1.042,2.44-3.414,1.416-5.244-1.024-1.83-3.357-2.481-5.156-1.44-1.799,1.042-2.44,3.414-1.416,5.244,1.024,1.83,3.357,2.481,5.156,1.44ZM81.395,130.265l-.167-.114c-.167-.114-.223-.398-.111-.568.112-.17.347-.306.637-.158l.167.114c.167.114.335.228.569.092.235-.136.224-.34.213-.545l-.011-.204c.023-.329.258-.465.459-.476.201-.011.413.182.424.387l.011.204c.055.284.144.443.312.557.167.114.447.058.603-.033l.078-.045c.235-.136.48-.067.614.171.134.239.066.488-.169.624l-.078.045c-.156.091-.347.306-.336.51.011.204.1.364.312.557l.167.114c.167.114.223.398.111.568-.112.17-.347.306-.637.158l-.167-.114c-.167-.114-.335-.228-.569-.092-.235.136-.224.34-.213.545l.011.204c-.023.329-.258.465-.459.476-.201.011-.413-.182-.424-.387l-.011-.204c-.055-.284-.144-.443-.312-.557-.167-.114-.447-.057-.603.033l-.078.045c-.235.136-.48.067-.614-.171-.134-.239-.066-.488.168-.624l.078-.045c.156-.091.347-.306.336-.51-.011-.204-.1-.363-.312-.557Z"/>
    <path d="M73.967,98.855c-1.799,1.042-2.44,3.414-1.416,5.244,1.024,1.83,3.357,2.481,5.156,1.44,1.799-1.042,2.44-3.414,1.416-5.244-1.024-1.83-3.357-2.481-5.156-1.44ZM77.6,102.757l.167.114c.167.114.223.398.111.568-.112.17-.347.306-.637.158l-.167-.114c-.167-.114-.335-.228-.569-.092-.235.136-.224.34-.213.545l.011.204c-.023.329-.258.465-.459.476-.201.011-.413-.182-.424-.387l-.011-.204c-.055-.284-.144-.443-.312-.557-.167-.114-.447-.058-.603.033l-.078.045c-.235.136-.48.067-.614-.171-.134-.239-.066-.488.169-.624l.078-.045c.156-.091.347-.306.336-.51-.011-.204-.1-.364-.312-.557l-.167-.114c-.167-.114-.223-.398-.111-.568.112-.17.347-.306.637-.158l.167.114c.167.114.335.228.569.092.235-.136.224-.34.213-.545l-.011-.204c.023-.329.258-.465.459-.476.201-.011.413.182.424.387l.011.204c.055.284.144.443.312.557.167.114.447.058.603-.033l.078-.045c.235-.136.48-.067.614.171.134.239.066.488-.169.624l-.078.045c-.156.091-.347.306-.336.51.011.204.1.364.312.557Z"/>
    <path d="M75.767,117.617c1.799-1.042,2.44-3.414,1.416-5.244-1.024-1.83-3.357-2.481-5.156-1.44-1.799,1.042-2.44,3.414-1.416,5.244,1.024,1.83,3.357,2.481,5.156,1.44ZM72.133,113.716l-.167-.114c-.167-.114-.223-.398-.111-.568.112-.17.347-.306.637-.158l.167.114c.167.114.335.228.569.092.235-.136.224-.34.213-.545l-.011-.204c.023-.329.258-.465.459-.476.201-.011.413.182.424.387l.011.204c.055.284.144.443.312.557.167.114.447.058.603-.033l.078-.045c.235-.136.48-.067.614.171.134.239.066.488-.169.624l-.078.045c-.156.091-.347.306-.336.51.011.204.1.363.312.557l.167.114c.167.114.223.398.111.568-.112.17-.347.306-.637.158l-.167-.114c-.167-.114-.335-.228-.569-.092-.235.136-.224.34-.213.545l.011.204c-.023.329-.258.465-.459.476-.201.011-.413-.182-.424-.387l-.011-.204c-.055-.284-.144-.443-.312-.557-.167-.114-.447-.058-.603.033l-.078.045c-.235.136-.48.067-.614-.171-.134-.239-.066-.488.169-.624l.078-.045c.156-.091.347-.306.336-.51-.011-.204-.1-.364-.312-.557Z"/>
    <path d="M92.492,131.954c-1.799,1.042-2.44,3.413-1.416,5.244,1.024,1.83,3.357,2.481,5.156,1.44,1.799-1.042,2.44-3.414,1.416-5.244-1.024-1.83-3.357-2.481-5.156-1.44ZM96.125,135.855l.167.114c.167.114.223.398.111.568-.112.17-.347.306-.637.158l-.167-.114c-.167-.114-.335-.228-.569-.092-.235.136-.224.34-.213.545l.011.204c-.023.329-.258.465-.459.476-.201.011-.413-.182-.424-.387l-.011-.204c-.055-.284-.144-.443-.312-.557-.167-.114-.447-.058-.603.033l-.078.045c-.235.136-.48.067-.614-.171-.134-.239-.066-.488.169-.624l.078-.045c.156-.091.347-.306.336-.51-.011-.205-.1-.364-.312-.557l-.167-.114c-.167-.114-.223-.398-.111-.568.112-.17.347-.306.637-.158l.167.114c.167.114.335.228.569.092.235-.136.224-.34.213-.545l-.011-.204c.023-.329.258-.465.459-.476.201-.011.413.182.424.387l.011.204c.055.284.144.443.312.557.167.114.447.058.603-.033l.078-.045c.235-.136.48-.067.614.171.134.239.066.488-.169.624l-.078.045c-.156.091-.347.306-.336.51.011.204.1.363.312.557Z"/>
    <path d="M93.542,118.284c1.799-1.042,2.44-3.414,1.416-5.244-1.024-1.83-3.357-2.481-5.156-1.44-1.799,1.042-2.44,3.414-1.416,5.244,1.024,1.83,3.357,2.481,5.156,1.44ZM89.908,114.383l-.167-.114c-.167-.114-.223-.398-.111-.568.112-.17.347-.306.637-.158l.167.114c.167.114.335.228.569.092.235-.136.224-.34.213-.545l-.011-.204c.023-.329.258-.465.459-.476.201-.011.413.182.424.387l.011.204c.055.284.144.443.312.557.167.114.447.058.603-.033l.078-.045c.235-.136.48-.067.614.171.134.239.066.488-.169.624l-.078.045c-.156.091-.347.306-.336.511.011.204.1.363.312.557l.167.114c.167.114.223.398.111.568-.112.17-.347.306-.637.158l-.167-.114c-.167-.114-.335-.228-.569-.092-.235.136-.224.34-.213.545l.011.204c-.023.329-.258.465-.459.476-.201.011-.413-.182-.424-.387l-.011-.204c-.055-.284-.144-.443-.312-.557-.167-.114-.447-.058-.603.033l-.078.045c-.235.136-.48.067-.614-.171s-.066-.488.169-.624l.078-.045c.156-.091.347-.306.336-.51-.011-.204-.1-.364-.312-.557Z"/>
    <path d="M100.114,114.48c1.799-1.042,2.44-3.414,1.416-5.244-1.024-1.83-3.357-2.481-5.156-1.44-1.799,1.042-2.44,3.414-1.416,5.244,1.024,1.83,3.357,2.481,5.156,1.44ZM96.48,110.579l-.167-.114c-.167-.114-.223-.398-.111-.568.112-.17.347-.306.637-.158l.167.114c.167.114.335.228.569.092.235-.136.224-.34.213-.545l-.011-.204c.023-.329.258-.465.459-.476.201-.011.413.182.424.387l.011.204c.055.284.144.443.312.557.167.114.447.058.603-.033l.078-.045c.235-.136.48-.067.614.171.134.239.066.488-.169.624l-.078.045c-.156.091-.347.306-.336.51.011.204.1.364.312.557l.167.114c.167.114.223.398.111.568-.112.17-.347.306-.637.158l-.167-.114c-.167-.114-.335-.228-.569-.092-.235.136-.224.34-.213.545l.011.204c-.023.329-.258.465-.459.476-.201.011-.413-.182-.424-.387l-.011-.204c-.055-.284-.144-.443-.312-.557-.167-.114-.447-.058-.603.033l-.078.045c-.235.136-.48.067-.614-.171-.134-.239-.066-.488.169-.624l.078-.045c.156-.091.347-.306.336-.51-.011-.204-.1-.364-.312-.557Z"/>
    <path d="M107.738,157.679c-1.799,1.042-2.44,3.414-1.416,5.244,1.024,1.83,3.357,2.481,5.156,1.44,1.799-1.042,2.44-3.414,1.416-5.244-1.024-1.83-3.357-2.481-5.156-1.44ZM110.024,158.989l.011.204c.055.284.144.443.312.557.167.114.447.058.603-.033l.078-.045c.235-.136.48-.067.614.171.134.239.066.488-.169.624l-.078.045c-.156.091-.347.306-.336.51.011.204.1.364.312.557l.167.114c.167.114.223.398.111.568-.112.17-.347.306-.637.158l-.167-.114c-.167-.114-.335-.228-.569-.092-.235.136-.224.34-.213.545l.011.204c-.023.329-.258.465-.459.476-.201.011-.413-.182-.424-.387l-.011-.204c-.055-.284-.144-.443-.312-.557-.167-.114-.446-.057-.603.033l-.078.045c-.235.136-.48.067-.614-.171-.134-.239-.066-.488.169-.624l.078-.045c.156-.091.347-.306.336-.51s-.1-.363-.312-.557l-.167-.114c-.167-.114-.223-.398-.111-.568.112-.17.347-.306.637-.158l.167.114c.167.114.335.228.569.092.235-.136.224-.34.213-.545l-.011-.204c.023-.329.258-.465.459-.476.201-.011.413.182.424.387Z"/>
    <path d="M76.548,187.773c1.799-1.042,2.44-3.414,1.416-5.244-1.024-1.83-3.357-2.481-5.156-1.44-1.799,1.042-2.44,3.414-1.416,5.244,1.024,1.83,3.357,2.481,5.156,1.44ZM72.914,183.872l-.167-.114c-.167-.114-.223-.398-.111-.568.112-.17.347-.306.637-.158l.167.114c.167.114.335.228.569.092.235-.136.224-.34.213-.545l-.011-.204c.023-.329.258-.465.459-.476.201-.011.413.182.424.387l.011.204c.055.284.144.443.312.557.167.114.447.058.603-.033l.078-.045c.235-.136.48-.067.614.171.134.239.066.488-.169.624l-.078.045c-.156.091-.347.306-.336.51.011.204.1.364.312.557l.167.114c.167.114.223.398.111.568-.112.17-.347.306-.637.158l-.167-.114c-.167-.114-.335-.228-.569-.092-.235.136-.224.34-.213.545l.011.204c-.023.329-.258.465-.459.476-.201.011-.413-.182-.424-.387l-.011-.204c-.055-.284-.144-.443-.312-.557-.167-.114-.446-.057-.603.033l-.078.045c-.235.136-.48.067-.614-.171-.134-.239-.066-.488.169-.624l.078-.045c.156-.091.347-.306.336-.51-.011-.204-.1-.363-.312-.557Z"/>
    <path d="M118.264,230.194c-1.799,1.042-2.44,3.414-1.416,5.244,1.024,1.83,3.357,2.481,5.156,1.44,1.799-1.042,2.44-3.414,1.416-5.244-1.024-1.83-3.357-2.481-5.156-1.44ZM121.897,234.095l.167.114c.167.114.223.398.111.568-.112.17-.347.306-.637.158l-.167-.114c-.167-.114-.335-.228-.569-.092-.235.136-.224.34-.213.545l.011.204c-.023.329-.258.465-.459.476-.201.011-.413-.182-.424-.387l-.011-.204c-.055-.284-.144-.443-.312-.557-.167-.114-.447-.057-.603.033l-.078.045c-.235.136-.48.067-.614-.171-.134-.239-.066-.488.168-.624l.078-.045c.156-.091.347-.306.336-.51-.011-.204-.1-.364-.312-.557l-.167-.114c-.167-.114-.223-.398-.111-.568.112-.17.347-.306.637-.158l.167.114c.167.114.335.228.569.092.235-.136.224-.34.213-.545l-.011-.204c.023-.329.258-.465.459-.476.201-.011.413.182.424.387l.011.204c.055.284.144.443.312.557.167.114.447.058.603-.033l.078-.045c.235-.136.48-.067.614.171.134.239.066.488-.169.624l-.078.045c-.156.091-.347.306-.336.51.011.204.1.364.312.557Z"/>
    <path d="M207.417,73.622c-.056,1.34-.36,2.641-.853,3.891-.724,1.835-1.779,3.561-2.756,5.282-1.653,2.847-3.154,5.889-3.961,9.154-1.181,4.242-2.405,8.851-5.6,12.028-2.068,2.023-4.745,3.002-7.638,3.495-2.181.368-4.494.47-6.764.425-.722-.027-1.454-.092-2.167-.204-2.793-.442-5.564-1.51-7.643-3.455-2.032-1.882-2.95-4.567-3.149-7.282-.208-3.011.216-5.932.921-8.914.51-2.024,1.075-4.049,1.959-5.963l-.052-.04c-.352.4-.665.834-.971,1.272-.914,1.33-1.713,2.734-2.438,4.178-1.038,2.087-1.91,4.302-2.476,6.575-.242.982-.408,1.988-.557,2.991-.253,1.917-.294,3.859.144,5.761.719,3.329,3.166,6.276,6.268,7.619,2.884,1.291,6.142,1.03,9.179.9,3.857-.157,7.835-.432,11.539-1.703,6.645-2.225,9.569-7.451,11.567-13.774.452-1.382.804-2.789,1.23-4.176.34-1.055.784-2.072,1.305-3.053,1.208-2.286,2.867-4.358,4.233-6.568,1.618-2.612,2.613-5.391,2.433-8.503-.217-4.287-3.292-8.388-7.649-8.992-.561-.081-1.122-.1-1.675-.051l-.014.064c.48.272.938.543,1.365.839,2.744,1.838,4.339,4.94,4.219,8.204Z"/>
    <path d="M157.171,136.593c4.408-2.617,10.454-8.13,10.454-8.13,0,0-.28-7.54-1.942-13.431,0,0-.395,13.146-8.512,21.561Z"/>
    <path d="M172.122,80.014c4.633-3.659,12.86-4.266,17.133-1.942,0,0-.482-2.991-.302-5.673-6.13.215-10.88,1.575-16.831,7.615Z"/>
  </g>
  <path d="M156.869,243.906c-4.955,0-9.704-.892-14.114-2.65-4.124-1.644-7.985-4.06-11.476-7.18-.459-.41-.917-.837-1.369-1.278.267,3.73-1.602,7.395-4.887,9.296-1.478.855-3.162,1.308-4.871,1.308-3.55,0-6.832-1.924-8.565-5.021-.194-.346-.367-.706-.519-1.075l-4.3.924c-.518.111-1.054.154-1.584.126-.472.244-.977.424-1.501.536l-19.339,4.155c-1.096.235-2.192.355-3.258.355-2.321,0-4.528-.553-6.561-1.645-3.304-1.773-5.435-4.566-6.165-8.077l-2.64-12.71c-.726-3.494.101-6.906,2.39-9.866,1.563-2.019,3.661-3.571,6.095-4.511-.102-.266-.192-.537-.269-.811-.398-1.418-.448-2.901-.15-4.409.138-.696.355-1.399.658-2.125-2.426.605-5.019,1.274-7.536,1.924l-1.171.302c-.067.017-.135.034-.204.049-.56.124-1.128.187-1.687.187-1.37,0-2.684-.374-3.802-1.081-1.58-1-2.665-2.616-2.976-4.434-.33-1.93.229-3.902,1.533-5.41.835-.965,1.914-1.686,3.209-2.142.173-.061.352-.115.531-.16.947-.238,1.984-.5,3.08-.778-.831-2.381-.721-4.984.31-7.305-1.73-.499-3.286-.904-4.634-1.205-3.234-.723-5.3-3.934-4.606-7.158.292-1.356,1.044-2.578,2.117-3.441,1.061-.854,2.392-1.324,3.746-1.324.401,0,.806.041,1.203.122.203.036,1.703.285,4.458.406-.244-.649-.46-1.308-.645-1.969-.855-3.059-1.095-6.313-.714-9.67.382-3.359,1.347-6.474,2.869-9.258,1.527-2.793,3.627-5.278,6.243-7.388.416-.335.844-.66,1.281-.97-.94-.752-1.743-1.678-2.349-2.715-.888.26-1.804.391-2.729.391-3.55,0-6.832-1.924-8.565-5.021-1.126-2.011-1.511-4.375-1.086-6.656.393-2.107,1.453-4.032,3.003-5.466-1.107-2.002-1.484-4.348-1.062-6.612.393-2.107,1.453-4.032,3.003-5.466-2.597-4.695-.953-10.68,3.68-13.362,1.118-.647,2.381-1.071,3.667-1.232.789-1.048,1.766-1.912,2.905-2.572,1.478-.855,3.162-1.307,4.871-1.307.587,0,1.174.052,1.749.155,1.364-1.28,2.861-2.39,4.453-3.299,3.42-1.954,7.293-2.987,11.201-2.987,3.024,0,6.006.617,8.862,1.833.072.03.143.061.215.093-.803-2.223-1.209-4.567-1.209-6.986,0-2.747.543-5.448,1.615-8.027,1.032-2.483,2.5-4.73,4.365-6.678,1.901-1.986,4.112-3.554,6.572-4.66,2.617-1.177,5.389-1.774,8.241-1.774,4.505,0,9.025,1.668,12.402,4.576,2.988,2.574,4.956,5.946,5.721,9.788,3.518-1.851,7.029-3.557,10.448-5.075,9.954-4.42,19.171-7.289,27.393-8.528,2.998-.505,5.956-.762,8.794-.762,1.595,0,2.779.082,3.493.152.396.024.793.084,1.179.179.182.043.368.097.55.157,1.084.351,2.184.957,3.27,1.8.254-.015.506-.022.753-.022.631,0,1.273.046,1.91.137,3.557.497,6.823,2.366,9.197,5.264,2.163,2.641,3.452,5.969,3.628,9.372.231,4.085-.857,8.012-3.328,12.002-.611.988-1.245,1.912-1.859,2.805-.825,1.201-1.601,2.33-2.169,3.405l-.008.014c-.367.69-.663,1.375-.878,2.035-.159.521-.316,1.076-.468,1.612-.237.839-.481,1.701-.773,2.597-1.364,4.308-2.949,7.561-4.987,10.233-1.086,1.424-2.328,2.697-3.693,3.788-.012.121-.028.239-.047.353-.049.297-.108.605-.174.918.321,2.024.206,3.437.019,4.651.162.345.508,1.011,1.225,2.159,1.622,2.599,3.313,4.734,5.324,6.718.898.886,1.702,1.964,2.448,3.284,1.16-.401,2.374-.603,3.615-.603,4.112,0,7.96,2.19,10.043,5.716,2.796,4.733,3.331,6.377,3.519,8.46.037.102.117.305.272.641l1.185,2.566c.366.792.558,1.672.555,2.544,0,.222-.002.446-.004.671-.008,1.006-.016,1.952.095,2.634.304,1.865.144,3.471-.488,4.909-.212.482-.477.939-.789,1.363.046.938-.128,1.881-.507,2.739-.214.484-.85,1.697-2.174,2.592-.774.79-1.74,1.348-2.808,1.622l-.819,1.009c.165.099.324.193.471.279,1.785,1.048,3.244,2.387,4.337,3.978.973,1.417,1.655,3.036,2.027,4.814.578,2.759.318,5.411.109,7.541-.07.72-.2,2.04-.153,2.474.125.423.254.848.379,1.262l.02.067c.645,2.134,1.312,4.341,1.778,6.812.323,1.713.721,2.894,1.288,3.832.28.462.572.928.881,1.422l.01.015c1.573,2.51,3.357,5.354,4.26,8.923.53,2.095.772,4.601,1.006,7.025.142,1.469.288,2.987.486,4.235.039.247.08.48.121.695.404.139.789.3,1.15.48,2.473,1.231,4.037,3.462,4.29,6.12.184,1.93.713,3.765,1.5,6.344.738,2.418-.125,5.062-2.146,6.58-1.047.786-2.344,1.219-3.653,1.219-.028,0-.056,0-.084,0-1.13,1.393-2.847,2.224-4.649,2.235-2.24.013-6,.036-6.011.036-2.28,0-4.338-1.262-5.372-3.294-1.041-2.046-.841-4.464.521-6.311l.595-.807c-.797-2.172-1.309-4.293-1.563-6.475-.088-.755-.436-2.491-1.132-5.087-.374.918-.755,1.837-1.15,2.792l-.336.811c-.119.287-.239.556-.357.816.241.43.436.857.595,1.296.683,1.892.604,3.934-.223,5.752-.589,1.294-.942,2.723-1.111,4.496-.291,3.05-2.821,5.395-5.884,5.454-.041,0-.084,0-.125.001-.006,0-.013,0-.019,0-.934.566-2.001.866-3.096.87-2.636.011-7.059.028-7.066.028-1.88,0-3.679-.896-4.812-2.397-.946-1.253-1.368-2.858-1.165-4.413-.006-.041-.013-.089-.022-.143-.256-1.626.173-3.307,1.176-4.612.74-.962,1.768-1.686,2.921-2.06.011-.042.021-.083.031-.123.415-1.631.982-3.863,2.346-6.52,1.796-3.498,2.756-6.687,3.021-10.036.092-1.163.3-2.249.484-3.207.1-.521.402-2.095.329-2.436l-1.012-2.939c-.491-1.426-.547-2.637-.587-3.521-.009-.191-.017-.372-.029-.508l-.963-10.898c-.012-.131-.022-.261-.033-.39-.897,6.278-2.166,12.07-3.844,17.57-1.425,4.714-3.194,9.101-5.257,13.04-2.309,4.406-5.009,8.288-8.026,11.538-3.381,3.643-7.202,6.541-11.358,8.612-4.516,2.251-9.466,3.547-14.713,3.853-.944.063-1.898.094-2.831.094ZM128.184,229.528l1.342,1.403c.796.832,1.619,1.629,2.447,2.369,3.4,3.038,7.158,5.39,11.168,6.989,4.287,1.709,8.906,2.576,13.728,2.576.91,0,1.841-.031,2.766-.092,5.11-.298,9.924-1.558,14.313-3.746,4.043-2.015,7.764-4.837,11.059-8.388,2.954-3.183,5.6-6.989,7.867-11.314,2.033-3.88,3.777-8.207,5.183-12.859,2.195-7.195,3.684-14.899,4.552-23.552l.15-1.5.807,1.273c.05.079.097.154.139.224l.074.122v.143c.003.293.004.585.005.873.007,1.747.014,3.552.182,5.448l.963,10.898c.014.158.023.349.032.552.038.821.089,1.945.532,3.23l1.025,2.98c.131.444-.006,1.372-.305,2.929-.179.933-.382,1.989-.469,3.095-.276,3.49-1.271,6.804-3.132,10.429-1.31,2.552-1.861,4.719-2.263,6.301-.033.129-.069.27-.106.412l-.076.293-.293.079c-1.052.282-1.998.914-2.662,1.777-.83,1.08-1.185,2.47-.973,3.816.015.097.026.174.034.234l.01.072-.01.072c-.188,1.306.161,2.659.956,3.713.937,1.242,2.425,1.984,3.981,1.983.04,0,7.062-.028,7.062-.028.95-.004,1.875-.277,2.674-.79l.136-.087.161.005c.051.001.104.003.154.002.033,0,.065,0,.098,0,2.535-.049,4.628-1.989,4.869-4.512.181-1.892.562-3.426,1.2-4.828.714-1.569.782-3.333.192-4.967-.165-.457-.377-.9-.648-1.355l-.139-.233.182-.404c.126-.28.257-.569.383-.873l.336-.811c.599-1.445,1.164-2.81,1.721-4.206l.566-1.421.418,1.471c.988,3.476,1.461,5.755,1.574,6.729.254,2.185.778,4.309,1.602,6.493l.1.265-.93,1.261c-1.127,1.528-1.292,3.529-.431,5.222.855,1.681,2.559,2.725,4.445,2.725.049,0,6.004-.036,6.004-.036,1.568-.009,3.059-.769,3.988-2.032l.168-.228.282.017c1.19.07,2.383-.291,3.33-1.002,1.672-1.256,2.386-3.443,1.776-5.444h0c-.805-2.64-1.348-4.522-1.541-6.549-.218-2.292-1.573-4.219-3.717-5.287-.404-.201-.826-.369-1.291-.515l-.29-.091-.064-.297c-.066-.309-.13-.659-.191-1.041-.203-1.279-.351-2.813-.494-4.297-.23-2.385-.468-4.852-.979-6.87-.863-3.41-2.6-6.181-4.133-8.625l-.01-.016c-.311-.497-.606-.966-.89-1.436-.635-1.049-1.073-2.338-1.421-4.178-.456-2.416-1.115-4.596-1.752-6.704l-.02-.067c-.129-.428-.263-.869-.392-1.307l-.011-.036-.005-.037c-.07-.482.023-1.534.143-2.757.202-2.062.453-4.625-.092-7.228-.344-1.642-.972-3.135-1.867-4.438-1.006-1.465-2.354-2.699-4.006-3.67-.299-.176-.651-.384-.998-.6l-.502-.312,1.792-2.207.176-.04c.957-.215,1.823-.703,2.504-1.412l.04-.042.048-.032c1.127-.746,1.665-1.771,1.844-2.177.337-.762.478-1.604.409-2.436l-.017-.203.126-.161c.313-.4.574-.837.778-1.301.549-1.249.684-2.663.413-4.323-.125-.77-.117-1.758-.109-2.805.002-.227.004-.449.004-.67.002-.722-.157-1.45-.46-2.105l-1.185-2.566c-.205-.444-.297-.693-.334-.802l-.02-.058-.01-.109c-.171-1.924-.679-3.467-3.38-8.039-1.897-3.21-5.402-5.204-9.147-5.204-1.265,0-2.498.232-3.665.69l-.43.169-.219-.407c-.758-1.411-1.57-2.534-2.481-3.433-2.07-2.043-3.81-4.238-5.476-6.907-.817-1.31-1.189-2.044-1.357-2.43l-.061-.14.024-.151c.178-1.101.338-2.452-.009-4.57l-.016-.098.021-.097c.072-.329.134-.654.185-.964.025-.154.044-.317.055-.486l.015-.232.184-.143c1.366-1.067,2.605-2.325,3.685-3.74,1.963-2.573,3.496-5.726,4.823-9.92.287-.88.528-1.732.761-2.556.155-.549.314-1.111.477-1.644l.003-.009c.234-.719.554-1.461.951-2.206l.006-.012c.596-1.129,1.389-2.282,2.228-3.503.61-.888,1.238-1.802,1.835-2.769,2.355-3.802,3.392-7.53,3.173-11.398-.165-3.185-1.371-6.299-3.394-8.769-2.207-2.694-5.239-4.432-8.537-4.893-.59-.084-1.182-.127-1.764-.127-.287,0-.583.011-.879.033l-.204.015-.16-.128c-1.039-.83-2.084-1.419-3.105-1.75-.158-.052-.314-.097-.47-.134-.332-.081-.669-.132-1.006-.152l-.02-.002c-.691-.067-1.841-.148-3.402-.148-2.782,0-5.684.252-8.626.748h-.009c-8.131,1.226-17.259,4.069-27.129,8.452-3.601,1.599-7.307,3.408-11.014,5.377l-.644.342-.114-.721c-.615-3.891-2.516-7.306-5.499-9.874-3.191-2.748-7.463-4.324-11.722-4.324-2.703,0-5.332.566-7.814,1.683-2.337,1.052-4.439,2.542-6.247,4.431-1.776,1.855-3.174,3.994-4.156,6.358-1.019,2.452-1.535,5.018-1.535,7.628,0,2.73.544,5.358,1.616,7.81l.58,1.325-1.291-.652c-.443-.224-.901-.437-1.36-.632-2.726-1.161-5.571-1.749-8.454-1.749-3.727,0-7.422.986-10.685,2.85-1.595.912-3.091,2.033-4.445,3.333l-.198.19-.269-.056c-.591-.123-1.199-.186-1.807-.186-1.526,0-3.03.404-4.349,1.167-1.078.624-1.993,1.454-2.719,2.466l-.137.191-.234.024c-1.22.123-2.424.511-3.482,1.124-4.158,2.407-5.625,7.788-3.269,11.996.051.091.108.188.176.299l.234.381-.342.289c-1.545,1.305-2.604,3.135-2.98,5.153-.381,2.042-.036,4.157.971,5.956.051.091.109.189.176.299l.234.381-.342.288c-1.545,1.305-2.604,3.135-2.98,5.153-.381,2.042-.036,4.157.971,5.956,1.549,2.768,4.483,4.488,7.657,4.488.956,0,1.902-.157,2.809-.467l.421-.144.207.394c.035.067.071.134.108.2.66,1.179,1.6,2.204,2.719,2.966l.637.433-.64.429c-.619.416-1.229.865-1.812,1.334-2.509,2.023-4.523,4.404-5.983,7.077-1.457,2.665-2.381,5.651-2.748,8.876-.367,3.224-.137,6.343.682,9.272.245.877.548,1.751.901,2.599l.31.745-.807-.025c-3.369-.106-5.208-.417-5.407-.452l-.014-.003c-.331-.068-.668-.102-1.002-.102-1.118,0-2.216.389-3.094,1.094-.888.714-1.51,1.726-1.752,2.849-.575,2.667,1.137,5.325,3.815,5.923,1.521.34,3.3.809,5.289,1.394l.607.178-.292.561c-1.23,2.364-1.351,5.116-.331,7.552l.233.557-.586.148c-1.308.331-2.54.643-3.65.922-.148.037-.296.082-.439.132-1.122.395-2.053,1.014-2.768,1.841-1.1,1.272-1.571,2.931-1.294,4.554.261,1.528,1.175,2.887,2.506,3.729.951.602,2.073.919,3.245.919.484,0,.976-.054,1.462-.162.056-.012.112-.026.168-.04l1.171-.302c2.889-.746,5.875-1.517,8.6-2.188l1.103-.271-.515,1.013c-.512,1.007-.848,1.942-1.029,2.858-.266,1.346-.222,2.667.131,3.926.113.404.258.8.431,1.178l.239.522-.543.187c-2.463.847-4.583,2.353-6.132,4.354-2.098,2.712-2.857,5.83-2.195,9.018l2.64,12.71c.665,3.2,2.614,5.749,5.638,7.372,1.88,1.009,3.922,1.521,6.069,1.521.992,0,2.015-.112,3.039-.332l19.339-4.155c.476-.102.932-.272,1.355-.504l.136-.075.155.012c.476.037.967.005,1.438-.096l5.182-1.113.153.43c.166.464.371.916.611,1.344,1.549,2.768,4.483,4.488,7.657,4.488,1.526,0,3.03-.404,4.35-1.168,3.367-1.949,5.07-5.97,4.142-9.78l-.46-1.886ZM156.802,227.067c-4.96,0-9.261-1.457-13.153-4.455-3.577-2.756-6.73-6.795-9.371-12.006-2.406-4.748-4.325-10.322-5.702-16.567-1.2-5.444-1.935-11.217-2.123-16.695-.083-3.607.043-7.38.373-11.221l.028-.332.313-.113c9.212-3.331,18.711-7.526,27.47-12.131,5.288-2.78,10.4-5.769,14.785-8.643l1.154-.757-.367,1.33c-.142.514-.285.998-.403,1.362-.782,2.402.357,5.012,2.649,6.071.662.306,1.365.461,2.09.461,1.747,0,3.336-.888,4.251-2.375.243-.395,6.012-9.791,11.139-19.602l.414-.793,5.874,9.122.358.791-.398.238c-1.146.687-1.954,1.779-2.277,3.074h0c-3.877,15.576-18.446,30.026-18.593,30.17-1.872,1.832-2.003,4.823-.299,6.811.949,1.107,2.33,1.742,3.79,1.742,1.084,0,2.117-.344,2.986-.995l4.844-3.627-.087,1.143c-.222,2.915-.528,5.769-.91,8.482l-.002.013c-1.022,7.427-3.262,18.035-8.128,26.41-2.278,3.92-4.933,6.995-7.893,9.14-3.245,2.352-6.834,3.622-10.973,3.883l-.038.002c-.603.042-1.21.064-1.801.064ZM127.835,166.544c-.306,3.689-.421,7.311-.341,10.77.186,5.409.912,11.117,2.099,16.501,1.358,6.16,3.247,11.65,5.614,16.32,2.57,5.071,5.625,8.992,9.078,11.652,3.702,2.852,7.796,4.239,12.514,4.239.57,0,1.152-.021,1.734-.062l.044-.003c3.934-.248,7.345-1.454,10.426-3.687,2.842-2.059,5.4-5.027,7.604-8.82,4.781-8.228,6.988-18.695,7.997-26.026l.003-.022c.328-2.331.6-4.771.81-7.265l-3.003,2.249c-1.051.787-2.299,1.203-3.61,1.203-1.764,0-3.433-.767-4.58-2.105-2.059-2.402-1.901-6.018.361-8.232.144-.141,14.505-14.384,18.312-29.679.351-1.408,1.177-2.618,2.347-3.451l-4.802-7.457c-5.034,9.551-10.522,18.488-10.759,18.874-1.106,1.797-3.026,2.87-5.137,2.87-.877,0-1.727-.187-2.527-.557-2.763-1.277-4.139-4.418-3.21-7.314-4.136,2.653-8.839,5.377-13.687,7.926-8.701,4.575-18.128,8.746-27.286,12.075ZM125.679,226.425l-1.768-.849c-1.18-.567-2.493-.866-3.796-.866-.874,0-1.743.133-2.583.394l-.548.17-2.153-10.364.615-.024c.99-.038,1.987-.128,3.048-.273l.386-.053.16.355c1.336,2.973,2.841,5.769,4.47,8.312.339.528.693,1.061,1.054,1.584l1.114,1.614ZM120.115,223.669c.904,0,1.811.129,2.685.377-.056-.086-.111-.172-.166-.258-1.593-2.484-3.066-5.206-4.384-8.094-.731.092-1.451.16-2.151.201l1.674,8.06c.767-.191,1.552-.287,2.342-.287ZM112.637,152.723l-.562-.166c-.81-.24-1.646-.361-2.486-.361-.197,0-.403.008-.612.022l-1.638.116,1.461-1.192c1.016-.829,1.656-2.003,1.803-3.306s-.216-2.59-1.022-3.624c-1.265-1.622-2.689-3.056-4.234-4.262l-.599-.468.653-.389c1.037-.618,1.919-1.428,2.621-2.407l.137-.191.234-.024c1.22-.123,2.424-.511,3.482-1.124,3.619-2.095,5.273-6.509,3.934-10.496l-.126-.375.327-.222c1.615-1.095,3.129-2.382,4.5-3.823.192-.202.385-.411.572-.619l2.03-2.264-1.162,2.81c-2.18,5.271-4.072,10.685-5.625,16.093-1.485,5.169-2.692,10.449-3.589,15.695l-.099.578ZM110.246,151.176c.525.035,1.047.113,1.561.233.893-5.099,2.075-10.225,3.518-15.247,1.326-4.617,2.898-9.238,4.683-13.772-.978.91-2.013,1.748-3.094,2.504,1.273,4.353-.585,9.076-4.517,11.352-1.118.647-2.381,1.071-3.667,1.232-.615.815-1.344,1.521-2.176,2.105,1.395,1.158,2.687,2.497,3.849,3.987.974,1.25,1.413,2.806,1.236,4.381-.136,1.205-.621,2.319-1.392,3.225ZM104.961,116.997l.756-1.252c1.654-2.742,1.718-6.17.165-8.944-.766-1.369-1.891-2.51-3.252-3.3l-.266-.154.007-.307c.036-1.579-.352-3.139-1.121-4.512-.589-1.053-1.377-1.958-2.341-2.692l-1.126-.857,1.413-.077c.216-.012.411-.017.596-.017,2.726,0,5.483,1.159,7.562,3.178h0c2.175,2.112,3.373,4.928,3.373,7.928,0,1.107-.132,2.138-.393,3.067-.397,1.413-.154,2.922.668,4.14l.263.39-.362.301c-1.057.88-2.22,1.609-3.459,2.169-.359.163-.732.313-1.107.448l-1.377.494ZM103.414,102.758c1.405.875,2.568,2.092,3.376,3.535,1.499,2.678,1.651,5.899.474,8.7.926-.441,1.806-.985,2.623-1.623-.787-1.393-.991-3.042-.554-4.595.235-.837.354-1.774.354-2.785,0-2.717-1.086-5.267-3.057-7.182-1.674-1.626-3.824-2.637-6.005-2.844.598.612,1.112,1.3,1.534,2.055.81,1.447,1.241,3.08,1.255,4.74Z"/>
</svg>