<?xml version="1.0" encoding="UTF-8"?>
<svg id="a" data-name="Layer 1 copy" xmlns="http://www.w3.org/2000/svg" width="3001" height="3001" viewBox="0 0 300.1 300.1">
  <path d="M102.027,231.333v33.241c0,2.348,5.488,2.348,5.488,0v-25.854l-3.02.003v-5.912h6.039l-.277.981c1.348-.12,2.938-.062,3.292,2.719l-1.093.245c-.056.926.71.285.98.941.413,1.004.247,22.146.126,24.926-.23,5.304-1.103,8.092-4.07,9.44-2.672,1.214-9.339,1.303-11.674-1.412-.645-.75-1.829-3.306-1.829-4.598v-34.226c1.883-1.48,2.914.533,4.53,1.958.941-1.221-.545-1.342-.688-2.445l2.195-.005Z"/>
  <path d="M203.84,46.66c-1.937-1.316-3.92-2.545-6.039-2.461-.132-8.033-.524-15.724,5.082-16.74,2.279-.413,8.274-.444,10.207,1.371,1.608,1.51,2.161,4.157,2.288,7.221.831,20.035-.545,42.11-.133,62.345-.919,8.564-10.118,7.754-13.597,6.117-.313-.147-.891.034-.825-.723,1.557.883,3.012-1.364,4.256-1.516,1.113-.136,2.265.981,3.304,1.037,2.463.132.957-1.824,1.346-3.444.221-.916,2.923-4.223,3.71-6.189,1.935-4.834,1.976-6.171-1.111-8.934-.171-1.463,1.222-3.997,1.344-5.959.065-1.048-.238-1.873-.176-2.72.125-1.724,1.178-2.36.65-5.301-.587-3.275-3.743-4.515-4.547-6.122-.565-1.13-.158-3.693-.271-5.18l5.216.497c1.147-4.57-4.869-7.611-5.172-9.191l-.178-15.932c-.489-1.486-5.354-1.726-5.354.744v11.08Z"/>
  <path d="M132.214,266.051c-.251,2.714-1.899,5.086-3.296,5.905-2.168,1.27-8.984,1.205-11.127-.213-1.478-.977-2.685-3.34-2.866-6.185-.158-2.488-.295-23.263.07-24.287.085-.24.523.116.482-.335l-.552-.251.552-.734c-.67.19-.92-2.986-.171-2.661.518.226,1.357.677,1.876.979.221.128.188.799.414.916.828.43,2.177.195,3.09,1.019-.031.955-.997.093-1.434.123-.217.015-1.111.179-1.033.851l2.468.745.274,1.72-3.016-.738c.67,2.121,3.545.636,2.859,3.696l-1.488.979c.732.197,1.49.827,1.64,2.233.328,3.078-.442,13.74.14,15.508.605,1.839,5.08,1.134,5.08-.744v-12.066l4.524,2.954-.133-1.964,1.647-.005c-.249,3.816.337,8.919,0,12.558"/>
  <path d="M197.803,253.986l-.805-13.768.793-.053-.536-2.427,5.191,1.515,2.217,32.955h-5.763l-.806-11.604c-3.306-1.331-7.052,1.973-9.895-1.941,2.151-.457,4.196,1.32,6.309,1.231.233-.987-.831-1.543-1.123-1.675-.633-.286-1.098.128-1.912-.519-.787-.625-.896-2.028-2.453-1.255l.277-.977-1.616-.55.793-14.723,1.643.501-1.094.974,3.839-.977-.821,1.47,1.525.485-.703,11.339h4.94Z"/>
  <path d="M199.42,195.437l2.497,35.401-5.64-3.91-.673-12.339c-.503.189-.507.967-.557,1.705-.221,3.331-.178,6.801-.54,10.116l-4.866-2.684,1.968-27.883,7.81-.406Z"/>
  <path d="M84.876,104.77l-.426-1.698.017-36.711,1.925,6.634c1.127,2.74,2.677,3.914,4.109,5.928.266,2.274-3.867.908-4.562.79-.307-.052-.987-.451-.924.428l3.563,1.982-1.643.974,3.566.497v14.774c1.653.013,3.141.339,4.665-.985v-10.342l6,2.039c-.022,6.354.97,12.279-3.196,14.568-.545.299-2.51,1.123-2.942,1.123h-10.154Z"/>
  <path d="M114.925,201.785l1.921-.487-1.096,1.467,3.289.497-1.095-2.457,3.566-.995-.548-.492.55-1.469-.823-.987c1.329-.243,2.937.942,4.212.806.715-.076,1.649-1.269,1.906-1.201.534.141,1.968,1.484,2.878,1.776.777.249,1.526-1.12,1.979,1.073-1.083.835-2.106-.414-3.162-.48-.412-.026-.79-.345-.676.725,1.1,1.884,2.454,1.253,3.841,1.734l-.28.978.62-.003.206,1.482-1.643-.004,1.645.498v16.744l-1.645-.005,1.371-.492c-.685-1.75-2.709-1.004-3.842-.975l1.37,1.96c-.638-.503-.895.908-.949.911-.622.029-1.518-.461-2.342.078v-19.944c-1.176-1.878-4.028-1.886-5.214,0v23.392c-1.055-.239-2.53-1.696-3.542-1.734-.851-.032-2.552,2.469-2.497-1.219,1.406-.682,2.343.613,3.705.5,1.496-.125.027-1.953-.062-1.982-.743-.245-1.343.534-2.479-.347-.358-.277-.395-1.544-1.148-1.149l-.012-1.457,1.647.246-1.632-.801c.15-.609-.018-1.21-.018-1.661v-14.528Z"/>
  <path d="M101.204,42.474c-.022.243-.292,1.171-.463,1.246l-5.575-.507v-7.633c-1.201-2.146-3.131-.935-4.665-1.231v14.035l-3.565,4.437-2.473,7.628V27.947h11.937c.742,0,3.121,1.701,3.684,2.748.274.51,1.119,3.444,1.119,3.901,0,2.278.187,5.828,0,7.879"/>
  <polygon points="185.179 195.383 185.179 221.976 179.435 219.475 179.688 213.607 179.14 219.024 175.039 217.521 176.397 195.383 185.179 195.383"/>
  <path d="M196.98,27.947v6.402h-4.665v11.573c0,.353-2.446,4.466-2.943,4.602l-3.094-2.632v-13.543h-4.665v-6.402h15.368Z"/>
  <polygon points="140.996 111.665 140.996 140.72 134.959 142.69 134.959 111.665 140.996 111.665"/>
  <path d="M134.959,149.092c1.467-.209,3.202-.552,4.02-2.976l2.018.516-.032,28.998c-1.053-.573-2.184,2.514-2.325,2.532-.237.03-.695-.564-1.084-.533-.872.07-1.699.776-2.596.516-.17-2.237,2.293-.286,1.921-2.704l-.958.252.136-.989-1.1.489v-26.101Z"/>
  <polygon points="161.267 120.103 162.129 134.318 156.914 135.798 156.367 129.396 156.088 136.285 151.153 137.765 152.535 116.119 161.267 120.103"/>
  <path d="M114.788,27.947c1.701.361,3.75,1.899,4.386,4.933.575,2.742.802,4.825-1.23,4.911,1.816-3.773-1.387-6.775-3.189-6.859-.742-.034-2.68,2.009-2.727,3.451l-3.414-.034v9.849l-1.922.251,1.923.239-.002,2.958c-1.093-.142-1.78-.908-2.741.491l-.273-.981-.55,1.964-.111-2.484-2.086-.955,3.565-1.234c-.924-1.464-2.438-.469-3.566-.741v-15.759c3.774.581,8.25-.783,11.937,0"/>
  <path d="M168.851,195.383c.279.313.352.678.409,1.236.56,5.538.446,11.88,1.099,17.474-.86.3-1.44-.676-2.169-1.178-.804-.554-1.115-1.13-1.332-1.273-.377-.248-1.154.071-1.554-.454-.265-.347-.085-1.287-.186-1.449-.123-.2-.929-.048-1.348-.313-1.178-.747-2.473-1.859-3.565-2.964v-10.342l.412-.739h8.233Z"/>
  <polygon points="144.566 253.982 144.288 253.005 150.053 254.492 148.651 272.153 142.916 272.21 141.822 253.001 144.566 253.982"/>
  <path d="M138.215,34.413c.558,3.249-1.439,4.737-2.71,6.091l2.717.791.031,11.769-6.039-.989.031-19.152c2.045-1.392,4.003.66,5.97,1.49"/>
  <polygon points="133.861 252.016 135.232 252.011 135.107 251.003 136.327 252.011 136.447 251.054 138.801 252.508 138.801 272.207 133.861 272.207 133.861 252.016"/>
  <polygon points="178.594 27.944 179.415 42.719 170.122 36.747 170.648 27.973 178.594 27.944"/>
  <path d="M139.624,40.012l4.937-7.14.043,2.889c1.462.199,1.02,1.49.752,3.454l-1.614.545,1.918.503-.551.734.545.548.009,11.027-6.039,1.475v-14.035Z"/>
  <path d="M139.897,205.237l-2.336.486-.405.983c.232.316,2.726-.283,3.381.009.213.095.175.959.359,1.002.551.129,1.796-1.03,2.572-.514l-.212,1.454-.341.267.551.734c-1.746.158-3.666-1.423-5.343-1.488-.585-.023-1.135-.408-.967.998l6.036,1.967c-1.636,1.533-2.946.137-4.668.731v4.691s-2.739-.979-2.739-.979l2.708,1.534.312,2.887-1.922.502.82.975c-1.526.838-2.389-.67-3.842-.49l.002-17.234,6.035,1.484Z"/>
  <path d="M145.661,80.394c-.174,1.514-2.264,7.616-2.905,9.069-.857,1.944-2.07,3.593-2.997,5.456-.498-2.287,2.048-3.27,2.067-5.674-.231-2.111-1.467-.959-2.203-.726v-15.266l3.374,1.404,2.663-5.836c-.265,3.364.36,8.453,0,11.573"/>
  <path d="M110.452,200.488c.13.165.068.781.088.801.184.179.422-.821.673-.828.112-.004,2.027,1.384,2.065,1.573l-.552.49.559.562.012,11.725-.845.516.828.266v2.934c-.55-.103-1.218.204-1.734-.01-.221-.091-.074-.898-.581-1.013-1.012-.23-2.76.797-3.448-.941.814.197,2.136,1.023,2.741-.491l-3.018-.5.003-1.966,3.291.978c-.416-2.449-2.77-.711-3.291-2.71-.312-1.198,1.626-.916,1.645-2.205l-1.61-.565-.037-3.381c1.095-.19,2.142.728,3.19.929.302.058.989.442.924-.429-1.668-.384-3.637-.976-4.389-3.94l3.291-.503c-.107-1.207-1.642-.125-1.369-1.962.589-.085,1.067.042,1.563.67"/>
  <path d="M108.614,104.77h-5.763v-15.266c1.881.394,4.105.829,5.763,2.216v13.05Z"/>
  <polygon points="152.797 256.941 153.069 257.922 158.559 259.403 158.559 272.207 152.797 272.207 152.797 256.941"/>
  <path d="M153.07,147.62c-.128.846-1.017.449-1.576.859-.32.234-.782.967-.892,1.594,1.56-.368,2.685-2.142,4.291-1.032.398.275.713.185.241,1.044-.324.59-2.947.908-3.713,1.222-.304.124-.887.002-.818.734l4.39.009-1.921,2.708,1.804.721c.021,4.162-.568,3.098-2.183,3.523-.428.113-1.65.233-1.816.919l3.839-.485c-.149,2.74-.12,4.161-1.918,3.942l1.642,1.219-1.093.741.14-.984c-1.14,1.115-2.417.863-3.711,1.477l.28-.978-.797-.034.976-16.122,2.834-1.078Z"/>
  <path d="M119.591,104.77h-5.626l-.412-.739v-10.342l.412-.632c.112-.014.206.386.274.386h4.391c.104,0,.961,1.119.961,1.231v10.095Z"/>
  <path d="M160.343,188.489l-.367-.82c-.064-2.817-1.064-8.706.788-10.243.379-.315.832-.154,1.155-.39.366-.267.581-.962.747-1.06.446-.263,1.387.242,2.064-.789l.142,1.481-.824.489,1.101.317.544,11.014h-5.352Z"/>
  <path d="M160.206,261.126c.025-.267.274-.766.318-1.155l3.251.42-.278.977,1.923.004v10.834h-4.802l-.412-.739c.207-3.151-.282-7.348,0-10.342"/>
  <path d="M150.876,42.72l5.762.99-1.644.493,1.644.49c.265,2.57-3.02.913-3.02,1.721l2.197.251-1.644.975,2.212.22c1.137,6.159-.982,2.741-2.76,4.716l1.094.974-3.841.498v-11.327Z"/>
  <path d="M125.491,104.77c-2.689-.646-4.746-4.287-4.526-9.356,2.753,1.931,7.156.935,8.779,5.904-.836.142-1.798-.182-2.612.004-.382.087-.79.258-.406.978l3.566,2.47c-1.513-.258-3.334.353-4.802,0"/>
  <polygon points="127 41.735 127 51.092 120.961 49.616 120.961 45.18 124.53 45.178 120.963 41.735 127 41.735"/>
  <path d="M164.323,43.213l-1.096-.498.545-.974-2.193-.503.546-.975-3.017-.009,1.096-1.467-.825-.251.416-.741-1.251-1.19-.261-4.72c.453-.797,5.334,1.993,6.038,3.204v8.125Z"/>
  <path d="M169.537,272.207l-.408-8.379c2.205,1.147,4.093,2.341,6.447,1.974l-.276,6.404h-5.763Z"/>
  <path d="M113.553,37.796c.914.931.964,2.157.274,3.442l5.637,3.433.128,4.454-6.04-.493v-2.96l1.651-.244-1.65-.246v-7.387Z"/>
  <path d="M203.838,59.956l-5.769-3.185-.138-6.191c.246-.643.392-.379.703-.276.62.205,4.627,3.359,4.936,3.981.582,1.173.144,4.076.268,5.67"/>
  <path d="M127,27.947c-.089,1.162.267,3.393-.27,4.193l-5.767,3.686v-7.879h6.038Z"/>
  <path d="M179.416,272.207l.14-6.407c1.76,1.001,3.756,3.458,5.621,1.975l.002,4.432h-5.763Z"/>
  <path d="M164.323,27.947c-.082,1.485.117,3.265.002,4.694-.06.737.162.784-.411.729-1.66-.159-3.714-2.204-5.47-2.411l-.159-3.012h6.038Z"/>
  <path d="M158.56,195.383c-.104,1.78.146,3.972.002,5.679-.066.782.167.735-.417.744-.546.008-3.588-1.542-3.902-2.123-.262-.486-.28-1.589-.626-2.095l.548-.961-.545-1.244h4.94Z"/>
  <path d="M185.166,243.666l.01,6.38c-1.797-.632-2.995-2.643-4.936-1.975.859-2.412,2.309-.17,3.702-.476.375-.082.821-.321.413-.991l-4.938-1.98v-3.441s5.748,2.482,5.748,2.482Z"/>
  <path d="M145.659,63.896c-1.561-3.888-3.362-4.979-6.033-4.437l3.295-1.226-3.298-.249v-1.472c1.89-.435,3.941-1.136,5.767.238l.269,7.145Z"/>
  <path d="M154.992,29.912c-1.301-.127-2.684.2-3.975-.003-.973-.153-5.516-2.37-5.857-1.38-.216.625.148,2.624-.869,2.371l-.036-1.903-1.336-1.045c3.73-.217,8.981-2.344,12.073,1.96"/>
  <path d="M174.366,44.401c.09.103.137.587.308.776.506.562,1.511.448,1.722,1.478l-6.602-1.686c-.689-.837.104-3.949.018-5.204.303-.555,4.004,4.01,4.553,4.636"/>
  <path d="M158.548,216.579l-.129,4.42c-.965-.056-1.179-1.281-1.445-1.441-1.492-.9-4.399.46-3.9-3.983,1.843,1.029,3.544-.333,5.474,1.005"/>
  <path d="M107.045,77.538c.367.401,1.481.204,1.581.947l-.011,1.659-5.604-1.419c-.92-3.987,1.988-3.937,3.343-2.64.458.438.515,1.26.691,1.453"/>
  <path d="M143.692,214.672l.321,3.855c-2.108-1.53-5.886.051-5.209-5.908,1.533,1.499,3.188,1.631,4.888,2.053"/>
  <path d="M163.773,157.459l-5.306.516c-1.577-6.662,1.23-2.618,2.675-2.978.438-.109.761-.687,1.162-.838.26-.098.721.526.884.291.14-.202-.157-1.135.307-.923l.277,3.932Z"/>
  <path d="M127.002,41.245c-1.674-.289-3.733-.129-5.358-.493-.381-.085-.802-.282-.406-.979l5.76-3.946.004,5.419Z"/>
  <path d="M165.146,220.507v3.436s-2.194-.494-2.194-.494l1.369-1.467c-1.37.451-2.498.555-3.852-.231l-.261-3.712c.756.44,1.881.23,2.545.597.589.326,1.36,2.296,2.393,1.871"/>
  <path d="M165.418,240.689c-1.625-.941-3.135-2.651-4.897-2.532l-.299-2.851c.463-1.167,4.135,1.234,4.928,1.683l.267,3.701Z"/>
  <path d="M138.252,95.911c-1.509,3.365-4.684,3.466-6.859,2.451l.714-1.483c.985.558,2.222,1.911,3.125.255-1.537-.536-2.675-2.859-2.741-5.658,2.081-.707,1.726,2.147,2.51,4.109,1.085,2.714,1.846.505,3.252.326"/>
  <path d="M102,203.31l.025,2.413c-.657-.675-1.449.186-1.986-.08-.543-.269-.822-2.029-1.166.083-.44-1.27-2.359-.768-2.328-2.713.023-1.497,1.957.084,2.326.02.222-.038.474-.682.807-.702.653-.04,1.586.989,2.322.979"/>
  <path d="M186.277,272.207l.415-3.455,5.078,2.215c.457.385-.008,1.24-.142,1.24h-5.352Z"/>
  <path d="M150.601,188.486c-.201-4.172,1.453-4.809,2.742-7.384l-.391,6.927c-.322.86-1.764.34-2.352.457"/>
  <path d="M138.25,85.074c.108,2.906.229,5.361-1.64,6.184-2.657,1.17.005-6.478,1.64-6.184"/>
  <path d="M171.968,241.248l.037,1.411-4.65-1.01-.286-3.42c1.623,1.158,3.335,1.426,4.9,3.019"/>
  <path d="M136.878,65.376l-2.966,6.244-1.695,5.077c-.535-5.258,2.269-9.446,4.661-11.322"/>
  <path d="M185.178,252.013c-.82.04-1.639.095-2.441-.31-.602-.304-.624-1.157-.756-1.181-.598-.109-1.766,1.007-2.566.507l.553-1.721-.55-.734c1.533.667,3.637.968,5.072,1.971.425.297.793.409.688,1.469"/>
  <polygon points="179.962 51.584 174.66 49.131 174.478 47.647 179.702 49.349 179.962 51.584"/>
  <path d="M119.315,82.615c.068.848-.648.52-.953.48-.912-.121-3.485-.766-4.279-1.213-.77-.434-.537-.768-.529-2.225,1.063.42,2.351.447,3.358,1.109.939.619,1.31,2.18,2.402,1.848"/>
  <path d="M177.484,239.724l.012,2.445c-.176.318-5.072-.864-3.978-2.961l1.892.533.296-1.025,1.778,1.008Z"/>
  <path d="M94.343,66.851c-.044-.029-.337-1.082-.546-1.238l.544-.234-.269-2.961c1.067,1.764,1.005,3.403,2.74,2.465.121,2.019-1.778,2.421-2.469,1.968.25.222.487.563.826.739l-.825,1.226.975.467,2.864,3.475c-1.999,1.537-3.239-3.436-4.033-3.838-.737-.372-1.749.111-2.551-.598-.127-.312,1.06-2.096.796-3.605-.244-1.395-1.437-.74-1.619-1.801l1.919-.006c-.234,3.258.518,2.937,1.647,3.941"/>
  <path d="M138.251,57.989c.108.923-.255,1.19-.569,1.682-1.096,1.719-2.72,3.02-3.825,4.953-.743,1.301-.694,2.738-1.639,3.212-.114-.963.122-1.325.395-1.994.501-1.227,5.04-8.88,5.638-7.853"/>
  <path d="M156.058,31.452c.042.857.907,2.934.167,3.384-.747.455-.615-.778-.885-.945-.635-.392-1.602-.37-2.267-.036-.637-1.101,2.483-3.119,2.985-2.403"/>
  <path d="M174.201,47.652c.241,1.564-.933,1.009-1.475.917-.316-.053-4.267-1.143-3.462-2.399l4.937,1.482Z"/>
  <path d="M165.418,234.294c.083.805-.706.571-.965.501-.959-.261-1.826-.503-2.745-.732-.129-.032-1.426-1.227-1.501-1.74,1.792-.958,3.453,1.423,5.211,1.97"/>
  <path d="M185.179,240.691c.432,5.117-1.462-.003-3.019.474l.002-1.948,3.017,1.474Z"/>
  <path d="M150.6,220.003l-2.47-.493.279-2.463c.992.699,2.344.264,2.191,2.956"/>
  <path d="M159.385,147.619l1.094-.253c-.754,2.202-2.395,2.359-3.011.001l1.913-1.235.005,1.487Z"/>
  <path d="M164.047,224.936c-.202.85-1.55.934-1.977.882-.258-.032-2.524-.969-1.862-1.87,1.614-.514,2.378.13,3.839.988"/>
  <path d="M170.358,236.263l-.545.974c.716.084,1.84.112,2.194,1.477l-4.117-1.97c-.174-2.031,1.888-.666,2.468-.481"/>
  <path d="M97.053,61.003l-.243,3.384c-.884-.965-.58-3.064-1.917-2.96.363-1.614,1.465-.945,2.16-.424"/>
  <path d="M156.637,221.981l-2.578.941-.986-2.916c1.168.738,2.277,2.036,3.563,1.975"/>
  <polygon points="96.537 53.565 96.244 56.966 95.168 57.004 95.295 53.529 96.537 53.565"/>
  <path d="M164.321,45.189c.074.821-.669.539-.967.506-1.299-.142-3.078-.611-4.376-1.028-.486-.156-.821.544-.69-.962l6.033,1.484Z"/>
  <path d="M152.795,215.574v1.968l-2.742-.99c-.132-2.166,2.032-.208,2.742-.978"/>
  <path d="M161.576,51.591c.065.856-.624.463-.955.486-.777.053-1.563-.031-2.338-.002v-1.473c1.179-.297,2.199.388,3.292.989"/>
  <polygon points="137.429 27.947 132.217 29.424 132.215 27.947 137.429 27.947"/>
  <path d="M158.285,50.107c-.225-1.805,1.219-.71,1.797-1.009l2.594,1.009h-4.391Z"/>
</svg>