<?xml version="1.0" encoding="UTF-8"?>
<svg id="a" data-name="Layer 1 copy" xmlns="http://www.w3.org/2000/svg" width="3001" height="3001" viewBox="0 0 300.1 300.1">
  <path d="M78.334,129.512l14.238-.017-6.225-10.674c1.417-2.166,2.21-4.771,2.128-7.553-.163-5.534-3.734-10.166-8.643-11.942l.011,9.218.002,1.852.002,1.853-2.617,2.623-3.705.004-2.623-2.617-.002-1.852-.002-1.853-.011-9.217c-5.165,1.881-8.783,6.907-8.613,12.702.211,7.167,6.139,12.82,13.284,12.718l2.773,4.756Z"/>
  <path d="M112.777,171.11c.321-.361.59-.77.796-1.212.288-.617.452-1.302.464-2.025,0-.031.002-.062.002-.093,0-.025-.001-.049-.002-.074-.043-2.733-2.272-4.934-5.014-4.93h-.757s-.003-2.965-.003-2.965l-.002-2.043c-.001-1.057-.331-2.036-.89-2.843-.906-1.307-2.416-2.163-4.126-2.161l-2.653.003c-4.718.005-8.548-3.815-8.554-8.533l-.002-1.477-.006-5.009h0s-.006-5.01-.006-5.01l-19.087.022h-.014c-2.767.003-5.007,2.249-5.004,5.016.003,2.767,2.249,5.007,5.016,5.004h.015l2.198-.002v.758s.006,4.251.006,4.251c.003,2.28,1.529,4.202,3.614,4.806.445.129.915.199,1.402.198l2.287-.003v1.198s.006,3.812.006,3.812c.003,2.767,2.249,5.007,5.016,5.003h.042l2.432-.003v.373s.006,4.637.006,4.637c.003,2.767,2.249,5.007,5.016,5.003l5.195-.006,8.867-.011c1.489-.002,2.824-.653,3.741-1.686Z"/>
  <path d="M128.372,167.765l1.919-2.781h0l106.61-.005v-4.99h-89.188l-3.035-5.085h73.719v-4.99h-76.588v.181l-3.069-5.144h63.968v-4.99h-66.946l-3.312.004-2.798.003h-.088l-4.496.005-9.091-9.069-.564-.562c-.628-.627-1.48-.979-2.367-.977l-1.912.002h-.007l-10.619.013h-.007l-1.81.002c-1.848.002-3.345,1.502-3.343,3.351h0l.014,11.793c.001.543.09,1.064.25,1.554.658,2.003,2.543,3.448,4.766,3.446.03,0,.061-.002.091-.003.407-.008.803-.062,1.181-.162,2.15-.565,3.734-2.523,3.732-4.851l-.006-5.116h0l4.916-.006h0l.18.18h0l10.319,10.295-2.289,2.294-9.549-9.527h-.333s.002,1.875.002,1.875c.002,2.152-.83,4.149-2.224,5.642,0,0-.001.001-.002.002h0c.426.177.834.388,1.221.63.01.006.021.013.031.02.126.08.25.162.371.248.003.002.006.005.009.007.096.069.193.137.284.212.035.028.07.056.104.083.11.088.218.179.323.273.006.005.012.011.018.017.096.086.19.176.282.267.025.024.049.048.074.073.097.098.191.197.283.299.005.004.01.008.016.011.221.248.428.511.619.787.958,1.382,1.464,3.002,1.466,4.685l.002,2.148c.128.04.256.084.382.131,0,0,0,.002-.001.003,2.406.891,4.288,2.872,5.04,5.342.007.023.015.046.021.07.27.722.419,1.502.42,2.318v.002c0,1.226-.285,2.128-.532,2.682,0,.001-.001.003-.002.004-.073.213-.155.421-.245.626-.002.005-.004.01-.006.015-.001.003-.003.006-.004.009-.669,1.511-1.779,2.784-3.165,3.657-.042.026-.083.052-.125.077-.054.033-.108.065-.163.097-.099.057-.2.112-.301.166-.025.013-.05.025-.075.038-.095.049-.252.123-.35.167-.002,0-.004.002-.007.003-.642.288-1.327.496-2.042.611h0c-.14.022-.282.042-.424.057-.01.001-.02.002-.029.003-.12.013-.241.022-.363.03-.031.002-.062.003-.093.005-.132.007-.265.011-.398.011l-3.574.004,3.043,5.219c-1.425,2.169-2.222,4.781-2.14,7.572.163,5.535,3.734,10.166,8.643,11.942l-.011-9.217-.002-1.853-.002-1.852,2.616-2.623,3.705-.005,2.623,2.617.002,1.852.002,1.853.011,9.217c5.165-1.881,8.784-6.907,8.613-12.701-.211-7.16-6.126-12.809-13.261-12.718l-2.471-4.238,5.192-.006c2.533-.003,4.904-1.249,6.343-3.334Z"/>
  <polygon points="117.278 167.939 117.278 167.929 117.278 167.93 117.278 167.939"/>
</svg>