<?xml version="1.0" encoding="UTF-8"?>
<svg id="a" data-name="Layer 1 copy" xmlns="http://www.w3.org/2000/svg" width="3001" height="3001" viewBox="0 0 300.1 300.1">
  <path d="M221.682,120.687h6.545c0,.49-.065.946-.196,1.371-.131.424-.316.807-.555,1.151-.24.343-.531.647-.874.913-.343.267-.724.493-1.143.677-.418.186-.876.325-1.371.417-.495.092-1.015.139-1.559.139-.664,0-1.284-.074-1.861-.221-.576-.146-1.104-.359-1.583-.637-.479-.277-.904-.623-1.273-1.036s-.68-.889-.93-1.428c-.25-.539-.443-1.143-.58-1.812-.136-.669-.204-1.396-.204-2.179v-.033c0-.762.068-1.466.204-2.114.136-.647.329-1.237.58-1.771.25-.532.56-1.001.93-1.403s.794-.743,1.273-1.02c.478-.277,1.003-.484,1.575-.62s1.189-.204,1.853-.204c.63,0,1.226.063,1.787.188.56.126,1.069.313,1.526.563.458.25.856.565,1.199.947.343.381.618.827.825,1.338h6.104c-.304-1.262-.797-2.383-1.477-3.362-.681-.979-1.521-1.806-2.521-2.48-1.001-.674-2.144-1.188-3.427-1.542-1.284-.354-2.683-.531-4.195-.531-1.904,0-3.62.28-5.149.841-1.528.56-2.837,1.36-3.925,2.399-1.088,1.039-1.929,2.3-2.521,3.786-.593,1.485-.889,3.146-.889,4.986v.033c0,1.251.133,2.418.4,3.501.266,1.082.65,2.069,1.151,2.962.5.892,1.109,1.684,1.828,2.375.718.691,1.525,1.275,2.423,1.754.897.479,1.879.841,2.945,1.085,1.066.245,2.198.367,3.395.367.925,0,1.782-.087,2.571-.261s1.504-.414,2.146-.718c.642-.305,1.21-.658,1.705-1.061.495-.402.901-.837,1.216-1.306l.098,2.823h4.276v-13.251h-12.322v4.374Z"/>
  <path d="M103.043,188.982h6.236v-5.135h-4.655v1.303h3.313v2.542h-4.679c-.22,0-.374-.048-.462-.145-.089-.097-.132-.255-.132-.475v-5.034c0-.219.043-.377.132-.474.088-.096.242-.145.462-.145h6.083v-1.29h-6.299c-.641,0-1.099.145-1.372.436-.274.291-.411.761-.411,1.411v5.161c0,.641.137,1.108.411,1.403.273.296.731.443,1.372.443Z"/>
  <path d="M112.769,188.919c.135.083.287.126.456.126.177,0,.331-.042.461-.126.13-.084.238-.195.323-.329.083-.135.126-.287.126-.455,0-.253-.086-.466-.259-.639s-.39-.259-.651-.259c-.169,0-.321.037-.456.114-.135.076-.245.183-.328.322-.084.14-.127.293-.127.462,0,.168.042.32.127.455.083.134.193.245.328.329Z"/>
  <path d="M117.348,188.982h1.378l.013-.013v-7.07h.151l3.073,7.083h1.392c.017,0,.023,0,.019,0-.005,0-.002,0,.006,0l2.997-7.083h.165v7.07l.012.013h1.404v-8.854h-2.34l-2.947,7.07-3.011-7.07h-2.327l-.013.012v8.829l.013.013h.013Z"/>
  <polygon points="133.082 188.982 133.095 188.982 133.095 188.969 133.095 180.14 133.095 180.128 133.082 180.128 131.691 180.128 131.678 180.128 131.678 180.14 131.678 188.969 131.678 188.982 131.691 188.982 133.082 188.982"/>
  <polygon points="136.839 188.982 138.205 188.982 138.218 188.982 138.231 188.969 138.231 182.24 143.441 188.982 143.454 188.982 143.467 188.982 144.921 188.982 144.934 188.982 144.934 188.969 144.934 180.14 144.934 180.128 144.921 180.128 143.543 180.128 143.53 180.128 143.53 180.14 143.53 186.933 138.319 180.128 138.306 180.128 138.294 180.128 136.839 180.128 136.827 180.128 136.814 180.14 136.814 188.969 136.827 188.982 136.839 188.982"/>
  <polygon points="155.875 188.982 155.887 188.982 155.887 188.969 155.887 187.704 155.887 187.691 155.875 187.691 150.081 187.691 150.081 185.2 155.66 185.2 155.672 185.2 155.672 185.187 155.672 183.922 155.672 183.91 155.66 183.91 150.081 183.91 150.081 181.418 155.862 181.418 155.875 181.418 155.875 181.406 155.875 180.14 155.875 180.128 155.862 180.128 148.665 180.128 148.652 180.128 148.652 180.14 148.652 188.969 148.652 188.982 148.665 188.982 155.875 188.982"/>
  <polygon points="160.795 188.982 160.807 188.982 160.807 188.969 160.807 180.14 160.807 180.128 160.795 180.128 159.403 180.128 159.391 180.128 159.391 180.14 159.391 188.969 159.391 188.982 159.403 188.982 160.795 188.982"/>
  <path d="M165.93,188.982h.013v-3.479h4.427c.278,0,.474.048.588.146.114.097.17.276.17.537v2.796h1.417v-2.542c0-.574-.146-.979-.437-1.215s-.731-.354-1.321-.354v-.026c.59,0,1.03-.12,1.321-.36.291-.241.437-.635.437-1.184v-1.328c0-.649-.137-1.12-.411-1.411-.274-.291-.735-.436-1.385-.436h-6.223v8.854h1.404ZM165.942,181.418h4.578c.219,0,.375.049.468.145.093.097.14.255.14.474v1.557c0,.168-.025.299-.076.392-.051.093-.131.154-.241.184-.109.029-.257.044-.442.044h-4.427v-2.795Z"/>
  <path d="M177.907,188.982h4.566c.641,0,1.101-.147,1.378-.443.278-.295.418-.763.418-1.403v-5.161c0-.649-.137-1.12-.412-1.411-.274-.291-.731-.436-1.372-.436h-4.579c-.641,0-1.1.145-1.378.436-.278.291-.417.761-.417,1.411v5.161c0,.641.14,1.108.417,1.403.278.296.738.443,1.378.443ZM177.528,182.038c0-.219.044-.377.133-.474.088-.096.242-.145.461-.145h4.149c.21,0,.362.049.455.145.093.097.14.255.14.474v5.034c0,.22-.046.377-.14.475-.092.097-.245.145-.455.145h-4.149c-.219,0-.373-.048-.461-.145-.088-.097-.133-.255-.133-.475v-5.034Z"/>
  <path d="M222.253,92.647c-7.241,0-13.779,3.052-18.41,7.93l-57.123-17.929c-1.281-.402-2.613-.606-3.957-.606s-2.675.204-3.957.606l-77.1,24.201c-5.536,1.738-9.256,6.804-9.256,12.605v59.829c0,5.662,3.603,10.69,8.965,12.511l75.288,25.562c1.371.465,2.8.701,4.248.701,1.388,0,2.762-.217,4.082-.646l78.915-25.637c5.461-1.774,9.13-6.824,9.13-12.566v-38.198c8.604-4.072,14.57-12.834,14.57-22.967,0-14.003-11.393-25.396-25.396-25.396ZM160.733,127.539h5.264v-12.189h11.636v12.189h6.886v8.668h-6.886v19.59c0,.845.052,1.551.158,2.117.105.568.31.996.613,1.286.303.291.752.495,1.345.614.595.119,1.392.178,2.396.178h2.295v8.786h-5.857c-2.587,0-4.703-.178-6.353-.534-1.649-.356-2.935-.983-3.859-1.881-.923-.896-1.55-2.097-1.88-3.601-.33-1.503-.495-3.403-.495-5.699v-20.856h-5.264v-8.668ZM128.477,156.628h.158l9.657-43.653h17.849v55.803h-11.438v-23.469l.277-20.224h-.12l-10.131,43.693h-12.387l-10.131-43.693h-.158l.355,20.224v23.469h-11.398v-55.803h17.81l9.656,43.653ZM227.296,179.209c0,2.012-.81,3.88-2.164,5.242-.542.545-1.171,1.008-1.871,1.367-.35.179-.717.333-1.099.457l-39.458,12.818-39.458,12.819s-.005,0-.008.001c-.375.122-.756.212-1.142.272-.125.02-.25.017-.375.03-.257.026-.513.06-.771.06-.008,0-.017-.002-.025-.002-.259,0-.517-.035-.775-.063-.14-.015-.28-.013-.419-.036-.38-.063-.756-.159-1.125-.282-.015-.005-.03-.006-.044-.011l-75.289-25.562c-.376-.128-.738-.284-1.082-.465-2.407-1.271-3.959-3.785-3.959-6.569v-10.465h169.062v10.39ZM222.253,137.657c-10.832,0-19.613-8.781-19.613-19.613s8.781-19.613,19.613-19.613,19.613,8.781,19.613,19.613-8.781,19.613-19.613,19.613Z"/>
</svg>