<?xml version="1.0" encoding="UTF-8"?>
<svg id="a" data-name="Layer 1 copy" xmlns="http://www.w3.org/2000/svg" width="3001" height="3001" viewBox="0 0 300.1 300.1">
  <path d="M271.554,165.494h-136.328v2.126h136.328c.546,0,.989.444.989.989v4.481c0,.545-.443.989-.989.989h-138.711c.003-1.105-.034-2.231-.149-3.392-.362-3.642-1.349-7.514-3.041-11.549h144.942v-2.126h-145.325c-.187,0-.368.023-.545.055-6.707-14.074-19.054-23.52-28.807-22.259-1.354.175-2.685.582-3.925,1.211-4.119,2.019-5.022,6.045-5.064,7.692-.111.953.341,1.363.748,1.311.549.007,1.149-.853,1.456-1.909.725-2.361,1.917-4.861,5.812-5.678,6.31-1.363,15.709,3.522,22.637,22.175,2.231,5.889,3.543,11.506,4.02,16.293.92,9.265-1.392,15.663-7.019,16.312-9.425,1.062-16.327-7.665-20.209-23.271-1.062-4.477-1.776-8.215-2.083-11.304-.69-6.948.672-10.487,4.492-11.372,5.43-1.249,12.137,8.284,14.955,18.007.955,3.395,1.464,6.457,1.717,9.005.468,4.709.098,7.885-.079,9.55-.133,1.425.35,2.144.839,2.237.414.025.849-.422,1.104-1.315.223-1.202.645-5.244.115-10.571-.376-3.783-1.228-8.208-2.914-12.761-3.69-9.532-9.596-17.214-15.824-16.409-.677.087-1.271.32-1.933.562-.77.325-1.486.772-2.152,1.312h-12.185l17.201-18.809c-.413,0-.866.011-1.361.03-.495.021-1.259.032-2.29.032-4.579,0-8.817-.535-12.715-1.61-3.898-1.073-7.456-2.68-10.673-4.825l-24.379,20.83v31.244c0,2.077-.114,3.678-.34,4.797-.227,1.124-.609,2.057-1.145,2.807-2.393-2.937-4.218-6.322-5.476-10.147-1.259-3.828-1.887-7.893-1.887-12.196,0-5.791,1.269-11.087,3.805-15.886,2.537-4.8,6.383-9.165,11.54-13.095l-.248-.495c-7.879,2.856-14.138,7.78-18.779,14.773-4.641,6.994-6.961,15.002-6.961,24.024,0,11.007,3.485,20.05,10.457,27.127,6.97,7.075,15.86,10.614,26.668,10.614,8.125,0,14.974-1.822,20.542-5.465,4.855-3.174,9.034-7.941,12.541-14.295,5.191,6.906,11.634,10.231,17.772,9.438.948-.123,1.956-.331,2.88-.685,5.946-2.013,10.537-8.801,11.185-17.892h138.788c1.718,0,3.115-1.397,3.115-3.115v-4.481c0-1.718-1.397-3.115-3.115-3.115ZM71.495,134.135l14.355,5.692-14.355,15.715v-21.408ZM68.587,192.537c-3.588-.747-6.879-1.961-9.869-3.646-2.991-1.683-5.641-3.832-7.951-6.45,4.62-3.864,7.858-7.51,9.714-10.937s2.785-7.386,2.785-11.873v-23.579l5.321-4.331v60.814ZM89.099,190.668c-3.981,1.828-8.158,2.742-12.53,2.742-.866,0-1.723-.03-2.568-.094-.846-.062-1.661-.154-2.444-.28l-.062-33.965h19.923c.11-.234.234-.496.366-.772-.024,1.211.018,2.48.151,3.817.368,3.706,1.324,7.805,3.071,12.271,1.344,3.502,2.93,6.579,4.687,9.22-3.659,3.141-7.191,5.499-10.594,7.062Z"/>
  <path d="M224.109,149.172h9.674c-.337-.359-.675-1.17-.801-1.564-.539-1.697-.839-3.668-1.039-5.436-.021-.628.069-1.384.004-1.999-.016-.151-.144-.332-.183-.5-.122-.518.185-.824.09-1.29-.022-.111-.097-.227-.107-.334-.012-.127.037-.211.035-.312-.006-.229-.175-.447-.285-.635-.102-.176-.019-.189-.259-.34-.755-.476-1.983-.683-2.758-1.159-.368-.226-.369-.548-.735-.823-.431-.323-.971-.577-1.423-.875-.044-.082-.092-.176-.115-.266-.066-.261-.296-1.154-.281-1.361.016-.202.139-.427.144-.639l.079.08c-.003-.126.002-.521.12-.58.602-.123.568.638.56,1.039-.004.2-.099.265.1.46.103-.053.55-1.165.803-1.396.175-.16.5-.238.699-.34.174-.089.335-.324.546-.232.323.14.228.557.027.765-.031.033-.553.342-.315.404.117.03.396-.299.511-.368.191-.115.482-.179.695-.264.091-.036.177-.127.25-.149.489-.149.581.375.282.681-.135.138-.74.355-.791.429-.028.042-.046.257-.129.332l.22.258c.239-.187.521-.562.777-.701.184-.1.373-.102.562-.158.174-.052.289-.236.483-.083.275.218.035.553-.189.696-.104.066-.435.159-.483.217-.028.035-.03.135-.067.192-.043.065-.267.308-.223.357.403.105.804.083,1.208.212.705.224,1.229.696,1.583,1.335.198.357.385,1.075.605,1.343.12.146.383.15.53.439.189.373.031.392.036.684.002.191.15.995.214,1.185.073.218.3.462.338.66.106.554.007,1.159.235,1.684.058.133.177.241.238.401.075.195.076.435.149.61.155.373.281.532.419.98.009.03-.016.088.06.058.025-.009.428-.274.447-.292.202-.194.482-.706.694-.965.346-.423.902-.856,1.198-1.24.066-.086.093-.21.159-.281.113-.121.302-.096.402-.197.052-.052.283-.451.309-.53.052-.159.027-.317.079-.44.061-.144.278-.245.364-.355.105-.136.13-.346.198-.482.077-.152.219-.255.288-.412-.24.145-.447-.095-.619-.103-.083-.003-.169.062-.271.054-.496-.041-.654-.516-.675-.944-.501-.087-.602-.48-.513-.926-.475-.007-.734-.33-.623-.803.053-.222.294-.374.303-.597-.029-.028-.715.069-.81.089-.297.063-.661.281-.906.333-.723.153-.87-.668-.318-1.037.533-.356,1.097-.388,1.691-.547.267-.071.524-.193.781-.258.191-.048.685-.081.812-.147.098-.051.195-.336.291-.428.203-.195.652-.101.917-.123.405-.033.669-.207,1.091-.051.254.094.375.308.567.472.237.203.517.402.741.618.191.184.66.831.847.873.09.02.185-.005.269.01.101.018.703.509.823.616.077.069.111.151.183.218.782-.302,1.548-.672,2.241-1.149l.093-.007.04.16c.027-.122-.026-.234-.036-.344-.006-.063.043-.127.03-.188-.023-.108-.296-.332-.417-.348-.208-.027-.849.326-1.104.411-.517.171-1.267.361-1.691-.09-.432-.459-.083-.804-.189-1.21-.072-.277-.522-.664-.461-.959.016-.076.119-.185.106-.244-.014-.068-.121-.082-.157-.133-.166-.238.128-.965-.181-1.012-.105-.016-.209.041-.316.043-.266.007-.554-.098-.54-.403v-.106c.066-.579.303-1.14.423-1.713-.066-.147-.191-.258-.244-.418-.032-.098-.017-.288-.079-.361-.083-.098-.681.093-.844.115-.984.135-2.224-.125-2.294-1.335-.003-.056-.003-.104,0-.149l-19.169,6.146v13.494c0,2.195,1.786,3.981,3.981,3.981Z"/>
  <path d="M242.606,124.153c.697-1.146,1.187-2.488,2.381-3.234.115-.072.242-.143.377-.21h-21.256c-2.195,0-3.981,1.786-3.981,3.981v.36h19.674c.896-.354,1.901-.558,2.804-.896Z"/>
  <path d="M242.753,144.87c-.079-.306-.074-.688-.178-1.001-.728.985-1.434,1.85-2.379,2.637-.783.653-2.572,2.112-3.713,2.667h6.573c-.004-.268-.041-.508,0-.887.032-.298.207-.605.196-.955-.004-.151-.111-.258-.139-.38-.075-.319.154-.501.145-.823-.017-.605-.383-.788-.504-1.256Z"/>
  <path d="M253.088,122.703c.201.33.271.67.421.937.063.111.278.268.319.4.027.088.072.871.059.983-.023.192-.191.354-.203.441-.016.116.074.165.073.23-.001.095-.247.88-.309.958-.052.064-.168.05-.196.134-.042.129.011.412-.016.584-.025.159-.141.346-.179.5-.109.438-.241.95-.221,1.391l-.111.077c.149.034.05.111.061.203.054.457.393,1.368.66,1.756.034.049.162.24.172.251.114.121.517.416.67.505.088.052.528.274.594.286.062.01.119-.082.191-.097.158-.033.431.202.601.228.095.014.165-.041.259-.027.381.058,1.021.384,1.453.433.216.024.57-.1.796-.119.215-.018.394.027.598.042.08.005.156-.044.232-.035.093.012.904.487,1.025.575,1.438,1.043,1.829,3.072,1.681,4.753-.064.732-.369,1.491-.434,2.204-.068.745-.042,1.299-.216,2.062-.538,2.351-1.229,4.58-2.108,6.814h11.318c2.195,0,3.98-1.786,3.98-3.981v-20.502c0-2.195-1.786-3.981-3.98-3.981h-19.198c.831.479,1.544,1.234,2.007,1.995Z"/>
</svg>