<?xml version="1.0" encoding="UTF-8"?>
<svg id="a" data-name="Layer 1 copy" xmlns="http://www.w3.org/2000/svg" width="3001" height="3001" viewBox="0 0 300.1 300.1">
  <g>
    <path d="M201.165,43.158c0-.011-.001-.02-.002-.031,0,.002.001.003.002.005-.11-2.447-.52-4.448-.909-6.702-.052-.706-.102-1.432-.119-2.16-.016-.72,0-1.442.077-2.146l1.222-11.06s-.003.007-.004.01l.004-.036c-.803,1.935-3.986,10.987-3.942,13.217.001.157.017.285.05.373,1.147,3.013,2.206,5.604,3.622,8.53Z"/>
    <path d="M262.647,51.575l-.508-.117c-4.912-.931-9.497-1.378-14.45-1.391l8.186-4.01c2.749-1.347,5.357-2.411,8.375-3.43l-.082.343c.29-.187.588-.357.895-.514-.55-1.537-1.186-3.047-1.463-4.664-.027-.162-.044-.322-.055-.48l-1.582-4.9,3.32-3.4-2.071-4.093c-5.869,1.005-12.607,4.148-18.052,6.99-9.187,4.796-18.365,9.235-28.078,12.861-3.053,1.14-5.896,1.847-9.121,2.112.356,2.599,1.393,4.699,2.481,6.931-2.61-1.899-4.413-4.379-6.031-7.16-.093,3.245,1.322,5.742,2.589,8.685-5.211-4.322-8.679-9.657-12.153-15.595.379,3.706,1.093,7.26,1.948,10.873.464,1.959,1.291,3.758,2.036,5.802-2.809.032-5.199-1.14-7.77-2.538,2.613,4.416,6.369,5.054,10.828,6.392-6.632,4.131-8.879,2.296-14.55-1.566-3.31,1.662-7.626,4.585-11.5,3.029l5.513-9.619c.923-1.61,1.658-3.245,2.422-4.951.535-1.195.513-2.528.298-3.846l-3.043-18.728c-.84,7.297-.857,14.256-.628,21.606-2.128,3.18-4.523,6.169-7.387,8.808-2.009,1.851-4.741,2.399-7.356,2.529,2.596-3.176,4.397-6.943,4.562-11.092-1.745,2.866-3.559,5.169-6.042,7.209,1.101-2.384,2.126-4.565,2.468-7.118-3.339-.194-6.169-.93-9.211-2.073-1.223-.459-2.438-.932-3.644-1.416l.012-.021c-8.239-3.302-16.12-7.151-24.044-11.267-5.356-2.782-10.662-5.144-16.415-6.771-3.02-.854-5.801-.654-8.693.487-4.071,1.605-7.463,4.045-10.797,6.752,1.118-2.647,2.722-4.426,4.619-6.502.15-.035.187-.059.155-.075.068-.042-.147-.057-.437-.072-5.458,2.519-8.954,7.095-10.993,12.402h-6.917l11.862-12.971c-.285,0-.597.007-.938.021-.341.015-.868.022-1.579.022-3.157,0-6.081-.369-8.769-1.11-2.688-.74-5.142-1.849-7.361-3.328l-16.812,14.365v21.547c0,1.432-.078,2.537-.234,3.309-.096.473-.245.88-.419,1.257-.275.021-.552.04-.826.062-1.419-1.882-2.538-4.001-3.32-6.381-.868-2.64-1.302-5.443-1.302-8.411,0-3.993.875-7.646,2.624-10.956,1.75-3.31,4.402-6.32,7.958-9.03l-.171-.341c-5.434,1.969-9.75,5.365-12.951,10.188-3.2,4.823-4.8,10.346-4.8,16.567,0,3.484.531,6.668,1.543,9.582-7.123,1.076-14.114,2.671-20.065,4.896-3.44,1.285-7.023,3.065-9.808,5.196-2.598,1.988-5.729,5.219-4.94,9.662.469,2.644,2.133,4.563,3.879,6.111,1.839,1.63,3.887,2.842,6.075,3.952,8.789,4.459,20.467,6.796,31.618,7.905,1.428.142,2.87.264,4.334.367-.18.258-.359.517-.526.783-1.801,2.872-2.701,6.171-2.701,9.897v.062c0,2.477.4,4.767,1.202,6.869.801,2.103,1.941,4.007,3.419,5.713.039.044.083.085.123.13H24.088l51.903,10.669-40.688,15.819,77.412-9.686,37.692,11.262-3.758-15.576,81.443-12.488-84.63.108-3.415-16.534-13.309,5.97v-6.409h-33.469v10.334h15.363c-.086.346-.271.685-.564,1.015-.417.468-1.004.911-1.764,1.327-.76.417-1.67.792-2.732,1.125s-2.243.624-3.543.874c-1.301.25-2.706.437-4.215.562-1.51.125-3.086.187-4.73.187-1.79,0-3.481-.104-5.073-.312-1.592-.208-3.086-.51-4.48-.905-1.395-.395-2.649-.9-3.762-1.515-1.114-.613-2.066-1.337-2.857-2.169-.792-.833-1.405-1.78-1.842-2.841-.437-1.062-.655-2.237-.655-3.528v-.062c0-1.291.223-2.466.671-3.528.447-1.061,1.087-2.003,1.92-2.825.832-.822,1.811-1.524,2.935-2.107,1.124-.583,2.357-1.072,3.7-1.467,1.343-.396,2.768-.687,4.277-.875,1.509-.187,3.054-.281,4.636-.281,1.395,0,2.867.067,4.418.203,1.55.136,3.044.339,4.48.609,1.436.271,2.763.63,3.98,1.077,1.218.448,2.211.983,2.982,1.608h20.106c-.771-2.435-2.285-4.621-4.543-6.557-1.948-1.669-4.303-3.096-7.018-4.309,1.033-.493,2.038-1.011,3.004-1.561,2.044-1.164,3.958-2.534,5.53-4.32,1.933.243,3.886.328,5.849.222,4.073-.218,7.795-1.589,11.444-3.284l9.48-4.404c2.836-1.317,5.904-1.893,8.976-1.321,5.181,1.862,15.306-6.551,15.306-6.551,1.994.346,3.727.683,5.757.536-3.628-1.994-6.438-2.924-8.711-6.623,5.375,1.293,5.886,1.85,11.102-.133,5.645-2.146,7.605,1.01,13.714,1.356,2.029.115,3.793-.616,5.975-.967-2.293,2.439-4.737,4.218-7.568,6.088,2.101-.133,4.112-.646,6.375-1.256l-1.883,4.466c8.099-1.588,10.17,3.768,16.065,3.384,2.746-.179,5.283.003,7.809.929,7.641,2.799,14.288,7.869,22.43,8.171,4.692.174,9.286-.772,13.651-2.354-14.935.977-21.905-1.978-33.81-9.625-3.686-2.367-10.906,1.692-14.927-2.368,2.19-3.965,4.844-7.433,8.763-9.801-.993,1.741-5.276,7.592-3.789,9.126.235.243.935.419,1.32.358l8.285-1.312c1.265-.2,2.624.072,3.838.459,6.348,2.023,12.958,2.874,19.661,1.549-6.909.119-13.641-1.076-19.827-4.304-1.005-.524-2.263-.703-3.34-.562l-3.835.5c-.354.046-1.186-.383-1.333-.683,2.124-1.64,3.858-3.134,5.609-4.969,2.37-2.485,5.241-4.238,8.457-5.913-.651,4.032.467,7.891,3.345,10.571,1.778,1.656,4.067,2.734,6.45,2.974.555.09,1.124.138,1.705.138,5.692,0,10.336-4.482,10.597-10.11.215-1.669-.049-3.398-.335-5.19,3.811,1.586,7.112,3.392,9.984,6.064-1.114,3.521-3.671,5.904-6.4,8.424,3.515-1.487,6.34-3.578,9.304-5.854l7.007,1.646c-3.939-4.61-6.792-7.587-11.819-11.183,4.57.503,8.517,2.458,12.704,4.979-3.209-4.506-8.366-7.292-14.228-8.404ZM71.361,29.87l9.899,3.926-9.899,10.838v-14.764ZM85.087,47.067h.014s.005-.012.008-.017c5.568-4.495,10.481-7.303,17.681-6.439,8.241.988,16.248,5.232,23.763,8.963-9.62.309-22.853,1.256-28.637,9.898,1.1-.632,2.186-1.24,3.273-1.805.002.006.005.011.007.018,2.883-1.497,5.788-2.656,9.031-2.953-4.091,2.959-7.194,5.883-10.147,9.292-2.363-.524-4.785-.989-7.257-1.409-7.057-1.2-13.677-1.723-21.437-1.86l-.025-13.688h13.726ZM108.286,66.245c-1.635-.536-3.312-1.027-5.04-1.468l2.416-.55c.056.045.11.087.166.132-.003.007-.005.015-.009.021.822.67,1.642,1.283,2.466,1.865ZM88.02,66.182c-1.541,1.104-3.048,2-4.519,2.676-2.746,1.261-5.626,1.891-8.641,1.891-.597,0-1.188-.021-1.771-.065-.583-.043-1.146-.106-1.686-.193l-.01-5.486c6.287.114,11.504.481,16.626,1.177ZM63.766,55.641c1.28-2.363,1.92-5.093,1.92-8.188v-16.261l3.669-2.986v32.522c-.814-.007-1.623-.016-2.465-.016h-.343c-2.491.003-4.759.055-6.922.155,1.851-1.816,3.238-3.56,4.14-5.227ZM69.355,64.977v5.169c-2.475-.515-4.744-1.352-6.806-2.514-1.249-.702-2.4-1.537-3.477-2.476,2.396-.125,4.826-.188,7.479-.191h.338c.843,0,1.66.005,2.465.013ZM35.827,93.256c-1.065-.252-2.101-.518-3.108-.796v-23.282c4.177-1.13,8.865-2.068,13.894-2.784,1.044,1.833,2.306,3.544,3.84,5.101,4.807,4.879,10.938,7.32,18.391,7.32,5.604,0,10.326-1.256,14.167-3.77,2.976-1.946,5.58-4.769,7.821-8.447.426.068.852.137,1.279.21,4.562.776,8.283,1.572,11.584,2.48v20.009c-.376-.071-.738-.152-1.121-.218-4.101-.697-8.378-1.046-12.832-1.046-5.537,0-10.579.505-15.126,1.515-4.548,1.01-8.446,2.493-11.692,4.449-1.229.74-2.353,1.547-3.375,2.418-2.615-.13-5.135-.313-7.584-.557-5.876-.584-11.306-1.46-16.137-2.603ZM153.067,74.341c-1.717-.171-3.084.198-4.501,1.118-8.688,5.642-14.892,8.483-23.57,9.24.32-.574.602-1.183.793-1.842h0,0c.298-1.026.401-2.153.19-3.371-.121-.699-.338-1.366-.628-1.998,4.039-.063,8.007-.732,11.236-1.719-.039.003-.077.004-.117.007.038-.011.079-.021.117-.033-.404.028-.806.054-1.206.077-.006.007-.013.014-.019.021-2.396.138-4.714.181-6.964.088.006-.007.012-.014.019-.02-1.44-.059-2.853-.178-4.243-.358-1.378-1.819-3.275-3.273-4.928-4.334-.667-.428-1.06-.621-1.574-.915-1.599-.916-3.296-1.724-5.06-2.46-1.525-1.507-2.766-3.141-3.782-5.144-.081-.16-.126-.324-.142-.488-.037-.491.198-.975.613-1.313,2.838-2.312,5.897-4.078,9.387-5.405-.471,1.406-.688,2.818-.665,4.191.046,3.043,1.276,5.891,3.55,8.035,3.24,3.055,8.063,4.02,12.279,2.094,3.467-1.583,5.696-4.627,6.325-8.224.008-.042.016-.085.022-.128.073-.443.127-.893.15-1.351,0-.007,0-.015,0-.023.02-.409.014-.825-.006-1.243-.006-.128-.014-.256-.023-.385-.029-.367-.071-.736-.131-1.108-.009-.056-.01-.11-.02-.166,4.111,1.792,7.363,4.612,10.405,7.768,1.178,1.222,2.604,2.042,3.892,3.245-1.526,1.397-5.981-.663-7.863.286-4.931,2.486-10.053,3.954-15.495,4.466.006-.006.012-.013.017-.019-1.645.155-3.318.224-5.026.204.05.01.101.014.151.023-.051,0-.1.003-.151.002,6.602,1.265,13.336.353,19.757-1.707,1.198-.384,2.492-.514,3.712-.325l8.185,1.268c.421.065,1.151-.122,1.418-.376,1.452-1.386-2.769-7.233-3.713-8.766l-.086-.355c3.807,2.478,6.53,5.857,8.73,9.82-2.189,2.707-7.747,1.951-11.038,1.623Z"/>
    <path d="M242.524,18.369l20.203-7.292s1.219,1.311.066-.786c-.238.391-.675.666-1.247.744-6.804.93-13.355,2.315-19.892,4.25-3.242.96-5.799,2.567-8.127,5.008-5.462,5.728-11.239,10.821-17.493,15.762,7.902-3.828,14.714-8.979,21.143-14.783,1.525-1.377,3.41-2.205,5.346-2.903Z"/>
    <path d="M289.557,47.354c-.811-8.935-5.053-18.056-13.57-21.612.013.015.026.03.04.045-.014-.006-.026-.013-.04-.019,1.801,2.033.898,3.424-1.496,2.208-.122-.073-.236-.146-.361-.219.001.01.004.019.005.029-.002,0-.003-.001-.005-.003.217,1.473.601,2.509,1.107,4.08l-3.703,2.841v.025s0,0,0,0l.293,6.26c7.398-.752,12.139,1.928,17.729,6.39,0-.01-.002-.019-.003-.029,0,0,.002.002.003.002Z"/>
    <path d="M133.923,19.034c1.574.647,2.925,1.531,4.315,2.788,5.948,5.377,12.242,10.008,19.334,13.586.006-.013.012-.026.017-.039.011-.024.02-.045.028-.064.024-.06.049-.119.074-.179-6.061-4.695-11.626-9.69-16.92-15.207-2.354-2.453-4.944-3.932-8.207-4.889-7.336-2.152-14.667-3.621-22.375-4.459l13.037,4.47c3.671,1.259,7.133,2.526,10.696,3.993Z"/>
    <path d="M254.323,75.116c-5.355,1.46-10.588,1.303-16.408.925.033.011.069.021.102.032-.035-.002-.068-.004-.102-.006,9.14,3.06,27.25,3.111,31.374-8.438-.005.004-.01.008-.016.012.005-.013.011-.025.016-.038-4.529,3.693-9.378,6.272-14.966,7.514Z"/>
  </g>
  <polygon points="275.987 25.768 274.13 27.784 276.875 30.433 277.772 28.359 275.987 25.768"/>
</svg>