<?xml version="1.0" encoding="UTF-8"?>
<svg id="a" data-name="Layer 1 copy" xmlns="http://www.w3.org/2000/svg" width="3001" height="3001" viewBox="0 0 300.1 300.1">
  <path d="M29.098,195.816c0,9.8,7.973,17.772,17.773,17.772h43.192c-1.504-1.602-3.016-5.224-3.575-6.984-2.405-7.577-3.748-16.376-4.641-24.268-.091-2.804.308-6.178.018-8.925-.071-.676-.643-1.48-.819-2.23-.541-2.311.826-3.68.405-5.761-.1-.493-.431-1.012-.479-1.492-.056-.57.164-.944.153-1.391-.025-1.025-.782-1.995-1.27-2.836-.456-.785-.085-.846-1.156-1.521-3.372-2.125-8.855-3.049-12.314-5.173-1.641-1.008-1.645-2.449-3.283-3.677-1.924-1.444-4.336-2.574-6.353-3.907-.195-.364-.41-.784-.512-1.185-.295-1.165-1.324-5.153-1.253-6.078.069-.901.621-1.905.642-2.853l.353.355c-.015-.564.008-2.324.535-2.588,2.688-.545,2.539,2.851,2.5,4.639-.019.891-.44,1.182.446,2.054.46-.235,2.455-5.198,3.584-6.23.783-.716,2.229-1.064,3.12-1.52.775-.397,1.495-1.447,2.439-1.037,1.44.626,1.015,2.486.119,3.418-.139.144-2.468,1.528-1.407,1.801.523.135,1.765-1.333,2.279-1.643.853-.515,2.153-.8,3.105-1.177.405-.161.789-.566,1.117-.667,2.181-.667,2.593,1.673,1.256,3.04-.602.615-3.303,1.584-3.528,1.915-.128.187-.206,1.148-.577,1.48l.985,1.154c1.064-.832,2.323-2.507,3.47-3.129.822-.445,1.664-.455,2.506-.706.776-.231,1.289-1.055,2.156-.369,1.229.973.156,2.469-.846,3.107-.462.294-1.943.71-2.155.968-.126.154-.134.602-.302.856-.193.292-1.189,1.376-.994,1.593,1.801.471,3.591.374,5.392.945,3.149,1,5.488,3.11,7.066,5.961.882,1.594,1.718,4.798,2.7,5.997.534.652,1.71.672,2.367,1.963.846,1.663.14,1.749.159,3.051.012.851.673,4.443.957,5.29.327.974,1.342,2.063,1.512,2.949.473,2.47.03,5.175,1.048,7.518.257.592.79,1.073,1.064,1.791.333.871.337,1.943.664,2.726.695,1.665,1.257,2.376,1.872,4.377.04.132-.072.391.268.26.111-.043,1.91-1.224,1.996-1.306.9-.865,2.151-3.152,3.097-4.308,1.546-1.89,4.025-3.82,5.348-5.537.297-.386.416-.94.709-1.253.504-.538,1.35-.428,1.797-.879.23-.232,1.262-2.014,1.379-2.369.233-.71.123-1.416.354-1.966.269-.644,1.243-1.094,1.625-1.587.469-.606.578-1.544.883-2.151.342-.681.978-1.139,1.283-1.838-1.073.647-1.997-.424-2.762-.458-.369-.016-.755.276-1.211.239-2.213-.182-2.921-2.302-3.014-4.214-2.238-.388-2.687-2.142-2.29-4.134-2.12-.03-3.278-1.473-2.779-3.583.234-.989,1.311-1.668,1.35-2.663-.13-.127-3.191.307-3.616.397-1.325.283-2.948,1.254-4.045,1.485-3.227.682-3.885-2.982-1.418-4.629,2.379-1.589,4.896-1.733,7.551-2.442,1.189-.318,2.339-.862,3.486-1.153.853-.217,3.057-.36,3.625-.657.436-.228.871-1.5,1.299-1.913.904-.87,2.91-.452,4.091-.549,1.809-.149,2.99-.922,4.872-.228,1.135.418,1.674,1.373,2.533,2.107,1.06.907,2.309,1.796,3.308,2.759.852.821,2.946,3.71,3.779,3.894.402.089.826-.022,1.203.047.449.081,3.135,2.272,3.672,2.752.342.306.495.673.817.972,3.495-1.348,6.914-3.003,10.004-5.131l.416-.031.177.714c.121-.542-.114-1.045-.16-1.535-.026-.282.192-.569.134-.837-.105-.482-1.321-1.48-1.86-1.551-.926-.122-3.79,1.456-4.93,1.833-2.307.763-5.656,1.61-7.549-.405-1.927-2.051-.371-3.588-.844-5.403-.323-1.239-2.331-2.961-2.06-4.283.07-.341.53-.825.476-1.09-.062-.305-.539-.366-.699-.596-.74-1.06.572-4.309-.806-4.516-.471-.071-.937.181-1.414.193-1.186.03-2.472-.438-2.41-1.798l.002-.476c.293-2.582,1.348-5.089,1.885-7.648-.293-.657-.854-1.152-1.088-1.866-.143-.436-.074-1.284-.352-1.61-.372-.438-3.039.415-3.771.515-4.395.6-9.925-.562-10.242-5.963-.015-.248-.014-.467-.002-.666l-85.583,27.438v60.244Z"/>
  <path d="M129.454,101.891c3.111-5.115,5.298-11.108,10.629-14.441.512-.32,1.08-.635,1.686-.94H46.87c-9.8,0-17.773,7.973-17.773,17.772v1.607h87.837c3.997-1.579,8.487-2.489,12.519-3.999Z"/>
  <path d="M130.11,194.384c-.355-1.367-.333-3.072-.795-4.471-3.247,4.396-6.403,8.257-10.62,11.773-3.495,2.913-11.482,9.43-16.58,11.903h29.347c-.02-1.194-.183-2.269-.004-3.958.141-1.332.922-2.701.876-4.263-.02-.675-.494-1.154-.621-1.699-.333-1.424.688-2.236.648-3.674-.074-2.701-1.709-3.52-2.252-5.609Z"/>
  <path d="M252.998,86.511h-85.707c3.709,2.138,6.891,5.511,8.959,8.907.897,1.473,1.207,2.993,1.882,4.185.28.494,1.242,1.196,1.425,1.787.122.393.321,3.886.261,4.388-.101.857-.852,1.581-.905,1.968-.072.519.332.738.328,1.028-.006.426-1.101,3.931-1.379,4.279-.229.286-.749.222-.875.601-.19.575.049,1.838-.071,2.606-.11.711-.628,1.545-.798,2.235-.484,1.956-1.076,4.241-.986,6.208l-.495.344c.665.15.22.493.269.903.239,2.04,1.756,6.107,2.946,7.841.15.219.721,1.069.77,1.121.51.538,2.308,1.855,2.991,2.255.392.23,2.356,1.225,2.653,1.274.279.046.53-.364.854-.432.707-.147,1.925.903,2.68,1.016.424.063.735-.183,1.157-.119,1.701.257,4.562,1.714,6.487,1.931.963.108,2.546-.445,3.553-.529.96-.08,1.756.121,2.669.185.356.025.698-.196,1.037-.154.413.052,4.037,2.172,4.578,2.564,6.42,4.658,8.163,13.717,7.503,21.222-.287,3.271-1.645,6.658-1.937,9.84-.305,3.324-.188,5.801-.967,9.205-2.402,10.494-5.484,20.444-9.413,30.419h50.531c9.8,0,17.772-7.973,17.772-17.772v-91.532c0-9.8-7.973-17.772-17.772-17.772Z"/>
</svg>