<?xml version="1.0" encoding="UTF-8"?>
<svg id="a" data-name="Layer 1 copy" xmlns="http://www.w3.org/2000/svg" width="3001" height="3001" viewBox="0 0 300.1 300.1">
  <path d="M38.743,69.735v13.636h.008v144.565h125.209v.027h99.103V69.735H38.743ZM93.365,223.922l26.789-36.295,3.218,2.055-25.309,34.24h-4.698ZM150.872,202.479l-22.121-14.125,4.047-5.466c16.874,9.013,38.212,4.236,49.504-11.806,2.385-3.388,4.146-7.029,5.306-10.785-1.185-1.062-2.4-2.092-3.641-3.089h0c-.439,1.764-1.025,3.506-1.758,5.208h-.018s0,0,0,0h0s.014.01.014.01c-.43.997-.912,1.981-1.444,2.948h-.99l-.309-.951h0s0,0,0,0l-.309.951h-1,0s0,0,0,0l.809.588-.309.951h0s0,0,0,0l.809-.588.525.382c-.388.635-.797,1.261-1.231,1.878-.295.419-.598.829-.908,1.23l-.246-.759.809-.588h-1l-.309-.951h0s0,0,0,0l-.309.951h-1,0l.809.588-.309.951h0s0,0,0,0h0s0,0,0,0l.809-.588.674.49c-2.185,2.81-4.733,5.188-7.531,7.118l-.12-.37h0s0,0,0,0h0s0,0,0,0l-.189.583c-.09.06-.18.119-.27.178h-.588s0,0,0,0h0s.279.203.279.203c-10.022,6.457-22.986,7.323-33.943,1.735h0l13.114-17.712-.057.175h0s0,0,0,0l.462-.336.462.336h0s0,0,0,0l-.177-.544.462-.336h0s0,0,0,0h-.572l-.019-.057.81-1.093.002-.002,2.379-3.224h0s.317-.43.317-.43l3.382,6.729h0s3.343,6.65,3.343,6.65l-.2.615h-.8s0,0,0,0h0,0s.21.153.21.153l-1.402-.229,3.352,3.382-2.181,4.233,4.253-2.143,3.352,3.382-.724-4.707,4.253-2.143-3.289-.536.619-.45h0s0,0,0,0h0s0,0,0,0h-.8l-.247-.761h0s0,0,0,0h0s0,0,0,0l-.247.761h-.769l-.69-4.487-.835,1.621-6.679-13.287,3.266.295v.003s16.339,1.471,16.339,1.471l.316-3.504-11.389-1.025-6.974-.628h-.002s-1.493-.135-1.493-.135c.535-1.228.649-2.564.379-3.819l1.461.132.388.035,12.817,1.153h0c-2.891-1.608-5.881-3.057-8.96-4.337h0l-1.413-.127-.495-.045h-.003s-3.654-.329-3.654-.329l-.649-.058.943-1.435c-1.318-.451-2.649-.872-3.994-1.261l-.038.058-.037-.08c-1.443-.416-2.901-.795-4.374-1.139l.754,1.627.412.89c-1.292.147-2.532.692-3.522,1.595l-.552-1.192-.647-1.397-1.152-2.486c-1.379-.243-2.769-.453-4.17-.631l1.923,4.151h0s1.571,3.391,1.571,3.391l-7.388-.428-7.989-.462,1.147-1.404-4.579,1.205-.031-.002-2.57-3.997-.271,4.754-4.605,1.212,4.438,1.727-.271,4.754,3.014-3.687,4.438,1.727-1.477-2.297,8.572.496-.103.316h-1,0s0,0,0,0l.809.588-.309.951h0s0,0,0,0l.809-.588.809.588h0s0,0,0,0h0s-.309-.951-.309-.951l.809-.588h0s-1,0-1,0l-.095-.291,7.007.406-.062.088h-.002s-2.335,3.324-2.335,3.324l-14.366,19.432c-3.344-3.366-5.87-7.322-7.531-11.577l.285-.207h0,0-.366c-2.756-7.198-3.041-15.236-.615-22.726h0c-1.586.187-3.159.416-4.719.686h0c-3.485,13.201.297,27.585,10.339,37.349l-4.447,6.015-52.691-33.646,83.975-53.622,83.975,53.622-83.975,53.622ZM132.322,177.574c-.364-.236-.724-.48-1.082-.731-.691-.487-1.358-.994-2.002-1.522l4.732-6.411.827.601-.371,1.142h0s0,0,0,0l.971-.706.971.706h0s0,0,0,0l-.371-1.142.971-.706h0s0,0,0,0h-1.201l-.371-1.142-.371,1.142h-.979l11.006-14.912.821-1.112c.408.517.903.98,1.483,1.361.539.354,1.113.615,1.702.785l-.867,1.175h0s-.002.002-.002.002l-1.128,1.526-.073-.223h0s0,0,0,0h0s0,0,0,0l-.186.574-.138.187h-.723s0,0,0,0h0s.47.342.47.342l-14.091,19.063h0ZM165.04,171.343l-.305-.05-.03-.194.335.243ZM159.617,170.129l-.027-.082.041.082h-.015ZM152.038,147.02c.041.027.081.056.12.086l.021.045.042.004c.884.717,1.099,2.006.461,2.978-.68,1.035-2.076,1.324-3.112.644-.586-.385-.932-.999-1-1.647l.088-.12c-.002-.082,0-.164.007-.245l-.085-.184c.045-.318.158-.631.346-.916.68-1.035,2.076-1.324,3.112-.644ZM180.128,166.476l-.167-.513.791-.575c-.201.365-.409.728-.625,1.087ZM126.658,178.816c.672.544,1.367,1.07,2.084,1.575.33.232.662.457.996.678h0s-3.975,5.378-3.975,5.378l-3.22-2.056,4.114-5.574ZM119.279,223.922h-16.862l23.94-32.334,22.245,14.205c.111.071.217.139.318.203l.371.237c.044.028.086.055.127.081l.486.31c.025.016.049.031.072.046l.21.134c.078.05.146.094.208.133l.098.063c.027.017.053.034.077.049l.118.075c.018.012.034.022.049.031l.054.034c.02.013.036.023.047.03l.011.007s.007.004.01.006l.015.009,91.433-58.385-91.433-58.385-91.433,58.385,57.758,36.881-28.23,38.184h-46.202V73.751h216.282v150.171H119.279Z"/>
  <polygon points="119.768 141.422 119.397 140.28 119.026 141.422 117.826 141.422 117.826 141.422 117.826 141.422 118.797 142.128 118.426 143.269 118.426 143.269 118.426 143.269 118.426 143.269 118.426 143.269 119.397 142.564 120.368 143.269 120.368 143.269 120.368 143.269 120.368 143.269 120.368 143.269 119.997 142.128 120.969 141.422 120.969 141.422 120.969 141.422 119.768 141.422"/>
  <polygon points="122.207 158.337 121.836 159.479 121.836 159.479 121.836 159.479 121.836 159.479 121.836 159.479 122.807 158.773 123.778 159.479 123.778 159.479 123.778 159.479 123.778 159.479 123.778 159.479 123.407 158.337 124.378 157.631 124.378 157.631 124.378 157.631 123.178 157.631 122.807 156.49 122.436 157.631 121.235 157.631 121.235 157.631 121.235 157.631 122.207 158.337"/>
  <polygon points="126.298 155.874 126.121 156.418 126.121 156.418 126.121 156.418 126.584 156.082 127.046 156.418 127.046 156.418 127.046 156.418 126.87 155.874 127.332 155.538 127.332 155.538 127.332 155.538 126.76 155.538 126.584 154.995 126.407 155.538 125.835 155.538 125.835 155.538 125.835 155.538 126.298 155.874"/>
  <polygon points="129.523 161.546 129.523 161.546 130.333 162.134 130.023 163.085 130.023 163.085 130.023 163.085 130.023 163.085 130.023 163.085 130.833 162.497 131.642 163.085 131.642 163.085 131.642 163.085 131.642 163.085 131.642 163.085 131.333 162.134 132.142 161.546 132.142 161.546 132.142 161.546 131.142 161.546 130.833 160.594 130.833 160.594 130.833 160.594 130.524 161.546 129.523 161.546 129.523 161.546"/>
  <polygon points="128.631 165.46 128.631 165.46 128.631 165.46 129.279 165.931 129.031 166.692 129.031 166.692 129.031 166.692 129.679 166.222 130.326 166.692 130.326 166.692 130.326 166.692 130.079 165.931 130.726 165.46 130.726 165.46 130.726 165.46 130.726 165.46 130.726 165.46 129.926 165.46 129.679 164.699 129.679 164.699 129.679 164.699 129.679 164.699 129.679 164.699 129.431 165.46 128.631 165.46 128.631 165.46 128.631 165.46"/>
  <polygon points="177.516 161.88 176.316 161.88 176.316 161.88 176.316 161.88 177.287 162.586 176.916 163.728 176.916 163.728 176.916 163.728 176.916 163.728 176.916 163.728 177.887 163.022 178.858 163.728 178.858 163.728 178.858 163.728 178.858 163.728 178.858 163.728 178.487 162.586 179.459 161.88 179.459 161.88 179.459 161.88 178.258 161.88 177.887 160.739 177.516 161.88"/>
  <polygon points="170.485 173.454 170.176 172.502 170.176 172.502 170.176 172.502 169.867 173.454 168.866 173.454 168.866 173.454 168.866 173.454 169.676 174.042 169.367 174.993 169.366 174.993 169.366 174.993 169.366 174.993 169.367 174.993 170.176 174.405 170.985 174.993 170.985 174.993 170.985 174.993 170.985 174.993 170.985 174.993 170.676 174.042 171.485 173.454 171.485 173.454 171.486 173.454 170.485 173.454"/>
  <polygon points="175.053 170.496 174.253 170.496 174.005 169.735 174.005 169.735 174.005 169.735 174.005 169.735 174.005 169.735 173.758 170.496 172.958 170.496 172.958 170.496 172.958 170.496 172.958 170.496 172.958 170.496 173.605 170.967 173.358 171.728 173.358 171.728 173.358 171.728 174.005 171.258 174.653 171.728 174.653 171.728 174.653 171.728 174.405 170.967 175.053 170.496 175.053 170.496 175.053 170.496 175.053 170.496 175.053 170.496"/>
  <polygon points="170.666 170.994 170.666 170.994 170.666 170.994 170.419 170.232 171.066 169.762 171.066 169.762 171.066 169.762 171.066 169.762 171.066 169.762 170.266 169.762 170.019 169.001 170.019 169.001 170.019 169.001 170.019 169.001 170.019 169.001 169.771 169.762 168.971 169.762 168.971 169.762 168.971 169.762 168.971 169.762 168.971 169.762 169.618 170.232 169.371 170.994 169.371 170.994 169.371 170.994 170.019 170.523 170.666 170.994"/>
  <polygon points="151.243 165.657 150.872 164.516 150.501 165.657 149.3 165.657 149.3 165.657 149.3 165.657 150.271 166.363 149.9 167.505 149.9 167.505 149.9 167.505 149.9 167.505 149.9 167.505 150.872 166.799 151.843 167.505 151.843 167.505 151.843 167.505 151.843 167.505 151.843 167.505 151.472 166.363 152.443 165.657 152.443 165.657 152.443 165.657 151.243 165.657"/>
  <polygon points="151.395 178.85 150.995 178.85 150.872 178.469 150.872 178.469 150.872 178.469 150.748 178.85 150.348 178.85 150.348 178.85 150.671 179.085 150.548 179.466 150.548 179.466 150.548 179.466 150.872 179.23 151.195 179.466 151.195 179.466 151.195 179.466 151.072 179.085 151.395 178.85 151.395 178.85"/>
  <path d="M120.904,132.666c.621-1.138,1.312-2.253,2.076-3.338,10.842-15.403,32.115-19.099,47.517-8.258,10.017,7.051,15.083,18.515,14.418,29.907,1.41,1.056,2.79,2.15,4.137,3.282-.031-.026-.062-.052-.093-.078,1.878-13.779-3.809-28.101-15.965-36.658-17.359-12.218-41.337-8.052-53.558,9.31-1.445,2.052-2.66,4.197-3.652,6.404h0c1.692-.236,3.4-.427,5.12-.571Z"/>
  <path d="M138.273,126.335l-3.191,1.481,2.27,4.899c1.372.124,2.736.277,4.09.46h0l-3.169-6.839Z"/>
  <path d="M152.198,147.19l-.019-.04-.042-.004c.021.014.041.029.061.044Z"/>
  <path d="M150.305,134.807l-5.358-11.565-3.192,1.479,4.255,9.185h0c1.444.268,2.876.568,4.295.901h0s0,0-.001,0Z"/>
  <path d="M148.911,140.139s-.01-.002-.014-.003h0s.009.002.014.003Z"/>
  <path d="M160.966,137.101l.413-.629.852.619-.371,1.142h0s0,0,0,0l.971-.706.971.706h0s0,0,0,0h0s-.371-1.142-.371-1.142l.971-.706h0s0,0,0,0h-1.201l-.371-1.142-.371,1.142h-1.025l3.723-5.666.803,2.121,1.253-4.594,4.757-.228-3.982-2.612,1.253-4.594-3.714,2.98-3.982-2.612,1.686,4.453-3.714,2.98,2.272-.109-4.194,6.381h0l-1.059,1.611c1.331.412,2.65.852,3.954,1.321l.472-.718h0Z"/>
</svg>