<?xml version="1.0" encoding="UTF-8"?>
<svg id="a" data-name="Layer 1 copy" xmlns="http://www.w3.org/2000/svg" width="3001" height="3001" viewBox="0 0 300.1 300.1">
  <path d="M144.486,100.102c.174.074,2.224-.856,2.401-1.039.151-.157.175-.458.345-.686.44-.588,2.748-1.909,2.029-2.774-1.104-1.329-6.023-.355-6.361,1.429-.097.514,1.193,2.904,1.586,3.07Z"/>
  <path d="M141.816,103.904c.246-.203.793-1.365.867-1.71.692-3.249-4.098-8.651-7.307-6.048-2.158,1.751-1.156,5.718.593,7.424,1.225-.055,4.944,1.08,5.847.335Z"/>
  <path d="M173.619,172.173c0-1.87-.627-2.619-2.17-2.619-1.688,0-2.219.79-2.219,2.286v4.406h4.389v-4.073Z"/>
  <path d="M151.675,99.446c.301.033.431-.012.648-.217.292-.276,1.444-2.401,1.69-2.894.2-.402.568-1.002.641-1.422.121-.704.081-1.898-.917-1.73-.368.062-.811.509-1.062.782-.77.838-1.703,2.162-2.393,3.108-.277.38-1.107,1.221-.704,1.598.116.109,1.899.754,2.098.776Z"/>
  <path d="M123.744,102.962c-.666.911-.632,2.181.729,2.114.809-.04,2.606-.952,3.624-1.198,1.462-.354,2.965-.444,4.44-.716.849-.118-.236-2.888-.457-3.094-.456-.426-2.758-.21-3.416-.092-1.64.293-3.934,1.637-4.92,2.986Z"/>
  <path d="M132.511,96.943c-.83-.692-4.836-1.071-5.933-.887-1.04.174-1.479,1.463-.542,1.863l5.907.959c.827-.121,1.183-1.422.568-1.935Z"/>
  <path d="M151.983,115.456c.003.014.005.027.008.04.007.033.014.066.022.098.003.013.006.026.009.038.011.041.022.082.034.12,0,0,0,.002,0,.002.012.039.025.077.039.113.004.011.008.021.012.032.01.026.021.052.032.076.005.01.009.02.014.03.015.031.03.061.046.09,0,.001.001.003.002.004.017.03.035.057.053.084.005.008.011.016.017.023.014.019.028.037.042.055.006.007.012.015.018.022.019.022.038.043.059.062.001.001.002.003.004.004.021.02.044.039.066.057.007.005.014.01.021.015.017.012.035.024.052.035.007.005.015.009.022.013.023.013.047.025.071.036.002,0,.003.002.005.002.026.011.053.021.08.03.008.003.016.005.024.007.021.006.042.011.063.016.009.002.017.004.026.005.027.005.055.009.083.012.002,0,.004,0,.006,0,.031.003.062.004.094.004.003,0,.006,0,.009,0,.006,0,.012,0,.018,0,.024,0,.049-.001.074-.003.01,0,.02-.001.03-.002.032-.003.065-.007.098-.012.002,0,.003,0,.005,0,.035-.006.071-.013.108-.021.01-.002.021-.005.031-.007.028-.007.056-.014.084-.022.011-.003.022-.006.033-.009.037-.011.075-.023.114-.036,0,0,.002,0,.002,0,.04-.014.08-.029.121-.045.012-.005.024-.01.036-.014.031-.013.062-.026.093-.039.012-.005.025-.011.037-.016.042-.019.085-.039.129-.06.879-.431,1.416-1.628,1.41-2.578,0-.04-.002-.077-.004-.113,0-.01-.002-.021-.002-.031-.002-.027-.005-.054-.009-.08-.001-.008-.002-.017-.003-.025-.005-.032-.011-.062-.018-.091-.001-.006-.003-.011-.005-.017-.006-.023-.013-.045-.02-.067-.003-.008-.006-.016-.008-.023-.008-.021-.017-.042-.026-.061-.002-.004-.004-.008-.006-.012-.011-.023-.024-.044-.037-.064-.004-.006-.008-.011-.011-.016-.01-.015-.021-.029-.033-.042-.004-.005-.009-.01-.013-.015-.015-.017-.031-.033-.048-.047-.002-.002-.004-.003-.006-.005-.015-.013-.032-.025-.048-.036-.006-.004-.011-.008-.017-.011-.015-.009-.03-.018-.045-.026-.005-.003-.01-.005-.015-.008-.02-.01-.041-.019-.062-.027-.005-.002-.011-.004-.016-.005-.017-.006-.035-.012-.053-.017-.007-.002-.014-.004-.021-.006-.02-.005-.041-.01-.062-.014-.003,0-.006-.001-.009-.002-.024-.004-.049-.008-.075-.011-.007,0-.014-.001-.022-.002-.02-.002-.04-.004-.06-.005-.007,0-.014,0-.021-.001-.027-.001-.054-.002-.081-.002,0,0-.001,0-.002,0-.004,0-.008,0-.012,0-.021,0-.043,0-.064.001-.009,0-.017,0-.026.001-.018,0-.037.002-.055.003-.009,0-.018.001-.028.002-.02.001-.04.003-.059.005-.008,0-.015.001-.023.002-.028.003-.055.005-.084.008-.003,0-.005,0-.008,0-.026.003-.051.006-.077.009-.009.001-.019.002-.028.004-.02.003-.039.005-.059.008-.01.001-.021.003-.031.004-.021.003-.041.006-.062.009-.008.001-.017.002-.025.004-.029.004-.057.008-.086.013-1.312.194-2.098,1.059-1.892,2.407.007.049.016.096.025.142Z"/>
  <path d="M155.823,120.157c-.165,2.301,2.356,2.083,3.775,2.987,2.299,1.464,1.178,3.462,2.051,5.513.291.682.716,1.072.81,1.939.176,1.626-.896,3.037-.107,4.693.556,1.168,2.708,1.132,3.506.287,1.106-1.172,1.042-5.518.417-6.962-.479-1.106-1.672-1.617-1.616-3.054.047-1.207.625-1.506.046-2.94-.568-1.405-1.748-.993-2.748-1.721-.77-.561-.764-1.418-1.627-1.925-.673-.395-1.815-.637-2.581-.564-1.059.102-1.844.602-1.926,1.747Z"/>
  <path d="M158.58,117.055c1.14.938,1.699.001,2.594-.016,1.037-.02,1.55,2.083,2.139,2.675.522.525,1.62.51,1.964.844.244.237.542,1.216.812,1.595.298.419.91.787,1.106,1.3.276.725-.378,2.015-.378,2.891.002,2.129,1.761,3.317,3.5,1.773,1.36-1.207,1.971-3.579.913-5.146-.563-.833-1.73-1.305-1.873-2.367-.151-1.118.073-1.937-.698-2.97-.86-1.152-2.085-.718-2.583-1.199-.331-.32-.258-1.117-.573-1.604-1.044-1.612-3.574-2.045-5.268-1.384-1.168.456-3.025,2.481-1.654,3.609Z"/>
  <path d="M161.097,131.616c.079-.73.032-2.032-.285-2.696-.475-.994-1.744-1.033-1.98-2.26-.16-.833-.01-1.246-.6-2.036-1.436-1.921-4.034-.576-4.239,1.489-.076.767.243,2.212.756,2.798.268.306.879.667,1.151.969,1.025,1.135.601,1.729,1.089,2.865.553,1.289,1.581,1.098,1.122,2.99-.318,1.31-1.83,3.962-.261,4.974,1.56,1.006,3.951.307,4.164-1.643.233-2.133-.584-2.656-1.318-4.298-.713-1.596.256-1.811.401-3.151Z"/>
  <path d="M154.566,97.518c.643-.191,3.226-.664,3.537-1.101.287-.403.116-1.713.124-2.284.005-.374.139-.709.125-1.144-.053-1.604-.795-1.926-1.629-.475-.599,1.043-1.644,3.427-2.068,4.579-.053.143-.123.259-.09.425Z"/>
  <path d="M153.075,99.866c-.834.728-2.167,2.552-1.325,3.62l.346.112c1.976-.2,4.008-.215,5.931-.726.612-.163,2.401-.742,2.8-1.153.7-.721-.518-2.349-1.164-2.825-1.717-1.268-5.085-.34-6.59.973Z"/>
  <path d="M148.667,100.041c-1.884.153-4.861,1.738-4.855,3.879.191.098.397.12.609.136,1,.073,2.811.096,3.792,0,.402-.039.75-.159,1.031-.459.232-.248,1.141-2.277,1.235-2.663.258-1.064-1.045-.955-1.811-.893Z"/>
  <path d="M124.804,137.604c1.801-.11,2.196-1.419,4.516-.22,1.168.604,1.887,1.235,3.271,1.656,2.229.679,3.984.065,6.125,1.209,1.628.87,2.624,2.519,4.702,1.304,1.528-.893,1.293-2.765.193-3.908-.576-.598-2.862-1.961-3.664-2.066-2.845-.373-3.614,1.185-6.832-.386-2.499-1.22-3.01-2.246-6.188-1.884-1.147.131-3.662,1.146-3.862,2.44-.178,1.148.603,1.926,1.74,1.856Z"/>
  <path d="M139.676,119.798c-.525-.129-.946,1.826-.665,2.218,1.491.918,1.627-1.982.665-2.218Z"/>
  <path d="M132.91,129.208c1.138.364,1.73,1.026,3.147,1.093,1.255.059,2.384-.566,3.561-.467,1.036.087,2.271,1.163,3.147.177.438-.493.471-1.29-.036-1.742-.62-.553-3.265-1.003-4.143-1.071-.614-.048-1.354.088-1.946-.002-.479-.073-1.236-.488-1.782-.624-1.255-.313-2.966-.483-4.171.071-.588.27-1.347,1.125-.881,1.773.324.451,2.441.581,3.102.793Z"/>
  <path d="M127.64,132.073c.837.359,2.534.447,3.576.778,1.162.369,2.197,1.053,3.406,1.292,1.123.223,1.873.006,2.928.052,1.402.062,4.266.97,5.331-.286.471-.556.185-1.481-.271-1.968-.436-.465-2.013-1.129-2.654-1.184-2.054-.177-2.36,1.498-4.895.426-2.318-.98-4.018-2.383-6.777-1.101-.767.356-1.788,1.5-.644,1.991Z"/>
  <path d="M142.243,114.597c.003.023.006.046.01.07.001.008.003.016.004.023.006.03.013.06.022.089.001.004.002.007.004.011.008.026.017.052.026.078.003.008.006.017.01.025.009.024.02.047.03.071.003.006.006.012.008.019.014.029.029.058.045.087.004.006.007.012.011.019.013.023.028.046.043.069.005.008.01.016.016.024.017.026.035.051.054.076.002.003.004.006.006.009.021.028.044.056.067.084.006.007.012.014.018.022.018.022.038.043.057.064.007.007.013.015.02.022.026.027.052.055.08.082.002.002.004.003.005.005.026.025.053.05.08.075.008.007.016.015.025.022.024.021.048.042.072.062.007.006.014.012.021.018.031.026.063.051.096.077.006.005.013.01.019.014.027.021.055.041.084.062.01.007.019.014.029.021.03.021.06.042.091.063.005.004.011.007.016.011.036.024.073.048.111.071.009.006.019.012.028.017.03.018.06.036.09.054.011.006.021.012.032.019.039.023.079.045.119.067,0,0,0,0,0,0,.04.022.081.043.122.064.012.006.023.012.035.018.032.016.065.032.098.048.011.005.021.01.032.015.042.02.085.04.128.059.007.003.015.007.023.01.036.016.073.032.11.048.013.005.026.011.039.016.036.015.073.03.11.044.008.003.017.007.026.01.045.017.09.034.135.051.011.004.023.008.034.012.036.013.071.025.107.038.013.005.027.009.04.014.044.015.087.029.131.043.003,0,.006.002.009.003.047.015.094.028.141.042.013.004.027.008.04.011.036.01.072.02.108.03.013.003.026.007.038.01.047.012.094.024.142.035.007.002.015.003.022.005.041.009.081.019.122.027.015.003.029.006.043.009.037.008.075.015.112.022.011.002.022.004.033.006.047.009.095.017.142.025.011.002.023.004.034.005.037.006.074.011.111.016.014.002.029.004.043.006.041.005.083.011.124.015.006,0,.013.002.019.002.047.005.093.009.14.013.013.001.026.002.04.003.035.003.071.005.106.007.013,0,.027.002.04.002.046.002.092.004.138.005.005,0,.01,0,.015,0,.032,0,.063.001.094.001.007,0,.014,0,.021,0,.031,0,.062,0,.093-.002.021,0,.043,0,.064-.002.032-.001.064-.003.096-.005.019-.001.039-.002.058-.004.037-.003.073-.006.109-.01.014-.001.028-.003.042-.004.05-.006.099-.012.148-.02.007-.001.013-.002.02-.004.042-.007.083-.014.124-.022.016-.003.032-.007.047-.011.031-.007.062-.014.092-.021.018-.005.035-.01.053-.015.027-.008.055-.015.081-.023.018-.006.036-.012.054-.018.025-.008.051-.017.075-.026.018-.007.036-.014.054-.021.024-.01.047-.019.071-.03.018-.008.035-.016.052-.024.022-.011.045-.022.066-.033.017-.009.033-.018.05-.027.021-.012.042-.024.063-.037.016-.01.032-.02.047-.03.02-.013.04-.027.059-.041.015-.011.03-.021.044-.032.019-.015.038-.03.056-.046.013-.011.027-.023.04-.034.019-.017.036-.035.054-.052.012-.012.024-.023.035-.035.019-.02.037-.042.054-.063.009-.011.018-.021.027-.032.026-.033.05-.067.073-.102.379-.585.83-1.891.282-2.446-.014-.014-.029-.028-.045-.042-.005-.005-.011-.009-.017-.014-.011-.009-.022-.018-.034-.027-.007-.005-.015-.011-.023-.016-.011-.008-.022-.016-.034-.024-.008-.006-.018-.011-.026-.017-.012-.007-.023-.015-.035-.022-.01-.006-.02-.011-.029-.017-.012-.007-.024-.014-.037-.021-.01-.006-.022-.011-.032-.017-.013-.007-.026-.013-.039-.019-.012-.006-.024-.011-.036-.017-.013-.006-.027-.012-.04-.018-.012-.005-.025-.011-.038-.016-.014-.006-.028-.012-.042-.017-.013-.005-.027-.011-.041-.016-.015-.006-.029-.011-.044-.017-.014-.005-.029-.01-.043-.015-.015-.005-.03-.011-.046-.016-.015-.005-.03-.01-.045-.015-.016-.005-.032-.01-.048-.015-.016-.005-.031-.01-.047-.014-.016-.005-.033-.01-.049-.014-.016-.005-.033-.009-.049-.014-.017-.005-.034-.009-.051-.014-.017-.004-.034-.009-.052-.013-.017-.004-.034-.009-.052-.013-.018-.004-.036-.008-.054-.013-.017-.004-.035-.008-.053-.012-.018-.004-.037-.008-.056-.012-.018-.004-.036-.008-.054-.011-.019-.004-.038-.008-.057-.011-.018-.004-.037-.007-.056-.011-.02-.004-.039-.007-.059-.011-.019-.003-.037-.007-.056-.01-.02-.003-.04-.007-.06-.01-.019-.003-.038-.006-.057-.009-.021-.003-.041-.007-.062-.01-.019-.003-.038-.006-.058-.008-.021-.003-.042-.006-.063-.009-.02-.003-.039-.005-.059-.008-.021-.003-.043-.006-.064-.008-.02-.002-.04-.005-.06-.007-.022-.003-.043-.005-.065-.008-.021-.002-.042-.004-.063-.007-.021-.002-.042-.005-.063-.007-.022-.002-.044-.004-.065-.006-.021-.002-.042-.004-.063-.006-.024-.002-.048-.004-.072-.006-.037-.003-.075-.006-.112-.009-.025-.002-.049-.004-.074-.005-.019-.001-.039-.002-.058-.004-.025-.001-.049-.003-.074-.004-.02-.001-.04-.002-.059-.003-.024-.001-.048-.002-.073-.004-.02,0-.041-.002-.061-.002-.024,0-.048-.002-.072-.003-.021,0-.041-.001-.062-.002-.024,0-.047-.001-.071-.002-.02,0-.041,0-.061-.001-.024,0-.048,0-.073-.001-.02,0-.04,0-.06,0-.024,0-.049,0-.073,0-.006,0-.012,0-.018,0-.016,0-.032,0-.047,0-.02,0-.041,0-.061,0-.022,0-.043,0-.065,0-.021,0-.042,0-.062,0-.021,0-.042,0-.063.002-.021,0-.042,0-.063.002-.021,0-.041.001-.062.002-.021,0-.043.001-.064.002-.02,0-.04.002-.06.003-.022,0-.043.002-.065.003-.019.001-.038.002-.058.003-.022.001-.044.002-.066.004-.017.001-.033.002-.05.003-.058.004-.116.008-.173.013-.006,0-.012,0-.017.001-.024.002-.048.004-.072.007-.016.001-.032.003-.047.004-.023.002-.045.005-.067.007-.017.002-.034.004-.051.005-.022.002-.043.005-.065.008-.017.002-.034.004-.052.006-.021.003-.042.006-.063.008-.017.002-.035.005-.052.007-.02.003-.04.006-.06.009-.017.003-.035.005-.052.008-.02.003-.039.006-.058.009-.017.003-.035.006-.052.009-.019.003-.038.007-.057.01-.017.003-.034.006-.051.009-.018.004-.037.007-.055.011-.017.003-.034.007-.05.01-.018.004-.036.008-.053.011-.016.004-.033.007-.049.011-.017.004-.035.008-.052.012-.016.004-.032.008-.048.012-.017.004-.033.008-.05.013-.016.004-.031.008-.047.012-.016.004-.032.009-.047.013-.015.004-.03.009-.045.013-.015.005-.03.009-.045.014-.015.005-.029.009-.044.014-.014.005-.029.01-.043.014-.014.005-.029.01-.043.015-.014.005-.028.01-.041.015-.014.005-.027.01-.041.016-.013.005-.026.01-.039.016-.013.005-.026.011-.039.017-.012.005-.025.011-.036.016-.013.006-.025.012-.038.018-.011.005-.023.011-.034.017-.012.006-.024.013-.036.019-.01.006-.021.011-.031.017-.012.007-.023.013-.034.02-.01.006-.019.011-.028.017-.011.007-.022.014-.033.022-.008.006-.017.011-.025.017-.011.008-.021.016-.031.024-.007.006-.015.011-.022.017-.011.009-.021.018-.032.027-.005.005-.011.01-.017.014-.015.014-.029.029-.043.043-.027.03-.052.06-.076.09-.007.009-.013.017-.02.026-.018.023-.034.046-.05.069-.005.008-.011.016-.016.023-.019.03-.038.06-.054.09-.003.005-.005.01-.008.016-.013.025-.025.051-.037.076-.004.009-.008.018-.011.027-.01.025-.019.049-.027.074-.002.006-.004.012-.006.018-.009.03-.017.06-.023.09-.002.007-.003.015-.004.022-.005.024-.008.047-.011.071-.001.009-.002.017-.003.026-.003.028-.004.057-.004.085,0,.002,0,.004,0,.006,0,.03.002.06.004.09,0,.008.002.016.003.025Z"/>
  <path d="M201.023,169.803c-1.447,0-1.929.956-1.929,2.619v10.641c0,1.663.482,2.619,1.929,2.619,1.399,0,1.881-.956,1.881-2.619v-10.641c0-1.663-.482-2.619-1.881-2.619Z"/>
  <path d="M149.586,72.5c-32.809,0-64,17.105-64,77.55s31.191,77.55,64,77.55,64-17.105,64-77.55-31.191-77.55-64-77.55ZM93.292,180.984v-15.171c0-5.611,1.977-7.897,8.199-7.897,5.161,0,7.862,1.621,7.862,5.445v2.743h-4.823v-1.538c0-2.12-1.206-3.408-3.087-3.408-2.219,0-3.328,1.746-3.328,4.946v15.13c0,2.411,1.35,3.949,3.328,3.949,1.35,0,2.46-.166,3.087-.291v-8.812h-3.183v-3.492h8.006v15.088c-1.881.374-5.209.748-7.958.748-6.125,0-8.103-2.785-8.103-7.44ZM190.13,207.711c-9.714,9.659-23.355,14.557-40.544,14.557s-30.829-4.898-40.544-14.557c-4.336-4.312-7.901-9.591-10.688-15.812.937.151,1.949.226,3.04.226.67,0,1.36-.02,2.05-.054,2.398,4.832,5.331,8.979,8.796,12.424,8.834,8.784,21.398,13.238,37.346,13.238s28.512-4.454,37.346-13.238c3.658-3.638,6.724-8.057,9.193-13.239,1.331.545,2.868.834,4.593.864-2.772,6.125-6.303,11.33-10.588,15.59ZM111.027,188.175v-4.905h5.691v4.905h-5.691ZM125.435,98.749c-1.069-.504-1.93-1.552-1.171-2.715,1.171-1.794,4.184-1.566,6.034-1.232.448.081,2.486.775,2.726.423.035-.593-.722-.804-1.115-1.111-.093-.073-.211.003-.144-.262.435.043,2.011.266,2.298.064.421-.296-.374-1.64-.235-1.783.654.117,1.019.915,1.757.809.169-.04.467-1.359.937-1.358.425.038.133,1.142.171,1.523.116,1.165.611.739,1.402.888.427.081,1.097.281,1.494.454,1.173.511,1.385,1.47,2.797.684,1.936-1.077,3.343-2.157,5.788-1.592.736.17,1.781.938,2.417.745.22-.067.697-.692.944-.89.502-.403,2.109-1.724,2.631-1.723.49,0,.994.236,1.577.087.653-.167.816-1.071,1.981-1.122,1.684-.073,2.263,1.756,2.237,3.156-.016.825-.472,2.017-.449,2.755.013.401.342.579.712.595.776-.081.529-1.708.934-1.803.505-.119.318,1.495.967,1.67.461.124,2.203-1.106,2.051-.148-.08.508-1.244,1.084-.843,1.916.281.584,2.496.253,2.348.858-.12.492-3.56.139-2.974,1.94.221.678.801.96.899,1.856.335,3.055-4.109,6.831-6.155,8.717-.285.401-.294.864-.232,1.34.818.702,1.458-.585,2.053-1.008,1.309-.932,2.926-.58,4.157-1.229.882-.465,2.072-2.392,2.69-3.269,2.114-3.004,5.266-7.711,6.378-11.155.546-1.689.029-2.721.167-4.188.071-.756.508-.792.986-.285.804.854.462,2.213,2.286,2.412,2.563.28,3.273-1.114,5.214-1.891.556-.223,1.481-.343,1.213.52-.221.71-3.005,2.564-3.743,3.023-1.155.718-3.072,1.444-3.866,2.436-.468.584-.982,1.635-1.342,2.325-1.677,3.208-3.752,7.272-5.113,10.587-.228.555-.941,2.176-.643,2.69.039.067,1.106.6,1.34.778,1.624,1.238,1.375,2.046,2.166,3.564.387.742,1.097,1.143,1.496,1.942.968,1.935.899,4.941.069,6.917-.806,1.919-2.506,2.176-4.355,2.52-.42.407.123,1.675.173,2.24.158,1.763-.141,4.675-2.062,5.383-.612.225-2.685.278-2.808.4-.299.296-.126,1.327-.171,1.778-.162,1.636-1.387,3.276-3.149,3.278-1.857.002-4.295-2.102-5.425.523-.981,2.279,1.506,5.924,2.869,7.755.634.852,1.204,1.305,1.873,2.023,1.188,1.272-.214,2.154-1.608,1.15-1.729-1.246-4.847-7.127-4.879-9.227-.026-1.679,1.418-3.292,2.013-4.872,1.503-3.994,1.816-7.001-.861-10.482-.692-.9-3.38-3.488-3.316-4.466.021-.324.695-1.484.893-1.861.793-1.508,2.495-3.787,2.742-5.394.031-.199.015-.449.008-.681.5-.144.569-.179.648-.218.488-.246.776-.742,1.139-1.966.007-.022.013-.045.02-.068.165-.564.304-1.159.365-1.554.003-.018.005-.035.008-.052.022-.158.031-.285.028-.398-.026-.851-.384-1.347-.679-1.613-.139-.125-.293-.227-.462-.308,1.884-1.248,3.692-2.461,4.889-4.484.651-1.1,1.867-3.561-.374-3.475-1.886.073-4.918,1.164-7.009,1.476-5.09.759-10.783.789-15.911.359-1.522-.128-3.347-.546-4.811-.58-2.866-.066-.904,3.199-.038,4.399,1.033,1.432,2.506,2.443,4.027,3.307.035.02.184.091.379.185-.075-.014-.153-.031-.23-.049l-.08-.019c-.312-.072-.666-.154-1.07-.154-.016,0-.031,0-.047,0-.076.001-.153.006-.227.013-.04.004-.08.009-.118.014-.124.018-.247.045-.365.08-.072.022-.144.047-.215.075-2.058-.97-3.93-2.741-4.81-4.592-.242-.509-.707-2.46-1.044-2.622-.689-.331-1.571.338-2.204.547-.502.165-1.028.318-1.552.396-5.415.8-3.485-5.167-.139-6.557.744-.309,1.425-.181,2.059-.575.002-.154-1.178-.442-1.4-.546ZM179.411,162.322v-4.156h4.534v4.156h-4.534ZM183.945,167.31v20.866h-4.534v-20.866h4.534ZM171.449,185.931c1.688,0,2.17-1.039,2.17-2.702v-1.912h4.244v2.951c0,2.12-1.736,4.156-6.752,4.156-3.424,0-6.415-1.33-6.415-5.196v-10.557c0-3.533,2.363-5.611,6.559-5.611,3.617,0,6.608,1.33,6.608,5.196v6.734h-8.633v4.447c0,1.954.772,2.494,2.219,2.494ZM156.97,170.053c-1.109,0-1.977.582-1.977,2.203v15.919h-4.534v-20.866h4.244v1.746h.096c.434-.623,1.013-1.122,1.736-1.455.723-.374,1.543-.54,2.46-.54,2.267,0,4.244,1.039,4.244,4.115v17h-4.534v-16.252c0-1.081-.338-1.87-1.736-1.87ZM145.939,112.622c.288,0,.581.012.878.04.473.043.962.176,1.45.327.133.041.266.084.399.126.089.028.177.057.265.085.221.07.44.137.656.194.087.023.173.045.258.064.043.01.085.019.128.028.268.055.53.09.783.09.069,0,.136-.002.204-.008.184-.014.464-.107.798-.232.278-.104.594-.232.923-.356.066-.025.132-.05.199-.074.033-.012.067-.024.1-.036.067-.024.134-.048.201-.071.168-.057.336-.111.502-.157.033-.009.066-.018.099-.027.131-.034.26-.064.386-.086.063-.011.125-.021.185-.029.061-.008.12-.014.178-.017.049-.003.098-.005.145-.005.008,0,.017,0,.025,0h0c.581.007.996.269,1.019,1.027.001.046-.005.116-.017.203-.002.013-.004.025-.006.039-.051.331-.179.883-.332,1.405-.006.021-.012.042-.018.063-.185.624-.402,1.19-.556,1.268-.045.023-.328.107-.658.199-.101.028-.207.058-.312.086-.078.021-.156.042-.231.062-.275.073-.509.132-.588.145-.007.001-.013.002-.018.002-.051.004-.101.006-.148.006-.105,0-.2-.01-.288-.028-.025-.005-.05-.011-.074-.018-.186-.051-.333-.144-.452-.262-.106-.105-.19-.231-.26-.368-.079-.154-.14-.321-.196-.487-.012-.037-.024-.074-.036-.11-.165-.51-.296-.979-.732-.979-.018,0-.036,0-.055.002-.124.01-.247.06-.37.138-.073.047-.147.104-.22.169-.194.173-.386.402-.576.644-.047.06-.094.122-.141.183-.211.276-.419.554-.621.771-.045.048-.09.094-.134.135-.022.021-.045.041-.067.06-.044.038-.088.072-.132.101-.031.021-.062.041-.094.059-.219.132-.441.218-.666.27-.016.004-.032.007-.048.011-.081.017-.163.031-.245.04-.045.005-.089.009-.134.012-.068.004-.135.006-.203.006-.022,0-.044,0-.066,0h0c-.09-.002-.18-.007-.27-.014-.225-.019-.452-.055-.678-.096-.136-.025-.271-.051-.407-.077-.275-.052-.549-.102-.821-.129-.083-.008-.165-.014-.248-.018-.047-.002-.094-.003-.14-.003h-.006c-.086,0-.172.003-.258.011-.022.002-.042.005-.061.009-.022.005-.043.01-.062.017-.024.008-.047.018-.068.028-.093.045-.164.101-.292.101-.056,0-.123-.011-.208-.038-.179-.057-.327-.145-.454-.254-.042-.036-.082-.075-.12-.116-.057-.061-.11-.126-.16-.195-.033-.046-.065-.093-.096-.14-.077-.12-.148-.246-.219-.373-.014-.025-.028-.051-.042-.076-.043-.076-.086-.151-.13-.225-.149-.247-.317-.476-.552-.641-.141-.099-.37-.198-.647-.292-.069-.023-.141-.047-.216-.069-.112-.034-.228-.067-.348-.1-.04-.011-.08-.021-.121-.032-.081-.021-.163-.041-.245-.061-.041-.01-.082-.019-.123-.029-.082-.019-.165-.037-.246-.055-.122-.026-.243-.051-.361-.073-.039-.007-.078-.015-.116-.022-.076-.014-.151-.027-.222-.039-.251-.042-.469-.071-.627-.083-.127-.01-.253-.014-.38-.014-.028,0-.056,0-.084,0-.001,0-.002,0-.003,0-.076.001-.153.004-.229.007-.116.005-.231.013-.346.022-.074.006-.147.012-.22.018-.042.004-.083.007-.124.011-.076.007-.152.013-.228.02-.073.006-.146.012-.219.017-.116.008-.231.014-.346.017-.052.001-.103.002-.155.002-.023,0-.046,0-.069,0-.111-.002-.222-.007-.331-.017-.146-.014-.291-.036-.434-.071-.143-.035-.284-.081-.424-.142l-.009-.323c.068-.032.136-.058.203-.078.068-.02.135-.035.202-.044.022-.003.045-.006.067-.008.045-.004.089-.007.134-.008.009,0,.019,0,.028,0,.301,0,.599.076.894.144.196.045.392.086.587.099.203.014.404.02.604.02,2.858,0,5.398-1.304,8.355-1.304ZM143.969,111.634c1.131-1.409,3.184-1.031,4.93-1.045,1.093-.009,2.399-.365,3.413.358.183.131.442.434.583.738-.028.009-.055.018-.083.028-.073.025-.146.05-.218.077-.036.013-.072.026-.107.039-.07.026-.14.052-.21.078-.17.064-.332.128-.49.189-.153.06-.298.116-.43.166-.34.128-.462.157-.497.163-.032.002-.067.003-.102.003-.156,0-.337-.022-.551-.066-.035-.007-.069-.015-.104-.023-.069-.016-.143-.034-.22-.055-.209-.056-.424-.122-.606-.18-.087-.027-.174-.055-.261-.083-.151-.048-.277-.089-.41-.13-.497-.154-1.086-.318-1.684-.373-.322-.029-.652-.044-.983-.044-.682,0-1.336.062-1.97.159ZM122.024,133.562c.815-.657,1.581-.779,2.52-1.145-1.165-1.028-.368-2.374.725-3.059.59-.37,2.301-.65,2.494-.945.385-.589-.761-1.411.1-2.42,1.157-1.356,4.589-1.65,6.238-1.413,2.559.369,4.074,2.179,6.836,1.424.866-.237,1.363-.709,1.472-1.622.09-.759.125-2.37-.638-2.784-.67-.363-.864.906-1.131,1.243-.524.661-2.304.399-2.548-.418-.359-1.206,1.197-2.757.647-3.858-.402-.805-1.01-.924-1.362-2.075-.049-.16-.177-.633-.247-1.045.017-.001.033-.003.05-.004l.123-.011c.07-.006.14-.012.21-.017.117-.009.219-.016.311-.02.067-.003.13-.005.19-.006h.003s.004,0,.004,0c.021,0,.043,0,.064,0,.104,0,.199.004.29.011.123.01.316.036.529.071.04.007.08.014.121.021.291.645.715,1.712.94,2.077.588.953,1.401,1.233,1.768,1.784.189.285.183,1.058.672.731.257-.172.257-1.281.208-2.116.172.107.355.192.55.254.194.062.375.092.555.092.316,0,.555-.096.695-.165.015,0,.031,0,.046,0h.003c.029,0,.06,0,.095.002.057.002.118.007.182.013.228.023.481.069.72.115l.092.018c.108.021.217.041.325.061.21.038.489.085.784.11.119.01.235.016.346.018h.011s.001,0,.001,0c.025,0,.05,0,.075,0,.094,0,.187-.003.277-.009.063-.004.127-.01.188-.017.117-.013.236-.033.355-.058.024-.005.048-.01.072-.016.404-.095.786-.26,1.133-.491.08-.053.162-.115.242-.184.035-.03.07-.061.105-.094.063-.059.125-.121.19-.191.218-.234.423-.503.622-.763l.071-.093c.044-.058.089-.116.134-.173.015-.019.03-.039.047-.06.054.152.123.326.213.5.133.259.287.474.472.657.228.226.494.394.792.502-.025.649-.081,1.629-.106,1.79-.067.432-.844,2.314-1.061,2.835-.621,1.493-1.985,1.146-3.327,1.151-.291.001-.917-.236-1.145.105-.358.536.344,1.21.54,1.645.613,1.362.663,3.562-.907,4.292-.487.226-2.168.234-2.208.431-.095.477.996.756,1.337.952.941.54,1.803,1.836,1.419,2.951-.248.179-1.718-.767-1.838.459-.101,1.036,1.109,1.713,1.51,2.604.831,1.847.296,4.78-1.404,5.975-.832.585-3.239.64-4.26.493-1.456-.209-1.434-1.245-2.376-1.979-1.284-1.001-2.33-.109-3.703-.422-.606-.138-1.333-1.403-2.093-.67-.264.255-.792,1.304-.842,1.678-.102.755.026,1.019.45,1.592,1.606,2.17,3.558,4.678,5.324,6.709,1.604,1.845,3.144,3.727,5.811,3.173,2.388-.496,2.565-.817,5.078.032.413.14,2.397.884,2.452,1.222.034.118-.247.385-.277.385-.585,0-1.266-.05-1.833,0-.203.018-.673.099-.89.141-2.627.519-4.035,3.135-6.905,1.466-1.861-1.082-4.344-3.001-6.066-4.362-2.714-2.144-7.236-6.241-8.863-9.243-.9-1.66.736-2.471.967-3.702.073-.389-.203-.661-.579-.674-.688-.024-1.885.334-2.647.332-3.328-.117-3.961-3.845-1.543-5.793ZM144.276,162.322v-4.156h4.534v4.156h-4.534ZM148.81,167.31v20.866h-4.534v-20.866h4.534ZM126.036,158.165l4.437,22.861h.096l4.437-22.861h7.476v30.01h-4.534v-27.017h-.096l-4.92,27.017h-4.823l-5.402-27.017h-.096v27.017h-4.244v-30.01h7.669ZM189.935,169.471c1.061-1.954,1.833-2.411,4.051-2.411v3.907c-2.267,0-3.858.54-3.858,2.702v14.506h-4.534v-20.866h4.244v2.161h.096ZM207.438,182.813c0,3.533-2.363,5.611-6.415,5.611-3.473,0-6.463-1.33-6.463-5.196v-10.557c0-3.533,2.363-5.611,6.415-5.611,3.473,0,6.463,1.33,6.463,5.196v10.558ZM203.116,163.505c.401-4.243.602-8.729.602-13.455,0-25.051-5.648-43.368-16.787-54.445-8.834-8.784-21.398-13.238-37.346-13.238s-28.512,4.454-37.346,13.238c-11.139,11.076-16.787,29.394-16.787,54.445,0,1.734.028,3.434.082,5.102-1.108.437-2.174,1.071-3.095,1.992-.514.515-.936,1.073-1.283,1.656-.159-2.826-.24-5.743-.24-8.751,0-26.302,6.098-45.702,18.124-57.661,9.714-9.659,23.355-14.557,40.544-14.557s30.829,4.898,40.544,14.557c12.026,11.959,18.124,31.358,18.124,57.661,0,5.298-.248,10.315-.741,15.049-1.228-.823-2.701-1.356-4.396-1.594Z"/>
</svg>