<?xml version="1.0" encoding="UTF-8"?>
<svg id="a" data-name="Layer 1 copy" xmlns="http://www.w3.org/2000/svg" width="3001" height="3001" viewBox="0 0 300.1 300.1">
  <path d="M221.18,212.465c2.543-.515,4.72-1.9,5.879-4.232,3.014-6.061-1.695-12.798-7.958-15.909-.795-.395-1.665-.765-2.435-.961-1.527-5.157-6.131-9.735-11.152-12.229-11.545-5.733-23.254-3.324-30.063-1.191-2.437-.965-4.935-1.777-7.474-2.42-4.05-1.026-8.192-1.665-12.357-1.99,1.828-9.322,7.127-13.978,9.496-15.784,2.315-1.765,6.804-3.303,7.438-6.327l4.144,3.33c.351-3.776-1.863-8.792,3.71-8.327,1.55.129,3.406,2.307,4.234.84,1.246-3.182.027-6.292-2.5-8.381-1.307-1.081-3.431-1.091-3.766-2.475,4.28-.318,8.091.113,10.834,3.741,3.201,4.233,2.025,7.691,2.704,12.317.106.723.372,2.512,1.449,2.281,2.874-9.991,8.499-21.5-3.703-27.562l-11.282-1.62c9.589-5.738,22.729-.508,23.373,11.228.425,7.766-5.93,18.61,2.447,23.798-4.421-15.621,11.459-25.269,2.346-41.13-6.359-11.067-21.311-12.606-31.095-4.756-.907-2.273,3.655-5.104,5.491-6.182,11.953-7.018,23.931-2.02,30.347,9.527l2.911,8.335c1.872-15.358-6.248-31.471-23.326-30.869l3.329-2.486c-17.408-1.814-29.477,12.739-31.608,28.827-6.139,1.642-10.707-.517-12.815-6.467-2.856-8.062,1.079-9.688,3.404-16.301,2.428-6.909,3.01-14.46-.646-21.075,1.293-.935,6.542,3.337,10.839-2.082,5.9-7.439-6.656-8.263-6.656-10.022l5.816-3.766c.218-3.31-4.618-2.717-7.085-2.487-2.375.222-4.84,2.375-6.246.397l4.16-5.396c-5.96-2.367-9.997,2.824-13.749,6.659l-.417-4.998c-1.201-1.215-6.509,3.81-7.06,5.014-2.333,5.097,3.625,10.972,2.894,11.662-2.797.104-6.793.705-8.329,3.332,3.884.561,8.461,1.188,7.555,6.197-15.307,3.049-10.887,18.923,1.199,6.329,1.036,2.174-2.494,5.132-4.198,6.642-6.538,5.794-18.252,8.837-18.717,19.213l2.491-.827c-3.671,7.788-3.59,17.505,2.09,24.182l1.235-1.659c2.983,10.202,12.034,17.2,19.575,24.87,3.431,3.49,5.86,7.678,7.252,12.161-3.17.201-6.33.602-9.438,1.191-3.937.747-7.812,1.847-11.539,3.323-6.806-2.135-18.528-4.554-30.084,1.185-5.021,2.493-9.625,7.072-11.152,12.229-.77.196-1.64.566-2.435.961-6.264,3.111-10.972,9.848-7.959,15.909,1.16,2.332,3.336,3.717,5.879,4.232-9.324,3.409-15.027,11.64-13.456,19.732,1.809,9.313,11.484,15.461,21.783,13.464,8.5-1.649,13.523-8.105,12.296-14.423-.666-3.431-3.264-6.036-6.525-6.816-.946-.212-1.346,1.222-.4,1.434,2.609.624,4.883,2.726,5.454,5.667,1.068,5.501-3.591,11.208-11.11,12.667-9.536,1.85-17.232-4.004-18.882-12.5-1.661-8.551,4.592-16.828,14.836-18.815,5.667-1.099,10.714-.439,15.035,1.718-.398,1.151-.616,2.945-.536,4.229-3.583-1.565-7.575-2.317-11.934-1.472-6.43,1.248-10.26,6.568-9.17,12.178.825,4.248,3.718,6.625,7.009,7.852.923.386,1.477-1.134.509-1.455-2.782-.93-4.544-3.018-5.083-5.795-1.1-5.664,3.495-9.664,7.963-10.531,4.087-.793,7.698-.25,10.977,1.205,2.344,10.947,13.437,19.457,25.967,17.752,3.974,1.676,8.141,2.888,12.374,3.706,5.273,1.019,10.668,1.443,16.037,1.318,5.269-.123,10.535-.761,15.658-2.007,3.126-.761,6.195-1.771,9.162-3.02,12.542,1.72,23.648-6.794,25.994-17.749,3.279-1.455,6.891-1.998,10.978-1.205,4.468.867,9.063,4.867,7.963,10.531-.539,2.777-2.302,4.866-5.083,5.795-.967.321-.415,1.841.509,1.455,3.292-1.227,6.185-3.604,7.01-7.852,1.089-5.609-2.74-10.93-9.17-12.177-4.359-.846-8.35-.094-11.934,1.471.08-1.284-.137-3.078-.536-4.229,4.32-2.157,9.368-2.817,15.035-1.717,10.244,1.987,16.497,10.264,14.836,18.815-1.65,8.496-9.346,14.35-18.881,12.5-7.52-1.458-12.179-7.166-11.111-12.667.571-2.941,2.845-5.043,5.455-5.667.946-.212.545-1.646-.4-1.434-3.261.78-5.859,3.385-6.525,6.816-1.227,6.317,3.796,12.773,12.296,14.423,10.299,1.998,19.974-4.15,21.783-13.463,1.571-8.092-4.131-16.323-13.456-19.732ZM216.682,198.185c2.386,1.309,3.161,3.242,2.494,4.583-.691,1.391-1.933,1.519-2.5,2.661-.519,1.043-.268,2.035.131,2.853,1.589.045,3.077-.579,3.966-2.367,1.754-3.527.006-7.369-3.722-9.22.146-1.291.192-2.382-.009-3.598,0,0,.746.246,1.392.567,5.319,2.641,8.907,8.016,6.338,13.184-2.1,4.223-7.012,5.252-11.536,3.006-1.74-.864-3.382-2.299-4.404-3.983,3.076-.826,5.554-2.569,7.036-5.55.346-.696.642-1.416.814-2.136ZM208.134,204.534c-.475-1.289-.454-2.703.213-4.045,1.161-2.335,4.261-3.583,6.944-2.871-.147.67-.419,1.341-.765,2.037-1.309,2.633-3.638,4.202-6.392,4.879ZM215.585,196.154c-3.303-.835-7.048.588-8.555,3.619-.84,1.689-.91,3.451-.384,5.013-2.418.274-5.043-.079-7.606-.932-.317-2.436-.957-4.816-1.954-7.085-1.354-3.08-3.289-5.876-5.581-8.333,2.189-1.596,5.295-1.611,7.975-.28,1.591.79,2.984,1.978,3.831,3.266-1.14.548-2.032,1.345-2.526,2.338-.642,1.292-.39,3.028,1.052,3.744,1.491.741,2.854-.131,3.521-1.473.543-1.093.54-2.458.015-3.895,3.076-.951,6.577-.637,9.98.372.276,1.19.403,2.431.232,3.647ZM199.123,206.749c.048.446.084.894.107,1.342.002.041.003.082.005.123-.02.487-.053.973-.1,1.458-1.462-1.433-3.281-2.46-5.369-2.866-.729-.141-1.435-.198-2.116-.19-.069-1.995-.38-3.958-.958-5.855,1.388,1.261,3.016,2.371,4.755,3.234,1.139.566,2.311,1.022,3.49,1.39.073.453.137.908.186,1.365ZM198.471,213.564c-.008.031-.018.061-.026.092-3.545,2.161-5.742,4.478-8.52,6.816-.775.653-1.575,1.343-2.424,2.061,1.012-1.458,1.876-3.016,2.542-4.665.609-1.509,1.054-3.084,1.319-4.69.278-1.682.318-3.378.312-5.078.549.005,1.136.046,1.807.177,2.278.442,4.074,1.641,5.396,3.314-.113.662-.242,1.322-.406,1.973ZM199.139,211.927c.223.307.435.625.627.96-.28.152-.531.309-.796.463.067-.474.127-.948.169-1.423ZM100.715,205.379c1.173-.366,2.34-.821,3.474-1.385,1.744-.866,3.374-1.978,4.764-3.242-.402,1.297-.69,2.63-.84,3.984-.069.622-.106,1.25-.132,1.879-.68-.007-1.384.049-2.111.19-2.086.405-3.904,1.432-5.366,2.863-.041-.421-.071-.844-.092-1.267,0-.019,0-.037,0-.055,0-.012,0-.024-.001-.037.016-.375.035-.749.068-1.122.054-.606.138-1.208.236-1.809ZM109.349,189.62c.262.337.502.704.707,1.115,2.174,4.372-1.016,9.177-6.534,11.917-.811.403-1.64.751-2.477,1.05.32-1.374.749-2.723,1.289-4.026,1.371-3.308,3.407-6.311,5.853-8.918.372-.396.773-.76,1.162-1.138ZM109.057,213.981c-.122-.377-.234-.758-.336-1.143-.39-1.471-.619-2.98-.701-4.5.004-.08.011-.159.016-.239,2.477.001,3.739,1.165,4.006,2.539.18.926-.358,1.652-1.362,2.016-.757.276-1.32.744-1.624,1.326ZM100.496,211.928c.045.477.103.952.173,1.424-.266-.155-.518-.312-.8-.465.192-.334.404-.652.626-.959ZM101.204,213.663c-.176-.687-.32-1.382-.439-2.081,1.322-1.669,3.116-2.865,5.39-3.306.667-.129,1.25-.171,1.795-.177,0,.76.018,1.519.051,2.271.001.036,0,.072,0,.108.152,3.252.997,6.432,2.491,9.327.493.956,1.057,1.871,1.67,2.751-.859-.726-1.668-1.424-2.453-2.084-2.774-2.336-4.969-4.65-8.507-6.809ZM120.544,228.157c-2.849-1.875-5.454-4.15-7.554-6.845-1.009-1.294-1.891-2.686-2.624-4.15.421.141.904.183,1.432.08,2.016-.391,3.641-2.797,3.123-5.466-.6-3.089-3.275-5.046-6.721-5.159.06-.445.108-.893.197-1.334.284-1.425.715-2.821,1.277-4.162.351-.837.767-1.643,1.213-2.432.528-.678.979-1.382,1.34-2.105.742-1.05,1.546-2.059,2.43-2.993,2.319-2.455,5.056-4.496,7.989-6.16,3.323-1.885,6.905-3.295,10.583-4.317,4.197-1.167,8.528-1.833,12.874-2.101.139-.009.279-.006.418-.014.206,4.476-.577,9.028-2.425,13.316l-1.234,2.863-18.928,1.794,14.238,12.624-4.244,18.562,16.469-9.597,16.311,9.598-3.976-18.562,14.104-12.625-18.928-1.795c-1.984-6.196-2.823-11.501-2.912-16.043,1.646.135,3.289.311,4.92.569,4.04.641,8.028,1.676,11.827,3.202,3.343,1.343,6.546,3.072,9.416,5.257,2.373,1.806,4.501,3.942,6.229,6.377.378.765.858,1.509,1.423,2.224,1.1,1.97,1.926,4.089,2.392,6.3.108.514.19,1.032.261,1.552-3.459.103-6.147,2.062-6.749,5.16-.518,2.668,1.106,5.075,3.123,5.466.535.104,1.023.061,1.448-.084-.714,1.428-1.572,2.786-2.549,4.053-2.09,2.71-4.692,5.001-7.54,6.888-3.154,2.09-6.616,3.697-10.197,4.904-3.979,1.341-8.118,2.191-12.292,2.632-4.489.474-9.028.481-13.518.024-4.191-.426-8.348-1.264-12.347-2.593-3.616-1.203-7.113-2.811-10.3-4.908ZM190.584,213.989c-.303-.585-.868-1.056-1.628-1.334-1.003-.364-1.541-1.09-1.361-2.016.267-1.376,1.533-2.541,4.019-2.539.003.055.01.109.013.165-.076,1.508-.294,3.006-.673,4.469-.109.423-.234.84-.369,1.255ZM196.114,202.653c-5.518-2.74-8.708-7.545-6.534-11.917.206-.415.449-.786.714-1.125,1.595,1.548,3.062,3.226,4.31,5.067,1.858,2.742,3.241,5.801,3.995,9.028-.84-.299-1.672-.649-2.485-1.053ZM203.984,192.684c.375.991.426,1.884.031,2.679-.247.497-.767,1.168-1.512.798s-.624-1.239-.377-1.736c.396-.795,1.015-1.292,1.858-1.741ZM204.846,180.475c4.325,2.148,8.356,6.008,10.055,10.321-3.502-.81-6.879-1-10.178.025-.972-1.536-2.589-3.021-4.578-4.008-3.214-1.596-7.438-1.882-10.376-.074-2.626-2.451-5.589-4.533-8.75-6.236-1.095-.59-2.215-1.132-3.351-1.641,6.941-1.886,17.136-3.374,27.177,1.612ZM161.611,176.606c4.802.752,9.543,1.974,14.059,3.783,3.938,1.578,7.713,3.606,11.099,6.17.551.417,1.079.864,1.607,1.31-.457.482-.86,1.036-1.181,1.683-.55,1.105-.771,2.235-.747,3.359-.588-.733-1.201-1.445-1.858-2.115-2.434-2.478-5.292-4.518-8.345-6.166-3.487-1.881-7.235-3.259-11.073-4.23-3.331-.843-6.735-1.376-10.16-1.658.041-.997.124-1.946.235-2.862,2.129.155,4.252.397,6.363.728ZM140.066,75.739c-.005-.02-.011-.04-.015-.061h0c-.011-.063-.015-.125-.015-.188,0-.006-.001-.012-.001-.018,0-1.113,1.412-2.015,3.153-2.015s3.153.902,3.153,2.015-1.412,2.015-3.153,2.015c-1.6,0-2.918-.762-3.123-1.749ZM145.268,175.821c.182-.011.363-.017.545-.026.209.937.382,1.881.502,2.834-2.853.162-5.698.498-8.493,1.032-4.031.771-7.996,1.952-11.738,3.646-3.254,1.473-6.348,3.339-9.066,5.663-1.398,1.195-2.679,2.528-3.83,3.963.028-1.131-.192-2.268-.746-3.381-.319-.642-.718-1.192-1.17-1.672,1.954-1.647,4.057-3.122,6.273-4.391,3.93-2.25,8.171-3.933,12.527-5.155,4.953-1.39,10.064-2.187,15.196-2.512ZM94.79,180.475c10.044-4.988,20.243-3.497,27.184-1.61-.025.012-.052.021-.078.032-3.861,1.735-7.533,3.937-10.762,6.682-.438.372-.864.758-1.285,1.15-2.938-1.796-7.151-1.509-10.358.084-1.988.987-3.606,2.472-4.578,4.008-3.299-1.025-6.676-.835-10.178-.025,1.699-4.313,5.73-8.173,10.055-10.321ZM97.51,194.426c.247.497.369,1.366-.376,1.736s-1.265-.301-1.512-.798c-.395-.795-.343-1.688.032-2.679.843.449,1.462.946,1.857,1.741ZM84.284,192.507c3.403-1.008,6.904-1.322,9.98-.372-.525,1.438-.528,2.802.015,3.896.667,1.341,2.03,2.213,3.521,1.473,1.441-.716,1.694-2.452,1.052-3.744-.494-.994-1.386-1.79-2.526-2.338.848-1.288,2.241-2.476,3.831-3.266,2.681-1.331,5.789-1.316,7.979.283-1.627,1.741-3.071,3.651-4.257,5.721-1.711,2.985-2.854,6.284-3.291,9.698-2.561.851-5.182,1.203-7.597.929.525-1.562.455-3.324-.385-5.013-1.506-3.031-5.251-4.455-8.555-3.619-.171-1.216-.044-2.457.232-3.647ZM91.503,204.534c-2.753-.677-5.083-2.246-6.392-4.879-.346-.696-.617-1.366-.765-2.037,2.683-.712,5.783.536,6.943,2.871.667,1.342.688,2.756.213,4.045ZM74.865,206.849c-2.569-5.167,1.02-10.542,6.338-13.184.646-.321,1.392-.567,1.392-.567-.202,1.215-.155,2.307-.009,3.598-3.728,1.852-5.476,5.693-3.722,9.22.889,1.789,2.377,2.413,3.966,2.367.399-.818.65-1.81.131-2.853-.568-1.143-1.809-1.27-2.5-2.661-.667-1.341.107-3.274,2.494-4.583.172.72.468,1.44.814,2.136,1.482,2.981,3.96,4.724,7.036,5.55-1.022,1.685-2.664,3.12-4.404,3.983-4.524,2.247-9.436,1.217-11.536-3.006ZM87.932,210.722c1.844-1.101,3.487-2.699,4.46-4.523,2.512.363,5.292.085,8.04-.734-.101,1.441-.103,2.895-.055,4.336-.736.744-1.387,1.584-1.919,2.512-3.287-1.275-6.913-1.724-10.526-1.591ZM98.865,215.286c.907.521,1.76,1.061,2.586,1.605.477,1.634,1.1,3.225,1.884,4.747.324.629.68,1.241,1.05,1.843-1.812-1.439-3.76-2.794-5.872-3.889-.166-1.437-.114-2.917.351-4.307ZM98.971,221.651c3.907,2.068,7.101,5.122,10.717,8.602.175.177.371.241.555.228.144.131.284.266.43.395,2.927,2.582,6.253,4.679,9.755,6.397-10.333.231-18.936-6.788-21.458-15.622ZM158.054,240.784c-5.312.567-10.684.582-15.999.046-4.977-.501-9.915-1.494-14.665-3.073-4.255-1.416-8.371-3.306-12.124-5.77-3.386-2.223-6.482-4.922-8.975-8.123-1.488-1.91-2.744-3.998-3.711-6.213,2.953,2.048,5.421,4.135,7.647,5.773,2.444,1.815,5.226,4.005,10.337,7.105,1.743,1.146,3.572,2.163,5.467,3.029,3.761,1.72,7.75,2.923,11.808,3.701,4.457.854,9.016,1.208,13.552,1.098,4.461-.108,8.92-.653,13.257-1.714,3.91-.957,7.731-2.335,11.288-4.228,1.104-.587,2.172-1.245,3.217-1.936,5.06-3.074,7.823-5.249,10.254-7.054,2.231-1.642,4.705-3.734,7.667-5.787-.928,2.131-2.125,4.144-3.538,5.994-2.445,3.203-5.497,5.914-8.84,8.15-3.736,2.499-7.845,4.421-12.097,5.864-4.708,1.597-9.606,2.611-14.546,3.139ZM179.215,237.273c.46-.226.931-.432,1.384-.672,3.16-1.672,6.131-3.717,8.776-6.125.189.02.392-.04.573-.223,3.616-3.48,6.811-6.534,10.718-8.602-2.522,8.832-11.121,15.85-21.451,15.622ZM201.122,219.592c-2.098,1.087-4.034,2.432-5.836,3.861.78-1.274,1.464-2.607,2.03-3.994.345-.846.644-1.711.899-2.588.817-.538,1.66-1.071,2.556-1.586.465,1.39.517,2.87.351,4.307ZM201.178,212.313c-.534-.93-1.185-1.771-1.923-2.516.024-.896.029-1.792.019-2.691-.006-.549-.034-1.097-.072-1.642,2.749.819,5.529,1.097,8.042.734.973,1.825,2.616,3.422,4.46,4.523-3.612-.133-7.239.316-10.526,1.591Z"/>
</svg>