<?xml version="1.0" encoding="UTF-8"?>
<svg id="a" data-name="Layer 1 copy" xmlns="http://www.w3.org/2000/svg" width="3001" height="3001" viewBox="0 0 300.1 300.1">
  <path d="M99.083,176.953c-.037.003-.075.005-.112.008.037-.011.075-.022.112-.033-.405.028-.807.054-1.206.077-.008.009-.017.018-.025.027-2.397.138-4.713.179-6.963.086.008-.008.015-.017.023-.025-8.407-.344-15.897-2.573-23.253-8.767.005.013.01.026.015.039-.005-.004-.01-.008-.015-.013,4.389,11.705,21.437,11.653,31.424,8.601Z"/>
  <path d="M160.039,135.812c1.147,3.013,2.206,5.604,3.622,8.53,0-.01-.001-.019-.002-.029,0,.001.001.002.002.003-.11-2.447-.52-4.448-.91-6.703-.065-.877-.126-1.786-.125-2.691.001-.543.024-1.083.083-1.615l1.222-11.06s-.003.007-.004.01l.004-.036c-.802,1.933-3.982,10.973-3.943,13.213.001.16.017.287.051.377Z"/>
  <path d="M225.143,152.76l-.508-.117c-4.912-.93-9.496-1.378-14.45-1.391l8.186-4.01c2.749-1.347,5.357-2.411,8.376-3.43l-.082.343c.29-.186.588-.357.895-.513-.55-1.537-1.186-3.047-1.463-4.664-.028-.162-.044-.321-.055-.48l-1.582-4.901,3.32-3.4-2.072-4.093c-5.869,1.005-12.607,4.148-18.052,6.99-9.187,4.796-18.365,9.235-28.078,12.861-3.053,1.14-5.896,1.847-9.121,2.112.357,2.599,1.393,4.699,2.481,6.931-2.61-1.899-4.413-4.379-6.03-7.16-.093,3.245,1.322,5.742,2.589,8.685-5.212-4.322-8.679-9.657-12.153-15.595.379,3.706,1.093,7.26,1.948,10.872.464,1.959,1.29,3.758,2.035,5.802-2.809.032-5.198-1.14-7.77-2.537,2.613,4.415,6.369,5.054,10.828,6.392-6.632,4.131-8.879,2.296-14.55-1.567-3.31,1.662-7.626,4.586-11.5,3.029l5.513-9.619c.923-1.61,1.658-3.245,2.422-4.951.535-1.195.513-2.528.298-3.846l-3.043-18.727c-.84,7.297-.858,14.256-.629,21.606-2.128,3.18-4.523,6.169-7.387,8.808-2.009,1.851-4.741,2.399-7.356,2.529,2.597-3.176,4.398-6.943,4.563-11.092-1.746,2.866-3.559,5.169-6.043,7.209,1.101-2.384,2.126-4.565,2.468-7.118-3.339-.194-6.169-.93-9.211-2.072-1.223-.459-2.438-.932-3.644-1.415.004-.007.008-.014.012-.021-8.239-3.302-16.12-7.151-24.044-11.267-5.356-2.782-10.662-5.144-16.415-6.771-3.02-.854-5.801-.654-8.694.487-4.071,1.605-7.464,4.046-10.799,6.753,1.118-2.648,2.723-4.426,4.62-6.503.152-.036.191-.059.157-.076.064-.042-.152-.056-.44-.071-8.416,3.885-12.192,12.65-13.103,21.466.001,0,.002-.002.003-.002,0,.01-.002.019-.003.028,5.577-4.505,10.494-7.321,17.702-6.456,8.241.988,16.248,5.232,23.762,8.963-9.62.309-22.853,1.256-28.637,9.898,1.1-.632,2.186-1.245,3.274-1.81.002.008.005.015.007.022,2.884-1.497,5.787-2.657,9.031-2.953-4.804,3.474-8.246,6.895-11.682,11.116l7.118-1.621c.055.045.11.089.166.134-.003.006-.005.013-.009.019,2.814,2.293,5.579,3.971,8.744,5.683l.319-.187c-.006-.005-.012-.01-.019-.015l.019-.011c-2.631-2.093-4.573-4.236-6.054-7.154-.1-.198-.147-.402-.149-.605.005-.45.237-.885.62-1.196,2.838-2.312,5.897-4.078,9.386-5.405-.47,1.404-.688,2.814-.664,4.185.045,3.046,1.275,5.896,3.55,8.042,3.24,3.055,8.063,4.02,12.279,2.094,4.107-1.876,6.487-5.797,6.514-10.265,0-.097,0-.194,0-.292,0-.038-.001-.076-.002-.114-.015-.643-.078-1.297-.192-1.956,4.111,1.792,7.362,4.612,10.403,7.767,1.178,1.222,2.605,2.042,3.892,3.245-1.526,1.397-5.981-.662-7.863.286-4.934,2.488-10.057,3.964-15.503,4.476.009-.009.017-.019.026-.028-1.645.155-3.318.224-5.026.204.049.009.097.018.146.027-.049,0-.097,0-.146,0,6.602,1.265,13.336.353,19.757-1.707,1.198-.384,2.492-.514,3.712-.325l8.185,1.268c.421.065,1.151-.122,1.418-.377,1.452-1.386-2.768-7.233-3.713-8.766l-.086-.355c3.807,2.478,6.53,5.858,8.73,9.82-2.189,2.707-7.747,1.95-11.038,1.622-1.717-.171-3.084.198-4.501,1.118-11.556,7.503-18.714,10.056-33.15,9.334,4.469,1.685,9.173,2.488,13.927,2.233,4.073-.219,7.795-1.589,11.444-3.284l9.481-4.404c2.836-1.317,5.904-1.893,8.976-1.322,5.181,1.862,15.306-6.551,15.306-6.551,1.994.346,3.726.683,5.757.535-3.629-1.994-6.438-2.924-8.712-6.623,5.375,1.293,5.887,1.85,11.102-.132,5.644-2.146,7.605,1.01,13.714,1.356,2.029.115,3.793-.616,5.975-.967-2.294,2.439-4.737,4.218-7.568,6.088,2.101-.133,4.112-.647,6.375-1.256l-1.883,4.466c8.099-1.588,10.17,3.767,16.066,3.384,2.746-.179,5.283.004,7.809.929,7.641,2.799,14.288,7.869,22.43,8.171,4.692.174,9.286-.773,13.651-2.354-14.935.977-21.905-1.978-33.81-9.624-3.686-2.367-10.905,1.692-14.927-2.368,2.191-3.965,4.844-7.433,8.763-9.801-.993,1.741-5.276,7.592-3.789,9.126.235.242.935.419,1.32.358l8.285-1.313c1.265-.2,2.623.072,3.838.46,6.348,2.023,12.958,2.874,19.661,1.549-6.909.118-13.641-1.076-19.827-4.304-1.005-.524-2.263-.703-3.34-.562l-3.835.5c-.354.046-1.186-.383-1.333-.683,2.124-1.639,3.858-3.133,5.609-4.969,2.369-2.485,5.241-4.239,8.457-5.913-.652,4.032.467,7.891,3.344,10.571,1.778,1.656,4.067,2.734,6.45,2.974.555.09,1.124.138,1.704.138,5.692,0,10.336-4.482,10.598-10.11.215-1.669-.049-3.398-.336-5.19,3.81,1.586,7.112,3.392,9.984,6.064-1.113,3.521-3.671,5.904-6.4,8.424,3.515-1.487,6.34-3.578,9.303-5.853l7.007,1.646c-3.939-4.61-6.793-7.587-11.819-11.183,4.57.503,8.517,2.458,12.703,4.979-3.209-4.506-8.366-7.292-14.228-8.403Z"/>
  <path d="M205.02,119.553l20.203-7.292s.366-.21.066-.785c-.238.391-.675.665-1.247.744-6.804.93-13.355,2.315-19.892,4.251-3.242.96-5.799,2.567-8.127,5.008-5.463,5.728-11.239,10.821-17.493,15.762,7.902-3.828,14.715-8.979,21.143-14.783,1.525-1.377,3.41-2.204,5.346-2.903Z"/>
  <path d="M252.053,148.539c-.698-7.693-3.941-15.524-10.266-19.823h0s-.002-.001-.002-.001c-1.02-.693-2.12-1.294-3.302-1.788l-1.842,2.025c-.005-.003-.01-.006-.015-.009.001.008.002.015.003.022l-.003.004c.217,1.473.601,2.508,1.107,4.08l-3.702,2.841v.025s0,0,0,0l.293,6.26c7.398-.752,12.139,1.928,17.729,6.39,0-.009-.002-.019-.003-.028,0,0,.002.001.003.002Z"/>
  <path d="M96.419,120.218c1.574.647,2.925,1.531,4.315,2.788,5.947,5.378,12.242,10.008,19.334,13.587.006-.013.012-.026.017-.039.01-.024.019-.045.027-.064.025-.06.049-.119.074-.179-6.061-4.695-11.626-9.69-16.92-15.207-2.354-2.453-4.944-3.932-8.206-4.889-7.336-2.152-14.668-3.621-22.375-4.459l13.037,4.47c3.671,1.259,7.133,2.526,10.696,3.993Z"/>
  <path d="M216.818,176.3c-5.355,1.46-10.588,1.303-16.408.925.033.011.067.021.1.032-.033-.002-.066-.004-.1-.006,9.14,3.059,27.251,3.111,31.374-8.439-.005.004-.01.008-.014.012.005-.013.01-.025.014-.038-4.529,3.693-9.378,6.272-14.966,7.514Z"/>
</svg>