<?xml version="1.0" encoding="UTF-8"?>
<svg id="a" data-name="Layer 1 copy" xmlns="http://www.w3.org/2000/svg" width="3001" height="3001" viewBox="0 0 300.1 300.1">
  <path d="M192.65,163.625c-.062-.699-.131-1.404-.203-2.1.165-2.182.003-4.23-.483-6.093-.141-.539-.326-1.036-.553-1.482-.436-2.5-.943-4.779-1.508-6.781-1.596-5.652-3.682-9.173-6.2-10.467-.668-.34-1.345-.512-2.014-.512-.812,0-1.608.247-2.379.737l-5.661-48.55v-.008s-.005-.03-.005-.03c-.211-1.737-.539-3.18-1.006-4.431-.92-2.455-2.34-3.863-3.895-3.863-.463,0-.922.127-1.365.379l-1.258.67c-.699-2.002-1.703-3.345-2.897-3.843l-2.906-1.484c-.412-.214-.842-.324-1.273-.324-.376,0-.881.085-1.436.412-.599-1.238-1.356-2.121-2.229-2.588l-.005-.003-.021-.011-3.062-1.574-.035-.018-.013-.006-.012-.006-.036-.017c-.377-.176-.763-.265-1.15-.266-.514,0-1.649.189-2.741,1.647-1.088-1.934-2.309-3.257-3.642-3.942-.668-.34-1.345-.512-2.014-.512-1.607,0-3.99.993-6.221,5.72-.627,1.33-1.208,2.869-1.731,4.585-.273.037-.545.119-.811.244l-.029.013-.01.005-.01.005-.029.014-9.121,4.601c-.989.489-2.77,2.037-3.526,6.868-.269,1.721-.384,3.611-.341,5.618v.012s0,.03,0,.03l.313,12.44v.028s.001.018.001.018v.018s.002.035.002.035c.07,2.205.313,4.082.741,5.733.597,2.306,1.538,3.962,2.699,4.782l.284,10.978-5.557-5.116-.041-.038h0l-.014-.014c-.569-.524-1.19-1.069-1.848-1.618-4.138-3.455-5.389-3.455-5.923-3.455-1.151,0-1.939.813-2.397,1.495-.589.875-.997,2.1-1.149,3.449-.755,6.685-1.241,16.57.73,25.697.293,1.356.643,2.683,1.044,3.955-.989,4.189-1.741,9.196-2.237,14.9-.568,6.526-.764,13.573-.584,20.944.196,7.43.743,14.183,1.625,20.075.974,6.512,2.246,11.416,3.886,14.992,2.262,4.932,4.69,5.967,6.328,5.967.659,0,1.323-.166,1.974-.495,2.493-1.257,4.533-4.402,6.066-9.349.379-1.225.737-2.6,1.069-4.104.016.009.032.018.048.026l.029.016.042.021c.687.348,1.38.523,2.059.523.96,0,1.871-.326,2.723-.974.117.863.273,1.671.471,2.435,1.29,4.977,3.681,5.363,4.383,5.363.388,0,.775-.089,1.152-.265l.037-.017.01-.005.01-.005.035-.018,2.876-1.472c.946-.474,2.622-1.925,3.42-6.312.396.112.794.169,1.188.169.11,0,.22-.005.33-.014.059.897.149,1.753.27,2.56l.016.111.005.035.006.035.019.108c.285,1.645,1.469,7.012,4.709,7.012.435,0,.868-.112,1.288-.334l2.956-1.519c.637-.304,1.696-1.095,2.546-3.138.558.429,1.157.651,1.774.651.444,0,.886-.118,1.313-.35l3.024-1.535.174-.088.059-.03.057-.042.168-.125c.662-.49,1.584-1.494,2.314-3.516.411.12.822.181,1.23.181,1.342,0,3.285-.665,5.172-3.694,1.534,4.822,3.473,7.863,5.774,9.045.669.341,1.345.512,2.014.512,1.606,0,3.99-.992,6.221-5.72,1.631-3.456,2.895-8.164,3.864-14.391.876-5.629,1.413-12.079,1.597-19.173.181-7.041-.009-13.781-.566-20.033M192.164,183.57c-.18,6.95-.704,13.258-1.559,18.748-.927,5.958-2.121,10.43-3.651,13.673-1.97,4.175-4.034,5.051-5.419,5.051-.572,0-1.15-.147-1.725-.44-2.226-1.144-4.094-4.341-5.55-9.501-.086-.305-.171-.615-.254-.932-.176.382-.358.743-.545,1.086-1.772,3.242-3.635,3.922-4.886,3.922-.586,0-1.182-.146-1.773-.434-.07.279-.146.546-.231.802-.599,1.827-1.385,2.699-1.939,3.109l-.168.125-.175.089-3.035,1.54c-.331.182-.673.274-1.018.274-.783,0-1.523-.468-2.142-1.324-.682,2.612-1.749,3.546-2.456,3.879l-2.975,1.529c-.323.171-.657.258-.992.258-.817,0-2.815-.553-3.705-5.68l-.019-.108-.016-.109c-.161-1.076-.262-2.263-.3-3.527l-.005-.154v-.154c0-.127,0-.249,0-.366-.482.185-.927.25-1.313.25-.619,0-1.249-.163-1.873-.485l-.08-.04c-.043.407-.095.803-.155,1.19-.61,3.9-1.988,5.15-2.787,5.551l-2.875,1.471-.035.018-.035.017c-.291.136-.59.204-.888.204-.698,0-2.43-.415-3.429-4.267-.346-1.336-.546-2.855-.611-4.631-1.237,1.615-2.5,2.074-3.537,2.074-.583,0-1.18-.152-1.773-.452l-.027-.014-.027-.014c-.333-.18-.656-.399-.967-.656-.416,2.145-.872,4.012-1.372,5.627-1.391,4.488-3.217,7.33-5.43,8.446-.559.282-1.127.425-1.69.425-1.412,0-3.516-.916-5.516-5.279-1.542-3.362-2.746-8.031-3.681-14.275-.862-5.761-1.396-12.37-1.589-19.663-.177-7.245.015-14.164.572-20.565.521-5.984,1.322-11.123,2.378-15.322-.479-1.41-.897-2.913-1.243-4.518-1.878-8.696-1.406-18.192-.679-24.628.105-.927.382-1.76.787-2.362.325-.484.889-1.06,1.727-1.061h0c.425,0,1.554,0,5.481,3.279.505.422,1.153.979,1.811,1.586l.005.005c.017.015.034.031.051.047l7.172,6.604-.404-15.598c-.83-.287-2.007-1.232-2.762-4.147-.37-1.428-.581-3.078-.644-5.043v-.035s-.002-.035-.002-.035l-.312-12.431v-.019s0-.019,0-.019c-.039-1.809.063-3.5.302-5.029.613-3.914,1.998-5.16,2.797-5.555l9.122-4.601.029-.014.029-.013c.291-.136.591-.206.891-.206.074,0,.173.006.291.025.567-2.026,1.197-3.77,1.898-5.256,1.97-4.175,4.034-5.051,5.419-5.051.572,0,1.15.146,1.726.439,1.448.744,2.745,2.358,3.875,4.817,1.025-2.242,2.346-2.45,2.795-2.45.298,0,.596.07.885.205l.036.017.036.019,3.045,1.565.016.008.016.009c.711.38,1.554,1.237,2.178,3.12.699-.734,1.384-.866,1.786-.866.332,0,.664.085.986.252l2.932,1.497c1.481.599,2.25,2.678,2.629,4.265l2.102-1.121c.341-.193.693-.291,1.049-.291,1.2,0,2.301,1.102,3.022,3.026.391,1.047.669,2.275.848,3.754l.003.021.002.022,5.758,49.376.017.149.013.15c.041.478.074.888.098,1.245,1.2-1.259,2.324-1.598,3.185-1.598.572,0,1.15.147,1.725.439,2.225,1.144,4.093,4.34,5.55,9.502.578,2.048,1.084,4.367,1.517,6.928.217.357.4.786.53,1.283.471,1.804.522,3.633.368,5.321.082.772.159,1.56.231,2.364.546,6.124.732,12.732.554,19.643"/>
  <path d="M131.798,145.37c.222,0,.433-.079.617-.256l.215-1.072-2.452-2.482c-1.114,1.44.404,3.809,1.62,3.809"/>
  <path d="M123.946,152.701c.915.621,2.008,1.06,3.023,1.06,1.409,0,2.665-.848,3.08-3.236-.237.03-.482.045-.734.045-2.155,0-4.769-1.082-6.238-3.172-1.481-2.107-1.681-4.951-1.34-7.817.181-1.521,1.5-3.223.594-4.38-4.689,4.196-2.866,14.458,1.616,17.5"/>
  <path d="M174.28,161.558c-.198-.383-.851-3.085-1.282-3.084-.101,0-.19.148-.258.508-.704,3.731,2.447,7.554,4.924,7.554,1.229,0,2.291-.94,2.636-3.296-.016-.023-.051-.033-.101-.033-.339,0-1.404.441-2.599.441-1.168,0-2.461-.422-3.32-2.09"/>
  <path d="M181.61,159.12l-.116-1.137c-.143-.277-.438-.415-.748-.415-.383,0-.79.211-.966.627.122.854.56,1.163,1.044,1.163.263,0,.54-.092.786-.238"/>
  <path d="M184.097,158.003c-1.013,0-1.182,3.49-1.495,4.595-.992,3.508-3.141,5.201-5.342,5.201-2.048,0-4.141-1.467-5.385-4.301-.801-1.825-.838-5.648-1.903-5.648-.217,0-.478.159-.796.527-3.044,3.516,1.44,10.565,3.716,12.642,2.194,2.001,4.424,3.015,6.523,3.015,3.39,0,6.437-2.646,8.43-8.056.855-2.319,1.763-5.405,1.092-7.975h-4.842Z"/>
  <path d="M183.803,176.813c-.029.931-.082,1.905-.162,2.927-.247,3.188-.628,6.013-1.142,8.476-.367,1.76-.766,2.639-1.196,2.639-.172,0-.349-.141-.531-.423-.456-.695-.755-2.056-.898-4.086-.143-2.028-.185-4.173-.127-6.433.016-.613.035-1.2.056-1.771-.129.006-.257.02-.387.02-2.462,0-5.075-1.196-7.557-3.46-.399-.364-1-1.011-1.669-1.879.018.089.037.173.054.266.332,1.826.465,4.188.4,7.085-.078,2.956-.322,5.172-.732,6.65-.332,1.196-.747,1.794-1.245,1.794-.117,0-.239-.033-.365-.099l-.234-.174c-.156-.057-.283-.361-.38-.912-.098-.55-.133-1.174-.108-1.869l.332-13.648c.013-.695.084-1.26.214-1.695.044-.146.089-.253.136-.337-1.245-2.249-2.311-5.063-2.396-8.101-.079-2.803.658-5.248,2.075-6.884.677-.782,1.361-1.179,2.031-1.179h0l2.373.019c-.906-2.587-1.966-4.186-3.184-4.772l-2.468-1.281c.024-.231.046-.468.062-.718l.352-6.781,2.83-1.391.703,6.259c.091.752.218,1.348.38,1.782.128.343.263.515.404.515.038,0,.075-.012.114-.036l3.084-1.565c.156-.116.296-.361.42-.739.124-.376.212-.912.264-1.608.078-.811.11-1.622.097-2.434-.013-.348-.052-.898-.117-1.652l-5.757-49.376c-.091-.752-.218-1.348-.381-1.782-.128-.343-.263-.514-.404-.514-.037,0-.075.012-.114.036l-2.771,1.478c-.182.117-.339.435-.468.957-.13.521-.222,1.217-.274,2.086l-3.122,53.81c-.013.348-.019.898-.019,1.652.026.869.091,1.652.195,2.347.195,1.121.425,1.682.69,1.682.036,0,.073-.01.111-.031l1.172-.602-1.188,46.09-4.057-53.182,1.785.914c.03.015.06.023.09.023.2,0,.384-.342.554-1.023.195-.782.306-1.752.332-2.912l1.327-51.55c.026-1.217-.036-2.304-.185-3.26-.15-.957-.341-1.463-.576-1.522l-3.064-1.565c-.039-.021-.077-.031-.115-.031-.275,0-.51.562-.705,1.683l-2.127,14.865-1.327-16.603c-.143-1.448-.378-2.26-.703-2.434l-3.044-1.565c-.032-.015-.063-.022-.094-.022-.21,0-.399.341-.569,1.022-.195.782-.306,1.753-.332,2.912l-.45,17.465c-.071-1.066-.148-2.124-.241-3.165-.514-5.766-1.295-10.503-2.342-14.213-1.047-3.708-2.248-5.911-3.601-6.607-.29-.148-.577-.222-.86-.222-1.051,0-2.056,1.016-3.014,3.047-1.216,2.58-2.222,6.419-3.015,11.519-.215,1.386-.406,2.83-.576,4.323l-.125-4.671c-.026-1.217-.133-2.202-.322-2.956-.164-.653-.349-.979-.557-.98-.032,0-.064.008-.097.023l-9.134,4.607c-.247.117-.446.652-.595,1.608-.15.957-.212,2.043-.185,3.26l.312,12.431c.039,1.216.156,2.203.351,2.956.169.653.358.979.565.979.032,0,.065-.008.098-.024l2.225-1.13.655,25.318,1.057.973c.347.032.692.197,1.006.516l2.452,2.482c.11.111.21.242.306.382l-.811-32.018,1.942-.978c-.003.124-.009.244-.012.369-.169,6.55.003,12.707.517,18.473.514,5.767,1.294,10.505,2.342,14.213,1.047,3.71,2.248,5.911,3.601,6.607.213.108.424.172.634.201-.017.061-.035.121-.052.189-.114.459-.196,1.003-.253,1.611.923,1.62,1.689,3.666,1.638,6.264-.054,2.725-1.003,4.759-2.004,6.238l-.756,29.333-.71-27.504c-2.71,2.922-6.116,4.1-8.889,4.535l-.382,14.861c-.065,2.434-.198,4.014-.4,4.738-.163.584-.366.876-.608.876-.059,0-.119-.017-.182-.051-.287-.116-.521-.608-.703-1.478-.182-.869-.241-2.723-.176-5.564l.344-13.168c-.321.015-.63.024-.909.024-1.311,0-2.606-.132-3.844-.381l-.295,11.439c-.15,5.964-.049,11.127.299,15.497l-2.115-5.848c-.163-.482-.344-.724-.543-.724-.04,0-.08.01-.121.029-.143.117-.283.378-.42.782-.136.406-.251.928-.342,1.565-.299,2.26-.582,3.883-.849,4.868-.267.986-.602,1.565-1.005,1.739-.073.038-.144.057-.215.057-.47,0-.883-.845-1.239-2.534-.41-1.941-.661-4.564-.751-7.867-.078-3.071.026-5.794.312-8.172.286-2.375.722-3.738,1.308-4.085.073-.035.145-.052.216-.052.285,0,.558.278.818.835.325.695.664,1.884,1.015,3.564.117.58.25,1.014.4,1.304.106.208.215.311.325.311.044,0,.089-.017.134-.051.208-.057.416-.55.624-1.477l2.359-11.195c-.893-.184-1.757-.427-2.569-.733-3.507-1.323-6.397-3.985-8.587-7.831-.641,3.185-1.149,6.88-1.517,11.11-.527,6.056-.705,12.533-.537,19.429.182,6.898.677,13.04,1.483,18.43.806,5.389,1.828,9.431,3.064,12.126.982,2.142,2.01,3.214,3.083,3.214.277,0,.557-.071.84-.214,1.379-.695,2.553-2.608,3.523-5.737.969-3.129,1.785-7.678,2.449-13.648.029-.211.052-.431.072-.659.848,3.641,2.008,5.861,3.482,6.657.317.161.624.241.921.241,1.416,0,2.593-1.834,3.529-5.5,1.132-4.434,1.808-11.112,2.03-20.037l.192-7.552.928,35.978c.025,1.217.136,2.202.331,2.956.169.653.358.979.567.979.032,0,.064-.008.097-.023l2.889-1.478c.247-.117.446-.651.595-1.608.149-.956.211-2.043.185-3.26l-.1-3.887c.029.027.058.048.088.062l3.962,2c.346.179.683.269,1.013.269.947,0,1.826-.742,2.637-2.225,1.093-2,1.984-5.157,2.674-9.475.058-.364.112-.743.166-1.12l-.986,16.985c-.013.347-.02.898-.02,1.651.026.87.091,1.652.195,2.347.195,1.121.425,1.683.69,1.683.036,0,.073-.01.111-.031l3.044-1.565c.169-.058.322-.391.459-1,.136-.608.231-1.319.283-2.13l.351-6.78,2.83-1.391.703,6.259c.091.752.218,1.348.38,1.782.128.343.263.514.404.514.037,0,.075-.012.114-.036l3.084-1.565c.156-.116.296-.361.42-.739.123-.376.211-.913.263-1.608.078-.811.11-1.622.097-2.434-.01-.26-.034-.633-.073-1.119l3.422,1.727c.346.179.683.269,1.013.269.947,0,1.826-.742,2.637-2.225,1.093-2,1.984-5.157,2.674-9.475.271-1.695.498-3.527.684-5.485.05.674.104,1.344.163,2.008.514,5.767,1.295,10.505,2.342,14.213,1.047,3.71,2.248,5.911,3.601,6.607.29.147.577.222.86.222,1.051,0,2.056-1.016,3.014-3.047,1.216-2.578,2.221-6.418,3.015-11.519.794-5.099,1.275-10.923,1.444-17.473.116-4.49.067-8.792-.138-12.914-1.383,2.973-3.105,5.143-5.067,6.423M169.019,120.889c.013.117.02.29.02.521.026.464.006.899-.059,1.304-.065.521-.182.841-.352.956l-.936.522c-.015.006-.029.01-.044.01-.116,0-.231-.206-.347-.618-.052-.231-.091-.637-.117-1.217v-.608l.312-7.302c.052-1.043.182-1.593.39-1.652.02-.013.04-.019.06-.019.07,0,.138.079.204.236.084.204.153.536.205,1l.663,6.868ZM142.358,123.258c-.158,0-.326-.116-.502-.348-.485-.627-.843-1.941-1.075-3.944-.232-2.001-.369-4.133-.41-6.395-.041-2.261-.034-4.238.021-5.933.09-2.687.336-4.641.739-5.862.26-.787.553-1.204.878-1.251.021-.003.041-.005.062-.005.16,0,.328.087.504.263l.082.076c.326.302.624.971.892,2.008.268,1.038.469,2.418.604,4.143.135,1.724.165,3.668.092,5.83-.106,3.213-.361,6.084-.764,8.612-.288,1.807-.647,2.741-1.076,2.803-.015.003-.031.003-.046.003M147.115,193.387c-.877,0-1.592-1.276-1.6-2.862l-.048-10.015c-.008-1.594.703-2.897,1.586-2.911l9.44-.146h.014c.877,0,1.592,1.276,1.6,2.862l.048,10.015c.008,1.594-.702,2.897-1.586,2.911l-9.44.146h-.014ZM148.316,150.186c.743.955,1.413,2.374,2.01,4.258.837,2.637,1.479,5.962,1.928,9.974.064.573.124,1.161.18,1.762.313,3.352.499,2.644.518,6.531l.975-12.877c.052-.869.143-1.565.273-2.086.13-.522.286-.839.468-.956l1.728-.921-.42,17.031-8.338.129-.839-24.114.1.052c.498.239.969.646,1.415,1.219M155.341,102l.578,7.237.978-6.835c.47.513.781,1.451.754,2.519l-.423,17.185-1.075,8.954c-.068.435-.153.779-.255,1.034-.033.085-.069.16-.106.226-.122.213-.251.32-.386.32-.03,0-.06-.006-.091-.016h0c-.144-.116-.28-.377-.41-.782-.13-.405-.221-.927-.273-1.565l-.937-10.084-.273,16.517c-.019.912-.089,1.703-.207,2.371-.04.223-.084.432-.135.627-.176.681-.369,1.023-.579,1.023-.031,0-.063-.008-.095-.023l-2.81-1.478c-.247-.057-.446-.565-.596-1.521-.149-.956-.211-2.043-.185-3.26l.107-4.16c-.124.973-.253,1.931-.398,2.856-.552,3.549-1.209,6.473-1.966,8.801,0,0-.331,1.018,0,0l-1.281-36.831c-.056-1.608.647-2.97,1.54-2.984l8.523-.132Z"/>
  <path d="M122.2,163.422c1.765.666,3.863,1.044,6.029,1.044,4.067,0,8.366-1.335,11.107-4.601,2.682-3.197,2.547-5.45.14-8.784-.476-.66-2.834-3.54-3.526-3.54-.044,0-.082.012-.111.037-1.513,5.169-4.988,7.794-8.433,7.794-3.477,0-6.924-2.676-8.289-8.109-1.262-5.025-.505-9.591.855-14.327-.778-1.391-6.995-6.837-8.496-6.836-.124,0-.216.038-.27.118-1.606,14.221-.541,32.855,10.994,37.207"/>
  <path d="M186.149,150.618c-1.047-3.708-2.248-5.911-3.601-6.607-.29-.148-.577-.222-.86-.222-1.051,0-2.056,1.016-3.014,3.047-.819,1.736-1.54,4.057-2.167,6.935l10.43.084c-.244-1.153-.506-2.236-.789-3.238"/>
</svg>