<?xml version="1.0" encoding="UTF-8"?>
<svg id="a" data-name="Layer 1 copy" xmlns="http://www.w3.org/2000/svg" width="3001" height="3001" viewBox="0 0 300.1 300.1">
  <path d="M256.843,147.107l-2.807-4.813-14.409.017,6.299,10.802c-1.434,2.191-2.236,4.828-2.154,7.644.165,5.601,3.779,10.289,8.746,12.086l-.011-9.328-.002-1.875-.002-1.875,2.648-2.654,3.749-.004,2.654,2.648.002,1.875.002,1.875.011,9.327c5.227-1.903,8.889-6.989,8.716-12.854-.213-7.254-6.212-12.974-13.443-12.871Z"/>
  <path d="M219.181,100.197c-.325.366-.597.779-.806,1.227-.291.625-.458,1.318-.47,2.049,0,.032-.002.063-.002.094,0,.025.001.05.002.075.043,2.766,2.299,4.993,5.074,4.989h.766s.004,3.001.004,3.001l.002,2.068c.001,1.069.334,2.06.9,2.877.916,1.323,2.445,2.189,4.176,2.187l2.685-.003c4.775-.006,8.651,3.861,8.656,8.636l.002,1.494.006,5.07h0s.006,5.07.006,5.07l19.316-.023h.014c2.8-.003,5.067-2.276,5.064-5.076s-2.276-5.067-5.076-5.064h-.015l-2.225.003v-.768s-.006-4.303-.006-4.303c-.003-2.308-1.547-4.252-3.658-4.863-.45-.13-.926-.201-1.418-.201l-2.314.003v-1.212s-.006-3.857-.006-3.857c-.003-2.8-2.276-5.067-5.076-5.064h-.042l-2.461.003v-.377s-.006-4.692-.006-4.692c-.003-2.8-2.276-5.067-5.076-5.064l-5.257.006-8.974.011c-1.507.001-2.858.661-3.786,1.706Z"/>
  <path d="M177.475,237.475l-8.327,9.329c-2.527-.687-5.282-.635-7.935.313-5.276,1.888-8.617,6.773-8.791,12.053l8.868-2.893,1.782-.581,1.782-.582,3.342,1.698,1.163,3.564-1.698,3.342-1.782.582-1.782.582-8.868,2.893c3.425,4.383,9.394,6.294,14.918,4.318,6.833-2.444,10.419-9.917,8.086-16.763l3.71-4.156-4.469-13.699Z"/>
  <path d="M228.411,197.063l-1.782.582-3.343-1.698-1.163-3.564,1.698-3.343,1.782-.581,1.782-.582,8.867-2.893c-3.425-4.383-9.394-6.293-14.918-4.317-6.825,2.441-10.412,9.901-8.094,16.74l-3.306,3.704-1.63-4.996c-.795-2.438-2.736-4.33-5.193-5.062l-3.277-.978h0l-8.905-27.4,27.858-20.242c.039.001.077.011.117.011l1.935-.002s.005,0,.007,0l10.746-.013h.007l1.831-.002c1.87-.002,3.385-1.52,3.383-3.391h0l-.014-11.935c-.001-.549-.091-1.077-.253-1.572-.666-2.027-2.573-3.49-4.823-3.487-.031,0-.062.003-.092.003-.412.008-.813.063-1.195.164-2.176.572-3.78,2.554-3.777,4.909l.006,5.177h0s-4.975.006-4.975.006h0l-.182-.182h0l-10.444-10.418,2.316-2.322,9.664,9.641h.337l-.002-1.897c-.003-2.178.84-4.199,2.25-5.71,0,0,.001-.001.002-.002h0c-.431-.179-.844-.393-1.235-.638-.01-.007-.021-.013-.032-.02-.127-.081-.253-.164-.375-.251-.003-.002-.006-.005-.01-.007-.097-.07-.195-.138-.287-.214-.035-.029-.071-.056-.106-.084-.111-.09-.221-.182-.327-.276-.006-.006-.012-.011-.018-.017-.097-.088-.192-.178-.286-.271-.025-.024-.05-.049-.074-.074-.098-.099-.194-.199-.287-.303-.005-.004-.01-.008-.016-.012-.223-.251-.433-.517-.627-.796-.969-1.398-1.482-3.038-1.484-4.741l-.002-2.174c-.13-.041-.259-.085-.386-.133,0,0,0-.002.001-.003-2.435-.901-4.339-2.907-5.1-5.407-.007-.023-.015-.047-.022-.071-.273-.731-.424-1.521-.425-2.345,0,0,0-.002,0-.002h0c.001-1.241.289-2.154.539-2.714,0-.001.001-.003.002-.004.074-.215.157-.427.248-.633.002-.005.004-.01.006-.016.001-.003.003-.006.005-.01.677-1.528,1.8-2.817,3.202-3.7.042-.027.084-.053.127-.079.055-.033.11-.066.165-.098.1-.058.202-.113.305-.167.025-.013.051-.025.076-.038.096-.049.255-.125.354-.169l.007-.003c.649-.291,1.343-.502,2.067-.619h0c.142-.023.285-.042.429-.058.01,0,.02-.002.03-.003.122-.013.244-.022.367-.03.031-.002.062-.004.094-.005.134-.007.268-.011.403-.011l3.616-.004-3.08-5.281c1.442-2.195,2.249-4.838,2.166-7.663-.165-5.601-3.779-10.288-8.746-12.085l.011,9.328.002,1.875.002,1.875-2.648,2.654-3.749.004-2.654-2.648-.002-1.875-.002-1.875-.011-9.328c-5.227,1.903-8.889,6.99-8.716,12.854.213,7.246,6.199,12.962,13.42,12.871l2.501,4.289-5.255.006c-2.564.003-4.963,1.264-6.42,3.374l-1.943,2.814h-28.811s-10.643-32.749-10.643-32.749c.013-.037.035-.07.047-.107l.596-1.841s.001-.004.002-.006l3.308-10.224s.001-.004.002-.006l.564-1.743c.576-1.779-.4-3.689-2.179-4.265h0l-11.355-3.674c-.523-.169-1.053-.247-1.574-.245-2.133.007-4.114,1.369-4.807,3.509-.01.029-.017.059-.026.088-.12.395-.191.792-.213,1.187-.128,2.247,1.261,4.384,3.502,5.109l4.926,1.594h0l-1.532,4.733h0s-.229.118-.229.118h0s-13.136,6.712-13.136,6.712l-1.493-2.92,12.156-6.212.104-.32-1.805-.584c-2.072-.67-3.734-2.096-4.735-3.905,0,0-.001-.001-.002-.002,0,0,0,0,0,0-.303.355-.634.681-.988.978-.01.008-.019.016-.029.024-.116.096-.234.189-.355.279-.003.002-.006.005-.009.007-.096.071-.192.143-.293.207-.038.024-.075.05-.113.075-.12.078-.241.154-.364.226l-.021.012c-.113.066-.229.128-.345.188-.031.016-.062.032-.094.048-.124.062-.25.123-.377.179-.005.004-.01.008-.016.012-.308.135-.625.252-.951.35-1.629.489-3.347.471-4.967-.054l-2.068-.669c-.079.111-.161.219-.245.327-.001,0-.002-.002-.003-.002-1.61,2.038-4.105,3.229-6.718,3.18-.025,0-.05,0-.074,0-.779.034-1.577-.067-2.362-.321,0,0-.001,0-.002,0h0c-1.179-.384-1.959-.94-2.415-1.351-.001,0-.002-.002-.004-.003-.182-.137-.357-.281-.526-.432-.004-.003-.008-.007-.012-.011-.003-.002-.005-.005-.008-.007-1.245-1.116-2.123-2.582-2.53-4.189-.012-.048-.024-.097-.035-.145-.014-.062-.029-.125-.042-.188-.024-.113-.046-.227-.065-.342-.005-.028-.008-.056-.012-.084-.018-.106-.04-.281-.052-.389v-.007c-.077-.708-.063-1.432.05-2.157,0,0,0,0,0,0,.022-.142.048-.284.077-.426.002-.01.004-.02.006-.029.026-.12.054-.239.085-.358.008-.031.016-.061.024-.091.035-.129.072-.258.114-.387l1.114-3.441-5.975,1.297c-1.642-2.05-3.906-3.634-6.618-4.428-5.377-1.574-10.953.415-14.197,4.583l8.875,2.872,1.784.577,1.783.577,1.706,3.338-1.154,3.567-3.338,1.706-1.784-.577-1.784-.577-8.874-2.872c.195,5.559,3.9,10.614,9.531,12.262,6.957,2.037,14.243-1.891,16.388-8.786l4.851-1.053-1.618,5c-.789,2.439-.332,5.11,1.225,7.148l2.076,2.717h0s-8.902,27.402-8.902,27.402h-34.436c-.031-.022-.056-.053-.088-.076l-1.566-1.135s-.003-.003-.005-.004l-8.701-6.306s-.004-.003-.006-.004l-1.483-1.075c-1.515-1.098-3.632-.76-4.729.755h0l-7.003,9.664c-.322.445-.56.925-.719,1.421-.653,2.031.031,4.336,1.852,5.656.025.019.051.034.077.052.338.236.695.427,1.063.57,2.097.816,4.559.156,5.941-1.751l3.038-4.192h0l4.028,2.919h0s.041.255.041.255h0s2.325,14.567,2.325,14.567l-3.239.517-2.152-13.48-.272-.198-1.113,1.537c-1.278,1.763-3.147,2.903-5.177,3.296,0,0-.002,0-.003,0,0,0,0,0,0,0,.244.398.452.813.625,1.242.004.012.009.023.014.035.056.14.108.281.156.423,0,.004.002.007.003.011.038.114.077.227.106.342.011.044.024.087.036.13.038.138.072.276.103.416.001.008.003.016.004.024.028.128.051.257.073.387.005.035.011.069.016.104.021.138.04.275.054.414.002.006.004.013.006.019.033.334.046.672.039,1.013-.038,1.701-.586,3.329-1.586,4.708l-1.276,1.76c.082.109.159.221.235.334,0,0-.002.001-.003.002,1.44,2.16,1.802,4.902.948,7.372-.008.023-.016.047-.024.07-.209.752-.551,1.479-1.035,2.147,0,0,0,0,0,.002h0c-.73,1.002-1.5,1.572-2.031,1.879-.001,0-.003.001-.004.002-.187.131-.377.253-.573.367-.005.002-.009.005-.014.008-.003.002-.006.003-.009.005-1.446.838-3.112,1.221-4.766,1.111-.049-.003-.099-.007-.149-.011-.063-.006-.127-.011-.191-.018-.115-.013-.23-.027-.345-.044-.028-.004-.056-.01-.084-.014-.106-.016-.28-.049-.385-.071h-.007c-.696-.147-1.381-.385-2.036-.716,0,0,0,0,0,0-.128-.065-.256-.133-.382-.205-.008-.005-.017-.01-.025-.015-.106-.062-.211-.125-.315-.192-.026-.017-.053-.034-.079-.051-.112-.073-.223-.148-.333-.228l-2.929-2.122-.613,6.083c-2.457.928-4.663,2.592-6.256,4.926-3.159,4.628-2.99,10.544-.028,14.918l5.474-7.553,1.1-1.518,1.1-1.518,3.702-.591,3.036,2.2.591,3.702-1.1,1.518-1.1,1.518-5.474,7.553c5.347,1.532,11.299-.43,14.607-5.276,4.086-5.987,2.604-14.13-3.292-18.3l.498-4.939,4.254,3.083c2.076,1.504,4.758,1.895,7.177,1.043l3.226-1.135h0l23.309,16.934-10.64,32.751c-.033.022-.069.036-.101.059l-1.563,1.139s-.004.002-.006.004l-8.686,6.327s-.003.003-.005.004l-1.48,1.079c-1.512,1.101-1.845,3.219-.743,4.731h0l7.026,9.647c.324.443.707.818,1.129,1.123,1.73,1.249,4.133,1.311,5.952-.014.025-.018.048-.038.073-.057.329-.249.62-.529.87-.835,1.424-1.742,1.557-4.288.17-6.191l-3.048-4.185h0l4.021-2.929h0l.254.04h0l14.573,2.291-.509,3.24-13.485-2.119-.272.198,1.117,1.534c1.282,1.76,1.789,3.891,1.536,5.942,0,0,0,.002,0,.003h0c.454-.109.913-.178,1.374-.21.013,0,.025-.002.037-.002.15-.01.301-.016.451-.017h.012c.12,0,.239-.003.359.004.045.002.09.004.135.006.143.007.285.017.427.032.008,0,.016.002.024.003.13.014.261.031.39.051.035.005.069.01.104.016.137.022.274.047.41.077h.019c.328.072.654.164.976.276,1.605.562,2.984,1.587,3.987,2.963l1.28,1.757c.129-.043.26-.083.391-.12,0,0,0,.002,0,.003,2.5-.702,5.219-.199,7.304,1.376.02.015.04.029.06.044.65.431,1.237.981,1.722,1.648h.001c.728,1.006,1.032,1.914,1.159,2.514,0,.001,0,.003.001.005.067.218.124.438.172.658,0,.005.002.011.004.016,0,.004.001.007.002.011.351,1.635.2,3.337-.416,4.876-.018.046-.037.092-.056.138-.025.059-.05.118-.076.176-.047.106-.097.211-.148.315-.013.025-.026.05-.039.075-.049.096-.133.251-.187.345-.001.002-.002.004-.004.006-.354.617-.791,1.195-1.308,1.715,0,0,0,0,0,0-.101.102-.206.202-.313.299-.007.007-.015.013-.022.02-.091.082-.184.162-.28.24-.024.02-.049.04-.073.06-.104.084-.21.167-.32.246l-2.923,2.129,5.596,2.462c.123,2.624,1.024,5.236,2.752,7.472,3.425,4.435,9.104,6.103,14.179,4.637l-5.492-7.54-1.104-1.516-1.104-1.515.582-3.704,3.03-2.207,3.704.582,1.104,1.515,1.104,1.515,5.491,7.54c3.11-4.612,3.083-10.879-.503-15.522-4.431-5.736-12.635-6.842-18.422-2.524l-4.544-2,4.248-3.094c2.073-1.509,3.272-3.94,3.21-6.503l-.083-3.418h0l23.308-16.936,27.86,20.24c.011.038.013.077.025.114l.6,1.839s.001.004.002.007l3.333,10.216s.002.004.002.006l.568,1.741c.58,1.778,2.492,2.75,4.27,2.169h0l11.346-3.702c.522-.171.997-.419,1.417-.727,1.722-1.259,2.524-3.525,1.826-5.664-.01-.029-.021-.058-.031-.087-.135-.389-.311-.753-.525-1.086-1.217-1.892-3.597-2.805-5.836-2.075l-4.922,1.606h0l-1.543-4.729h0,0s.117-.23.117-.23h0s6.682-13.152,6.682-13.152l2.924,1.486-6.183,12.17.104.32,1.804-.588c2.07-.675,4.253-.499,6.126.376,0,0,.002,0,.003,0h0c.037-.466.113-.924.225-1.373.003-.012.006-.024.009-.036.037-.146.078-.291.123-.435.001-.003.002-.007.004-.011.036-.114.071-.229.115-.34.017-.042.032-.084.048-.126.051-.133.104-.266.162-.396.003-.007.007-.015.01-.022.053-.12.11-.238.169-.355.016-.031.031-.062.048-.094.064-.124.13-.246.2-.366.002-.006.004-.012.006-.019.17-.29.358-.571.564-.842,1.031-1.354,2.431-2.348,4.05-2.876l2.067-.674c-.001-.136.001-.272.007-.408h.004c.104-2.595,1.423-5.025,3.566-6.521.02-.014.04-.029.061-.042.611-.485,1.315-.874,2.099-1.129,0,0,.001,0,.002,0h0c1.18-.382,2.138-.391,2.748-.326.002,0,.003,0,.005,0,.228.004.454.018.679.04.005,0,.011,0,.016,0,.003,0,.007,0,.011.001,1.663.171,3.235.841,4.509,1.902.038.032.076.064.114.097.048.042.097.084.144.127.086.078.17.157.253.238.02.02.039.041.06.061.077.076.198.204.27.284.001.002.003.004.005.005.478.528.892,1.122,1.227,1.774h0c.066.129.128.259.188.391.004.009.008.019.012.027.05.112.097.226.142.34.012.029.023.058.034.088.048.125.094.251.135.379l1.122,3.438,4.071-4.561c2.533.693,5.297.644,7.957-.308,5.276-1.887,8.617-6.773,8.792-12.053l-8.868,2.894-1.782.581ZM199.27,131.716l2.832-.003h.089s4.55-.006,4.55-.006l7.678,7.66-25.128,18.257-8.418-25.904h15.046l3.352-.004ZM106.072,145.528l4.378,3.181-1.632,5.022-4.378-3.181,1.632-5.022ZM100.143,147.428l-9.87-7.171-.108.148.547-6.037,11.062,8.037-1.631,5.022ZM157.909,126.64l-.092.03h-24.307l1.632-5.022h26.426l1.632,5.022h-5.281l-.01-.03ZM143.06,166.16l-18.106-13.155,6.916-21.285h22.381l6.916,21.285-18.106,13.155ZM128.201,126.67h-.031v.095l-7.511,23.119-4.272-3.104,8.166-25.132h5.281l-1.632,5.022ZM119.017,154.933l-.01.03.092.03,19.665,14.288-4.272,3.104-21.379-15.533,1.632-5.022,4.272,3.104ZM143.06,172.401l.025.018.056-.077,19.665-14.288,1.632,5.022-21.379,15.532-4.272-3.104,4.272-3.104ZM167.102,154.934l.025-.019-.056-.077-7.512-23.118h5.281l8.166,25.132-4.272,3.104-1.632-5.022ZM170.15,131.72h5.411l6.118,18.831-4.378,3.181-7.152-22.011ZM168.509,126.67l-1.632-5.022h5.411l1.632,5.022h-5.411ZM165.236,116.598l-1.672-5.146h5.411l1.672,5.146h-5.411ZM158.255,111.452l1.672,5.146h-23.144l1.672-5.146h19.8ZM131.473,116.598h-5.281l1.672-5.146h5.281l-1.672,5.146ZM120.883,116.598h-5.411l1.672-5.146h5.411l-1.672,5.146ZM113.831,121.647h5.411l-7.152,22.011-4.378-3.181,6.118-18.831ZM107.177,158.78l-1.672,5.146-4.378-3.181,1.672-5.146,4.378,3.181ZM111.473,161.901l18.724,13.604-4.378,3.181-16.019-11.638,1.672-5.146ZM134.492,178.626l4.272,3.104-4.378,3.181-4.272-3.104,4.378-3.181ZM143.06,184.851l4.378,3.181-4.378,3.181-4.378-3.181,4.378-3.181ZM151.733,184.911l-4.378-3.181,18.724-13.604,1.672,5.146-16.018,11.638ZM170.375,165.005l4.272-3.104,1.672,5.146-4.272,3.104-1.672-5.146ZM178.943,158.781l4.378-3.181,1.672,5.146-4.378,3.181-1.672-5.146ZM189.799,121.464l3.106,5.206h-13.674l-1.632-5.022h12.199v-.183ZM183.825,111.452l3.071,5.146h-10.937l-1.672-5.146h9.538ZM145.778,88.901l.872-2.695.027-.084,1.401-4.329,9.658-4.936,9.598,29.541h-27.238s4.649-14.308,4.649-14.308l1.032-3.189ZM133.276,94.797l-.174-.056,5.911-1.346-4.225,13.004h-5.281l3.77-11.603ZM121.732,97.329l5.844-1.33-3.38,10.401h-5.411s2.948-9.071,2.948-9.071ZM86.236,124.883l-.072-.052-3.684-2.67-1.709-10.71h31.06l-8.416,25.904-12.172-8.844-2.714-1.967-2.293-1.662ZM89.114,152.018l.541-5.968,8.848,6.428-1.672,5.146-7.717-5.606ZM109.349,190.652l-2.709,1.973-2.289,1.667-.072.053-3.677,2.678-10.715-1.684,9.598-29.54,22.037,16.009-12.172,8.844ZM114.755,192.966l11.062-8.037,4.272,3.104-9.87,7.171.108.148-5.573-2.386ZM131.047,199.94l-5.51-2.358,8.848-6.429,4.378,3.181-7.717,5.606ZM172.486,212.592l-25.128-18.256,22.035-16.011,4.649,14.309,1.04,3.187.878,2.692.028.084,1.411,4.325-4.913,9.669ZM177.913,188.207l-4.225-13.004,4.272-3.104,3.77,11.603.174-.057-3.991,4.562ZM185.635,179.379l-3.38-10.401,4.378-3.181,2.947,9.071-3.946,4.511Z"/>
  <path d="M216.785,216.62l-2.783-8.531c-.467-1.433-1.512-2.514-2.792-3.073-.448-.196-.925-.328-1.416-.388-.684-.083-1.395-.028-2.094.187-.03.009-.06.017-.09.027-.024.008-.047.017-.07.025-2.617.896-4.038,3.729-3.177,6.368l.238.728-2.854.931-1.966.641c-1.016.332-1.856.955-2.458,1.746-.975,1.28-1.326,3.001-.789,4.647l.833,2.553c1.481,4.54-.999,9.42-5.538,10.901l-1.42.463-4.82,1.572h0s-4.82,1.573-4.82,1.573l5.991,18.364.005.014c.868,2.662,3.73,4.116,6.392,3.247,2.662-.868,4.116-3.73,3.248-6.393l-.005-.014-.69-2.115.729-.238,4.09-1.334c2.194-.716,3.566-2.786,3.495-4.981-.015-.468-.094-.943-.247-1.411l-.718-2.2,1.153-.376,3.667-1.197c2.662-.868,4.116-3.73,3.248-6.392l-.013-.041-.763-2.339.359-.117,4.461-1.456c2.662-.868,4.116-3.73,3.248-6.392l-1.631-4.999Z"/>
  <polygon points="206.741 201.678 206.742 201.678 206.751 201.675 206.741 201.678"/>
  <path d="M67.763,207.774l-11.445-5.037c-.127-2.616-1.028-5.22-2.75-7.45-3.425-4.434-9.104-6.102-14.18-4.637l5.492,7.54,1.104,1.516,1.104,1.515-.582,3.704-3.03,2.207-3.704-.582-1.104-1.515-1.104-1.515-5.491-7.54c-3.11,4.612-3.083,10.879.503,15.522,4.436,5.743,12.652,6.844,18.441,2.51l5.1,2.244,11.647-8.483Z"/>
  <polygon points="110.851 224.545 110.852 224.546 110.858 224.554 110.851 224.545"/>
  <path d="M109.058,229.827c.048-.486.025-.98-.069-1.466-.132-.676-.405-1.335-.824-1.934-.018-.025-.035-.052-.053-.077-.015-.021-.031-.04-.045-.06-1.661-2.212-4.795-2.688-7.038-1.054l-.619.451-1.767-2.427-1.218-1.671c-.629-.864-1.481-1.47-2.419-1.799-1.519-.531-3.265-.333-4.664.686l-2.171,1.581c-3.859,2.812-9.268,1.962-12.079-1.898l-.879-1.208-2.985-4.098h0s-2.985-4.098-2.985-4.098l-15.614,11.373-.012.008c-2.264,1.648-2.762,4.82-1.113,7.083,1.648,2.264,4.82,2.762,7.083,1.113l.012-.009,1.798-1.31.452.62,2.533,3.478c1.358,1.865,3.751,2.53,5.817,1.784.441-.159.867-.381,1.266-.671l1.871-1.362.713.98,2.271,3.118c1.648,2.263,4.82,2.762,7.083,1.113l.034-.025,1.989-1.449.222.305,2.763,3.793c1.648,2.264,4.82,2.762,7.083,1.113l4.25-3.095,7.254-5.283c1.218-.887,1.924-2.215,2.06-3.605Z"/>
  <path d="M50.999,80.253l-.558,5.543,11.667,8.456,1.253-12.441c2.448-.93,4.646-2.591,6.235-4.918,3.159-4.628,2.99-10.545.028-14.918l-5.474,7.553-1.1,1.518-1.1,1.518-3.702.591-3.036-2.2-.591-3.702,1.1-1.518,1.1-1.518,5.473-7.553c-5.347-1.532-11.299.43-14.607,5.276-4.091,5.994-2.6,14.148,3.311,18.314Z"/>
  <path d="M36.966,98.867c-1.354,1.869-1.248,4.35.101,6.084.288.371.631.708,1.029.997l1.874,1.358-.711.981-2.264,3.124c-1.643,2.268-1.137,5.438,1.13,7.081l.035.025,1.992,1.444-.221.306-2.754,3.8c-1.643,2.267-1.137,5.438,1.13,7.081l4.257,3.085,7.266,5.266c1.22.884,2.701,1.145,4.065.845.478-.105.941-.279,1.374-.519.602-.334,1.145-.797,1.584-1.382.019-.025.039-.049.057-.075.015-.02.028-.041.042-.062,1.591-2.263,1.075-5.391-1.172-7.019l-.621-.449,1.761-2.431,1.214-1.675c.627-.866.94-1.863.963-2.856.036-1.609-.691-3.208-2.093-4.224l-2.174-1.576c-3.867-2.802-4.729-8.208-1.927-12.074l.876-1.21,2.975-4.105h0s2.975-4.105,2.975-4.105l-15.641-11.335-.012-.008c-2.267-1.643-5.438-1.137-7.081,1.13-1.643,2.267-1.137,5.437,1.13,7.08l.012.009,1.801,1.306-.451.622-2.524,3.484Z"/>
  <polygon points="59.466 140.423 59.473 140.414 59.472 140.415 59.466 140.423"/>
  <path d="M180.546,51.142c1.641,2.041,3.9,3.619,6.604,4.41,5.378,1.574,10.952-.415,14.197-4.583l-8.875-2.872-1.783-.577-1.783-.577-1.706-3.338,1.154-3.567,3.338-1.706,1.783.577,1.784.577,8.874,2.872c-.195-5.559-3.9-10.614-9.531-12.262-6.965-2.039-14.259,1.899-16.395,8.808l-5.445,1.182-4.436,13.709,12.22-2.652Z"/>
  <polygon points="123.608 65.553 123.607 65.553 123.598 65.549 123.608 65.553"/>
  <path d="M122.872,61.371c.504.47,1.112.843,1.803,1.081.03.01.059.021.089.031.024.007.048.014.072.021,2.644.813,5.459-.644,6.313-3.284l.236-.729,2.856.924,1.968.637c1.017.329,2.062.318,3.014.033,1.541-.463,2.837-1.649,3.37-3.296l.827-2.555c1.47-4.543,6.345-7.034,10.888-5.564l1.421.46,4.823,1.561h0l4.823,1.561,5.947-18.378.004-.014c.862-2.664-.599-5.522-3.263-6.385-2.664-.862-5.522.599-6.385,3.263l-.005.015-.685,2.117-.73-.236-4.094-1.325c-2.196-.71-4.522.158-5.755,1.976-.263.388-.478.818-.629,1.287l-.712,2.202-1.153-.373-3.67-1.188c-2.664-.862-5.522.599-6.385,3.263l-.013.04-.758,2.341-.359-.116-4.465-1.445c-2.664-.862-5.522.599-6.385,3.263l-1.619,5.002-2.763,8.538c-.464,1.434-.254,2.923.453,4.127.247.422.556.809.918,1.146Z"/>
</svg>