<?xml version="1.0" encoding="UTF-8"?>
<svg id="a" data-name="Layer 1 copy" xmlns="http://www.w3.org/2000/svg" width="3001" height="3001" viewBox="0 0 300.1 300.1">
  <path d="M191.636,85.147h-83.171c-12.878,0-23.317,10.439-23.317,23.317v83.171c0,12.878,10.44,23.317,23.317,23.317h83.171c12.878,0,23.317-10.439,23.317-23.317v-83.171c0-12.878-10.439-23.317-23.317-23.317ZM181.371,202.428c-1.866,0-3.384-1.518-3.384-3.384s1.518-3.384,3.384-3.384,3.384,1.518,3.384,3.384-1.518,3.384-3.384,3.384ZM203.644,134.86c-.326.303-1.015.62-1.275.911-.377.422-.843,1.582-1.278,2.145-1.098,1.42-2.364,2.115-4.077,1.96-.816-.074-1.266-.61-.949-1.538-.816-.26-1.685-.215-2.497-.309-2.929-.339-7.294-.707-10.131.047-.436.116-1.192.57-1.525.615-.634.086-2.877-.784-3.339-1.308-.354-.403-.418-.861-.353-1.398-.222.056-.45.33-.57.401-1.566.919-4.397,2.486-6.154,2.765-.842.134-1.185-.249-1.893.528-1.109,1.218-1.075,2.851-1.48,4.37-.471,1.763-1.473,3.921-2.192,5.614-1.965,4.629-4.354,9.061-5.923,13.888,1.714,1.943,3.567,3.74,5.15,5.836,1.043,1.381,2.498,4.122,2.648,4.43.35.719.654,1.508.945,2.261.139.081.316.052.454.133,1.155.677,2.074,1.932,1.882,3.517-.364,3.006-4.027,6.587-5.574,9.174-.274.458-.564.916-.682,1.468.034.185.782.269.943.266,1.044-.018,3.682-1.508,4.433-.725.379.396-.104.798.076,1.222.594.026.958-.196,1.556.038.202.078,1.549.894,1.676,1.027.137.145.136.502.388.484.035.172-.078.27-.203.33-.092.045-.812.269-.925.287-.741.118-1.422-.275-2.233.043-.069.027-.683.444-.704.484-.463.895,1.334,1.114,1.733,1.335.336.186.975.981,1.379.978.17,0,.331-.102.541-.086,1.084.08,1.825.798,1.663,2.078-.027.209-.168.882-.231,1.069-.191.57-.691.931-1.224.824-.846-.168-1.369-1.349-2.046-1.81-1.318-.899-4.096-2.075-5.088-.144-.182.353-.575,1.763-.565,2.137.007.258.209.458.256.735.202,1.191-.367,1.712-1.383,1.667-1.055-.046-1.74-.603-1.492-1.882.171-.881.568-1.304.624-2.367.078-1.462-.219-2.616-1.303-3.492-.697-.563-1.871-.668-1.764-2.01.093-1.168,1.085-2.977,1.478-4.17.851-2.59,1.31-6.016,3.203-7.879.062-.061.207-.054.271-.126.266-.295-.031-.666-.203-.898-.437-.591-1.059-.821-1.553-1.263-3.235-2.899-9.226-9.662-9.746-14.351.367-3.299,1.709-6.412,2.415-9.645,1.132-3.497,2.077-7.081,3.253-10.559.648-1.918,1.319-3.877,2.272-5.628l-.044-.259-4.639-1.014c-2.099-.681-4.409-1.144-6.38-2.225-.462-.254-.682-.787-1.261-.484-4.515,2.357-13.074,6.543-17.68,2.897-1.084-.858-1.108-1.66-1.785-2.695-1.169-1.785-1.456.343-2.38.586-.446.118-.709-.677-.797-1.099-.224-1.07-.525-3.456.917-3.488.709-.016,1.942.72,2.657.994.188.072,1.241.447,1.327.424.4-.925,1.201-1.173,1.823-.392.882-1.054,2.836-2.291,3.043,0,.482-.339,1.147-.374,1.256.385.029.202-.192.625.058.534.516-.187,1.157-.634,1.682-.867l3.902-1.44c-.021-.42-.318-.392-.566-.56-1.823-1.239-4.065-1.506-6.052-2.411-.212-.097-.552-.405-.808-.522-2.268-1.036-6.993-2.074-9.112-.506-.453.335-.647.689-1.198,1.004-1.085.621-2.416,1.059-3.532,1.648-.9.475-1.558.811-1.952,1.893-.117.321.01.588-.309.981-.817,1.007-2.266-.291-3.103-.67-1.86-.843-3.998-.352-5.569-1.962-.333-.341-.232-.622-.849-.835-2.641-.912-6.47-.977-8.74.873-1.08.88-1.648,2.227-2.946,2.948-.201.111-.805.417-.992.424-.56.02-.756-.529-.753-1.061.006-1.144.727-3.73,1.965-3.822.308-.023,1.012.281,1.158.588,1.581-1.634,2.915-3.943,1.315-6.189-.189-.265-.968-1.121-1.226-1.177-.713-.154-1.652.357-2.094-.607-.36-.786-.07-2.356.457-2.981.792-.94,1.716.316,2.26.939.169.194.303.551.467.705.41.388,3.519,1.784,4.109,1.919.328.076,1.109.173,1.383-.032.322-.243.17-1.998.088-2.445-.05-.273-.225-.442-.266-.826-.196-1.84,1.003-2.534,2.453-2.048,1.022.342.984,1.418.795,2.433-.042.226-.231.394-.239.633-.008.257.229,1.483.307,1.794.822,3.242,3.529,3.222,5.847,1.989.528-.281.862-.881,1.664-.527.395.175.626,1.007.621,1.459-.017,1.515-1.666,1.287-2.583,1.393-.093.011-.427.041-.42.191l3.503.914c2.366.297,4.385.263,6.296-1.485.545-.499,1.855-2.155,2.095-2.859.049-.145-.011-.167-.13-.148-1.359.213-2.722.364-4.087.512-.686.021-2.595.029-2.955-.69-.043-.088-.277-.759-.302-.866-.319-1.393-.322-3.01.484-4.2.19-.281.935-.792.982-.969.096-1.159.041-2.971.772-3.89.152-.19.52-.319.639-.435.175-.172.385-.666.76-.901,1.444-.909,2.944-.136,4.144.887.414-.349.807-.75,1.244-1.061,1.261-.9,2.845-1.466,4.338-1.01.418.128,1.034.676,1.263.729.181.042.793-.113,1.15-.071,2.724.314,5.577,1.835,8.102,3.1l3.461,2.08c.093.044.104.171.187.225,5.666,3.629,10.944,7.876,16.125,12.307,1.477,1.613,3.801,3.007,5.227,4.646.348.4.199.789,1.037.753,1.112-.049,2.769-1.112,3.81-1.65,4.596-2.372,9.445-5.313,14.423-6.772,1.194-.35,3.107-.901,4.297-.99,4.225-.32,2.122,2.993.404,4.856l-6.983,5.381c.465.247.951.139,1.406.207,3.218.482,6.503.939,9.757.609-.056-.859.06-1.961.684-2.556.301-.287.735-.191.931-.333.048-.035.28-.446.431-.588.549-.516,1.16-1.035,1.92-.73.122.049.129.176.197.211.519.271,1.134-.329,1.743.164.432.35.266.92.383,1.155.022.044.284.147.379.243,1.184,1.207,1.179,2.087-.081,3.26Z"/>
  <path d="M181.371,196.318c-1.503,0-2.726,1.223-2.726,2.726s1.223,2.726,2.726,2.726,2.726-1.223,2.726-2.726-1.223-2.726-2.726-2.726ZM182.61,200.072c-.056.122-.137.228-.246.316-.109.088-.244.158-.405.207s-.348.074-.56.074c-.172,0-.338-.021-.499-.063-.161-.042-.304-.108-.427-.198s-.222-.205-.294-.345-.108-.305-.104-.497h.662c0,.105.019.193.057.266.037.073.088.131.15.177.062.045.136.078.22.1.084.022.172.032.262.032.061,0,.126-.005.196-.015s.135-.03.196-.059c.061-.029.112-.069.152-.12.041-.05.061-.116.061-.194,0-.084-.027-.152-.08-.205-.054-.052-.125-.096-.211-.13-.087-.035-.186-.066-.296-.092-.11-.026-.223-.055-.336-.087-.116-.029-.229-.065-.34-.107-.11-.042-.209-.096-.296-.164-.087-.066-.158-.15-.211-.25-.053-.1-.08-.222-.08-.364,0-.16.034-.299.103-.416.068-.118.158-.216.268-.295.11-.078.235-.137.375-.174.139-.038.279-.057.419-.057.163,0,.318.018.469.054.15.036.282.095.398.176.116.082.209.185.277.312.068.126.102.28.102.46h-.662c-.006-.093-.025-.17-.058-.231-.033-.061-.078-.109-.133-.144-.056-.035-.118-.059-.19-.074-.071-.015-.148-.022-.233-.022-.056,0-.11.006-.165.018-.056.011-.105.032-.151.061-.045.029-.082.065-.111.109s-.044.099-.044.165c0,.061.012.11.035.148.023.037.069.073.137.104.068.032.163.064.283.096.121.032.278.073.473.122.058.011.139.032.242.063s.206.079.308.146c.101.067.189.156.263.268s.111.255.111.429c0,.143-.028.275-.083.397Z"/>
</svg>