<?xml version="1.0" encoding="UTF-8"?>
<svg id="a" data-name="Layer 1 copy" xmlns="http://www.w3.org/2000/svg" width="3001" height="3001" viewBox="0 0 300.1 300.1">
  <path d="M229.865,169.459c-1.974-4.642-5.062-8.539-9.179-11.582l-2.351-1.737-23.277,31.492,4.752,3.271,19.478-26.351c2.647,2.409,4.598,5.348,5.8,8.742,1.25,3.529,1.623,7.196,1.105,10.899-.517,3.701-1.933,7.137-4.207,10.214-2.429,3.287-5.545,5.76-9.262,7.352-3.719,1.594-7.625,2.18-11.612,1.742-3.984-.437-7.691-1.906-11.021-4.367-1.963-1.452-3.629-3.147-4.996-5.058-.46-1.076-1.072-2.093-1.819-3.026-.184-.37-.364-.742-.529-1.124-1.587-3.682-2.173-7.589-1.741-11.612.433-4.021,1.883-7.727,4.311-11.011,2.397-3.243,5.532-5.719,9.322-7.362,1.403-.624,2.843-1.092,4.313-1.407,0-.004,0-.009,0-.014,7.811-1.513,15.081-3.782,21.021-7.167,2.073-1.181,4.015-2.568,5.599-4.391.907-1.044,1.765-2.345,2.209-3.858l.016-.017-.007-.01c.297-1.025.408-2.146.197-3.361-.649-3.741-4.023-6.53-6.733-8.271-.667-.428-1.06-.621-1.573-.915-5.785-3.315-12.742-5.334-20.245-6.829l24.24-32.992-4.021-2.955-25.685,34.955c-1.923-.314-3.823-.583-5.721-.803l16.351-22.252-4.021-2.955-18.124,24.664c-1.929-.137-3.902-.233-5.938-.301l10.771-14.659-4.021-2.955-12.861,17.502c-.511-.002-1.005-.01-1.527-.01-.108,0-.217,0-.325,0-6.667.007-11.739.367-17.456,1.061-8.577,1.042-17.223,2.817-24.373,5.49-3.44,1.285-7.023,3.065-9.808,5.196-1.567,1.199-3.323,2.854-4.3,4.951-.297-.498-.591-.996-.915-1.492-1.077-1.652-2.295-3.289-3.648-4.884h3.209v-9.769h-12.057c5.453,4.291,5.957,6.632,5.957,6.632-2.598-2.598-5.358-4.818-8.163-6.632-10.168-6.576-20.909-7.802-26.496-2.215-5.222,5.222-4.492,14.945.994,24.496v14.353c0,.713.229,1.297.687,1.755s1.042.687,1.755.687h10.284c-6.104-4.561-9.738-12.251-9.738-12.251.619.832,1.273,1.655,1.962,2.469.908,1.071,1.875,2.124,2.902,3.151,2.597,2.597,5.358,4.818,8.163,6.631,10.168,6.577,20.909,7.803,26.496,2.216,3.124-3.124,4.103-7.864,3.223-13.209,1.466,1.095,3.042,1.996,4.699,2.836,5.922,3.005,13.159,5.043,20.66,6.395l-.923,1.259-1.654,2.257-.052.071-2.657,3.626-12.691,1.956-.787.121c-.877.135-1.665.613-2.189,1.329l-1.13,1.542s-.003.003-.004.005l-6.277,8.564s-.002.004-.004.005l-1.07,1.459c-1.093,1.491-.77,3.585.721,4.678l9.512,6.972c.438.32.911.558,1.4.718,2.003.656,4.285-.007,5.599-1.8.018-.025.034-.05.051-.075.235-.333.425-.684.569-1.047.817-2.067.178-4.504-1.699-5.88l-4.126-3.024h0s2.906-3.965,2.906-3.965l.251-.039h0l14.407-2.22.494,3.203-13.332,2.055-.197.268,1.512,1.108c1.735,1.272,2.852,3.125,3.23,5.133,0,0,0,.002,0,.003t0,0c.395-.239.807-.442,1.231-.61.011-.004.022-.009.034-.014.139-.054.278-.105.419-.152.004,0,.007-.002.011-.003.112-.036.224-.075.339-.104.043-.011.086-.023.129-.035.136-.036.273-.069.412-.099l.023-.004c.127-.026.254-.049.382-.069.034-.006.068-.011.103-.016.136-.02.272-.038.409-.051.006-.002.012-.004.019-.006.33-.031.665-.042,1.001-.033,1.68.046,3.286.597,4.643,1.592l1.732,1.27c.109-.08.22-.156.332-.23,0,0,.002.002.002.003,2.143-1.412,4.854-1.754,7.289-.897.023.008.046.016.069.024.742.21,1.459.552,2.117,1.034h.001c.987.729,1.546,1.492,1.846,2.019,0,.001.001.003.002.004.128.185.248.375.359.568.003.005.006.009.008.014.002.003.003.006.005.009.821,1.434,1.19,3.082,1.073,4.715-.003.049-.007.098-.012.146-.006.063-.011.126-.019.189-.013.114-.028.228-.045.341-.004.028-.01.055-.014.083-.016.102-.048.265-.07.37,0,.003-.001.008-.002.011,0,.002,0,.005-.002.007-.148.688-.386,1.362-.717,2.007h0c-.065.127-.133.252-.205.376-.005.009-.01.017-.015.025-.061.104-.125.208-.191.31-.017.026-.034.052-.051.078-.073.11-.148.22-.227.328l-2.112,2.882,6.007.638c.904,2.433,2.537,4.622,4.834,6.208,4.557,3.146,10.403,3.01,14.741.107l-7.434-5.449-1.494-1.095-1.494-1.095-.564-3.661,2.19-2.988,3.662-.564,1.494,1.095,1.494,1.095,6.92,5.072c.519.44,1.053.869,1.609,1.28,4.117,3.043,8.749,4.852,13.765,5.377,1.047.11,2.089.165,3.125.165,3.923,0,7.753-.786,11.423-2.347,4.642-1.974,8.555-5.083,11.629-9.242,3.042-4.116,4.852-8.747,5.377-13.766.524-5.015-.209-9.909-2.182-14.547ZM103.966,131.266c1.509,1.589,2.876,3.227,4.092,4.884h-17.02v-4.884h12.928ZM73.943,136.15c-.713,0-1.297.255-1.755.763-.218.218-.383.459-.497.723-2.852-6.776-2.848-13.003.66-16.511,3.89-3.89,11.122-3.471,18.74.372h-7.378c-.713,0-1.297.255-1.755.763-.458.458-.687,1.019-.687,1.679v12.211h-7.327ZM112.168,160.943c-3.89,3.89-11.123,3.471-18.74-.372h19.087c-.112.127-.227.251-.347.372ZM113.018,159.946v-9.143h-31.749v-4.885h32.142c2.034,5.599,2.029,10.7-.393,14.028ZM196.654,127.488c2.878.531,5.965,1.185,9.049,2.037v23.03c-5.057,1.436-10.863,2.536-17.394,3.285-4.766.546-8.977.859-13.205.978l21.549-29.329ZM185.338,125.87c1.97.188,3.886.42,5.798.698l-22.26,30.294c-2.133-.022-4.189-.078-6.191-.164l22.653-30.828ZM145.409,154.974c-3.843-.625-7.417-1.394-10.681-2.294v-23.261c5-1.354,10.708-2.444,16.884-3.194,5.544-.673,10.185-.975,15.671-1.021l-21.875,29.77ZM156.76,156.336c-.938-.075-1.869-.155-2.787-.247-.999-.099-1.979-.21-2.951-.327l22.431-30.526c2.11.039,4.104.105,6.009.204l-22.702,30.896ZM162.396,191.609l-4.878-.518,3.07-4.188c1.498-2.043,1.897-4.691,1.069-7.086l-1.104-3.193,11.392-15.505c4.19-.022,7.995-.222,11.594-.529-1.018,1.016-1.981,2.101-2.858,3.287-3.074,4.159-4.899,8.812-5.424,13.829-.309,2.952-.167,5.856.398,8.69-4.915-.994-10.167.894-13.258,5.213Z"/>
  <polygon points="155.22 188.854 155.221 188.855 155.229 188.86 155.22 188.854"/>
  <path d="M109.62,186.005l-12.287-1.305c-.906-2.424-2.536-4.605-4.827-6.188-4.556-3.146-10.403-3.011-14.741-.107l7.435,5.449,1.494,1.095,1.494,1.095.564,3.661-2.19,2.988-3.661.564-1.494-1.095-1.494-1.095-7.434-5.449c-1.543,5.275.365,11.167,5.135,14.461,5.901,4.075,13.966,2.645,18.114-3.174l5.475.581,8.417-11.483Z"/>
  <path d="M155.118,194.365c-.102-.473-.271-.931-.506-1.359-.327-.597-.782-1.136-1.356-1.573-.025-.019-.048-.039-.074-.057-.02-.015-.041-.028-.061-.042-2.228-1.583-5.321-1.091-6.942,1.121l-.447.61-2.393-1.753-1.648-1.208c-.853-.625-1.836-.939-2.818-.967-1.589-.044-3.174.666-4.185,2.046l-1.568,2.14c-2.79,3.806-8.136,4.63-11.941,1.84l-1.19-.873-4.041-2.962h0l-4.041-2.962-11.284,15.396-.008.011c-1.636,2.231-1.153,5.367,1.079,7.002,2.231,1.636,5.367,1.152,7.002-1.079l.009-.012,1.299-1.773.612.448,3.429,2.514c1.839,1.348,4.291,1.256,6.013-.067.367-.282.702-.619.99-1.012l1.352-1.844.966.708,3.075,2.253c2.231,1.636,5.367,1.153,7.002-1.079l.024-.034,1.438-1.961.301.221,3.74,2.741c2.231,1.636,5.367,1.152,7.002-1.079l3.071-4.19,5.242-7.152c.88-1.201,1.146-2.663.857-4.013Z"/>
</svg>