<?xml version="1.0" encoding="UTF-8"?>
<svg id="a" data-name="Layer 1 copy" xmlns="http://www.w3.org/2000/svg" width="3001" height="3001" viewBox="0 0 300.1 300.1">
  <path d="M198.135,112.334c-.031-.156.08-.288.031-.439-.028-.088-.211-.202-.225-.34-.01-.103.094-.178.067-.34-.051-.297-.374-.454-.36-.862.01-.275.403-.474.415-.689.009-.161-.189-.372-.187-.593.002-.306.246-.294.147-.779-.09-.442-.047-.299.002-.701.075-.61-.969-.573-1.415-.834-.061-.036-.089-.057-.093-.13.034-.403,1.124-.052,1.356-.329-.001-.208.027-.434.007-.64-.014-.146-.109-.266-.102-.414.007-.159.157-.269.155-.417-.002-.153-.159-.222-.189-.333-.021-.076-.066-.538-.066-.635,0-.172.136-.284.104-.458-.072-.389-.627-.362-.915-.485-.192-.082-.437-.234-.638-.326l-.027-.159c.294-.113.853-.273.721-.671-.068-.204-.54-.179-.651-.551-.054-.182.122-.228.133-.393.027-.41-.67-.321-.938-.511-.125-.089-.147-.309-.347-.368-.627-.184-1.577.275-2.174.441l.05.091c-.097.012-.218.022-.307.059-2.364.98-4.697,2.128-7.282,2.555-.348.057-.712.143-1.045.015.086.125-.075.114-.092.162-.093.25.407.587.558.763.1.116.335.409.406.519.091.141.007.331.316.383.009.147-.024.31,0,.454.017.106.193.192.023.301-.176-.247-.23-.028-.469-.046l.148-.046v-.138s-.139-.009-.139-.009c.034-.22-.27-.122-.346-.184-.024-.02-.026-.17-.105-.247-.088-.085-.211-.069-.267-.109-.049-.034-.027-.12-.081-.164-.067-.055-.351-.115-.483-.197-.246-.153-.589-.505-.834-.66-.071-.045-.226-.047-.282-.086-.05-.035-.016-.121-.034-.136-.016-.013-.229-.013-.386-.126-.218-.157-.187-.368-.205-.384-.016-.015-.278-.006-.357-.048-.057-.031-.029-.125-.082-.163-.101-.072-.378.003-.348-.253-.247-.059-.057.129-.22.137-.244-.225-.601-.309-.902-.492-.651-.397-.866-.507-1.602-.711-.135-.038-.255-.059-.399-.097-.09-.024-.126-.141-.217-.166-.124-.034-.289.005-.428-.015-.392-.056-.773-.152-1.158-.232-.026-.021.006-.144-.087-.174-.018-.006-.363.005-.381.01-.073.02-.115.111-.155.115-.073.007-.216-.212-.37-.082l-.003-.136-.343.043.05-.138c-.193-.115-.326.032-.459.033-.16.001-.716-.161-.999-.174-1.178-.054-2.417-.07-3.597-.042-1.637.038-3.412.309-4.927.658-.518.119-1.905.392-2.292.62-.084.049-.11.14-.119.144-.035.018-.126-.042-.202-.032-.391.049-1.861.693-2.296.902-.196.094-.359.224-.493.286-.312.144-.641.271-.949.401-.099.042-.154.216-.344.156l.147-.184c-.013-.012-.316.138-.328.151-.035.037-.029.114-.064.148-.201.192-.349.261-.644.276-.134.094.097.083.099.139.003.168-.365.065-.444.087-.121.033-.199.193-.338.218l.088.242-.093.101-.345-.118c-.038.299-.061.468-.362.609-.062.029-.176.031-.182.037-.01.01.067.207,0,.276l-.363-.227-.228.204.32.023c.066.058-.055.164-.096.187-.254.138-.375-.074-.47-.029-.325.154.181.408-.08.484-.231.067-.146-.153-.316-.134.157.33-.186.654-.542.507-.083.297-.149.63-.544.646l.05.138-.197-.092c-.127.138-.041.295-.083.403-.006.016-.191.247-.212.268-.092.096-.201.119-.249.16-.058.049.159.03.098.114-.326.228-.521.527-.749.824-.071.093-.203.12-.19.305l-.096-.046v.139c-.2-.101-.164.044-.253.191-.062.103-.151.19-.189.341-.112.071-.281-.03-.294-.022-.059.038-.306.532-.424.642-.158.147-.516.307-.711.442-1.956,1.358-3.164,2.66-4.015,4.825-.14.356-.222.474-.283.839-.02.118-.14.264-.14.281,0,.026.05.065.034.107-.019.051-.444.279-.538.491-.199.447.024.674.152,1.086.091-.144.304-.097.38-.151.123-.086.032-.265.36-.218.045.045-.55.781-.591.9-.008.023-.013.075.024.068l.099-.091c.144,0,.086.682.025.783.076.056.234-.228.422-.095.038.027.558.666.577.707.073.158.025.332.037.496l.346-.072c.119.073.135.257.211.335.433.448.978.874,1.417,1.34.137.145.147.394.443.288l-.155,1.008-.585.144.247-.139-.074-.138-.049.092c-.219-.074-.013-.513-.075-.691l-.295.254-.247.345-.37-1.106c-.115.172-.021.493-.039.701-.058.68-.295.618-.923.82.112-.169.032-.429.069-.554.026-.089.35-.421.324-.459-.003-.004-.07.007-.099-.032-.095-.132-.029-.409-.048-.569l-.838.415c-.068-.425-.083-.868,0-1.291-.046-.052-.242.169-.249.207-.023.119.06.27.054.413-.008.175-.112.455-.144.654-.031.2.002.416-.056.617l-.073-.23-.075.231-.147-.047v.139c-.056.054-.477-.174-.52-.173-.051.001-.11.145-.195.127l-.075-.092c.104.01.135-.083.151-.161-.241-.089-.033-.155-.023-.178.066-.143.11-.302.19-.448.136-.25.361-.35.273-.69-.345.081-.549.424-.715.692-.092-.002-.01-.522-.025-.624-.009-.063-.033-.143-.098-.068l-.297,1.291c-.035-.087-.34-.232-.343-.253-.005-.033.153-.194.073-.254-.099.067-.094.187-.152.273-.033.049-.125.055-.157.124-.021.046-.047.462-.112.525l-.147-.092c.091.188-.094.291-.098.308-.016.068.014.15-.002.22-.016.07-.101.134-.093.18.003.018.321.329.045.213l.147.6c-.293-.116-.203.237-.147.415l.099-.276.237.316c-.005.008-.08,0-.09.037-.049.179-.01.592-.05.8l-.098-.184c-.016.905.458,1.569,1.368,1.88.439.15.995.191,1.414.385.749.347,1.475.831,2.287,1.136,1.255.472,2.425.549,3.655.873.536.141,1.119.48,1.639.682.856.332,1.796.56,2.703.748.707.146,1.602.207,2.252.386.243.067,1.583.676,1.702.595.055-.35.362-.176.102.071,1.12.505,2.337.797,3.551,1.061,2.365.514,4.7.676,7.128.762.351.013.717.005,1.066-.028.491,1.198,1.114,2.35,2.044,3.301.373.381,1.545,1.403,2.073,1.43.077.004.085.008.074-.069-.094-.154-.246-.267-.336-.424-.075-.133-.096-.322-.182-.43-.049-.061-.162-.082-.173-.124-.031-.116.021-.309-.002-.449-.113-.698-.231-1.091-.142-1.845.011-.096.103-.168.096-.276-.006-.099-.111-.156-.099-.257,1.396.786,2.992,1.552,4.588,1.914.204.046,1.226.253,1.332.114.026-.154-.19-.136-.25-.215-.068-.09-.146-.356-.222-.472-.067-.102-.19-.175-.269-.302-.106-.171-.105-.35-.174-.483-.055-.106-.238-.166-.257-.197-.035-.057-.003-.177-.066-.285-.062-.104-.224-.135-.266-.213-.166-.312-.352-.671-.596-.965-.151-.183-.377-.315-.515-.51.467-.017.941.02,1.408.001.226-.009.99-.199,1.112-.017.069.103.149.627.179.79.257,1.401.326,3.017,1.007,4.316.069.131.467.756.558.816.159.104.319-.114.377-.253.152-.361-.005-.86.054-1.053.059-.191.429-.337.485-.703.037-.244-.027-.554,0-.807.286-.104.388.052.632.147l.111.708c-.259.453-.403.946-.605,1.418-.154.361-.119.6-.535.791-.085.039-.206.003-.27.071-.046.049-.086.251-.135.335-.178.302-.817,1.188-1.051,1.462-.074.087-.241.153-.34.282-.073.094-.139.313-.201.366-.072.062-.378.111-.503.175-.62.316-.637.247-1.307.393-.423.092-.949.316-1.309.391-.461.096-.613.017-1.133.232-.546.225-.572.403-.94.655-.157.108-.498.152-.67.239-.082.041-.165.201-.244.234-.161.066-.38.089-.564.163-.358.145-1.022.6-1.346.678-.281.068-.476-.02-.777.15-.728.412.478.772.814.872,2.172.646,4.897.719,7.118.269,1.723-.349,3.263-1.119,4.895-1.663.07.092.159.152.261.14l.091-.254c.026-.008.052-.017.078-.025.429-.13.89-.247,1.309-.391.382-.132.745-.295,1.109-.462.027.326-.304.525-.373.827-.031.139.006.306-.047.417-.015.032-.404.505-.447.551-.099.107-.339.191-.466.302-.039.034-.152.11-.074.162.265-.083.531-.185.77-.323l-.301.702.543.236c-.286-.695.618-.404.506-1.02l-.23.247c-.227-.102-.099-.326-.053-.491.341-.283.613-.622.832-1.016.265-.479.432-1.248.709-1.643.239-.34.769-.702,1.074-1.026,1.281-1.363,2.276-3.185,2.592-4.979.183-.006.359.012.541-.025.469-.093.885-.629,1.214-.938.116-.109.201-.187.318-.304.063-.063.176-.094.244-.187.155-.211.083-.55.104-.572.013-.013.098-.007.136-.032.272-.181.315-.766.26-1.06-.212-1.152-.829-2.434-1.092-3.594.69-2.931.814-6.207.234-9.166-.361-1.84-.987-3.639-1.369-5.476.451.376.84.817,1.397,1.069.687.312,1.35.284,2.096.304.074-.131.174-.267.157-.424-.005-.045-.189-.503-.223-.579-.03-.066-.148-.087-.121-.186.269.024.401.345.685.27.009-.152.15-.282.191-.397.134-.373.195-.822.294-1.201.04-.155.158-.615.068-.728-.052-.065-.181-.083-.247-.138-.111-.093-.222-.291-.201-.435,1.163.087.448-.335.396-.766-.016-.131.061-.235.041-.353-.021-.125-.203-.307-.23-.438ZM146.529,119.366c-.029.031.003.088-.113.059-.051-.157-.053-.934.06-1.005.041-.026.158-.004.212-.054.103.061.044.096.024.182.796-.006.064.555-.184.817ZM146.793,125.139c-.182-.075.003-.247.108-.169l.009.08c.392-.222.22.144-.117.089ZM150.591,115.477l.216.212c-.251.065-.502-.244-.493-.461l.277.249ZM150.61,123.253c-.046.224-.225.469-.493.461-.058-.049.437-.514.493-.461ZM149.928,121.716c-.041.07-.096.225-.206.199l.197-.986.098-.027c-.017.099.119.103.142.167.051.139-.151.51-.231.647ZM150.068,115.782c.141-.002.192.141.299.204.052.03.238.033.242.096.008.117-.281-.011-.313-.03-.047-.027-.285-.218-.229-.27ZM148.29,117.51c.232.037.391-.115.531-.149.153-.037.35-.022.518-.07.573-.163.3-.25.242-.647.038-.125.201-.098.244-.155.142-.183-.012-.704.538-.248-.166.009-.183.14-.245.255.097.124.355.004.344.206-.461.022-.365.488-.454.752-.022.065-.105.093-.127.158-.044.129,0,.337-.085.476l-.221-.002c.043.106-.137.221-.138.253-.001.04.12.079.087.161-.057.052-1.027-.521-1.085-.623-.066-.116.283-.104.296-.115l-.048-.117-.347.025.031.115-.128.07c0-.128-.074-.249.048-.346ZM147.678,119.638c-.006.011-.051.014-.062.032-.042.069.002.191-.115.216.014-.248-.022-.514,0-.76.015-.163.037-.39.268-.346.055.01.048.061.053.096.04.32.006.474-.145.762ZM148.636,118.532c-.061-.025-.166.013-.261-.038-.116-.062-.315-.37-.527-.408l.024-.092c.235.051.39.091.594.206.082.046.72.531.664.578-.168-.027-.353-.188-.493-.246ZM148.833,120.808c-.131.139-.098-.289-.092-.34.078-.642.27-1.123.58-.196-.131.211-.485.267-.488.537ZM149.229,123.437c.184.149.407.265.542.461-.456.05-.488-.082-.542-.461ZM149.426,124.774l.189.04c.027-.137.51-.3.618-.266.156.049.022.291.081.41l-.491-.228c.039.133-.431.233-.397.044ZM150.746,124.879c-.096.036-.124.139-.235.126l-.102-.432c.012-.048.403-.128.462-.114.057.013.1.098.17.119.23.069.68.048.653.334-.35.019-.602-.163-.949-.034ZM152.157,114.128c-.097-.047-.593-.215-.607-.265l.048-.202.344.046.046-.487.494.028c.076.156-.085.296-.096.392-.012.105.085.203.078.274-.004.043-.077.075-.07.174.012.177.316.145.387.31-.295.055-.445-.183-.624-.27ZM153.322,119.265c-.052-.015-.428-.176-.344-.255l.591.231c0,.094-.197.039-.248.024ZM154.273,117.265c-.074.067.021.306-.273.261-.119-.018-.106-.084-.152-.115-.034-.023-.107-.008-.121-.02-.022-.021-.018-.242-.007-.294.041-.199.274-.204.428-.101.023.016.046.081.094.118.049.038.159.043.168.052.105.099-.122.086-.136.099ZM153.741,116.241c-.157.013-.845.639-.913.387-.038-.224.263-.456.457-.537.385-.16,1.037-.172,1.421-.032l-.964.182ZM155.703,109.613c-.088.425-.543.533-.825.819-.065-.048-.179-.147-.101-.233.2-.011.159-.146.226-.202.068-.057.236-.111.27-.164.059-.093.002-.205.023-.291.019-.074.242-.007.088-.321-.051-.105-.226-.153-.065-.268.096-.068.118-.034.209-.008.27.078.552.362.803.495-.19.14-.408.138-.629.172ZM157.148,108.633c-.106.09-.272.281-.407.313-.17.04-.746.067-.698-.19.003-.014.145-.237.157-.247.065-.057.284-.184.353-.245.436-.386.925-.745,1.386-1.107.098-.077.255-.265.402-.307.026-.007.303.021.312.033.106.148-.144.237-.197.299-.228.267-.468.484-.689.739-.254.293-.3.445-.618.712ZM169.211,113.568c-.103-.004-.06-.174-.112-.22-.022-.02-.099.002-.137-.04-.046-.052-.233-.331-.195-.384.406-.105.594.342.443.645ZM169.754,113.891l-.051-.138-.247-.028.052-.64.098-.023c.023.018.234.34.244.394.045.24-.052.25-.096.435ZM170.049,111.514l.149-.021.099.507c-.131.121-.4-.386-.249-.486ZM171.037,111.493c-.084.019-.031-.065-.054-.083-.015-.012-.088.052-.169-.004-.052-.036-.363-.466-.319-.512.475-.132.766.191.542.599ZM182.435,142.368c.031-.14.314.039.244.112l-.096.025.074.208c-.091-.077-.25-.22-.222-.345ZM176.416,146.494l.172-.046h1.752s-.197-.138-.197-.138l.391.005.03.136c.114-.001.229-.007.344-.003.06.002.183-.035.172.046-.896.139-1.767.101-2.664,0ZM179.696,146.125c-.884.095-1.763-.022-2.64-.115,0-.072,1.369.044,1.508.025.115-.015.176-.082.291-.097.347-.045.88-.009,1.211.095l-.37.091ZM176.909,145.18c.066-.095.114-.053.196-.049.638.027,2.081.413,2.599.192.015-.006-.002-.066.089-.077.28-.031.627.029.915.003l-.197.138.493.092c-1.378.253-2.749-.058-4.095-.299ZM180.832,145.101c-.681-.022-1.923-.239-2.573-.445-.065-.021-.151-.013-.166-.098.178,0,.38.022.554.058.373.077,1.963.42,2.245.296.013-.006.012-.072.046-.079.055-.011.518.028.46.093l-.098.046.246.092c-.224-.042-.515.043-.715.037ZM180.314,144.419l.172-.046,1.25-.035c.008.003.005.073.041.081.151.031.394-.066.411.184-.636.047-1.251-.104-1.874-.185ZM181.202,143.682c.332.044.199-.051.258-.125.197-.247,1.125.128,1.074.493-.115.103-1.215-.161-1.332-.368ZM182.238,143.243l.197.023-.049-.23.24-.041c.138.185.131.338.155.547-.084.054-.467-.228-.542-.3ZM183.422,143.266c-.114-.017-.253-.192-.323-.274-.053-.063-.247-.323-.28-.384-.1-.183.078-.103.06-.149l-.246-.163.148-.092-.05-.138c.266-.006.307.283.198.461.118-.055.314-.025.373.093.03.06-.032.132-.018.197.023.103.224.255.138.449ZM183.62,142.622l.098.322c-.139-.169-.351-.443-.32-.645l.222.23.025-.139c.269.005.186.199-.025.232ZM187.665,141.422l-.098-.047c.052.329-.384.349-.297.646l-.172-.138-.528.589-.138.01c-.019-.05.049-.101.049-.115,0-.786.039-1.618,0-2.398-.001-.021-.127-.08.024-.069.363.237.51.374.91.533.144.057.426.371.45.507.005.026-.3.344-.2.481ZM193.882,105.313c-.2.04-.405-.086-.444-.276.15-.026.22.045.324.113.026.017.175.124.12.163ZM195.922,106.68c-.047-.03-.222-.204-.192-.261.14-.185.523-.189.525.069.001.212-.133.319-.333.192Z"/>
  <polygon points="97.932 233.502 97.469 233.745 97.576 234.225 98.156 233.823 97.932 233.502"/>
  <path d="M198.335,227.988l-.237.163.116-2.43-.237.055c.196-1.308-.569-2.632-.472-3.919l-.234.112c.071-.251-.112-.528-.114-.735-.002-.301.219-.376.291-.59.313-.935.251-2.545.117-3.536-.068-.502-.281-.563-.28-.598.007-.152.183-.398.102-.615l-.235.112c.039-.183.064-.318.022-.507-.474-2.126-1.585-4.219-2.541-6.187-.259-.149-.582-.391-.871-.464-.202-.051-.286-.085-.276.146.008.175.573,1.741.65,1.824.133.143.356.108.535.108l-.355.278.359,1.373.468.005-.244.178c-.105.49.88,2.201.954,2.859.036.325,0,.245-.134.014-.06-.103-.014-.281-.219-.292l-.118.33-.355-.441.177.883c-.682-1.393-1.295-2.85-1.922-4.277-.738-1.681-1.733-4.741-3.329-5.832-.16-.11-.245-.207-.478-.159.065.18.303.198.473.385.953,1.047,1.347,2.632,1.995,3.85-.576.768-1.002-.13-1.41-.42-.408-.291-1.202-.736-1.655-.344-.96.831,1.337,1.125,1.426,1.717.361-.331.824-.249,1.176.062-.228.397-.242.606-.117,1.042l-.589-.33v.442s-1.296.115-1.296.115c-.045.922.918,1.078,1.648,1.319l.112-.391.603-.006c.044.628.622.595.827,1.119l-.014.202c-.91.551-1.818.053-2.352,1.229.005.146,1.719,1.027,2.006.884l-.235-.275c.966-.304,1.562.699,1.071,1.497-1.092.055-1.586-.258-1.889.976.038.154,2.014.986,2.297,1.058.392.1-.218-.357.058-.548l1.039.128c.179.29.184.596-.034.868-.211.196-.548.038-.774.159-.186.1-.17.462-.297.606-.236.269-1.067.244-1.124.827.268.055.204.321.324.393.426.256,1.656.797,2.163.993-.107-.2-.061-.785.027-.864.21-.19.818,0,.211-.626.54-.467,1.051.613,1.415.936-.447-.014-.272.437-.475.607-.473.397-.724.123-1.179-.053.042.079,1.275,1.176,1.36,1.214.32.141-.097-.562.411-.441.062.384.245.625-.176.881l-.709-.555c-.368.175-.521.441-1.003.335l.563-.718-.266-.243c-.475.255-1.098.539-1.662.509-.184-.01-.347-.209-.7-.222-.68-.025-.874.414-.534-.538-.828.407-1.184-.23-1.741-.415-.394-.13-.899-.021-1.16-.063-.067-.011-.542-.669-1.114-.296l.118-.33c-.208-.006-.594.011-.758-.101-.128-.087-.044-.315-.071-.339-.09-.08-.488.11-.634.082-.124-.024-.208-.201-.319-.241-.588-.214-1.119-.356-1.761-.287l.235-.164-.305-.507-1.466.231v-.443c-.213-.041-.455.139-.636.117-.078-.009-.061-.206-.153-.226-1.199-.259-2.624-.521-3.851-.909-.225-.071-.356-.37-.497-.382-.126-.01-.308.144-.475.141-.361-.006-.568-.387-.613-.396-.242-.047-.54.048-.79-.017l-.073-.315c-.648.172-1.002-.296-1.659-.493-.377-.113-.804-.104-1.091-.194-.281-.088-.265-.391-.403-.421-.598-.132-1.864,0-2.513,0,.054-.443-.37-.502-.771-.528-.803-.053-1.591-.301-2.454-.468-.098-.019-.283-.371-.355-.401-.145-.06-.317-.016-.457-.07-.55-.215-1.003-.494-1.63-.418l-.012-.312c-.223-.099-.611.121-.756.088-.14-.032-.134-.288-.266-.32-.23-.056-.604.04-.862.004.034.141.192.243.323.305,1.17.555,3.008,1.092,4.289,1.511,5.429,1.778,10.972,3.385,16.439,5.061,3.133.96,6.363,1.586,9.306,3.063l-.12.328c-.186.036-.101-.195-.236-.274-.378-.219-.571-.165-.877-.164-.073,0-.054-.199-.146-.223-.372-.094-.754.134-1.038.107-.222-.021-.991-.334-1.337-.409-1.149-.248-3.006-.559-4.072-.915-.156-.052-.136-.283-.256-.3-.107-.016-.383.097-.686.056-.666-.092-1.335-.477-1.928-.633-.628-.165-1.536-.195-2.099-.357-.272-.078-.25-.381-.403-.422-.367-.098-.701-.169-1.088-.283-6.496-1.907-11.678-3.994-18.863-4.782-9.762-1.071-15.337,1.407-23.825,5.094-.915.397-2.258.813-3.09,1.407-.23.164-.397.521-.428.537-.035.017-.229-.1-.368-.073-1.121.217-1.907,1.371-3.065,1.778-.254.089-.641.067-.861.18-.036.018,0,.501-.534.45.024.253.581-.012.705-.059,2.622-.981,5.294-2.535,7.953-3.608,3.191-1.288,5.816-2.173,9.227-2.638.445-.061,1.29-.563.659.229,1.048-.005,2.049-.804,3.12-.453.289.456-.096.705-.542.822-1.367.361-3.551.584-4.516,1.63-.299.324-.367,1.1-1.013.597.425-.338.241-.799-.061-1.159-1.375,1.829-1.864,4.06-2.914,6.054l-1.518-.148c-.003-.315,2.108-4.011,1.473-4.031-.361.08-1.006.259-1.28.457-.345.25-.384.783-1.017.924l.321.299-.057.14.442.059-.591.22c-.104.33.265.122.241.375-.038.395-.488.717-.359,1.17-.335-.033-.062-.569-.122-.652-.018-.026-.429-.137-.511-.127-.079.009-.063.206-.153.226-.274.062-.764-.093-.988.052-.099.064-.147.359-.282.509-.223.248-.63.302-.896.598-.452.502-.34,1.111-.601,1.536-.14.228-.5.298-.56.47-.067.194.018.438-.028.636-.216.943-.399,3.465-.198,4.4.128.597.625.793.036,1.411-.18.189-.616.342-.713.548-.099.21-.02.451-.121.66-.067.14-.315.21-.389.412-.051.14.012.422-.031.466-.032.033-.616.041-.901.263-.158.123-1.004,1.081-1.082,1.251-.144.313-.088.575-.197.809-.09.192-.499.359-.598.66-.098.295.069.572-.015.749-.088.187-.352.265-.49.431-.409.492-.803.833-.371,1.417-.125.213-.41.115-.559.198-.419.232-.314,1.152-1.555.622l.092-.809c-.078-.305-1.288.034-.382-.71.839-.689,2.152-.351.28-1.507.407-.778,1.39-.252,1.763-.556.238-.194.495-.878.336-1.134-.033-.053-.978-.661-1.073-.707-.776-.372-1.586-.234-2.38-.315-.21-.021-.385-.178-.603-.208-.928-.128-1.325.348-2.122.623-.509-.257-.395-.51-.294-.96-.336-.096-.414.382-.485.43-.026.018-.41-.121-.637-.111-.654.029-1.256.39-1.709-.265,1.042-1.188,2.16-2.334,3.183-3.536.949-1.115,1.963-2.262,2.815-3.441.202-.28,1.323-1.799,1.085-2.022-.51-.106-.954.182-1.295.505-.105.1-.094.251-.165.338-.915,1.113-1.638,2.679-2.384,3.9-.235.384-.877.209-.409.886-.779.017-.573.387-.823.723-.252.339-1.994,2.398-2.215,2.46-.484.136-.975-.237-1.514-.212-.649.03-1.228.41-2.091.316-1.169-.127-1.411-.756-2.292-1.271l-2.164.522-.018-.498,3.634-2.963,1.103-1.173-3.248,2.649c-.395-.57.338-1.23.001-1.876-.914,1.971-3.262,2.703-4.845,4.084l-.058-.44-.303.1-.108-.212-.415.221v-.219s.305-.108.305-.108l-.071-.335c.248.017.757-.01.895-.221.101-.153-.081-.342-.067-.442-.161-.011-.412-.107-.517-.087-.24.046-.264.366-.333.405-.088.049-.115-.039-.535.238-.805.529-1.524,1.056-2.339,1.649-.326.237-.718.563-1.119.665l6.32-5.079c.323-.654-.689-.423-.944-.444-.46-.038-.8-.128-1.306-.111-.347.012-1.462.105-1.011.616.273.309.429.051.544.051h2.126c.114,0,.572-.393.121.113l-1.422,1.101-.177-.551c-.836.316-1.717-.141-2.585.011l-.024.489c.184.228.417.304.721.274l-.085.222-.27.107.709.167c0,.061-.889.175-1.01.151-.339-.07-.412-.356-.678-.455-.159-.059-1.69-.181-1.832-.121-.184.077-.071.285-.26.259l-.017-.425c-.27-.219-.629.011-.846-.035-.222-.046-.73-.63-1.025-.712-.253-.07-.495.084-.834.025-.16-.028-1.124-.305-1.271-.364-.188-.074-.131-.248-.144-.256-.046-.027-.245.195-.418.228-.164.032-.16-.115-.17-.119-.542-.181-.986-.665-1.383-.749-.494-.104-1.346.136-1.63.036-.313-.11-.199-.416-.999-.565-.44-.082-.342-.09-.56-.153-.516-.149-.985.127-1.132.095-.349-.077-.521-.566.094-.486.253.033.553.434.707-.055l.471.336.179-.335c.352-.036.151.217.555.305.16.035.445.128.39-.139l-.408-.336-2.071-.272c.373-.176.722-.006,1.011-.013.155-.004.265-.167.347-.169.097-.002.337.269.694.185l.133-.227c.069.344.728.361.826.002.359.394.926.047,1.424.343l.228-.234.591.333.182-.333c.296.226.874.431,1.001-.001.299.571.953-.011,1.534.334l-.058-.332.294-.005c.158.368.36.373.77.335l.057-.221c.105.367.419.2.769.221l-.12-.219.295-.003c.119.371.858.522.651.004.15-.077.844.588,1.005-.002l.172.006c-.037.386.523.172.83.215l-.353-.11.235-.11c-.205-.743-.501-.114-.544-.106-.603.109-.578-.538-.921-.551-.366-.014-.752.319-1.073.336-.589.032-1.714-.197-2.364-.23-.646-.033-1.301.022-1.947-.002-.031-.145.217-.176.323-.192.561-.085,1.321-.017,1.8-.304,0-.097-1.712-.737-1.888-.781-.705-.176-2.194,0-3.012-.046-.316-.018-.579-.206-.834-.216-.344-.014-.704.226-1.113-.007-.03-.164.222-.137.352-.165,1.408-.296,3.038-.148,4.49-.277-.111-.318-1.189-.365-1.478-.342-.264.021-.426.224-.589.229-.234.007-.736-.378-1.123-.216l.117.33c-.028.029-.283-.177-.427-.19-.513-.047-2.199.385-2.677.635-.079.041-.078.22-.159.226-.158.011-.419-.161-.499-.108-.055.037-.622,1.023-.65,1.111-.083.266-.031.731-.101.845-.029.047-.268.083-.384.245-.369.515.042,1.679-.157,2.339l.919,3.841-.741-1.79c-.239-1.2-.73-2.38-.559-3.62l-.352.221c-.134-.499.251-.233.365-.396.087-.126.075-.405.222-.544l-.468.056.124-.436c.364.231.418-.152.706-.295l-.124-.373-.352.33.177-.661c-1.111,1.064-1.288,2.441-1.296,3.869l-.64-.018-.015-.76h-.352c-.223,1.22-.619,2.554-.462,3.798.175,1.381,2.032,3.554,3.175,4.43.73.56,1.8.961,2.639,1.508.483.315,1.303,1.091,1.699,1.317.166.095.414-.027.621.038.333.104.934.486,1.253.504.274.015.445-.201.648-.168.156.025,1.591.542,1.693.621.228.177.185.435.429.592.076.049,1.635.583,1.727.59.187.015.346-.177.566-.186.335-.014.817.197,1.23.135.47-.071.53-.394,1.004-.366.6.036,1.383.216,1.375.879-.382.105-.87-.018-1.208.021-3.625.408-9.828.591-12.935,1.741-.128.048-.355-.031-.506.058l-.116.389c.975.088,1.937.327,2.91.428,5.71.594,11.944.473,17.708.562,21.741.333,43.577-.043,65.311-.221,6.011-.049,12.897.368,18.785-.328,1.092-.129,2.366-.27,3.248-.884.154-.278-1.333-.897-1.652-.661l.003-.323c.726.318,1.098-1.607.941-1.774l-.707.22c-.091-.348.684-.478.716-.627l-.128-.587-.379.639-3.635.797c-.031.186.285.119.416.113.566-.027,1.061-.274,1.541-.331.17-.02.329.105.457.11.041.002.115-.372.421-.224-.181.501-.37.489-.869.321-.414.919-1.322.453-2.102.512-.671.051-1.657.202-2.383.288-.554.066-1.064.249-1.615.312l.354-.44-1.889.109c.103-.317.947.15.826-.33-.513.018-.901.105-1.062-.441,3.235-.269,6.417-.84,9.568-1.548.077-.436-.844-.207-1.012-.434-.132-.177.013-.839-.391-1.076-.063-.365,1.225-.652.676-1.84-.181-.39-.766-.739-.873-1.06-.125-.373-.069-1.03-.052-1.44l-4.488.109c-.127-.114.328-.739.462-.837.227-.165,1.903-.644,1.305-1.092-.525-.393-.956-.133-1.344-.178-1.098-.127-2.506-.511-3.552-.267h-1.952c.914-.182,1.836-.304,2.743-.529.638-.158,2.034-.53,2.568-.804.393-.202-.008-.678.14-1.026,1.021-.242,1.972-1.288,2.229.317l3.983-.969.858-.025c-.358.243-.047.581-.17.77-.102.158-.839.48-.933.69-.489,1.095.512,2.203.868.635l.352.111v-2.253c.135-.325.275-.488.12-.84l.237.054c-.144-.366.111-.632-.238-.936.725.088.185-.469.128-.728-.275-1.26-.154-2.597-.008-3.854ZM139.883,229.941c.022-.023.224.086.28-.011.21-.363-.161-.674.762-.785l-.476-.398c-.016-.347.431-.424.466-.552.04-.146-.118-.323-.082-.511.061-.318.498-.882.448-1.299l.345.106c.212-.13.527-1.214.662-1.428.293-.465.211.1.411-.809.01-.048.576-.415.354-.849h.591s-.12-.22-.12-.22l.458.02.25.531h-.589c-.179.325.371.454.353.497-.014.035-.304.311-.348.327-.17.06-.578-.196-.596.059l.943.386c-.647.32-1.069.54-.958,1.314l-.443.192c.155.67-.214.735-.421,1.099-.352.621-.989,1.453-1.235,2.048-.344.833-.087,1.535-1.431,1.587-.09-.082.268-1.193.373-1.302ZM135.847,230.914c.885-.25.78-.183,1.184.362.096.129.333.047.234.41-.664-.03-1.391.368-1.891-.109l1.535-.223c-.21-.374-1.09.125-1.062-.439ZM134.667,233.564c.341-.159.672-.374.989-.571.127-.079.172-.246.227-.277.273-.159.612-.157.828-.278.326-.183.484-.673,1.144-.53l-1.859,1.216c-.381.08-.741.412-1.06.527-.108.039-.301.089-.269-.086ZM134.428,236.102c-.175.402,1.177,1.17,1.18,1.269-.233.361-.672.239-1.017.374-.059.023-1.026.555-1.076.593-.125.097-.163.477-.33.63-.132.121-.356.121-.472.221-.211.183-.281.584-.647.554l2.361-3.643ZM131.324,241.085c.258-.06.429.193.663.181.184-.009.379-.189.595-.169.889.08.489,1.008-.313,1.212-.645.164-1.348.033-1.973.307-.093-.108.755-1.469,1.028-1.532ZM127.062,245.239c.195.034.523-.195.762-.035l.168.505,1.906-2.658c.455-.023.784.305,1.194.424.185.054.489-.018.629.074.125.082.153.807.466.673l4.253-6.905c.955.251-.672.885-.237,1.435l-.354.002c-.052.235.132.456.09.687-.048.266-.515,1.41-.659,1.707-.424.869-1.216,1.507-1.558,2.405.313.402.667-.005,1.011-.047,1.139-.137,1.939.215,2.977.518.38.156.538.831.268,1.081-.085.078-2.008.776-2.223.803-1.147.145-2.454-.013-3.635.032-.202.008-.545.334-.979.369-1.034.084-2.366-.161-3.443-.05l.117-.44-1.048-.015-.132-.758c.211-.065.277.165.428.192ZM113.286,247.254l.117-.33c-.342-.068-.295.447-.761.438l-.42-.659.708.219-.117-.33h.707s.02.312.02.312l.337.019-.121.219c.086.065.701-.224.825.056-.004.302-1.109-.062-1.296.055ZM119.783,248.358l-.293.002c-.176-.422-.866-.172-1.197-.544l-.34.211-.296-.441.352-.054-.473-.168.12-.33-1.181-.331.872-.118c.148.451.402.068.701.131.305.064.328.613.497.649l.646-.222c-.075.784.679.392.946.993l-.473.002.12.219ZM134.251,250.014l-1.12-.108,2.006-.222c.086.386-.677.196-.886.33ZM140.453,247.144l-.02,1.086c-.496.076-1.98.956-2.105.24h.826c.09-.385-.243-.403-.472-.609l.354-.495c-1.69.201-3.374.312-5.079.221l.236.276c-.329.112-.784-.321-1.133-.383-.252-.045-.623.266-1.153.21-3.496-.37-6.944-.977-10.43-1.421-.521-.066-.274.066-.722-.112-.411-.163-.48.058-.855.103l.059-.22c-1.359-.35-2.936.096-4.132-.554l-.061.333h-.471s.119-.33.119-.33l-.709-.221c5.459.327,10.783,1.658,16.236,1.991,2.161.132,4.545.277,6.626.003,2.065-.272,3.632-.245,5.668-.334,1.139-.05,2.319-.265,3.457-.313.19-.008.322-.008.377.197-2.214.036-4.399.5-6.615.332ZM180.526,224.64c.378,0,1.638.139,1.984.25.156.05.512.271.468.444-.52.556-.74.093-1.156-.021-.457-.126-.979-.195-1.444-.306-.228-.135-.096-.367.149-.367ZM174.316,222.85c.664.137,1.525-.281,1.112.924l-.49.126c-.324-.427-.758-.846-1.292-1.05.352-.559.629-.008.67,0ZM161.887,219.646c.558.008,3.018.503,3.432.776.115.076.43.351.406.483l-.385.272-1.563-.529c-.933.049-1.752-.305-2.692-.332l-.196-.555c.343.046.664-.12.998-.115ZM155.283,219.644c-.79,0-1.562.189-2.358.117-.123-.015-.095-.347-.047-.424.246-.399,3.148-.399,3.704-.354.482.038.816.125,1.115.501.008.531-2.048.16-2.414.16ZM165.678,242.281c.082.222.41.417.498.638.057.145.003.345.058.497.091.253.331.302.277.64-.019.116-.357.887-.426.934-.115.078-.667.164-.909.253-.167.062-.288.26-.384.293-.078.027-1.579-.059-1.658-.104-.087-.049-.431-.537-.654-.714-.639-.505-3.115-1.322-2.509-2.3.07-.113,1.134-.808,1.337-1.012.236-.238.959-1.383,1.078-1.421.779-.159,2.08-.14,2.788-.375.186-.062.29-.276.397-.299.153-.033.635.541.975.446.213,1.16-1.339,1.245-.866,2.523ZM168.664,221.986l-.214.092c.065-.555.849-.47,1.304-.391.781.135,3.713,1.169,4.305,1.606.194.143.345.343.53.497-.408.547-1.072.126-1.622-.029-.844-.237-1.589-.587-2.479-.883-.202-.067-.47,0-.735-.086-.23-.075-.991-.573-1.088-.806ZM175.063,247.637c.041.153.385.097.354.279h-4.369l.353-.164c-.555-.568-1.425-.346-2.163-.518l-.147-.083-.052-.338h6.083c.067,0,.265.163.414.111.199.176-.561.383-.473.712ZM175.499,236.192c-.287-.097-.337-.51-.317-.751l6.968,1.875c-1.193-.116-2.402-.085-3.57-.36-.244-.058-.579-.274-.917-.357-.704-.175-1.44-.314-2.164-.407ZM183.779,241.924c.122.228.366.347.482.542.493.831-.095,1.562-.34,2.36-1.802-.721-3.457-.863-5.339-.3-.535.16-1.636.837-2.102.577-.814-1.041.757-1.396.721-2.431-.034-.986-1.082-1.091-1.082-2.207,0-1.018.291-.786.946-1.111.193-.096.266-.348.545-.383.239-.03.615.114.933.119,1.274.021,2.526-.098,3.78-.121.789-.014,1.541.141,2.308.005.416,1.358-1.525,1.691-.851,2.951ZM195.737,231.743c-1.376.634-2.188-.375-3.308-.666-.438-.114-.991-.083-1.443-.197-1.216-.308-2.769-1.243-3.907-1.758-.76-.344-2.073-.684-2.746-1.187-.261-.196-.393-.629-.428-.649-.153-.085-.486.054-.668-.04-.079-.041-.25-.524-.58-.616-.205-.057-.461.011-.656-.049-1.214-.378-2.226-.905-3.511-.195-.054-1.379,1.211-1.397,2.336-1.135,2.2.512,7.122,3.076,9.363,4.167,1.206.587,2.67,1.616,3.808,2.072.762.305,1.236.264,1.855-.245l-.115.499Z"/>
  <path d="M108.798,236.272c.239-.097.123-.398.227-.448.186-.09.864.078.598-.605-.282-.018-.644.45-.736.478-.283.084-.587-.18-.68.516.18.013.384.176.591.06Z"/>
  <path d="M126.19,225.365c-.255.121-.282.14.024.134,4.816-1.833,9.359-4.224,14.16-6.089,3.873-1.505,8.315-2.989,12.537-3.187,3.202-.15,6.305.272,9.455.346.293.007,1.226.016,1.358-.23l-.456-.054c.225-.288-.194-.474-.465-.576-1.12-.42-4.111-.794-5.399-.915-4.821-.455-9.897.589-14.021,2.734-.149.078-.412-.015-.595.051-1.072.389-2.331,1.231-3.391,1.581-.194.064-.396.051-.596.049v.442c-1.002-.411-.997.413-1.569.797-.48.322-1.644.784-2.211.639l.235.164c-.245.375-.692.319-1.027.476-1.438.673-2.91,1.425-4.299,2.05-1.23.553-2.523,1.01-3.74,1.589Z"/>
  <path d="M156.552,204.081c.133.089.056.255.165.334.403.295.885.47,1.293.757l.158.01.182-.329c.095.399.437-.022.623.385l-.158.495.656.554c.074-.264-.099-.582-.077-.812.032-.32.292-1.908.407-2.138.605-1.206,2.402-2.302,2.921-3.563.058-.141.057-.297.057-.445l.234.112.354-1.657c-.542.348-.868,1.028-1.653.884l.057.218c.197-.117.75-.272.652.112l-.36.08.005.253-.209-.081c-.423.405-.574,1.015-1.325.964l.826.164c-.368.449-.759-.041-1.052.475-.221.389.067.651-.719.686l.472.22-.544.326.072.446c-.329-.083-.621.197-.88.207-.454.017-1.231-.217-1.775-.212-.702.007-1.422.105-2.07.339l.235.218-.352.167c-.007.234,1.567.671,1.803.829Z"/>
  <path d="M147.245,212.582c-.326.252-.609.772-1.009.935-.393.16-.586-.138-.696.455-.528-.13-.882-.015-1.07.486.204.018.396.002.594-.051,2.61-.697,4.241-1.793,7.262-1.934,3.397-.159,5.887,1.669,9.035,2.427-.321-.401-1.154-.459-1.565-.659-.526-.256-1.248-.875-1.787-1.235-.743-.495-1.51-1.003-2.293-1.416-.302-.159-.861.033-1.254-.009-.474-.05-1.537-.57-1.938-.408-.896.361-1.347.195-2.322.307-.932.108-2.226.539-2.955,1.102Z"/>
  <path d="M143.526,215.842c-.092.212.125.178.27.142.484-.123.983-.499,1.471-.613.114-.027.524-.124.502.083-1.072.34-2.135.757-3.175,1.173-.042.017-1.14.467-.663.485,4.193-1.881,8.804-2.929,13.464-3.094l1.359-.219c-.593.095-.548-.422-1.179-.61-2.31-.687-6.465.134-8.701.982-.516.196-1.107.616-1.543.846-.458.241-1.599.349-1.805.825Z"/>
  <path d="M144.234,205.627l.904.76,1.16-.54c.373.231.059.38.023.556-.023.115.053.247.012.301-.046.061-.334-.028-.208.247,1.054-.798,1.169.403,2.511.194.498-.077,2.514-.785,1.623-1.409l-.062.334c-.405-.217-.962.126-1.281.077-.348-.054-1.172-.819-1.609-1.025-.096-.045-.834-.326-.882-.334-.362-.054-1.064.241-1.484.176-.196.138.014.201.176.221.37.045.805-.041,1.183,0,.756.081,1.44.665,1.948,1.16l-1.978-1.031-2.037.313Z"/>
  <path d="M112.261,232.904c.555-.575-.255-.432-.605-.744l-1.087-.144.473-.221c-.448-.625-1.411-.14-2.065-.44l-.124.221.181.22c-.625.11-1.283-.271-1.771.166.26.318.503.453.946.386l.056-.219.77.329.058-.33c.363.668,1.528.401,2.223.555.1.022.031.197.25.226.211.028.473-.024.696-.004Z"/>
  <path d="M114.229,223.956c-.329-.063-.231.112-.236.331-.23-.373-1.572.068-1.651,0l-.357-.993c-.293.006-.087.426-.148.521-.054.085-.308-.076-.14.359.16.416,1.492,1.063,1.904,1.085.547.03.932-.881.627-1.303Z"/>
  <path d="M130.474,216.56c-.15-.236-.291-.49-.299-.775-.551.328.245,1.137.589,1.381.786.557,1.6-.166,1.488-.948-.239-.307-1.33.087-1.721.008l.236.55c-.316.062-.203-.076-.293-.217Z"/>
  <path d="M144.115,209.711c-.49.232-.977-.533-1.077.315-.557.244-.546-.607-.811-.096l.177.443-.65-.55c.352,1.366,2.371,1.486,2.361-.112Z"/>
  <path d="M153.007,207.532c-.656.665.816,1.739,1.448.741.25-.523-.804-1.394-1.448-.741Z"/>
  <path d="M136.062,211.788c-.058-.516.697-.867.021-1.137.147-.306.9-.094.826-.497-1.15-.07-1.614.723-2.244,1.434.343-.12,1.2.477,1.397.201Z"/>
  <path d="M124.931,219.299l-.423-.532c-.091.5.288.732.575,1.066.078.091.097.319.15.351.497.297,1.471-.405,1.4-.975-.618-.141-1.099-.062-1.703.091Z"/>
  <path d="M136.674,214.068c.582.285,1.522-.252,1.417-.764-.078-.38-1.363-.02-1.653-.058l.118.329-.356-.441c-.66-.066.416.905.474.934Z"/>
  <path d="M120.846,221.526h-1.299s.106.505.106.505l-.23.212c.544,1.025,1.687.207,1.423-.718Z"/>
  <path d="M140.968,208.395l.554-.839-.359-.272-.063.33c-.66-.037-1.843-.202-2.3.331.555-.149.981-.085,1.536.002l-.236.329.868.12Z"/>
  <path d="M182.073,213.412c.721,1.577,2.233-.345.698-.476-.341-.029-.623.165-.698.476Z"/>
  <path d="M186.461,217.439c.483.971,1.719-.041.969-.626-.447-.348-1.233.095-.969.626Z"/>
  <path d="M183.623,216.892c.766.589,1.539-.78.448-.981-.606-.111-1.001.556-.448.981Z"/>
  <path d="M185.332,214.413c.639.825,1.778-.59.63-.816-.613-.121-.984.359-.63.816Z"/>
  <path d="M96.173,232.324l-.016-.195c-.484.31-1.256-.049-1.888.11.066.399.746.677.885.22.24.265.716.39.827,0,.217.28.55.234.886.22-.003-.383-.37-.505-.694-.355Z"/>
  <path d="M130.44,228.508c.144-.125.517-.091.691-.293l.581-1.388c-.531-.059-.628.761-.741.859-.104.09-.519.3-.677.548-.128.201-.249.448-.234.689.371.086.221-.278.38-.416Z"/>
  <path d="M184.743,219.814c.05.59.896.127,1.175-.071-.01-.76-1.243-.733-1.175.071Z"/>
  <path d="M181.812,219.083c.255.377,1.286-.081,1.036-.638-.53-.383-1.38.129-1.036.638Z"/>
  <path d="M187.719,220.675c.243.815,1.512-.368.85-.567-.428-.129-.996.076-.85.567Z"/>
  <path d="M181.334,215.818l.073-.294-.163-.3-.854.019c-.209.5.648.998.944.575Z"/>
  <path d="M152.622,201.43c.16-.121.289-.155.47-.221.281-.397.665-.814-.118-.882l.069.329-.657.388.236.387Z"/>
  <path d="M152.74,201.596l.343.175-.109.321c.079.078.964-.509.946-.716l-.356-.057.117-.33c-.052-.045-.454.171-.59.22-.103.146-.21.271-.352.387Z"/>
  <path d="M184.901,210.721c-.599-.156-.942.523-.317.86.533-.023.933-.699.317-.86Z"/>
  <path d="M99.639,229.115c-.645-.005-1.299-.036-1.945-.079v.33s2.716-.11,2.716-.11c.092-.428-.515-.139-.771-.141Z"/>
  <path d="M183.609,207.847l-.746.104c.057,1.362,1.533.133.746-.104Z"/>
  <polygon points="103.304 228.758 101.356 228.925 101.412 229.144 107.143 228.153 103.304 228.758"/>
  <path d="M139.327,209.918c.255-.108.513.087.653-.153.143-.246-.299-.021-.42-.278l.066-.327c-.216-.171-.935,1.082-.944,1.324.253-.149.341-.439.644-.567Z"/>
  <path d="M191.163,220.882c-.668-.18-.614.676-.326.754.362.098.975-.579.326-.754Z"/>
  <path d="M188.412,214.681c-.104.365-.167.902.391.871.676-.411.139-.735-.391-.871Z"/>
  <path d="M181.595,210.166c-.78.098-.616.714.13.745.435-.292.265-.525-.13-.745Z"/>
  <path d="M109.404,232.92l.159-.019c.236.3.487.382.887.33-.197-.645-1.192-.354-1.772-.55.05.355.678.675.725.239Z"/>
  <path d="M190.068,218.496l.229-.607-.583-.066c-.521.237-.054.911.354.674Z"/>
  <path d="M179.781,218.173c-.421-.551-.972-.321-.809.363.399.144.679.041.809-.363Z"/>
  <path d="M177.699,215.913l-.382.352c.761,1.045,1.197-.293.382-.352Z"/>
  <path d="M110.451,232.901c.135.545.767.315.809.34.026.016.242.556.49.32.374-.355-1.043-.827-1.299-.661Z"/>
  <path d="M195.025,213.577l-.455.101-.37-.321.413.881c.306-.231.513-.218.413-.66Z"/>
  <path d="M105.253,232.237l-.123-.658c-.154-.017-.285-.022-.435.033-.021.008-.148.246-.268.239.232.259.43.453.826.386Z"/>
  <path d="M101.003,234.176l.234-.613c-.651-.121-1.042.578-.234.613Z"/>
  <path d="M108.503,236.655c-.059.155-.477.307-.505.352-.057.092-.021.207-.027.309.369.044.823-.015.825-.442l-.237.054-.055-.273Z"/>
  <path d="M103.95,234.284c.462.302.863-.358.405-.49-.438-.126-.713.288-.405.49Z"/>
  <path d="M157.698,197.897c-.594.364-1.425.48-1.889.993.539-.148,1.173-.453,1.657-.718.153-.084.298.02.232-.275Z"/>
  <path d="M186.17,208.72l-.066.33c.286.615,1.518-.367.066-.33Z"/>
  <path d="M88.99,64.714c-.113-.198-.659-.393-.898-.378-.961.06-1.52,1.723-1.525,2.459-.002.342.15.696.584.682.145-.004.613-.201.769-.273,1.008-.464,1.448-1.33,2.286-1.897,1.761-1.19,4.73-1.148,6.779-.562.479.137.4.317.658.537,1.219,1.036,2.877.72,4.32,1.262.648.243,1.773,1.079,2.406.431.248-.253.149-.425.24-.631.306-.696.816-.912,1.515-1.218.866-.379,1.898-.66,2.74-1.06.427-.203.578-.43.929-.646,1.644-1.008,5.309-.341,7.068.325.199.075.462.274.627.336,1.541.583,3.28.754,4.694,1.551.192.108.423.09.439.36l-3.027.926c-.407.15-.904.438-1.305.558-.193.058-.022-.214-.045-.344-.085-.488-.601-.466-.975-.248-.16-1.474-1.676-.678-2.361,0-.482-.502-1.104-.343-1.414.252-.067.015-.883-.226-1.029-.273-.555-.176-1.511-.65-2.061-.639-1.119.021-.885,1.555-.712,2.244.069.272.273.783.619.707.717-.157.939-1.525,1.846-.377.525.665.544,1.181,1.385,1.733,3.573,2.346,10.212-.348,13.714-1.864.449-.195.619.148.978.312,1.529.695,3.321.993,4.949,1.431l3.599.652.034.167c-.739,1.127-1.259,2.387-1.762,3.62-.912,2.238-1.646,4.543-2.523,6.792-.548,2.08-1.588,4.083-1.873,6.204.403,3.016,5.05,7.366,7.559,9.231.383.285.865.432,1.205.813.133.15.364.388.158.578-.05.046-.163.042-.211.081-1.468,1.198-1.824,3.402-2.484,5.068-.304.768-1.074,1.931-1.146,2.682-.083.863.828.931,1.368,1.293.841.563,1.071,1.306,1.011,2.246-.044.684-.352.956-.484,1.522-.192.823.339,1.181,1.157,1.211.788.029,1.229-.306,1.072-1.072-.036-.178-.193-.307-.199-.473-.008-.24.297-1.147.438-1.374.77-1.242,2.924-.485,3.947.093.525.297.931,1.056,1.587,1.165.413.068.801-.164.95-.53.049-.12.158-.553.179-.688.126-.823-.449-1.285-1.29-1.337-.163-.01-.288.055-.42.055-.313.001-.809-.51-1.07-.629-.309-.142-1.703-.283-1.344-.859.016-.026.493-.294.546-.311.629-.204,1.158.048,1.732-.027.088-.011.646-.156.718-.184.096-.039.185-.101.157-.212-.196.012-.195-.218-.301-.311-.099-.086-1.144-.61-1.3-.661-.464-.15-.747-.007-1.207-.024-.14-.273.235-.532-.06-.786-.582-.504-2.629.455-3.438.466-.126.002-.705-.052-.732-.172.092-.355.316-.649.529-.944,1.2-1.664,4.041-3.967,4.323-5.901.149-1.019-.564-1.827-1.46-2.262-.107-.052-.244-.034-.352-.086-.225-.484-.461-.992-.733-1.454-.116-.198-1.282-1.945-2.054-2.85-1.181-1.384-2.665-2.504-3.995-3.754,1.217-3.104,3.07-5.955,4.594-8.933.558-1.089,1.335-2.478,1.7-3.612.315-.977.288-2.027,1.148-2.811.549-.5.815-.254,1.468-.34,1.363-.18,3.559-1.188,4.774-1.779.093-.045.27-.222.443-.258-.05.346-.001.641.274.9.358.337,2.098.897,2.59.841.258-.029.845-.321,1.183-.395,1.764-.389,4.289-.314,6.393-.156-.088.011-.166.054-.195.142-.013.039.229.371.211.445-.022.09-.291.185-.293.351l.568.587c.107-.313.339-.134.56-.285l-.389-.147.137-.478-.389-.146c.262-.229.123-.409-.062-.46.339.026.666.054.976.083.008.021.016.039.022.065.037-.018.065-.036.086-.054.078.007.158.015.233.022.291.028.591.037.893.055.058.048.129.043.205.014.283.022.564.057.838.129-.246.597.103.942.736.989.451.034.861.003,1.241-.086l.496.143c.127.244-.606.396-.712.582l.193.231c.237-.575,1.408-.264.736-1.031l.583-.177c-.025-.174-.042-.276.006-.363.075-.057.15-.116.223-.179.012-.006.021-.012.034-.019l.191.548-.646.393.104.553.412-.281c.074.063.142.123.21.159l-.688.369c-.022-.007-.053-.008-.095,0-.052.036-.118.095-.18.094-.149-.002-.285-.207-.45-.013.065.049.099.139.121.244l-.057.03.081.133c.036.318.036.674.354.592.003,0,.004-.003.007-.004l.159.26-.009.007.161.371-.876.336-.23-.396c-.183.083-.147.294-.27.41-.193.181-.701.269-.896.465-.184.185-.05.491-.185.613-.325.294-.407.051-.481.087-.19.091-.265.357-.458.461l-.132-.4c-.417.104-.684.361-1.15.217l.215.339c-.331.094-1.014.122-1.274.301-.221.153-.008.189.091.349l-.206.234-.057-.389c-.235-.065-.401.139-.619.145-.345.009-.547-.272-1.116-.038-.358.148-.404.471-.852.22l-.121.09.085.184c-.437-.213-.789.398-1.089.048l.379-.337-.576-.138c-.121.158.248.362.008.482-.355.177-.533-.356-.86.011-.008.068.389.377.503.42.187.071.308-.092.405.034-.124.26-.544.35-.674.509-.107.131-.043.467-.21.61-.09.077-1.002.183-1.196.154l-.238.412c-.119-.27-.296-.137-.459-.178-.239-.06-1.212-.465-1.288-.164l.274.171c-.937.65-.33.518.309.768l-.28-.415.414-.3.026.35c.18-.257.851-.194.482.007-.265.144-.344.107-.408.456-.02.109-.134.256.096.223.3-.044.744-.423,1.044-.538.123-.047,1.069-.339,1.128-.336.08.004.798.495.937.533.176.048.601-.236.892.059.127.129-.092.577.234.737.351-.51.837-.722,1.476-.7.412.015.55.282,1.025-.125-.055-.081-.139-.15-.192-.232-.141.061-.46.222-.59.184l-.549-.596.791-.082c.185-.538-.214-.928.487-1.096l-.274-.171c.014-.159.788-.01.8.161l.152-.603.869.425-.222.343.339.247-.413.302c.542.213-.041,1.17.727.39l.642.293c.077.088.055.173-.007.261-.249.116-.503.242-.76.38-.272.146-.527.294-.77.445l-.77-.344.955-.446c-.326-.34-.848.107-1.159.291-.049.029-.049.167-.094.196-.37.236-.926.095-.503.914l.013-.45.392-.339.009.488c.355-.487.643.035.874-.386l.018.245c-.481.317-.898.644-1.253.983-.031-.107-.081-.187-.173-.204l-.133.156.056.141c-.347-.169-.603-.198-.704-.598l-.486.851c-.011.371,1.055-.239,1.18-.176.024.012.039.026.049.04-.464.484-.801.989-1.014,1.516-.083.023-.159.041-.223.05-.35-.005.159-.444-.105-.606-.216.273-.472.718-.792.889-.029.016-.073.025-.122.031-.049-.092-.091-.166-.126-.221-.281-.458-.581-.867-.899-1.229-.065-.275-.274-.773-.35-.783-.064.09-.118.173-.17.25-.748-.691-1.586-1.147-2.513-1.364-1.521-.355-3.207-.051-5.057.907-.25-.127-.351.009-.393.213-1.628.925-2.653,2.086-3.071,3.483-.438,1.462-.159,3.004.837,4.626.409.667.872,1.235,1.389,1.704.517.47,1.077.842,1.679,1.117.82.35,2.522.611,5.106.783l.3.015c.165.008.403.024.715.049,1.891.085,3.112.577,3.664,1.476.335.546.459,1.054.37,1.523-.089.469-.378.835-.868,1.098-.61.327-1.172.351-1.686.072-.514-.279-1.084-.928-1.71-1.948l-.333-.542-4.252,2.281c.152.303.266.522.343.656.077.135.152.262.226.383,1.164,1.895,2.544,3.051,4.143,3.469,1.598.418,3.403.088,5.413-.99,1.916-1.027,3.081-2.319,3.495-3.876.132-.496.185-1.007.159-1.534.493.436,1.04.751,1.644.935,1.117.34,2.259.197,3.427-.43.73-.392,1.327-.885,1.789-1.48.463-.595.798-1.29,1.007-2.085l1.029,1.145,4.355-2.336c-.411-.26-.833-.655-1.267-1.185-.434-.53-.986-1.341-1.657-2.433l-1.105-1.8c.326.107.679.273.99.241l3.144,5.121,4.136-2.218-6.788-11.055.724-.388,2.869,4.672,1.058,1.722c.611.995,1.103,1.717,1.474,2.163.371.447.746.782,1.123,1.006.561.318,1.208.446,1.94.384.732-.063,1.511-.314,2.336-.757.266-.143.575-.338.926-.584.351-.247.752-.55,1.205-.911l-.103-.168c.773.022,1.558-.18,2.355-.607.73-.392,1.326-.885,1.789-1.48.463-.595.798-1.29,1.007-2.085l1.029,1.145,4.355-2.336c-.411-.26-.833-.655-1.267-1.185-.434-.53-.986-1.341-1.657-2.433l-3.039-4.95-.259-.422c-.848-1.381-1.55-2.269-2.107-2.664-.557-.395-1.241-.621-2.051-.677-.628-.037-1.325.052-2.09.265-.766.213-1.578.55-2.437,1.011-1.907,1.023-3.093,2.169-3.559,3.438-.005.013-.009.027-.013.041l-.478-.778-.903.484c-.194-.123-.476-.212-.567-.448l-.492.326c-.264-.202-.625-.238-.664-.601-.036.038-.07.065-.104.087l-.286-.466.5-.445.04.527c.164.031.288.054.451-.015.211-.09-.169-.365-.096-.537.212-.5,1.692.541,2.109.558.199-.393-.85-.704-.83-.758l.303-.293-.532-.782c.505-.133.349-.349.798-.11.068.036.284.283.331.033.045-.244-.406-.279-.479-.432-.191-.397.366-.889.407-1.251.167.244.331.409.657.388l-.003-.242-.265.007-.119-.473.57-.06.119-.382-1.25-.241-.324-.286.166-.368c.25.516.609.366,1.079.577-.006-.259.168-.509.232-.7.034-.102-.052-.232-.029-.325.037-.151.33-.152.286-.384-.135-.225-.221.001-.32.103-.319.326-.615.621-.694,1.071-.166-.515-.65-.569-1.035-.921l.328.053c.263-.034.324-.662.403-.877.027-.074.526-.742.144-.684-.65.099-.156.585-.669.797l-.044-.214-.25.179.257.311-.885.209c.065-.339.095-.525.339-.801-.373-.215-.051-.504.174-.814.16-.219.345-.429.566-.598l-.229.043-.026-.35-.2.082-.057-.392-.464.399.101-.828-.251.003-.127-.15.128-.167-.242-.125.144-.23.278.038c.076-.085.185-.436.161-.543-.057-.261-.257.159-.372.026l-.128-.327.521-.29c-.124-.35.266-.464.028-.867.189.019.233-.032.256.177.032.283.097.558.128.844l.377-.12c-.011-.42.341-.575-.021-1.061l.238-.173,1.005.877.247-.181-.854-.558.121-.643-.46.086.432-.439.322.386.56-.284-.239-.446-.183.257-.257-.308c.438-.513.95.443,1.313-.336l-.606.069-.042-.529c-.503-.332-.638.343-.824.533-.465.476-.397.373-.744.891-.187.279-.474.45-.543.777-.216.215-.575-.174-.13-.26-.322-.336-.503-.938.066-1.041l-.666-.322.133-.159c-.396-.047-.517-.326-.005-.232.221.041.569.279.527-.093l-.538-.653c-.08-.01-.242.504-.361.202-.087-.222-.013-.844-.174-1.14l-.385-.013-.074-.106c-.17-.398.61-1.54-.365-1.057l.151.335-.61.191c-.39-.528-.034-.413.145-.807.106-.233-.032-.525.037-.767.057-.2.313-.194.343-.308.026-.098-.051-.24-.009-.347.099-.251.353-.439.339-.693-.756.354-.912,1.017-1.147,1.695-.038.111.053.226-.021.364-.153.288-.909.686-.497,1.062.069.063.438-.171.548.169l-.481-.023c-.073.08.661.563.706.576.136.04.347-.21.455-.057-.53.499-.279,1.233-.372,1.86l-.906.435c.24.134.498.582.518.828.012.137-.285.393-.001.593l.133-.159.305.523c.098-.555.07-1.062-.319-1.503.288-.204.522-.39.895-.283.16-.202-.069-.42.407-.542l-.534-.188-.19-.526c.372.051.63-.173.482-.535l-.491.047.647-.658c-.09.242.168,1.182.125,1.311-.028.083-.18.131-.204.182-.016.034.575.374.065.565l.357.111-.394.164c.661.277.159.722.122,1.096-.012.124.087.782.167.856.163.152.439.011.344.324-.058.193-.481.243-.309.588-.415-.052-.692-.41-.72-.78-.291-.097-.273.111-.442.262l.39.148-.217.221c.234.131.819.646.836.865.008.099-.491.422-.223.674-.166.133-.786-.189-.654.167.078.209.273-.052.292.032-.122.201.161.441.156.543-.004.082-.24.166-.18.433.084.369.708.74.155,1.102l.269.164-.295.598-.406-.325c-.219.088-.085.342-.208.498-.123.157-.445.281-.487.434-.031.113.136.255.123.327-.02.111-.385.236-.256.458.286-.345.659-.228,1.067-.155l-.615.697-.51-.373c-.013.298-.23.489-.029.764-.168.009-.675-.303-.75-.017l.194.546.265-.317.321.386c.454-.283.842-.656,1.049-1.133.223.211-.082.433-.047.659.022.145.332.435.488.508-.655.127-1.159.588-1.521,1.103l-.139-.226-.697.374c-.035-.074-.063-.135-.094-.161-.034-.029-.59.076-.703-.408l.008.49-.263.002-.121-.466c-.917.204-.896,1.571-1.878.619-.227.25.294.379.303.524-.306.059-.672.358-.917.445-.615.22-1.376.169-1.755.279-.573.166-1.036.821-1.778.396-.08-.046-.173-.203-.309-.326.043-.043.085-.085.127-.13.338-.362.7-1.108.992-1.38.202-.188.737-.392.989-.586.978-.754.982-1.321.063-2.097-.073-.062-.276-.128-.293-.156-.09-.151.038-.518-.297-.743-.473-.317-.95.069-1.352-.105-.053-.023-.058-.105-.153-.136-.302-.1-.573-.061-.823.044-.071-.189-.508-.264-.573-.321-.373-.325-.092-.888-.51-1.186-.265.117-.086.168-.076.302.053.706.441.911.892,1.344-.139.086-.272.186-.4.286-.117.091-.297.356-.335.378-.152.091-.489.03-.722.214-.484.383-.574,1.092-.53,1.644-2.437.205-4.895-.062-7.307-.359l-.5-.358-.098.171-.193-.22-.415.289.005.007c-.051-.014-.101-.031-.151-.053l5.417-3.461c1.333-1.198,2.964-3.33-.313-3.124-.923.058-2.406.412-3.333.637-3.861.939-7.623,2.83-11.187,4.356-.807.345-2.093,1.03-2.955,1.061-.65.023-.535-.227-.804-.484-1.106-1.055-2.909-1.951-4.054-2.989-4.019-2.85-8.113-5.582-12.508-7.916-.065-.034-.073-.116-.145-.144l-2.684-1.338c-1.96-.813-4.172-1.792-6.285-1.994-.277-.026-.752.073-.892.046-.177-.034-.655-.387-.98-.469-1.158-.293-2.386.071-3.365.65-.339.2-.644.459-.965.683-.931-.658-2.095-1.156-3.215-.571-.29.151-.453.469-.589.58-.092.075-.378.158-.495.28-.567.591-.524,1.756-.599,2.502-.036.114-.614.443-.761.623-.626.766-.623,1.806-.376,2.702.019.069.201.501.235.557.279.463,1.76.458,2.292.444,1.059-.095,2.116-.193,3.17-.33.093-.012.139.002.101.095-.186.453-1.202,1.518-1.625,1.839-1.483,1.124-3.049,1.146-4.884.955l-2.717-.588c-.006-.097.253-.116.325-.123.712-.068,1.991.078,2.004-.896.004-.291-.176-.826-.482-.938-.622-.228-.881.158-1.29.339-1.798.793-3.897.807-4.535-1.279-.061-.2-.245-.988-.239-1.154.006-.154.153-.262.185-.407.147-.653.177-1.345-.616-1.566-1.125-.313-2.055.134-1.903,1.318.032.246.168.355.207.531.063.287.181,1.417-.069,1.573-.212.132-.818.069-1.072.021-.458-.087-2.869-.985-3.187-1.235-.127-.099-.231-.329-.362-.454-.421-.4-1.139-1.208-1.753-.604-.409.402-.634,1.412-.355,1.918.343.621,1.071.292,1.624.391.2.036.805.587.951.757,1.241,1.445.206,2.93-1.02,3.981ZM157.583,80.437c.13-.165.657-.401.822-.177.002.871-1.189.642-.822.177ZM158.605,79.863c-.139.014-.188-.391-.671.071l-.513-.387.473-.184.787.259.151-.122c-.203-.222.113-.303.298-.452.417.389-.078.768-.526.814ZM178.458,68.102l-.145-.273.946-.681-.702.895c.374.098-.189,1.306-.264,1.295l-.437-.245c-.004-.465.057-.869.601-.991ZM166.948,77.584l-.639.028.072-.491c.103-.093.491-.148.653-.164.063-.006.319-.011.365.049l-.643.344.193.233ZM166.563,79.611c.19.04.372.107.545.191-.24-.056-.493-.095-.762-.113-.232-.014-.473-.01-.723.011.288-.13.629-.154.94-.088ZM164.77,79.6l-.104.251c-.135.03-.271.064-.41.102-.147.041-.297.088-.447.138-.105,0-.21.012-.305.058.021-.635.764-.525,1.267-.55ZM162.883,80.389c-.033-.092-.171-.095-.205-.137-.046-.056.226-.172-.078-.241l.421-.44c.161.21.151.487.225.726-.118.047-.238.097-.358.149,0-.021.002-.041-.004-.057ZM164.389,87.382c-.428.475-.766.854-1.015,1.137-1.011,1.2-1.598,2.293-1.763,3.282-.218-.274-.448-.527-.69-.758-.483-.461-.997-.829-1.542-1.102-.86-.414-2.397-.667-4.612-.76-.299-.021-.528-.032-.687-.032-.2-.01-.49-.025-.868-.047-2.054-.072-3.323-.501-3.806-1.289-.296-.482-.401-.94-.314-1.376.086-.436.349-.771.787-1.006.516-.277,1.037-.278,1.564-.006.055.029.11.062.165.096.013.049.019.096.011.137-.055.313-.647.52-.365.85.285-.051.677-.407.841-.469.016-.006.057-.012.112-.019.261.273.519.616.772,1.029l.14.229,4.162-2.232c-.028-.045-.061-.104-.1-.174.333-.103.673-.172,1.009-.261-.366,1.215-.093,2.567.82,4.054l4.175-2.239-.059-.096c-.365-.594-.512-1.099-.442-1.516s.358-.76.865-1.032c.421-.226.808-.292,1.162-.199.354.093.657.344.908.754.409.667-.001,1.682-1.231,3.046ZM169.456,91.644c-.038.533-.362.963-.972,1.29-.412.221-.822.265-1.23.131-.407-.134-.747-.421-1.018-.863-.385-.626-.458-1.28-.22-1.963.238-.682.807-1.452,1.708-2.309l.954,1.553c.041.067.077.131.115.196l-.017.334c-.321.029-.772.302-.524.636.164-.165.561-.31.874-.335.243.527.355.972.329,1.33ZM172.939,86.09c-.342-.242-.164-.379.069-.356l.333.543c-.135-.045-.271-.095-.402-.187ZM187.555,78.687c.238-.682.807-1.452,1.708-2.309l.954,1.553c.557.907.816,1.627.778,2.16s-.362.963-.972,1.29c-.412.221-.822.265-1.23.131-.407-.134-.747-.421-1.018-.863-.385-.626-.458-1.28-.22-1.963ZM184.667,74.777c-.365-.594-.512-1.099-.442-1.516.07-.416.358-.76.865-1.032.421-.226.808-.292,1.162-.199.354.093.657.344.908.754.409.667-.001,1.682-1.23,3.046-.428.475-.766.854-1.015,1.137-1.017,1.207-1.606,2.308-1.767,3.301-.161.993.082,2.016.728,3.068.099.161.201.312.307.458-.361-.222-.895-.906-1.599-2.054l-3.49-5.684.753-.404c.163.472.397.959.706,1.462l4.175-2.239-.059-.096ZM177.996,72.816l-.543.291c-.059-.056-.115-.116-.165-.185.231-.139.471-.146.708-.106ZM170.106,71.944c.032-.058.082-.11.154-.149.163-.089.335-.166.515-.218l2.361,3.845-.724.388-.539-.878c.008-.007.015-.015.023-.022-.009-.016-.017-.033-.024-.05-.012.004-.025.007-.037.011l-1.777-2.894c.011-.008.021-.017.033-.025.005-.003.01-.006.015-.009ZM167.282,71.76l.322.385c.041-.21.975-.536,1.073-.462l-1.568.841c-.07-.313-.048-.457.173-.764Z"/>
  <path d="M135.075,121.932c.571.526,1.15.922,1.726,1.187.576.265,1.07.369,1.469.325.579-.057,1.335-.254,2.265-.604.93-.352,1.488-.62,1.674-.775.59-.496.68-1.222.324-2.162-.354-.943-1.1-1.862-2.185-2.857-1.406-1.292-2.876-2.481-4.416-3.634-1.539-1.152-2.88-2.081-4.119-2.715-.821-.414-1.849-.674-3.085-.799-.854-.087-1.566-.096-2.154-.01.512-.303,1.007-.721,1.482-1.242.701-.769.983-1.273.86-1.567-.135-.322-.64-.707-1.467-1.213-.824-.507-1.986-1.15-3.373-2.035.017,0,.034.002.051.002,1.308.144,2.181.144,2.576.058.437-.097.765-.3.982-.603.217-.303.274-.627.178-.981-.117-.437-.512-.918-1.142-1.484-.494-.454-1.464-1.169-2.691-2.291.762-.13,1.408-.42,1.926-.853.608-.508.868-1.072.827-1.729-.026-.813-1.259-2.267-2.755-4.815-.058-.099-.111-.2-.167-.3-.033-.104-.06-.192-.081-.259-.036-.115-.069-.221-.097-.319.339.335.694.593,1.052.781.358.188.698.29,1.012.314.381.028.688-.08.915-.32.229-.24.362-.594.419-1.065.083-.668-.073-1.552-.324-2.697-.187-.864-.417-1.839-.609-2.934.327-.039.704-.177,1.123-.411.641-.358.997-.682,1.112-.992.127-.341.167-.897.197-1.675.034-.778.061-1.798.249-3.056.004.007.008.014.012.021.256.606.502.945.661,1.021.179.084.39.032.628-.153.239-.185.445-.452.633-.801.234-.431.425-1.004.64-1.716.227-.708.533-2.038,1.507-3.887-.081-.066-.163-.131-.244-.197-.619,1.019-.989,1.815-1.262,2.357-.27.543-.498.974-.722,1.291-.146.206-.273.357-.386.451-.113.094-.204.122-.271.082-.173-.103-.228-.544-.053-1.312.182-.767.301-1.164.244-1.203-.018-.013-.047-.018-.084-.015-.038.003-.095.019-.172.048-.202.067-.407.135-.615.203.099-.154.201-.308.305-.461.126-.18.21-.303.247-.369.037-.067.045-.108.022-.125-.071-.053-.266.006-.59.181-.324.175-.611.385-.85.629-.173.178-.463.509-.844,1.001-.38.492-.75,1.025-1.098,1.598-.5.816-.881,1.591-1.157,2.313-.276.723-.456,1.421-.543,2.087-.12.89-.067,1.607.102,2.146.124.394.297.661.498.807.071.883.18,1.607.253,2.172.106.789.155,1.345.076,1.686-.048.211-.128.369-.243.474-.115.105-.257.146-.426.123-.477-.067-1.001-.352-1.515-.876-.513-.524-.917-1.212-1.16-2.068.028-.069.066-.155.112-.258.046-.103.124-.284.237-.542.151-.343.255-.626.31-.851.055-.224.081-.485.084-.784-.003-.483-.026-.925-.077-1.324-.05-.399-.093-.609-.154-.628-.06-.019-.185.083-.374.309-.189.226-.419.553-.68.983-.023-.434-.028-.869-.014-1.305.011-.131.007-.232-.015-.301-.022-.07-.06-.113-.115-.131-.051-.016-.135.025-.251.125-.116.1-.224.225-.321.373-.663,1.015-.928,2.113-.679,3.231.038.178.071.318.093.421-.37.789-.61,1.413-.748,1.857-.137.445-.194.79-.181,1.033.015.349.139.752.391,1.201.253.449.457.674.581.687.042.004.078-.015.109-.058.031-.043.061-.114.09-.213.054-.184.11-.367.168-.55.059-.188.134-.398.226-.632.092-.233.202-.49.329-.768.203.478.425,1,.677,1.561.239.532.524,1.135.872,1.797.564,1.282,1.064,2.123,1.288,2.596.256.525.396.916.387,1.188-.013.428-.176.748-.506.97-.33.221-.827.347-1.487.371-.144.005-.288.01-.431.015-1.249-2.186-2.211-4.057-3.201-5.483-.985-1.428-1.915-2.278-3.132-2.429-.195-.024-.372.011-.53.106-.158.095-.28.238-.362.427-.19.438-.259,1.157-.115,2.134.145.976.49,2.012,1.088,3.068.928,1.626,2.217,2.835,3.692,3.655,1.124.623,2.169.942,3.058,1.019.46.539.836.969,1.089,1.304.384.504.614.922.666,1.276.034.23.013.417-.066.56-.079.144-.213.232-.404.264-.498.083-1.257-.122-2.201-.681-.939-.563-1.459-.864-1.637-.841-.061.008-.126.027-.194.058-.068.032-.152.086-.25.163-.273.196-.547.395-.823.598-.088-.162-.175-.325-.259-.488-.092-.196-.165-.326-.221-.391-.056-.064-.122-.092-.198-.083-.243.028-.507.213-.794.563-.286.35-.433.69-.435,1.013,0,.235.06.644.205,1.223.145.578.347,1.178.614,1.791.373.877.822,1.649,1.331,2.313.51.665,1.102,1.246,1.768,1.737.884.661,1.78,1.08,2.642,1.289.609.148,1.15.18,1.616.117-.599.433-1.088,1.18-1.45,2.282-.467,1.433-.629,3.254-.347,5.447.111.843.294,1.916.59,3.224.526,2.302.64,3.643.119,3.969-.764.487-2.245-.015-4.17-1.761-1.916-1.747-3.355-4.158-4.199-7.05-.058-.199-.124-.447-.195-.744-.071-.297-.118-.498-.146-.604.121.102.243.202.365.303,1.343,1.122,2.234,1.548,2.535,1.418.122-.053.203-.134.242-.24.04-.106.036-.226-.01-.359-.042-.122-.212-.296-.506-.529-.293-.233-.536-.451-.731-.652-.47-.482-.97-1.077-1.482-1.791-.51-.715-.801-1.153-.914-1.29-.393-.494-.885-.819-1.488-.977-.602-.157-1.257-.134-1.975.087-.395.122-.666.783-.768,2.008-.098,1.224.016,2.764.441,4.588.66,2.83,1.908,5.519,3.77,7.865,1.867,2.347,3.742,3.688,5.32,4.148.905.25,1.939.205,3.086-.129,1.148-.334,2.293-.923,3.433-1.731.838-.595,1.242-1.419,1.246-2.443.009-1.027-.481-2.773-1.216-5.236-.786-2.706-1.028-4.53-1.023-5.5.013-.971.258-1.541.704-1.733.305-.131.663-.086,1.083.123.421.209.993.642,1.754,1.266,1.017.842,2.013,1.716,2.991,2.638.979.922,1.894,1.848,2.741,2.809.271.308.555.649.855,1.025.3.375.622.791.972,1.247-.313-.094-.62-.152-.922-.172-.302-.02-.608-.002-.918.054ZM126.311,80.954c.12-.883.61-2.778,2.312-5.481-.432,1.446-.68,2.839-.855,4.156-.169,1.317-.219,2.168-.399,2.562-.052.118-.129.206-.231.263-.102.057-.205.069-.307.036-.412-.132-.623-.643-.519-1.535ZM118.026,93.581c-.787-.906-1.425-2.052-1.819-3.44.966.658,1.794,1.443,2.527,2.342.732.9,1.384,1.939,1.998,3.109-.991-.443-1.918-1.105-2.706-2.011ZM123.157,107.556c-.886-.642-2.326-2.238-3.633-5.105,1.614,1.146,3.147,2.157,4.519,3.093,1.377.932,2.213,1.512,2.347,1.909.042.118.008.237-.103.358-.11.121-.27.215-.479.279-.841.26-1.749.107-2.652-.534Z"/>
  <path d="M144.064,157.741c.33-.151.459-.1.708-.137.12-.241.044-.407-.118-.502-.527-.317-1.811.23-2.802.861-2.657,1.677-6.092,5.395-6.766,7.049-.071.154-.117.318-.153.485.005.061.01.123.022.183.031.016.081.045.097.052.035.016.027.013.11.035.229.06.46.047.722-.028,1.063-2.101,5.272-6.684,8.182-7.998Z"/>
  <path d="M197.903,176.036c-.09-.048-.482-1.405-.918-1.729-.164-.122-2.589-1.192-2.905-1.293-1.278-.41-2.688-.383-3.976.013,1.355,1.579,2.916.298,5.088,1.6,1.845,1.106,2.346,4.025,4.151,1.453-.323-.221-1.131.119-1.44-.045Z"/>
  <path d="M178.053,159.569c-.254-.86-1.883-.313-2.407.067l-.118,1.648c.254.07.397-.17.582-.222.075-.198.677-.641.783-.946.567.151,1.069.014,1.159-.546Z"/>
  <path d="M206.927,142.535c-.17-.862.975-2.37.62-3.194-.181-.42-.553-.475-.76-.746-.62-.814-.499-.911-1.42-1.624.092.068.686.933.628.969-.759.024-.873-.832-1.624-.784l.034-.517c.06-.052.866.262.962.332-.281-.218-.815-.731-1.198-.82-.269-.062-.55.376-.878.274l.61-.549c-.312-.435-.798-.611-1.35-.54l-.271.487c-.435-.179.378-.549-.09-.665-.323-.08-.95.948-1.44.297-.078-.104-.136-.263.054-.265l.219.019c.409-.278-.836-.668-1.086-.942-.12-.132-.107-.34-.201-.459-.428-.541-1.067-1.03.001-1.463l.674,1.232c-.075-.515-.34-1.116-.153-1.642.048-.134.696-.153.936-.583.659-1.183-.38-2.339-1.667-1.673-.99.512-1.07,1.364-1.725,1.985-.445.421-1.337.777-1.399,1.561-.113,1.421,1.424,1.884,2.511,2.358.187.331-.303.568-.274.942.055.726.903,2.833,1.261,3.543.147.292.505.515.685.801.656,1.039.34,1.517.179,2.582-.029.189.112.418.062.656-.057.275-.494.589-.663.864-.311.506-.626,1.032-.852,1.577l-3.465,1.455c-2.148-2.016-1.588.767-2.99,1.173-.963.279-1.599-.297-2.53-.33-2.68-.096-4.842,1.9-7.211,2.601-.556.164-.967.06-1.433.157-2.456.512-2.255.805-4.989.207-1.504-.33-3.193-1.163-4.486-1.436-.953-.201-1.864-.187-2.81-.63.078.22.617.42.835.495.766.264,1.618.323,2.377.571,1.512.493,3.836,1.676,5.423,1.902.209.03,2.124-.213,1.626.41l-1.475.684c-.02-.733-1.027-.548-1.625-.783-.375-.147-.585-.439-.961-.587-.67-.265-1.887-.165-2.737-.5-.635-.25-.852-.802-1.117-.977-.309-.205-1.187-.294-1.64-.496-.417-.186-1-.702-1.476-.904l.496.031c-.622-.609-.556-1.678-.356-2.462.135-.53,1.012-1.124.312-1.616-1.121-.452-2.323.639-3.228.383-.409-.116-.534-.496-.863-.662-.461-.233-1.344-.185-1.536-.305-.152-.095-.541-1.216-1.085-.909l.788.719c-.391.012-1.104-.514-1.399-.842-.463-.516-.214-1.113-.843-1.102l-.329.687.914.687-.162.297.278.099c-.076.25-.237.181-.43.1.289.698-.115.595-.195.747-.298.567-.161,1.294-1.231,1.335-.869.033-.977-.439-1.107-.786.166-.257.248-.464.204-.591-.115-.334-.46-.625-.669-.923l-.371.707c-.082-.117-.178-.231-.326-.318.134-.436-.04-.871-.034-1.296.003-.229.194-.439.179-.746-.03-.629-.837-1.113-.392-1.847-.519.146-.395.715-.547,1.049-.12.266-.455.411-.445.73l.744-.475c-.389.644.197.773.194,1.268-.002.412-.333.78-.41,1.225-1.161.633-2.298,1.313-3.451,1.967-.166.051-.318.135-.453.255-1.15.641-2.321,1.246-3.553,1.739-.732.293-3.719,1.537-4.182.649-.14-3.016,2.329-3.273,4.308-4.665,1.047-.737,5.789-4.849,4.193-6.089l-.89-.125c-.542.876-1.582,1.172-2.26,1.775-1.019.906-1.456,2.569-3.265,2.445.371.917-.353.5-.862.967-.627.575-.672,1.508-.825,1.726-.05.071-1.097.692-1.233,1.173l.267-.963c-1.452.04-2.952.423-3.833-1.037,3.688-1.054,8.573-5.209,8.315-9.087-.06-.9-.883-2.375-1.984-1.976-2.446.886-3.216,2.231-4.87,3.864-.506.5-1.315.825-1.74,1.376-.756.979-.939,2.511-1.212,3.675-.728-.106,0-1.258-.103-1.663l-.679-.01c2.362-2.304,3.63-6.102,1.767-9.071,1.897-1.096,2.471,1.487,2.842,2.808l1.488-1.056c-.459-3.511-3.818-4.008-6.401-1.803-.989.844-1.531,2.128-2.275,3.118-.214.286-.727.251-1.1.957-.139.262-.493,2.607-.516,3.082-.018.371.461,2.132-.129,2.042-3.292-2.399-4.026-6.6-1.37-9.646,1.053.141,1.96.803,2.571,1.593l1.088-1.24-2.165-1.03c1.455-1.508,3.208,1.19,4.684-.481-3.821-2.593-6.665-.065-8.103,3.446-.152.372-.798,2.119-.872,2.414-.377,1.508.38,3.437,1.489,4.545-3.731-.643-5.553-6.941-2.41-9.027.867-.575,2.232-.513,2.901-1.701-2.332-.474-4.218,1.503-4.988,3.367-.517,1.252-.028,2.582-.099,2.827-.083.284-.568.335-.48.929.435,2.944,3.355,5.228,6.375,5.733,2.309.386,3.819.621,5.97,1.81.5.276.714,1.275,1.221,1.834.949,1.045,2.73,1.338,4.07.883.064.772-.773,1.576-.615,2.373.714,3.593,7.58.119,9.395-1.05l-4.016,3.968,1.202-.187c-.708.468-3.699,3.043-2.101,3.636.599.222,3.417-1.018,6.364-2.118.36.277.802.568.978.722.323.283,1.15.982,1.384,1.223.396.407.696,1.575,1.035,2.117.35.559,1.322,1.332,1.258,2.016-.014.145-.235.316-.265.516-.087.583,0,1.206-.308,1.74l-1.55-.471c-.171.197-.433.302-.679.397-.173.027-.348.055-.531.086-.049-.677-.052-1.367-.01-2.072-.231.461-.447.918-.648,1.369.23-.903.132-1.182-.362-1.651-.455.074-.932.156-1.432.246-.234.563-.443,1.117-.627,1.663-.162-.002-.327-.004-.494-.004.353-.629.455-1.042.304-1.567.184-.005.347.204.349-.175-.011-.155-.35-1.339-.41-1.478-.3-.586-1.228.181-1.915.175-.358.748-.672,1.481-.942,2.201-.061-.072-.122-.144-.183-.216-.129.081-.26.162-.39.243.052-.458.125-.923.217-1.393.131-.015.261-.03.389-.045.029-.703-.11-1.148-.269-1.718-.022-.077.216-.334.194-.371-.211-.373-1.899.131-2.689.518-.38.769-.715,1.522-1.005,2.262-1.709.806-.297-.545-.07-1.128.036-.113.234-.91-.105-.779-.495.935-.925,1.849-1.288,2.743-.616.059.204-.894.223-1.165.024-.159-.276.007-.488.146-2.092,1.34-5.434,5.779-5.676,7.165.261-.104.52-.208.777-.311-.207.526-.205.705.473.872-.242.124-.485.248-.73.372-.237-.169-.47-.34-.699-.512.157.307.327.61.509.91,1.668.658,4.027-2.8,4.595-3.552,1.114-1.649,2.095-3.483,2.905-5.235.594-.438,2.21-1.65,2.702-1.505.61,1.726-2.058,3.159-3.753,4.901-1.099,1.11-3.913,4.767-2.726,5.367.671.38,1.722-.15,2.304-.575,2.004-1.486,3.508-4.616,4.784-6.597.155-.255.161-.558.338-.788.293-.364,2.254-1.448,2.409-1.317.058,2.002-1.303,2.513-2.922,3.974-1.224,1.116-4.919,5.033-3.381,5.842,1,.549,2.671-1.034,3.167-1.554,1.398-1.458,2.258-3.142,3.295-4.865.14-.24.294-.755.405-.866.232-.225,1.477-.822,1.733-.704.278.155-.155,1.489-.369,1.827-.261.415-2.237,1.845-2.936,2.508-.775.762-3.698,3.86-2.251,4.503.978.437,2.442-.826,2.91-1.266.83-.768,1.474-1.811,2.06-2.802.222.187.57.265.92.248-.07.05-.134.097-.186.139-1.09.936-3.283,2.797-3.297,4.208.019.842,1.112.693,1.858.424.614-.22,1.236-.756,1.773-1.353-.058.182-.088.37-.084.549-.596.641-1.103,1.369-.892,1.848.245.494,1.1.557,1.619.424.868-.224,1.675-.946,2.215-1.588.053.02.107.044.16.073-.114.216-.099.402-.008.57-.938.724-1.947,1.746-.934,2.36.482.211,1.024.156,1.544-.029.035.362.305.72.697.818-.06.166-.039.326.108.467.352.285,1.017.399,1.403.373.058-.004.113-.011.169-.018.494,1.162.931,2.475.991,3.509.059,1.006-.351,2.122-.35,3.229.001,1.175.259,2.794.626,3.92.108.331.581,1.058.604,1.239.036.28-.244.515-.133.958.155.622.948.486,1.355.883l.092-.298c.139-.561.681.9.735.985.242.379.594.674.801,1.077.063.123.12.273.175.437-.11.27-.172.571-.172.908,0,.065.001.127.003.189-.041.044-.033.108.008.181.045.752.233,1.278.552,1.621.014.446.239.894.463,1.355-1.357.248-2.748.488-3.008,1.804-.353,1.789.995,2.974,2.604,3.643l-.418.526,3.489-.152-5.929,1.18c-1.713,1.994-1.099,2.775,1.172,3.733l5.271,1.28-4.678,1.042,4.299-.385c-.675.178-1.34.417-2.026.569-1.033.228-3.096.285-3.968.585-.17.058-.751.696-1.031,1.072-.155-.211-.277-.453-.371-.703l-.582.056c-.026-.365-.478-.439-.614-.621-.07-.093-.276-.674-.375-.772-.164-.162-.407-.043-.562-.106-.603-.247-.686-.95-.886-1.031l-.234.22c-.297-.226-.201-.47-.527-.722-.274-.213-1.434-1.075-1.669-1.201-.087-.046-1.029-.312-.7.045.03.032.418.052.555.146.069.047,1.061,1.076,1.147,1.19.674.892.829,1.89,1.661,2.754,1.487,1.543,4.637,3.121,6.59,4.19,1.185.648,2.957,1.313,4.43,1.63.515.111,1.573.092,1.942.255.203.09.158.44.565.327l.064-.339c1.441.035,2.952-.261,4.217-.905,2.457-1.251,3.919-4.381,5.042-6.67.214-.435.648-1.052.769-1.369.107-.281.056-.667.187-.901.033-.06,1.006-.874,1.069-.906,1.809-.904,3.416.655,5.136,1.04l.224-.23,1.72.451c-.104-.176-.675-.664-.822-.709-.139-.043-.3.067-.41.041-.243-.057-.389-.256-.659-.213l-.059.222c-.519.023-.737-.619-.785-.648-.085-.052-.435-.01-.661-.099-.226-.089-.375-.359-.581-.461-.19-.094-.353-.01-.5-.072-.646-.274-.987-.725-1.743-.338-.852.436-2.709,1.478-3.204,2.302-.155.258-.02.231-.352.657-.02.026.068.511-.029.645l-.013-.006c-.082-.271-.411-.589-.964-.526-2.421.274-5.286,1.283-7.754,1.326-.213.004-.594-.618-1.177-.2-.193-.434.832-.528,1.132-.585,2.041-.389,4.417-.137,6.386-.447.301-.047,1.053-.059.844-.481-5.042-.097-10.766-.373-15.29-2.599,1.994-.599,4.488-1.109,6.594-1.012,2.006.092,8.535,2.06,10.074.82,1.478-1.19-1.562-2.177-2.563-2.435-4.637-1.198-10.62.813-13.25-3.938,2.933-1.856,3.905-.155,6.164.882,2.22,1.019,7.903,2.879,10.192,1.948,2.36-.96-.333-2.745-.185-2.97.138-.044.281-.083.427-.12l.727.052c-.092-.057-.187-.109-.281-.164.592-.15,1.181-.331,1.579-.761.69-.747.093-1.829.158-1.934.068-.109,1.355-.288,2.183-1.341,1.159-1.474,2.764-2.589,4.783-3.274.633-.215,1.344-.124,2.138-.449,2.553-1.045,3.368-4.704,2.949-7.022-1.157-1.65-1.797-3.535-2.908-5.208-.227-.342-1.773-2.183-1.952-2.296-.237-.149-1.121-.088-1.573-.224-1.436-.433-2.625-.871-3.924-.687.088-.064.172-.131.245-.207.776-.81,1.493-2.047,2.18-2.921.711-.905,1.472-.591,2.528-.825,1.046-.232,2.809-.673,3.781-1.033.758-.281,1.196-.7,1.871-1.059,1.326.509,2.135,1.757,3.452,2.209.068.534-.74.098-.986-.009-1.159-.502-1.629-1.43-2.764-1.838-.401-.04-.294-.006-.035.151.634.386,1.006.804,1.576,1.194.711.487,1.609.733,2.204,1.179.253.19.453.842.886.64l-.216-.526.483-.31.34.542.415-.098-.463.494.558.039c.731-1.81-1.801-1.43-2.887-2.161-.798-.537-1.356-1.418-2.147-1.965.058-.68,1.864.09,2.151.067,1.362-.111,1.369-1.588,1.511-2.527,1.728-.028.292-.675.326-1.226.017-.267.198-.503.208-.773.032-.913-.287-1.84.413-2.685,1.49-1.191,3.646-4.422,5.204-5.223.808-.416,1.591-.151,1.893-1.215.38-1.341-.019-2.242.128-3.283.072-.506.466-1.069.573-1.677.24-1.356.278-3.261-.632-4.415-.469-.595-1.663-1.022-1.806-1.745ZM197.819,133.251l.716-.034.122.233c-.461.455-1.169.732-.839-.2ZM198.91,132.94l-.974-.203.217-.909c.806-.031.89.463.757,1.113ZM136.179,140.388c-.818-1.82-.396-3.861.385-5.612.781.449.15,2.025.467,2.323.248.233,1.058.212,1.349-.113,1.008-1.127-1.793-4.038.208-4.833,1.982,2.637.663,6.778-2.409,8.235ZM143.405,138.826c1.11-1.683.74-3.596,3.556-4.128.625.214.188,2.008.049,2.475-.741,2.5-3.485,5.383-6.414,5.435.067-1.62,1.852-2.33,2.809-3.782ZM142.07,164.548c-.304.401-1.133,1.19-1.535,1.597-.217.219-.425.432-.402.645-.5.18-.231-.35-.177-.501.394-1.204,2.031-3.059,3.415-4.295-.488.869-.922,1.72-1.301,2.554ZM144.54,166.216c-.044-.102-.122-.2-.244-.29.293-.492.6-.989.923-1.491.619-.604,1.245-1.21,1.876-1.818-.166.319-1.603,2.495-2.556,3.599ZM148.164,166.553c-.163.18-1.083,1.162-1.291,1.112.45-.937,1.1-1.889,1.932-2.777.175-.188,1.336-1.379,1.484-1.317.12.07-1.913,2.729-2.125,2.982ZM178.724,212.802c-.658.382-1.314.33-1.594,1.105.099-.622-.25-.429-.536-.056-.1.131-.101.365-.122.386-.036.035-.247-.081-.357-.051-.259.072-.41.326-.762.378-.337.05-.702-.04-1.042.022l-.074.314c-.598.108-.942-.19-1.416-.441l.471.551c-.227.038-.339-.154-.546-.188-.115-.019-.277.085-.429.055-.409-.08-.295-.479-.971-.273-.073.022-.053.174-.112.173-.62-.015-.921-.488-1.087-.517-.199-.035-.42.194-.647.148-.526-.107-.608-1.013-1.52-.39-.06-.193-.551-.814-.679-.891-.278-.168-.676.069-1.011.006-.038-.007-.467-.405-.623-.438l.066-.553c-.168.043-.461-.034-.717-.139l13.091-.075c-2.548,1.004-5.288,1.511-7.965,2.18.685-.032,1.37-.105,2.047-.184.522-.061,1.047-.133,1.568-.222l3.278-.92c.653-.284,1.262-.64,1.816-1.06l.11.417-.352-.221c.012.358-.197.606-.473.829l.589.053ZM178.871,211.708c.131-.1.258-.203.382-.31l-.056.411-.326-.101ZM179.525,211.153c.185-.175.363-.358.53-.551-.112.346-.129.635-.53.551ZM181.286,207.734l.037.211c-.102.025-.112-.097-.146-.183.036-.009.073-.018.109-.027ZM180.963,207.814c0,.105.011.267.015.279.03.089.542.11-.008.404l-.237-.22.118.66-.472.168.231.214c-.354.233-.167.574-.236.866-.016.069-.184.089-.249.233-.021.047-.039.095-.056.141-.048-.005-.095-.011-.14-.017-3.789-.511-8.444.092-12.322-.077-.144-.459,1.077-.595,1.405-.664,3.946-.821,8.05-1.012,11.951-1.987ZM171.94,200.989c.152-.287,6.142.328,6.763.854-1.774-.08-4.5.197-6.161-.125-.492-.096-.736-.474-.602-.728ZM200.043,151.993c-.483.286-1.028-.049-1.476-.044-.575.006-1.286.175-1.853.143-.291-.016-.419.045-.332-.293.367.157,3.692-.182,3.661.194ZM199.201,148.43l.676.261-.353.95c-.618-.271-.172-.733-.323-1.212ZM196.498,148.634l2.312-.629-.209.629c-.614-.152-1.076.133-1.62.169-.135.009-.543.043-.483-.169ZM195.904,148.988c.853.247,1.533.078,2.347-.234l.172.544c-.681-.038-1.606.208-2.234.016-.252-.077-.373-.002-.285-.327ZM194.89,148.385c-.088.15-.314.28-.511.229-.513-1.377,1.186-1.374.511-.229ZM191.351,149.325c.267-.014.442.196.68.252.23.054.794-.087.833.25-.599.004-1.112.396-1.707.143.228-.236.296-.32.194-.645ZM186.141,150.59c.667-.331,1.051-.844,1.903-1.076.32-.087,2.481-.475,2.614-.371-.173.126-.285.534-.368.599-.105.082-2.11.378-2.656.614-1.11.479-2.164.95-3.318,1.395-.473.182-1.25.93-1.812.313,1.075-.641,2.568-.945,3.637-1.474ZM167.321,145.761c.121-.1,1.428-.103,1.397.164l-.519.295-.047-.267-.279-.02-.083.246c-.082-.088-.759-.178-.47-.418ZM164.318,146.349l.937.455-.103.263-.491.092.076.796c-.516-.249-.848-.485-.474-1.019l-.277-.157.333-.43ZM163.662,159.38c-.153.771-.939.755-1.598.546l.243-.378.072.242c.476-.032.912-.134,1.283-.41ZM166.456,166.718c.379-.694.405-1.366.478-2.129.789-.57,1.166-.303,1.201.584l-.946.266-.124.794,1.586-.415c.382.977-.776,1.535-1.246,2.288l-.021-.592-.275-.086-.956,1.253-.52-.325c.175-.349-.069-2.227.375-2.195l.342.154-.17.316.275.088ZM173.43,175.095c.129-.069.373-.033.406-.06.043-.035-.229-.772.619-.606-.442.548.611.105.801.01.08-.04.119-.266.301-.308.367-.084.921.094,1.318.073-.193.954-1.375,1.349-2.135,1.895-.342.245-1.049,1.101-1.404,1.005-.258-.069-.317-.642-.852-.315-.252.154-.416.643-.637.881-1.353,1.459-2.258,2.166-3.375,3.909-.152.237-.26.5-.319.771l-.431.057c-.15-.155,1.339-2.719,1.601-3.05.138-.175.898-.587.328-.645l-.373.237c-.134-.179,1.105-1.307,1.317-1.498.754-.679,2.003-1.915,2.834-2.358ZM172.426,162.913c.076-1.109,1.736-1.197.929-.049l-.929.049ZM174.701,165.324l-.244,1.306c-1.868.891-.193-1.391.244-1.306ZM178.747,165.365l.333.009.195.398.418-.093c.164.446-.072.503-.416.764-.017-.34-.627-.467-.936-.461-.113.002-.167.265-.336.358-.618.339-2.027-.124-2.734-.183-.211-.172.019-.24.23-.248.804-.03,1.253.202,1.884-.524l.171.587-.456.314c.648.092,1.363-.39,1.649-.921ZM178,174.037c-.021-.041-.827-.36-.068-.614.275-.092.572.013.85-.076.153-.049.292-.279.463-.354.694-.304,1.196-.502,1.998-.326-.26.298-.656.282-1.036.516-.386.239-.753.879-.809.909-.386.205-1.251.452-1.708.643-.2.083-.358.294-.539.414-.342-.639,1.154-.524.848-1.112ZM172.804,182.891c-.012.03-.023.059-.029.085-.053.219-.166.689-.231,1.047-.05.007-.098.015-.147.022l.182-2.215c.066.003.124.009.177.017-.076.306-.125.65-.139,1.042.065.002.127.002.188.002ZM176.246,190.959c.717.314,1.519,1.173,2.268,1.576.614.331,3.296,1.393,3.438,1.514.366.312.401.813.541,1.223-3.924.761-8.071-2.173-10.367-4.929l.016-.151c.646-.02,3.707.594,4.104.768ZM167.811,183.078l.649-1.011c.268.041.09.693.04.832-.134.376-.788,1.535-1.043,1.875-.121.162-.002.333-.37.234.047-.359.228-.741.406-1.059.088-.156,1.086-1.165.318-.871ZM170.546,182.479l.976-1.516.547.172c-.162.829-.882.9-1.523,1.344ZM171.636,182.955c.002.242-.319.05-.514.225-.182.164-.427.706-.633,1.292-.224.083-.429.179-.613.293.025-.067.051-.135.074-.212l-.593.353c.169-.647.722-1.086.633-1.805.205-.273,1.281-.287,1.644-.147ZM169.043,181.843c.097-.724.389-1.553,1.142-1.902l-1.142,1.902ZM168.717,187.25l-.266.104.309-.691c-.024.182-.039.377-.043.588ZM166.691,177.778c-.13.158-.138.382-.451.294l.47-2.063c.327.058.765-.208.961.119-.329.53-.582,1.167-.98,1.65ZM168.814,188.37l.309-.036c.022.228.041.455.056.679-.113.023-.227.048-.341.076-.006-.239-.014-.479-.024-.719ZM177.783,196.348l-.264-.548.55.174-.163.249.969.09.127.263c-.4-.086-.809-.159-1.219-.229ZM171.607,188.504l-.409-.161c.013.25.042.49.068.724-.1.023-.199.045-.294.066-.049-.452-.221-.879-.156-1.267.103-.617.715-1.281.798-1.568.092-.319.034-.786.022-1.202.254-.12.576-.214.986-.279.007.007.013.015.02.022-.038.328.016.658.124.987-.287.363-.715.718-.839.949-.247.461-.267,1.215-.32,1.728ZM181.293,173.93c-.902-.313-.327.933-1.214.899-.051-1.25,1.696-2.064,2.853-2.042-.384.634-1.513.39-1.638,1.143ZM178.143,176.807c-.305.01-1.153.023-1.318-.23-.358-.545,1.804-.727,1.318.23ZM177.534,179.571c-.445-.011-.886-.014-1.31.006.35-.126.63-.213.708-.205.193.019.396.115.601.199ZM169.444,170.979c-.358.397-1.457.862-1.741,1.176-.219.243-.166.735-.623.822.13-.287.339-.854.526-1.071.481-.557,1.566-1.446,2.196-1.901.336-.243.442-.731.961-.598l-1.319,1.572ZM164.793,175.853l.329.288.038,1.113-.779,2.8c-.142-.844.276-1.679.349-2.422.025-.253-.19-1.774.063-1.78ZM165.805,174.738l.28,1.799c-.027.348-.048.694-.107,1.039-.029.168-.144.802-.333.852l-.017-1.4.273-.037c-.475-.646-.072-1.503-.096-2.252ZM159.195,150.779l-.434-.606.109.675c-.136.031-.271.063-.406.097.029-.508.307-1.085.361-1.561.45-.064.234.537.363.849.043.105.288.267.37.48-.12.018-.241.041-.363.065ZM161.762,154.091c.611.944.856,2.26.413,3.31-.231.549-.739.533-1.05,1.007-.096-.006-.868-.801-.941-.904-.526-.738-.079-.779.088-1.318.353-1.141.306-1.413,1.489-2.096ZM163.803,169.834c.089-.414-1.283-1.376-.998-1.656l.67.504c.265.351.444.752.914.864l-.586.289ZM162.772,152.972c-.253.519-.225.939.023,1.454-1.316-.097-.508-1.901-.023-1.454ZM161.593,146.246c-.068-.556-.047-1.179.698-1.241-.095.29.104.676.007.932-.145.381-.741.455-.607,1.188.029.156.344.023.266.235l-.43.039.105.468-.398-.292-.101.388-.536-1.161.995-.554ZM158.786,147.394c.435.149,1.37-.891,1.393.103l.313-.373c.495.596-.58.543-.177,1.307-.624.008-.99.215-1.458.559-.034-.405.495-.926-.044-1.193l-.121,1.445-.177-.408-.394.499.098-2.8c.056-.066.109-.131.159-.195.629.214,0,.917.406,1.055ZM156.772,144.971c.021.299.25.47.245.645-.002.065-.2.047-.288.155-.512.627-.825.52-1.079.8-.189.208-.122.548-.405.708-.068-.056-.137-.108-.206-.157l.947-.908.786-1.242ZM153.586,148.514c.169-.037.342-.119.521-.26l-.214.909c.009.003.017.004.026.007-.367.201-.757.397-1.137.595-.115-.082-.247-.119-.382-.115l1.185-1.137ZM151.605,150.414c-.002.014-.003.027-.005.041-.05.035-.101.07-.148.106l.153-.147ZM150.356,153.511c.458-.343.916-.693,1.37-1.05.404.514,1.547.575,1.647-.623.003-.036-.047-.3-.112-.619.585-.49,1.158-.99,1.71-1.498.174-.16.527-.476.953-.87.134.521-.535.973-.55,1.28-.007.156.477,1.001.657,1.536-.247.088-.492.18-.736.274-.687-.068-1.39.062-1.557.62-.756.304-1.513.603-2.29.854-.362.117-.702.448-1.092.096ZM159.37,160c-.054.36-.01.756-.098,1.109-.027.109-.305.672-.471.701-.01-.575-.053-1.508.569-1.81ZM160.583,166.827c.12.459.128.884.063,1.292-.096-.05-.194-.099-.295-.148-.328-.94-.756-1.126-1.203-.856-.026-.497.025-.991-.167-1.565-.094.072-.191.146-.292.22-.14-.338-.263-.68-.378-1.025.874.68,2.061,1.275,2.271,2.081ZM159.917,169.995c-.122.061-.266.106-.422.166-.301-.218-.612-.423-.944-.597-.034-.018-.069-.032-.105-.045.191-.446.433-1.129.537-1.193.735-.441,1.326-.318,1.324.89-.115.26-.248.519-.39.78ZM157.406,163.646c.083.272.265.519.503.752-.171.03-.345.062-.53.097,0-.28.01-.564.027-.849ZM150.075,168.474c-.283-.085.466-1.028.593-1.194.559-.735,1.389-1.554,2.163-2.098-.649,1.226-1.607,2.307-2.757,3.293ZM156.205,164.352c.038-.059.091-.115.149-.169-.071.304-.142.594-.157.631-.032.064-.109.142-.21.228.044-.22.058-.442.218-.69ZM152.719,169.605c.461-.56.912-1.117,1.354-1.671.292-.238.576-.474.852-.707-.41.916-1.1,1.845-2.206,2.378ZM156.25,167.44c.525-1.048.577-2.186,1.963-1.848.509,1.737-.661,2.101-1.774,2.836-.213-.052-.41-.09-.507-.092-.098-.002-.193.019-.284.056.255-.358.464-.694.602-.953ZM155.697,170.721c.031,0,.062,0,.093,0-.06.036-.117.071-.179.107.029-.036.056-.071.085-.106ZM163.159,182.877c-.547.053-.132-1.002-.151-1.31l.409-.126-.258,1.436ZM164.015,182.807c.154-.033.38.115.405.227l-.156,1.906c-.368-.148-.333-2.056-.249-2.132ZM164.242,187.106l.338-.822c.134-.084,1.393,1.419.006.792l.048.268-.393-.238ZM165.617,189.134c-.6-.372-.291-1.164-.854-1.646.922.116,1.029.92.854,1.646ZM165.543,186.616l-.185-1.202.144.239.39.059c.183-.09.093-1.091.523-1.15-.056.669-.496,1.288-.301,1.961-.505-.299-.256-.09-.57.091ZM172.264,196.491c2.904.213,6.023.676,8.415,2.318-2.874.131-6.049-.8-8.415-2.318ZM180.38,196.967c-.045-.017-.092-.031-.137-.047l.112.008c.008.013.018.026.026.039ZM182.395,191.991c-1.308-.412-5.137-1.416-6.057-2.012-.274-.177-.161-.59-.201-.604-.517-.19-1.779.465-2.276-.772-.432.007-.998.11-1.575.234l.077-.727c.048-.434.435-.965.746-1.494.242.466.529.925.746,1.365.133.27-.019.559.006.622,1.716-.03,2.783.9,4.438.957-1.82-.575-3.207-2.621-3.755-4.312-.321-.988,1.992-.258,2.327-.093,1.676.829,3.014,4.782,5.372,5.637l2.497,1.368c-1.191,1.012-1.534.087-2.344-.168ZM180.36,186.779c1.491.484,2.981,1.774,3.648,3.109-1.395-.702-2.792-1.861-3.648-3.109ZM177.822,183.913c-.502-.178-2.449-.567-2.907-.518-.494.053-.841.412-1.202.464-.329.047-.643.09-.945.132.174-.397.501-.809.645-1.119,1.592-.133.841-.909,1.767-1.767.405-.376.788-.601,1.36-.691l-.002,2.748,2.439.698-.354-3.358c.332-.44,2.057.199,2.467.449l1.014,4.618,2.851,2.676-7.133-4.333ZM183.013,182.178c2.46,1.131,4.046,3.666,4.622,6.142-2.885-.841-3.987-3.609-4.622-6.142ZM190.578,187.362c-1.666.064-1.885-2.188-2.536-3.287l-.374.653c-1.345-1.203-3.662-3.693-5.256-4.461-.273-.131-2.263-.957-2.395-.98-.344-.06-.699.335-1.081.326-.172-.004-.345-.009-.518-.015.668-.286,1.808-1.081,2.089-1.367.237-.242.663-.938,1.039-1.445.097-.025.197-.047.303-.063l-.549,1.949,1.658,1.041.894-2.725,2.197,1.171-.434,3.007-.478.275,2.471,2.203c-.556-1.133-1.069-1.993-1.051-3.288l.891.03-.049-1.09c2.119.783,4.525,6.446,3.179,8.066ZM187.638,174.545l-.679,1.48.955,1.194,2.061-1.839c3.874,2.077,6.706,9.16,2.698,12.075.014-1.27.176-3.29-.386-4.445-.114-.235-3.018-3.554-3.464-4.029-.907-.967-1.485-1.286-2.488-2.011-.242-.175-.177-.502-.254-.55-.488-.303-1.199-.219-1.688-.273-.111-.012-.27-.035-.454-.061.024-.016.048-.03.073-.049.267-.2.394-.462.494-.73,1.04.163,1.935-.559,3.132-.763ZM185.142,172.545l.372-.237c-.317,1.527-.683,2.135-1.433.357.019-.1.316-.129.387-.207.435-.48.751-1.241,1.566-1.302.061.062-1.146,1.115-.892,1.389ZM184.699,171.204c-.524.503-.745,1.129-1.546,1.464l.103-.387-.919.205c-.471-.759-2.099-.397-2.865-.106-.236.09-.466.353-.57.381-.369.102-.085-.422-.245-.411-1.012.071-.713.663-1.181.932-.445.257-1.749.217-2.274.67.248-.989,2.337-.817,2.406-1.613.032-.374-.191-.596-.595-.494-.298.075-.247.723-.699.601.263-.352-1.025-.956-1.009-1.193.315-.21.25-.584.401-.828.169-.273.823-.45.504-1.026l-.967.591c-.093-.127.899-1.58,1.137-1.694.08-.039,1.058-.357,1.12-.365.706-.097,1.515.022,2.395-.242.472-.142.937-.796,1.383-.64-.734.504-1.28,1.448-1.856,1.986-.212.198-.747.394-.822.525-.065.114.059.373,0,.571-.091.304-.459.408-.46.727.175.21,1.995-1.482,2.175-1.708.148-.186.161-.49.362-.751.394-.511,1.513-.999,1.963-1.583.303.294-.569.858-.437,1.026l.523-.359c.333.315-.596.985-.448,1.157.482.072.531-.571.832-.75.229-.136.485.242.741-.327l.207.017c0,.072-.038.193.051.235.168.08,1.038.347,1.244.383,1.102.193,2.45-.128,3.596.126-1.299.999-3.086,1.76-4.253,2.88ZM184.755,166.041c.21.131.788.274.92.366.1.07.173.404.42.585.321.235.787.178.942.532l-1.499-.579-.783-.903ZM188.129,167.098c-.08.003-.008.318-.584.21-.26-.049-.159-.254-.285-.293-.457-.141-.605-.294-.645-.294-.686-.013-.332.21-.67-.414-.03-.056-.213-.074-.217-.144.052-.16.738-1.097.802-1.133.136-.076.341.092.471.071.204-.034.281-.265.531-.184l-.313.372,1.448-.423c-.885.808-.053,1.555.521,2.282-.323.109-.838-.059-1.06-.05ZM188.874,165.739c.026-.382.5-.326.773-.25,1.479.41-.275,1.684-.773.25ZM198.326,160.859c-.229.13-.569.103-.683.187-.346.253-.431,1.63-1.298,1.589.452-1.269,1.823-1.937,2.397-3.111l.541.017c.124.117-.745,1.198-.957,1.318ZM196.701,160.808c.205-.606,1.074-1.915,1.672-2.258-.119.391-.462.706-.654,1.076-.15.29-.673,1.729-.916,1.718-.266-.205-.189-.28-.102-.536ZM199.071,156.376c-.123.372-.144.705-.337,1.064-.304.566-1.007.74-1.227,1.312-.26.007-.068-.34-.232-.487-.225-.2-1.607.265-1.299,1.037.201.504.928-.022.748.383-.63,1.422-1.887,2.417-2.84,3.633-1.429-.152-2.718.253-4.079.423-1.739.217-2.683.179-4.412.776-.801.277-2.837,1.406-3.398,1.45-.437.035-1.671-.043-1.428-.624-.61.496-.514-.157-1.263-.151-.444-.304.433-.586.004-.861l-.896.598c-.379.07-.238-.625-.3-.686-.331-.112-.539.421-.803.339-.196-.061-.049-.477-.387-.422-.173.045-1.093,1.279-1.246.501-.093-.47,1.306-1.04,1.669-1.327.988-.783.753-.981,2.089-1.588.257-.117.6-.44.893-.459.208-.013.449.364.678.238.04-.022.101-.263.252-.363.328-.217.743-.321,1.044-.584l.184.404.183-.002c.333-.243.739-.238,1.106-.373.177-.065.301-.295.466-.351.236-.081.531.003.722-.08.059-.026.071-.602.7-.947.585-.32,1.105-.757,1.489-.954.489-.251,1.581-.447,2.051-.772.433-.299.675-1.098,1.454-1.289.355-.087.512.083.739.07,1.045-.061,2.216-.277,3.206.013l-.122-.271,1.969.139c.593-.358-1.335-.307-1.384-.363l.032-.393c.563.115,1.234.008,1.769.068.366.041,1.515.442,1.727.383.121-.034.416-.269.171-.384l-1.623-.846c.616.089,1.624-.07,2.034.454.493.631.057.81-.102,1.293ZM182.934,158.903l1.004-.192c.02.276-.11.507-.396.582-.655.034-.902-.545-.96-.551-.502-.047-.693.351-.737.353-.851.035-.653-1.656.302-1.709.579-.032.952.794,1.512-.414,1.596.82-1.01.906-.725,1.93ZM184.933,156.929c.224-.121,1.335-.783,1.44-.802.352-.064.661.218,1.024.054-.252,1.212-1.54.646-2.464.748ZM198.924,154.497l-2.877-.343.109.403-2.544-.047.122.271c-.548-.21-.823-.235-1.354.031l-2.334.102c.032-.274.572-.144.706-.229.019-.012-.056-.18-.013-.246.265-.408.523-.066.805-.106,1.205-.169,1.463-.02,2.431-.067.592-.029,2.078-.483,2.016-1.173-.981-.356-2.109.207-2.933.18-1.006-.034-.971-.201-2.008.229-1.263.525-1.689,1.528-2.807,1.812-.379.096.053-.335-.081-.662-.049-.12-.224-.29-.38-.277l-1.194.425-.519,1.154c-.237.027-.305-.283-.467-.367-.769-.397-3.186.812-4.092.837-.039-.523.578-.369.954-.464l-.404-.225c.462-.145.714-.649,1.11-.788.36-.126,1.444-.273,1.879-.323.17-.02.407.172.602.089.035-.015.463-.535.476-.569.389-.986-1.547-.769-1.122.147-.363.12-.242-.261-.329-.29-.408-.139-.352.205-.605.342-.18.097-.724.272-.617-.093,1.151-.564.521-.816-.41-1.024-.333.397.463.309.446.561-.778.185-1.442.562-2.291.366-.079-.368.383-.3.452-.366.085-.081.057-.345-.186-.274-.437.128-1.056.583-1.667.549l-.038.383c.317.203,1.333-.053,1.389.302.044.282-.69.453-.63.812.688-.253,1.385-.632,2.161-.506-.146.204-.859.728-1.047.774-.22.054-.673-.215-.828-.097-.045.034-.034.264-.132.353-.567.515-.974.969-1.834.867l-.173.454c-1.111-.349-1.893-.624-3.109-.598-.158.003-.872-.017-.815.255l1.879,1.193-.905.729c.857.391,1.237-1.086,1.904-.788l-.201.71c.07.078,1.79-.614,2.139-.243.167-.207-.413-.858-.621-1.035.224-.349.53-.132.799-.261.714-.342,1.234-1.244,2.255-.776-.203.346-.717.32-1.022.531-.829.572-.523,1.585-.196,2.343-.646.588-1.477.357-2.293.312l.097.534c-.817-.201-1.268.414-1.939.686-.208.084-.4.029-.526.065-.038.102-.003.272-.033.394l.703.052-.321.304c.594.991-.419,1.317-.791.404-.113-.278.035-.494-.216-.809-.448-.563-1.253-.934-1.882-.393l-.098-.535c.141.766-.54.454-.705.741-.114.199.09.454.001.699-.067.183-.719.665-.765,1.043-.332.191-.929-.47-1.316-.56-1.069-.249-1.575.676-1.945,1.438-.07-.006-.765-.938-.804-1.075-.155-.553.388-.281.32-.807l-.303.242-.398-.293c-.209.335.221.93.169,1.116-.082.295-.79.442-.95.682-.261.389-.297,1.224-.358,1.686-.482-.048-1.443.153-1.592.627-.078.249.038.206.255.205-.031-.33.352-.145.595-.351l-.236,1.173-.94-.595.484,1.024-.527-.497c-.024.213.299.851-.074.918-.124-.276-.127-.821-.498-.83l.29-.111c-.087-.738-.778-.273-.912-.926-.101-.495.655.224.582-.219-.983-.345-.234-.475-.216-.67.019-.201-.463-1.429.14-.992.277.201.315.705.366.688.368-.253.304-.694.156-1.045.452.206.577-.168.612-.177.114-.029,1.258-.045,1.261-.285-.373-.233-.48-.3-.36-.753-.196-.266-.666.567-.628.749l-.261-.216.31-.494-.662-.401c.215-.488.162-.865-.337-1.15l.212-.832-.321.505c-.032-.861.499-1.529.883-2.185l-.267.095-.247-.482.36-.285.21.079c.14-.6-.642-.865-.315-1.407.681.057.403.616.929.729l.172-.384-.107,1.313-.387-.424c-.125.532-.51,1.038.335,1.083.027.349-.315.496-.364.83-.023.153-.007.811.223.876.052-1.11.962-1.735.661-2.86l.246.413c-.128-.327.318-.413.328-.457.102-.443-.792-1.273.124-1.625l.108.442.521.527c.07-.202-.106-.43-.098-.592.001-.027.544-.166.325-.448-.236-.304-.312.373-.44.231l-.257-.347.528-.407.262.264c.276-.161-.231-1.443-.384-1.349-.181.431-.181,1.219-.757.607l.226.676c-.504-.06-.723.248-.967.593-.528-.341-.658-1.389-.956-1.626-.023-.018-.059.041-.392-.238-.113-.095-.313-.072-.405-.197-.075-.102-.248-.898-.189-.985l.422-.035-.366-.685c.054-.202.974.048.892-.534-.461.028-.834.189-1.107-.278l.576-.161-.1-.59c.203-.112.367.011.316-.313l-.949-.465c.339.048.277.01.16-.253.358.044.674.371.988.003l-.673-.377c.619-.07,1.663.263,2.005-.322-.976-.182-.378-1.18.363-.965.183-.498-.666-.198-.823-.324.205-.867.984-.589,1.751-.666l-.087,1.051-.517-.565c-.078.615.592.851.163,1.464l.372-.237c.229.677,1.062.428,1.285,1.185.061.208-.097.388-.059.532.1.382,1.01.766,1.17.296l1.492.402c.187.066.209.986.869.831l.087-.255.883.459-.296.175c.138.37,1.257.463,1.65.58-.045-.151-.262-.322.088-.257.568.106,1.943.674,2.719.89.326.091.646.394.998.418.077.005,1.753-.26.957-.512.188-.253,1.745-.56,2.174-.64.191-.036.383.073.565.045.459-.071,1.116-.356,1.527-.361.168-.002.382.644,1.332.328.646-.215.647-.831,1.245-1.068.053-.051-.032-.22-.008-.241.09-.079,2.176-.841,2.299-.856.292-.035.55.147.841.132l-.399-.29c.455.161.856-.156,1.223-.171.673-.029,1.388.166,2.071.109.537-.045,1.215-.398,1.805-.535.048-.011.371-.466.903-.165-.464.645.908-.054,1.07-.055.204,0,.392.15.563.156,1.14.043,2.53-.227,3.399.588l-.494.027.048.269c-.218.122-.647-.541-.838-.123-.154.337.928.252.934.658l-3.334.163-.05-.388c-.805-.274-1.358.455-2.141.363l.821.32c-.583-.003-1.232-.325-1.329.412l-2.369-.147c.421-.404,1.428-.215,2-.254l-1.254-.222c.142-.16.688-.544.858-.576.427-.082,1.696.448,1.845.373.031-.016-.297-.285.339-.417.731-.151,1.657.029,2.289-.058.103-.014.098-.22.217-.241.287-.051.704.06,1.035-.066.004-.285-1.125-.362-1.306-.35-.849.056-.824.046-1.703-.006-.442-.026-1.014.216-1.279.188-.038-.004-.148-.483-.62-.312l.247.412c-1.026.118-1.969.781-2.999.459l-.344.625c-.474-.729-1.512.309-1.339.826l-.51.092-.109-.263c-.271.213-.598.364-.556.753l1.962-.509,1.183.071-1.582.354c-.046.211-.036.216.188.207.623-.026,1.419-.271,2.049-.347,1.373-.166,3.114-.223,4.443-.461.312-.056.328-.266.419-.279.49-.065,1.203.146,1.728.12-.004.246-.396.06-.616.114-.157.038-.356.19-.41.339.326.018,1.071-.286,1.264.09-.853-.115-1.374.318-2.151.378-.366.382,1.606.196,1.657.265.046.064.005.309.112.461.385.546,1.022-.031.761-.545.707-.079.874.656,1.331,1.018l-1.34.044ZM201.156,138.323l.196.917-.508.315.123-.651-.43.101.294-.776c-.093-.424-.964-.615-.343-1.138.114-.096.043-.309.216-.125.062.484.634.857.743,1.247.106.38-.301-.041-.291.11ZM203.671,140.418c-.291-.069-.02-.627-.517-.564.174,1.492-.734,1.039-.132-.143l-.29.114.275-.774-.103.387c.103.095.858-.534.943.15.024.195-.237.568-.176.831ZM206.063,140.588l.588-1.144c.672.464.057,1.032-.588,1.144Z"/>
  <path d="M205.531,117.609c-.538.438.28.664.336.781.128.266-.201.597.377.925-.614-.098-.906.561-1.058,1.022.705,1.204,2.228,1.426,1.567-.322l.573-.095c.125-.254-.22-.493-.159-.668.208-.588,1.963-.644.952-1.503-.785-.667-1.658-.054-2.588-.141Z"/>
  <path d="M210.408,114.189c-.089-.012-.353-1.06-.348-1.147.009-.138.223-.247.203-.455-.089-.909-1.246-1.354-1.777-.478-.059.097-.167.934-.145.979.021.045.227-.003.242.239.035.555-.469,1.374.066,1.788.772.598,1.25-.392,1.551-.935.264-.008.06.347.229.491.19.161.618.036.844-.037l.22-.834.718-.006.021-.384-.736-.188c-.41.467-.301.858-1.088.968Z"/>
  <path d="M202.246,121.771c-.135.623.406,1.009,1.047.773-.119.275-.087.833-.483.76l.328.288c.101-.205.119-.255.366-.177l.037-.458.411.021.068-.501c.247-.173.71.055.878.01.619-.167.477-.77-.145-.501l-.181-1.334c-.389.231-.709-.063-1.042-.072-.756-.02-.772.831-1.286,1.189Z"/>
  <path d="M205.352,111.561c.01.024.186.052.236.138.249.43.271.818.934.763-.255.484-.104.553.387.42-.185-.322.168-.51.191-.708.056-.472-.848-1.084-1.206-1.334-.239.132-.676.398-.543.721Z"/>
  <path d="M199.47,119.04c.317.456.978.643,1.476.301.305-1.147-.249-1.068-1.116-1.143-.2.313-.677.387-.361.841Z"/>
  <path d="M199.831,118.198c.604-.948-.764-1.163-.773-.404-.007.587.45.376.773.404Z"/>
  <path d="M208.8,117.037c.037-.123-.082-.718-.175-.799-.211-.183-.942.209-1.239.243l-.097.646c.426.187,1.327.527,1.511-.091Z"/>
  <path d="M192.185,146.198c.084.139,1.393.406,1.529.039.238-1.436-1.981-.783-1.529-.039Z"/>
  <path d="M201.959,126.379c1.389.703,1.186-.85.876-.942-.679-.114-1.79.48-.876.942Z"/>
  <path d="M205.577,113.709c.461.154.93.724,1.331.103.57-.883-1.418-1.043-1.331-.103Z"/>
  <path d="M203.14,118.797c.61-.495-.115-1.436-.743-.881-.561.496.156,1.357.743.881Z"/>
  <path d="M198.476,120.829l-.535-.252.259.28-.491-.033.092-.257-.422-.03c.037.616.23.725-.107,1.313.346.059.74.063.733-.343l-.269-.151.583-.038.158-.489Z"/>
  <path d="M197.683,129.527l.395-.395-.727-.778c-1.048-.104-.23,1.236.332,1.173Z"/>
  <path d="M212.634,115.973c-.56.438.487,1.429.851.557.234-.561-.428-.888-.851-.557Z"/>
  <path d="M201.801,126.813c-.177-.061-.379-.053-.552.015-1.06.417,1.086,2.037.552-.015Z"/>
  <path d="M206.035,116.904c.504.346,1.237-.198.57-.823-.728-.682-.83.645-.57.823Z"/>
  <path d="M205.228,109.264l.184-.704-.551-.116c-.719.441-.449,1.24.367.819Z"/>
  <path d="M201.387,120.821c.291.097.639-.217.786-.426l-.284-.596c-.306-.091-.997.753-.503,1.021Z"/>
  <path d="M150.555,139.804l-.074-.798.972.2c-.282-1.424-2.035-.169-.898.597Z"/>
  <path d="M211.206,115.704c.423.1.798-.027.822-.472l-.544-.301-.278.772Z"/>
  <path d="M188.085,151.992c.092-.133.474.076.52-.219-.623-.365-.735.391-1.034.518-.394.167-.365-.037-.931.345-.258.174-.572.31-.562.675.539-.443,1.643-.376,1.966-.914.059-.099-.036-.292.042-.404Z"/>
  <path d="M167.502,159.127l.238.542-.442.234.415.108c-.108.092-.156.713.162.594.509-.191.022-1.178.341-1.56l-.713.082Z"/>
  <path d="M166.455,159.844l.654,1.5c.506-.317.07-.614-.042-.927-.101-.282.276-.61-.612-.572Z"/>
  <path d="M178.322,163.829c-.08.132-.315.338.004.43.376.108.371-.093.523-.287.162-.208,1.087-1.313.961-1.457-.805.018-1.149.756-1.487,1.314Z"/>
  <path d="M189.177,162.628c-.19.101-.396.122-.358.396.133.131,2.062-.549,2.194-.899-.578-.111-1.331.235-1.836.503Z"/>
  <path d="M179.356,170.679c-.123.081-1.13.755-.635.88.213.054,1.354-.862,1.148-1.107-.26-.076-.344.116-.513.227Z"/>
  <path d="M160.582,80.473l.242-.179-.206-.349-.922.183c-.075.194.045.262.132.398.119-.052.584-.352.645-.344l.109.291Z"/>
  <path d="M180.744,66.378l-.053-.146c-.645.502-.335,1.26.343.496.14.153-.228.148-.006.312.087.064.132-.084.219-.044.052.249.207.551.535.549.127-.09-.405-1.015-.728-.955l.448-.272.306.219.124-.089c.199-.521.845-.842.373-1.388-.215-.03,0,.579-.277.696-.292.123-.379-.424-.431-.43-.222.211-.096.472-.515.497l.504.129c-.247.154-.53.509-.841.426Z"/>
  <path d="M141.908,79.907c.074.121.955.684.991.394-.414-.19-.354-1.189-.521-1.414-.124-.166-1.159-.621-1.248-.397.094.492-.302.904.597.56l.172.368-.417.057c-.093.288.132.476.41.327.184-.099.204-.381.481-.294l-.007.313-.457.086Z"/>
  <path d="M179.158,63.2c.636-.222-.082-.575-.122-.825-.007-.041.197-.454.22-.602.029-.186-.055-.448.028-.658-.21-.018-1.086.06-1.116.252.125.216.44.435.534.64.039.085-.089.19-.08.282.04.412-.026,1.106.535.911Z"/>
  <path d="M156.484,72.913c-.091.402.458.608.707.848.307-.099,1.224.447,1.283-.093.044-.403-.404-.409-.56-.595-.127-.152-.146-.456-.286-.621-.355-.071.112.738.103.778-.775.755-.555-.369-1.247-.317Z"/>
  <path d="M168.916,91.285l-.267-.798c-.268.097-.015.367-.107.459-.142.143-.519.157-.591.437l.302.384c.355-.425,1.528-.373.966-1.074l-.303.592Z"/>
  <path d="M160.047,75.563c.147.006.452.33.616.139.035-.04-.066-1.021-.122-1.026l-.28.698c-.297.068-.55-.266-.745-.295-.504-.074-.504.519.11.579.19.019.322-.099.421-.095Z"/>
  <path d="M187.583,65.812c.092.165.186-.079.306-.076.055.001.193.165.385.198.112.019.869-.055.879-.148l-1.152-.594c-.468.061-.203.397-.418.621Z"/>
  <path d="M182.286,64.323c-.158-.444.275-.468.4-.773.04-.099-.051-.245-.023-.369.057-.25.395-.362-.008-.733-.691.33-.128.767-.126.817.007.125-.609.929-.827.99l.088.182.496-.115Z"/>
  <path d="M184.567,67.309c.052.052.206-.048.309-.018.199.058.384.26.616.163l-.257-.311.331-.24c-.013,0-.068-.125-.186-.12-.258.011-.43.355-.584-.003-.011-.025.229-.278-.122-.468-.409.134-.314.791-.108.996Z"/>
  <path d="M186.642,67.238c.013-.096-.606-.374-.732-.406-.166-.042-.291.074-.343.072l.492.512.583-.178Z"/>
  <path d="M146.665,79.913c-.089.016-.168-.072-.186-.069-.043.008-.093-.016-.124.054l-.103.272.64.456-.152.295c.9.159.227-.313.218-.566-.004-.121.351-.349.305-.557-.23-.078-.407.08-.598.115Z"/>
  <path d="M160.324,79.101c-.093.001-.175.024-.267.022l.033.283c.334-.132.176.085.343.214.198.153.524.358.767.156l-.17-.124.289-.211c-.807-.124-.083-.481-.56-.831-.151.088.071.225-.028.38-.187.293-.315.109-.406.11Z"/>
  <path d="M148.022,80.548c.237-.214.637-.277.491-.608l.502-.113c-.095-.181-.315-.086-.444-.227-.107-.116-.117-.37-.282-.485-.467.208-.064.546-.073.793-.01.268-.47.416-.194.64Z"/>
  <path d="M182.042,59.792c.248-.445,1.238-.259.341-.867.341-.179.486-.433.405-.79-.096.159-.752.769-.762.822-.008.044.131.146.127.215-.015.233-.357.434-.111.62Z"/>
  <path d="M188.308,59.022c-.274-.076-.234.013-.351.166-.254.331-.323.681-.517,1.024.454.561,1.013-1.074.869-1.19Z"/>
  <path d="M149.184,75.238c-.051-.183-.427-.539-.598-.557-.251-.025-.118.125-.067.233.133.279.647,1.094,1.029.685l-.115-.542-.249.18Z"/>
  <path d="M164.847,74.582l.081-.862c-.314.088-.5.239-.635.523l.23.265-.248.182c.186.364.356.179.572-.108Z"/>
  <path d="M155.727,81.025c.015-.087-.337-.334-.392-.151.049.256-.014,1.295.266,1.365l.667-.243-.535-.162c-.01-.14-.236-.566-.223-.629.017-.085.212-.151.217-.18Z"/>
  <path d="M176.146,61.968l.085-.374c-.219-.134-.374.035-.518-.305-.576.182-.264,1.023.208.965.224-.028-.184-.369-.009-.488l.234.201Z"/>
  <path d="M178.298,56.251c.109.194.169.063.286-.036.183-.156.311-.416.573-.527l.109.291.438-.196-.152-.259-.25.181-.145-.269c-.255-.077-.928.527-.859.815Z"/>
  <path d="M148.391,78.183l-.114.756.287.101c.17-.384.782-.558.199-.933-.135-.086-.281-.047-.371.076Z"/>
  <path d="M184.158,62.099l-.459.653c.082.238.426.268.644.203.263-.078-.083-.251-.103-.394-.015-.106.371-.484-.082-.462Z"/>
  <path d="M157.116,71.236c-.025-.009-.5.023-.51.151l.185,1.175c.43-.204.071-.675-.016-.979l.54-.146c-.063-.069-.104-.165-.199-.202Z"/>
  <path d="M145.908,81.105c.151.349-.237.935.459.506-.104-.245-.074-.471.092-.686-.222-.384-.52-.227-.551.179Z"/>
  <path d="M189.972,65.81c.38-.27.451-.417.341-.866l-.772.189.431.678Z"/>
  <path d="M179.474,53.038c-.496.057-.349-.501-.751-.506l-.007.699.441.209c.189-.091.335-.188.317-.402Z"/>
  <path d="M150.117,78.417l.112.153.837-.111-.324-.377-.246.171c-.03,0,.022-.485-.155-.506-.372-.044-.035.589-.224.67Z"/>
  <path d="M158.858,76.644l.128.153c.109-.21.251-.343.469-.46.264-.141,1.305-.112.791-.58-.469.364-1.076.294-1.389.887Z"/>
  <path d="M148.773,80.253c-.174.869.923.026,1.208.732.43-.273-.418-.374-.43-.669-.328.27-.451-.001-.779-.064Z"/>
  <path d="M188.228,66.549c-.057-.02-.403-.321-.556-.304-.037.004-.197.097-.131.153.419.239.84.608,1.381.547-.211-.517-.507-.331-.694-.396Z"/>
  <path d="M154.864,74.887c.101-.142.245-.24.389-.339.085-.356-1.074.167-.986.409l.261-.004c.096.789.198.129.337-.067Z"/>
  <path d="M183.725,57.824c.251-.235.878-.135.747-.539l-.345.062-.061-.389c-.202.056-.594.828-.341.866Z"/>
  <polygon points="191.159 67.809 191.145 67.415 190.501 67.165 190.788 68.069 191.159 67.809"/>
  <polygon points="183.5 63.941 184.181 63.322 183.989 63.09 183.239 63.389 183.5 63.941"/>
  <path d="M190.163,67.159c.022-.119-1.234-.627-1.258-.076-.011.239.537.031.629.04.109.01.566.376.629.037Z"/>
  <path d="M180.145,62.706c-.071.052-.149.414-.497.438.096.056.663-.031.706-.052.058-.029.431-.384.519-.471.126-.124.175-.058-.002-.242-.128.266-.652.272-.726.327Z"/>
  <path d="M166.646,63.168l-.322-.387c-.16.095-.665.42-.419.614.308.096.518-.027.741-.226Z"/>
  <path d="M182.132,68.553c-.266.091-.721.051-.679.406l.549.287-.008-.488.397.08-.26-.286Z"/>
  <path d="M163.996,73.155l.045-.325c-.128-.028-.273-.108-.397-.119-.307-.028-.564.073-.784.278.475.006.683-.083,1.136.165Z"/>
  <path d="M189.555,68.032l.47-.4c-.467-.38-1.446.226-.47.4Z"/>
  <path d="M179.603,60.697l-.094.579.094.536c.335-.169.139-.563.306-.841l-.305-.274Z"/>
  <path d="M189.709,62.043l-.227-.092-.307.347.616.419c.162-.228.003-.455-.083-.675Z"/>
  <path d="M161.737,72.44c-.367-.418-1.178.165-.619.452l.619-.452Z"/>
  <path d="M190.229,66.121l-.177.249c-.27-.213-.513-.179-.76.061.163.265.304-.034.63.039.138.031.281.123.382.217.278-.174.093-.398-.075-.565Z"/>
  <path d="M185.159,65.915c-.059.205.003.133.184.159.366-.159.096-.73-.23-.789-.04-.007-.307.05-.307.064.29.331.472.153.353.566Z"/>
  <path d="M144.387,80.648l.725.154c.332-.084-.393-.454-.326-.629l-.4.475Z"/>
  <path d="M178.214,53.517c.155-.12.138-1.18-.482-.509.057.101.288.659.482.509Z"/>
  <path d="M183.335,50.171c-.29-.338-.257-.749-.689-.987-.123.321.222.774.446.99.112.108.24.218.244-.003Z"/>
  <path d="M183.377,51.852c.007.054-.098.158-.115.229l.216.094.217-.606-.568-.131c-.038.149.228.255.25.414Z"/>
  <path d="M184.403,65.19c-.11-.082-.177-.239-.278-.339-.189.059-.349.447-.19.569l.741-.226c-.07-.153-.174.07-.272-.004Z"/>
</svg>