<?xml version="1.0" encoding="UTF-8"?>
<svg id="a" data-name="Layer 1 copy" xmlns="http://www.w3.org/2000/svg" width="3001" height="3001" viewBox="0 0 300.1 300.1">
  <path d="M249.009,141.014c-1.565-3.683-4.016-6.774-7.282-9.189l-1.865-1.378-18.468,24.986,3.771,2.595,15.453-20.907c2.101,1.912,3.648,4.244,4.602,6.936.992,2.8,1.287,5.709.877,8.647-.411,2.936-1.534,5.663-3.338,8.104-1.927,2.607-4.399,4.57-7.348,5.833-2.951,1.265-6.05,1.729-9.213,1.382-3.161-.347-6.103-1.512-8.744-3.464-2.607-1.927-4.567-4.385-5.827-7.305-1.259-2.921-1.724-6.021-1.382-9.213.343-3.19,1.494-6.13,3.42-8.736,1.901-2.572,4.389-4.537,7.396-5.841,2.888-1.283,5.971-1.745,9.164-1.374l.302.035.564-4.554-.313-.03c-1.961-.189-3.968-.141-5.964.144-2.002.286-3.895.823-5.62,1.595-3.695,1.583-6.793,4.042-9.207,7.308-1.506,2.037-2.631,4.225-3.372,6.536-1.106-1.066-2.333-1.964-3.451-2.682-.668-.429-1.062-.622-1.577-.917-6.97-3.994-15.625-6.124-24.905-7.703-8.403-1.429-16.167-1.907-25.992-1.907-.114,0-.229,0-.343,0-6.683.007-11.766.368-17.495,1.063-8.597,1.044-17.262,2.823-24.428,5.501-3.448,1.289-7.039,3.073-9.83,5.208-1.486,1.137-3.144,2.683-4.148,4.626-.233-.383-.455-.767-.704-1.148-1.077-1.652-2.295-3.289-3.648-4.884h3.209v-9.769h-12.057c5.453,4.29,5.957,6.631,5.957,6.631-2.598-2.597-5.358-4.818-8.163-6.631-10.168-6.577-20.909-7.803-26.496-2.216-5.222,5.222-4.492,14.945.994,24.496v14.353c0,.713.229,1.297.687,1.755s1.042.687,1.755.687h10.284c-6.104-4.561-9.738-12.251-9.738-12.251.619.831,1.273,1.655,1.962,2.468.908,1.071,1.875,2.124,2.902,3.151,2.597,2.597,5.358,4.818,8.163,6.632,10.168,6.576,20.909,7.802,26.496,2.215,3.064-3.064,4.064-7.683,3.271-12.902,1.354.966,2.79,1.79,4.299,2.556,8.809,4.469,20.514,6.812,31.69,7.923,5.495.546,11.191.807,17.642.807,6.635,0,12.288-.446,17.679-1.064,11.6-1.33,22.775-3.9,31.25-8.729,1.72-.979,3.336-2.117,4.748-3.511.234.738.495,1.471.806,2.193,1.579,3.666,4.052,6.761,7.351,9.2,3.267,2.415,6.941,3.85,10.921,4.266.831.087,1.657.13,2.479.13,3.112,0,6.151-.624,9.063-1.862,3.683-1.565,6.788-4.033,9.227-7.333,2.414-3.266,3.849-6.94,4.266-10.921.416-3.979-.167-7.862-1.731-11.542ZM86.002,140.28c1.509,1.589,2.876,3.228,4.092,4.884h-17.02v-4.884h12.928ZM55.979,145.165c-.713,0-1.297.255-1.755.763-.218.218-.383.459-.497.723-2.852-6.776-2.848-13.003.66-16.511,3.89-3.89,11.122-3.471,18.74.372h-7.378c-.713,0-1.297.255-1.755.763-.458.458-.687,1.019-.687,1.679v12.211h-7.327ZM94.204,169.959c-3.89,3.89-11.123,3.471-18.74-.372h19.087c-.112.126-.227.251-.347.372ZM95.054,168.962v-9.144h-31.749v-4.884h31.868c.153.218.312.431.479.636,1.805,5.346,1.731,10.191-.598,13.392ZM187.577,161.607c-.412.117-.827.233-1.248.345-4.729,1.26-10.174,2.248-16.185,2.937-6.251.716-11.554,1.036-17.194,1.036-6.269,0-11.902-.257-17.221-.786-5.89-.585-11.331-1.463-16.173-2.609-1.068-.252-2.105-.519-3.115-.797v-23.335c5.007-1.354,10.74-2.438,16.923-3.189,5.984-.727,10.905-1.026,16.986-1.033h.339c10.243,0,17.565.535,25.277,1.847,4.572.778,8.302,1.576,11.61,2.486v23.099Z"/>
</svg>