<?xml version="1.0" encoding="UTF-8"?>
<svg id="a" data-name="Layer 1 copy" xmlns="http://www.w3.org/2000/svg" width="3001" height="3001" viewBox="0 0 300.1 300.1">
  <g>
    <g>
      <path d="M160.521,207.295c-4.334,1.843-8.841,2.519-13.525,2.029-4.683-.49-8.947-2.156-12.79-4.997-3.883-2.87-6.753-6.462-8.611-10.776-1.857-4.313-2.541-8.811-2.051-13.495.49-4.683,2.17-8.967,5.041-12.85,2.841-3.843,6.435-6.696,10.784-8.559,2.035-.91,4.229-1.532,6.581-1.868,2.353-.334,4.685-.391,6.996-.168l-.58,4.679c-3.876-.451-7.567.104-11.071,1.66-3.643,1.579-6.619,3.93-8.927,7.052-2.338,3.163-3.714,6.68-4.131,10.551-.415,3.872.141,7.58,1.668,11.123,1.529,3.544,3.874,6.486,7.037,8.823,3.203,2.368,6.723,3.762,10.559,4.183,3.837.422,7.545-.135,11.123-1.668,3.58-1.533,6.537-3.881,8.875-7.045,2.19-2.962,3.533-6.225,4.032-9.789.498-3.563.145-7.043-1.059-10.44-1.204-3.397-3.158-6.281-5.863-8.652l-18.378,24.864-3.878-2.669,21.491-29.075,1.922,1.42c3.844,2.841,6.687,6.428,8.529,10.762,1.843,4.334,2.518,8.842,2.029,13.525-.491,4.684-2.156,8.947-4.996,12.79-2.871,3.884-6.473,6.747-10.806,8.589Z"/>
      <path d="M149.902,209.84c-.976,0-1.957-.052-2.944-.155-4.726-.494-9.09-2.199-12.969-5.066-3.918-2.896-6.855-6.571-8.729-10.925-1.874-4.351-2.573-8.953-2.078-13.677.494-4.727,2.214-9.11,5.11-13.029,2.866-3.878,6.545-6.797,10.933-8.677,2.049-.916,4.295-1.554,6.673-1.894,2.371-.337,4.754-.395,7.083-.17l.372.036-.67,5.408-.359-.042c-3.791-.44-7.452.108-10.881,1.632-3.571,1.548-6.525,3.881-8.782,6.936-2.288,3.095-3.654,6.585-4.062,10.374-.407,3.791.145,7.472,1.641,10.94,1.496,3.468,3.824,6.386,6.919,8.675,3.136,2.318,6.629,3.702,10.383,4.114,3.756.413,7.437-.139,10.94-1.641,3.501-1.5,6.437-3.83,8.726-6.926,2.143-2.899,3.476-6.137,3.964-9.623.487-3.489.137-6.944-1.041-10.269-1.133-3.197-2.97-5.966-5.465-8.236l-18.35,24.826-4.477-3.082,21.931-29.67,2.214,1.637c3.879,2.867,6.788,6.538,8.647,10.912,1.858,4.37,2.55,8.981,2.056,13.705-.495,4.728-2.199,9.091-5.066,12.969-2.896,3.918-6.583,6.848-10.956,8.707h0c-3.458,1.47-7.067,2.211-10.762,2.211ZM150.174,156.841c-1.386,0-2.782.099-4.173.297-2.31.33-4.492.949-6.484,1.84-4.273,1.831-7.851,4.671-10.64,8.443-2.818,3.813-4.491,8.076-4.972,12.672-.482,4.599.199,9.078,2.023,13.314,1.823,4.234,4.68,7.809,8.493,10.627,3.773,2.789,8.016,4.447,12.612,4.927,4.599.482,9.09-.192,13.345-2.002h0c4.252-1.808,7.838-4.658,10.656-8.47,2.788-3.772,4.446-8.015,4.927-12.612.481-4.6-.192-9.09-2.002-13.345-1.808-4.253-4.637-7.823-8.41-10.612l-1.629-1.204-21.051,28.48,3.278,2.257,18.404-24.899.297.261c2.74,2.401,4.747,5.363,5.966,8.804,1.218,3.436,1.58,7.007,1.076,10.612-.504,3.608-1.884,6.957-4.099,9.955-2.367,3.202-5.403,5.612-9.024,7.163-3.62,1.552-7.424,2.122-11.306,1.696-3.883-.426-7.495-1.857-10.736-4.252-3.2-2.365-5.607-5.384-7.155-8.971-1.546-3.585-2.116-7.389-1.696-11.306.422-3.919,1.835-7.529,4.2-10.729,2.335-3.159,5.388-5.572,9.075-7.17,3.439-1.528,7.105-2.108,10.899-1.727l.489-3.95c-.783-.065-1.572-.097-2.365-.097Z"/>
    </g>
    <path d="M136.539,135.039c.402-.562.689-1.263.859-2.106.17-.84.255-2.042.255-3.6v-23.445l18.294-15.63c2.414,1.61,5.084,2.816,8.009,3.621,2.925.806,6.106,1.208,9.541,1.208.773,0,1.347-.008,1.718-.024.371-.014.712-.022,1.021-.022l-12.907,14.114h9.983c-.527,1.177-1.323,2.856-2.391,5.038-1.068,2.183-1.85,3.801-2.345,4.853h-14.95l.047,25.487c.588.095,1.199.164,1.834.21.634.048,1.277.071,1.927.071,3.281,0,6.415-.686,9.402-2.058,2.987-1.372,6.106-3.553,9.356-6.546l.65.373c-2.848,5.871-6.361,10.173-10.54,12.906-4.179,2.734-9.317,4.101-15.415,4.101-8.11,0-14.781-2.655-20.011-7.965-5.232-5.311-7.847-12.096-7.847-20.356,0-6.769,1.741-12.779,5.224-18.027,3.482-5.248,8.179-8.943,14.091-11.086l.186.371c-3.87,2.949-6.756,6.225-8.659,9.826-1.904,3.602-2.855,7.576-2.855,11.921,0,3.229.471,6.279,1.416,9.152.944,2.871,2.314,5.41,4.109,7.614ZM151.443,144.157v-45.635l-3.993,3.25v17.693c0,3.367-.697,6.337-2.09,8.909s-3.823,5.308-7.289,8.207c1.733,1.965,3.722,3.577,5.966,4.84,2.244,1.264,4.713,2.175,7.406,2.736ZM153.625,116.397l10.772-11.793-10.772-4.271v16.064Z"/>
  </g>
  <path d="M211.17,159.835c.316-1.087.425-2.28.201-3.57-.687-3.963-4.261-6.916-7.131-8.759-.707-.454-1.122-.657-1.666-.969-7.365-4.221-16.51-6.471-26.316-8.139-8.879-1.51-17.083-2.015-27.465-2.015-.12,0-.242,0-.363,0-7.061.008-12.433.389-18.487,1.124-9.084,1.103-18.24,2.984-25.812,5.814-3.643,1.361-7.438,3.247-10.387,5.503-2.752,2.105-6.067,5.527-5.232,10.232.497,2.8,2.259,4.833,4.108,6.472,1.947,1.727,4.116,3.01,6.434,4.186,9.308,4.722,21.677,7.198,33.486,8.372,5.807.577,11.826.853,18.642.853,7.011,0,12.985-.471,18.681-1.124,12.258-1.405,24.066-4.121,33.021-9.224,2.195-1.25,4.253-2.72,5.93-4.651.965-1.111,1.888-2.49,2.357-4.103h0s0,0,0,0ZM169.349,173.34c-6.606.757-12.209,1.095-18.168,1.095-6.625,0-12.577-.272-18.197-.831-6.224-.619-11.974-1.546-17.09-2.757-1.129-.267-2.225-.548-3.292-.843v-24.658c5.291-1.431,11.349-2.577,17.882-3.37,6.324-.768,11.524-1.084,17.949-1.091h.358c10.823,0,18.561.565,26.71,1.951,4.832.822,8.773,1.665,12.269,2.627v24.409c-.435.124-.874.246-1.319.364-4.997,1.331-10.751,2.375-17.103,3.103Z"/>
</svg>