<?xml version="1.0" encoding="UTF-8"?>
<svg id="a" data-name="Layer 1 copy" xmlns="http://www.w3.org/2000/svg" width="3001" height="3001" viewBox="0 0 300.1 300.1">
  <path d="M129.977,125.742c15.081,10.586,11.575,27.665,9.199,35.289h26.553c2.017-7.206,6.348-18.104,24.214-28.48,12.544-7.286,33.418-12.875,60.912-13.648-30.82-6.898-57.672-15.729-76.874-23.182,17.102,14.874,16.861,23.168-.715,22.822-24.418-.479-43.374-6.24-75.066-15.951-14.218-4.357-29.806-10.673-41.821-16.839l12.595,17.075c17.522,6.421,50.226,15.355,61.002,22.915ZM172.271,129.469c-6.076,3.385-12.957,10.293-15.928,14.739-.561-5.855-5.538-13.514-11.179-17.72,11.958,2.613,18.536,3.287,27.107,2.98Z"/>
  <path d="M110.632,177.192l-4.608,5.558v-10.855h-12.479c-4.523,0-8.575,2.062-11.242,5.297l-30.802,37.156h17.469l23.37-28.168c1.756-2.088,4.388-3.419,7.324-3.419h6.352l-26.192,31.587h17.482l23.371-28.167c1.754-2.089,4.376-3.42,7.332-3.42h6.165l-26.084,31.588h18.749c4.373,0,7.883-3.543,7.883-7.911v-34.542h-12.839c-4.528,0-8.572,2.062-11.25,5.297Z"/>
  <path d="M201.918,182.76v-10.865h-20.698c-4.523,0-8.575,2.062-11.242,5.297l-4.196,5.062v-10.359h-26.606v10.895h26.162l-26.162,31.558h17.469l23.37-28.168c1.756-2.088,4.388-3.419,7.324-3.419h14.579Z"/>
  <path d="M226.57,193.141l-17.512,21.207h18.749c4.354,0,7.883-3.529,7.883-7.883v-15.389h-4.735c-1.697,0-3.305.757-4.386,2.066Z"/>
  <path d="M211.602,177.192l-30.809,37.155h17.481l23.372-28.167c.617-.735,1.347-1.37,2.156-1.893,1.49-.962,3.26-1.527,5.175-1.527h6.713v-10.865h-12.839c-4.528,0-8.572,2.062-11.25,5.297Z"/>
  <path d="M244.191,210.323h1.621v.357c0,.744-.632,1.279-1.636,1.279-1.115,0-1.889-.833-1.889-2.127,0-1.405.751-2.201,1.882-2.201.632,0,1.361.246,1.562,1.167l.669-.089c-.171-.826-.766-1.666-2.231-1.666-1.451,0-2.588.96-2.588,2.796,0,1.777,1.242,2.722,2.581,2.722,1.368,0,2.275-.766,2.306-1.852v-.997h-2.276v.61Z"/>
  <path d="M247.249,206.559c-.414-.406-.896-.724-1.448-.955s-1.14-.347-1.765-.347-1.215.115-1.771.347c-.556.231-1.043.549-1.46.955-.418.406-.749.885-.992,1.436-.243.552-.365,1.148-.365,1.789,0,.657.122,1.264.365,1.819.244.556.574,1.039.992,1.448.417.41.905.729,1.46.955.555.228,1.146.341,1.771.341s1.213-.113,1.765-.341c.552-.227,1.035-.545,1.448-.955.414-.409.742-.892.985-1.448.244-.555.365-1.162.365-1.819,0-.641-.122-1.237-.365-1.789-.243-.551-.572-1.03-.985-1.436ZM247.486,211.336c-.191.475-.454.887-.791,1.235-.337.349-.732.623-1.187.821-.455.199-.945.298-1.473.298-.535,0-1.032-.099-1.491-.298-.458-.198-.856-.472-1.193-.821-.336-.349-.601-.761-.791-1.235s-.286-.992-.286-1.552c0-.543.096-1.05.286-1.521s.455-.878.791-1.223.734-.617,1.193-.815.956-.298,1.491-.298c.527,0,1.018.1,1.473.298.454.199.85.471,1.187.815s.6.752.791,1.223c.19.471.286.978.286,1.521,0,.56-.096,1.077-.286,1.552Z"/>
</svg>