<?xml version="1.0" encoding="UTF-8"?>
<svg id="a" data-name="Layer 1 copy" xmlns="http://www.w3.org/2000/svg" width="3001" height="3001" viewBox="0 0 300.1 300.1">
  <path d="M137.543,159.395l-1.915-3.284-9.832.012,4.298,7.371c-.979,1.495-1.526,3.294-1.469,5.216.039,1.332.379,2.58.929,3.703l-1.535-.497c-1.818-.588-3.768.408-4.356,2.226l-.009.028-.517,1.597-.245-.079-3.046-.986c-1.818-.588-3.768.409-4.356,2.227l-1.104,3.413-1.885,5.826c-.317.978-.174,1.994.309,2.816.169.288.379.552.626.782.344.32.759.575,1.23.737.02.007.04.015.061.021.016.005.033.01.049.015,1.804.555,3.725-.439,4.308-2.241l.161-.498,1.949.631,1.343.435c.694.225,1.407.217,2.057.022,1.052-.316,1.936-1.125,2.3-2.249l.564-1.743c1.003-3.1,4.329-4.8,7.429-3.797l.97.314,3.291,1.065h0s3.291,1.065,3.291,1.065l4.058-12.54.003-.01c.152-.469.194-.946.148-1.407.058-.46.084-.931.07-1.409-.146-4.949-4.239-8.853-9.173-8.782ZM139.912,168.872l-.468,1.444-.498-.161-2.793-.904c-.525-.169-1.06-.2-1.57-.124v-1.095s1.805-1.811,1.805-1.811l2.558-.003,1.563,1.559c-.253.317-.462.677-.594,1.085l-.003.01Z"/>
  <path d="M49.745,148.895h46.228l2.287-.003,1.933-.002h.061s3.104-.004,3.104-.004l6.277,6.262.389.389c.434.433,1.022.676,1.635.675h1.32s.003-.001.005-.001l7.332-.009h1.254c1.276-.003,2.31-1.039,2.308-2.315h0s-.01-8.144-.01-8.144c0-.375-.062-.735-.173-1.073-.454-1.383-1.756-2.381-3.291-2.379-.021,0-.042.001-.063.002-.281.005-.554.043-.815.112-1.485.391-2.579,1.743-2.577,3.35l.004,3.532h0s-3.395.004-3.395.004h0l-.124-.124h0l-7.126-7.109,1.58-1.584,6.594,6.578h.229v-1.295c-.003-1.486.572-2.865,1.534-3.896h.001s0-.001,0-.001c-.294-.122-.576-.268-.843-.436-.007-.004-.014-.009-.022-.013-.087-.055-.172-.112-.256-.171-.002-.002-.004-.003-.007-.005-.066-.048-.133-.094-.196-.146-.024-.02-.048-.038-.072-.057-.076-.062-.151-.124-.223-.189-.004-.003-.008-.007-.012-.011-.067-.06-.131-.122-.195-.185-.017-.017-.034-.034-.051-.05-.067-.068-.132-.136-.196-.207-.004-.002-.007-.005-.011-.008-.152-.171-.295-.353-.427-.543-.661-.954-1.011-2.073-1.013-3.235l-.002-1.483c-.089-.027-.177-.058-.264-.09,0,0,0-.001,0-.002-1.661-.615-2.961-1.983-3.48-3.689-.005-.016-.01-.032-.015-.048-.186-.499-.289-1.038-.29-1.601,0,0,0,0,0-.001,0-.846.197-1.47.368-1.852,0,0,0-.002.001-.003.051-.147.107-.291.169-.432.001-.003.003-.007.004-.011,0-.002.002-.004.003-.006.462-1.043,1.228-1.922,2.185-2.525.029-.018.057-.036.086-.053.038-.022.075-.045.113-.067.069-.04.138-.078.208-.114.017-.009.035-.017.052-.026.065-.034.174-.085.241-.115.001,0,.003-.001.005-.002.443-.199.916-.342,1.41-.422h0c.097-.016.195-.029.293-.04.007,0,.013,0,.02-.002.083-.009.167-.015.251-.02.021-.001.043-.003.064-.004.091-.004.183-.008.275-.008l2.468-.003-2.101-3.604c.984-1.498,1.535-3.301,1.478-5.229-.113-3.822-2.578-7.02-5.968-8.247l.008,6.365v1.279s.003,1.279.003,1.279l-1.807,1.811-2.558.003-1.811-1.807v-1.279s-.003-1.279-.003-1.279l-.008-6.364c-3.566,1.298-6.065,4.769-5.947,8.771.146,4.944,4.23,8.844,9.157,8.782l1.706,2.926-3.585.004c-1.75.002-3.386.862-4.38,2.302l-1.325,1.92h0l-73.616.003v3.446h61.586l2.095,3.512h-50.904v3.445h52.886v-.125l2.119,3.552h-44.172v3.446Z"/>
  <path d="M111.844,127.387c-.221.25-.407.531-.55.837-.198.426-.312.899-.321,1.398,0,.021-.001.042-.001.064,0,.017,0,.034.001.051.03,1.887,1.569,3.407,3.462,3.404h.523s.002,2.047.002,2.047l.002,1.412c0,.729.228,1.405.614,1.963.625.903,1.668,1.494,2.849,1.492l1.832-.002c3.258-.004,5.903,2.634,5.906,5.892v1.02s.005,3.459.005,3.459h0s.004,3.46.004,3.46l13.18-.016h.01c.493,0,.96-.108,1.384-.294.456-.087.911-.208,1.361-.369,4.662-1.667,7.109-6.767,5.518-11.438l2.531-2.836-3.049-9.347-5.682,6.365c-1.724-.469-3.604-.433-5.414.214-1.255.449-2.336,1.158-3.235,2.028l-.002-1.613c-.002-1.911-1.553-3.458-3.464-3.455h-.029l-1.679.002v-.258s-.004-3.202-.004-3.202c-.002-1.911-1.553-3.458-3.464-3.455l-3.587.004-6.123.007c-1.028.001-1.95.451-2.583,1.164ZM140.779,142.779l.793,2.432-1,1.968c-.38-.143-.786-.23-1.216-.229h-1.528s0-.522,0-.522l-.003-2.936c0-.551-.137-1.069-.367-1.532l1.041-.339,2.281,1.159Z"/>
  <polygon points="108.737 129.576 108.736 129.583 108.736 129.582 108.737 129.576"/>
  <path d="M133.759,53.957l-3.277,1.064,14.285,43.965.709,2.174.599,1.837.019.058.963,2.951-4.016,7.905-.249.491c-.278.546-.327,1.181-.137,1.763l.409,1.255v.004s2.276,6.971,2.276,6.971v.004s.389,1.188.389,1.188c.396,1.213,1.7,1.876,2.914,1.48h0l7.742-2.526c.356-.117.68-.286.967-.496,1.175-.859,1.722-2.406,1.246-3.865-.007-.02-.015-.039-.021-.059-.092-.266-.212-.514-.358-.741-.83-1.291-2.454-1.914-3.982-1.416l-3.358,1.096h0l-1.053-3.227h0s.08-.157.08-.157h0l4.559-8.974,1.995,1.014-4.219,8.304.071.218,1.231-.401c1.413-.461,2.902-.34,4.18.256,0,0,.001,0,.002,0h0c.025-.317.077-.63.153-.937.002-.008.004-.016.006-.024.025-.1.053-.199.084-.296,0-.002.002-.005.002-.008.025-.078.049-.156.079-.231.011-.029.021-.058.032-.086.035-.091.071-.182.111-.271.002-.005.005-.01.007-.015.036-.082.075-.163.115-.243.01-.021.021-.042.032-.064.044-.084.089-.167.136-.25.001-.004.003-.009.004-.013.116-.198.244-.39.385-.575.703-.924,1.659-1.602,2.764-1.962l1.41-.46c0-.093,0-.186.004-.279h.003c.071-1.77.971-3.429,2.433-4.449.014-.01.027-.02.042-.029.417-.331.897-.596,1.432-.771,0,0,0,0,.002,0h0c.805-.261,1.458-.267,1.875-.222h.003c.156.003.31.012.463.027.004,0,.008,0,.011,0,.002,0,.005,0,.007,0,1.135.117,2.208.574,3.077,1.298.026.021.052.043.077.065.033.029.066.057.099.087.059.053.116.107.173.163.014.013.027.027.041.041.052.052.135.14.184.194.001.001.002.003.003.004.326.36.609.766.837,1.211h0c.045.088.088.176.128.267.003.006.005.013.008.019.034.077.066.154.097.232.008.02.016.04.023.06.032.085.063.172.092.259l.765,2.346,2.778-3.112c1.729.473,3.614.439,5.429-.21,3.6-1.288,5.88-4.622,5.999-8.224l-6.051,1.974-1.216.396-1.216.397-2.281-1.159-.793-2.432,1.159-2.281,1.216-.396,1.216-.396,6.05-1.974c-2.337-2.991-6.41-4.294-10.179-2.946-4.657,1.666-7.104,6.756-5.523,11.422l-2.256,2.527-1.112-3.409c-.543-1.663-1.867-2.954-3.543-3.454l-2.236-.667h0l-22.752-70.012-3.277,1.065,19.031,58.572-2.692,3.078-15.73-48.413-3.277,1.065,16.343,50.297.119-.039-2.723,3.113-13.65-42.01Z"/>
  <polygon points="167.079 105.159 167.08 105.159 167.086 105.157 167.079 105.159"/>
  <path d="M156.903,126.791l-.969.316-3.289,1.073h0s-3.289,1.073-3.289,1.073l4.088,12.53.003.009c.153.469.399.88.708,1.226.223.407.479.802.772,1.181,3.027,3.918,8.633,4.67,12.583,1.713l3.48,1.531,7.947-5.788-7.81-3.437c-.087-1.785-.702-3.562-1.877-5.083-.815-1.054-1.823-1.864-2.929-2.45l1.534-.5c1.816-.593,2.808-2.545,2.216-4.362l-.009-.028-.521-1.596.245-.08,3.044-.993c1.816-.593,2.808-2.545,2.216-4.362l-1.113-3.411-1.899-5.821c-.319-.978-1.032-1.715-1.905-2.097-.306-.134-.631-.223-.966-.264-.467-.057-.952-.019-1.429.127-.021.006-.041.012-.062.018-.016.005-.032.012-.048.017-1.786.611-2.755,2.545-2.168,4.345l.162.497-1.947.635-1.342.438c-.694.226-1.266.651-1.677,1.191-.665.874-.905,2.048-.539,3.171l.568,1.742c1.01,3.098-.681,6.428-3.779,7.438ZM160.048,138.031l2.791-.911c.525-.171.975-.46,1.344-.822l.645.885-.397,2.527-2.068,1.506-2.181-.343c.018-.405-.024-.819-.157-1.227l-.003-.01-.471-1.443.498-.163Z"/>
  <path d="M183.319,138.371l-1.01.736c-1.031.751-1.259,2.197-.507,3.228h0s4.794,6.583,4.794,6.583c.221.302.482.558.771.766,1.18.852,2.82.895,4.061-.009.017-.013.033-.026.05-.039.224-.17.423-.361.594-.57.971-1.188,1.062-2.926.116-4.225l-2.08-2.855h0l2.744-1.999h0l.174.027h0l9.944,1.563-.347,2.21-9.201-1.446-.186.135.762,1.047c.875,1.201,1.22,2.655,1.048,4.054,0,0,0,.001,0,.002h0c.31-.075.624-.122.938-.144.009,0,.017-.001.026-.002.103-.007.205-.011.308-.012h.008c.082,0,.163-.002.245.003.031.002.062.003.092.004.097.005.195.012.292.021.005,0,.011.001.016.002.089.009.178.021.266.035.024.003.047.007.071.011.094.016.187.032.28.053.004,0,.009,0,.013,0,.224.049.446.112.666.188,1.096.383,2.036,1.083,2.721,2.022l.873,1.199c.088-.03.177-.057.267-.082,0,0,0,.001,0,.002,1.706-.479,3.561-.136,4.984.939.013.01.027.02.041.03.444.294.844.669,1.175,1.125,0,0,0,0,0,.001.497.685.704,1.305.791,1.714,0,0,0,.002,0,.003.045.149.084.298.117.449,0,.003.002.007.003.011,0,.002,0,.005.001.007.239,1.115.136,2.277-.283,3.327-.013.032-.025.063-.039.094-.017.041-.034.081-.052.121-.032.072-.066.144-.101.214-.009.017-.018.034-.027.051-.033.066-.091.171-.127.235,0,.001-.002.003-.003.004-.242.421-.54.815-.893,1.17,0,0,0,0,0,0-.069.069-.14.138-.214.204l-.015.013c-.062.056-.126.11-.191.164l-.05.041c-.071.057-.144.113-.218.167l-1.995,1.453,3.818,1.68c.084,1.79.699,3.573,1.878,5.099,2.337,3.026,6.212,4.164,9.675,3.164l-3.747-5.145-.753-1.034-.753-1.034.397-2.527,2.068-1.506,2.527.397.753,1.034.753,1.034,3.747,5.145c2.122-3.147,2.104-7.423-.344-10.591-3.024-3.915-8.621-4.669-12.57-1.723l-3.101-1.364,2.898-2.111c1.414-1.03,2.233-2.688,2.19-4.438l-.056-2.333h0l59.555-43.273-2.025-2.788-49.824,36.2-3.759-1.609,41.182-29.921-2.025-2.788-42.786,31.085.073.101-3.802-1.628,35.736-25.963-2.025-2.788-37.399,27.172-1.849,1.346-1.562,1.138-.049.036-2.509,1.827-8.76-1.376-.543-.085c-.605-.095-1.224.054-1.719.415l-1.067.777s-.003.001-.004.002l-5.927,4.317-.004.003Z"/>
  <polygon points="208.337 153.098 208.341 153.104 208.337 153.099 208.337 153.098"/>
  <path d="M196.087,210.996l41.183,29.921,2.025-2.788-42.785-31.085-.073.101.373-4.119,35.736,25.963,2.025-2.788-37.399-27.172-1.852-1.342-1.565-1.134-.049-.036-2.513-1.822-1.398-8.756-.087-.543c-.097-.605-.43-1.147-.926-1.507l-1.069-.774s-.002-.002-.004-.003l-5.937-4.303s-.003-.002-.004-.002l-1.012-.733c-1.033-.749-2.479-.519-3.227.515h0l-4.779,6.594c-.219.304-.382.631-.491.969-.446,1.386.021,2.959,1.264,3.859.017.013.035.023.052.035.231.161.474.291.726.389,1.431.557,3.111.106,4.054-1.195l2.073-2.86h0l2.749,1.992h0s0,0,0,0l.028.173h0l1.586,9.94-2.21.353-1.468-9.198-.186-.135-.76,1.048c-.872,1.203-2.148,1.981-3.532,2.25h-.002,0c.166.272.308.556.426.848.003.008.006.016.01.023.038.096.073.192.106.289,0,.002.002.005.002.008.026.078.052.155.073.233.008.03.017.06.024.089.026.094.049.189.07.284,0,.005.002.011.003.016.019.087.035.176.049.264.004.024.008.047.011.071.014.094.027.188.037.282.001.004.003.009.004.013.022.228.031.459.026.691-.026,1.161-.4,2.271-1.082,3.212l-.87,1.201c.055.075.109.151.16.228h-.002c.983,1.476,1.229,3.346.647,5.031-.005.016-.01.032-.016.048-.143.513-.376,1.009-.706,1.465,0,0,0,0,0,0h0c-.498.684-1.023,1.073-1.386,1.282h-.003c-.127.091-.258.174-.391.252-.003.002-.007.004-.01.006-.002.001-.004.002-.006.003-.987.572-2.124.833-3.252.759-.034-.002-.068-.005-.102-.008-.043-.003-.087-.007-.13-.012-.079-.008-.157-.018-.236-.03-.019-.003-.038-.007-.057-.01-.073-.011-.191-.034-.263-.048-.002,0-.003,0-.005,0-.475-.1-.942-.262-1.389-.488h0c-.087-.044-.174-.091-.26-.14l-.018-.01c-.072-.042-.144-.085-.215-.131-.018-.012-.036-.023-.054-.035-.076-.05-.152-.102-.227-.156l-1.998-1.448-.418,4.15c-1.676.633-3.182,1.769-4.269,3.361-2.156,3.158-2.04,7.195-.019,10.179l3.735-5.154.751-1.036.75-1.036,2.526-.403,2.071,1.501.403,2.526-.75,1.036-.75,1.036-3.735,5.153c3.649,1.046,7.71-.293,9.967-3.6,2.789-4.085,1.776-9.642-2.246-12.487l.34-3.37,2.903,2.104c1.417,1.027,3.247,1.292,4.897.712l2.201-.774h0l59.559,43.268,2.025-2.788-49.824-36.199.369-4.073Z"/>
  <polygon points="175.489 207.156 175.493 207.15 175.493 207.151 175.489 207.156"/>
  <path d="M177.291,175.652l.855-8.489c1.671-.634,3.171-1.768,4.254-3.356.751-1.1,1.21-2.31,1.425-3.542l.95,1.304c1.125,1.544,3.289,1.884,4.833.759l.023-.017,1.357-.988.152.208,1.885,2.588c1.125,1.544,3.289,1.885,4.833.76l2.9-2.112,4.949-3.605c.831-.605,1.313-1.512,1.406-2.46.032-.333.017-.669-.047-1.001-.09-.461-.276-.911-.562-1.319-.012-.018-.024-.036-.036-.053-.01-.014-.021-.027-.031-.041-1.133-1.509-3.271-1.834-4.802-.719l-.423.308-1.206-1.655-.831-1.141c-.429-.589-1.011-1.003-1.651-1.227-1.036-.363-2.228-.228-3.182.468l-1.481,1.079c-2.634,1.918-6.324,1.338-8.242-1.295l-.6-.824-2.037-2.796h0l-2.037-2.796-10.654,7.76-.008.005c-.402.293-.718.658-.952,1.062-.315.336-.612.696-.879,1.088-2.792,4.09-1.774,9.654,2.259,12.497l-.381,3.783,7.961,5.769ZM177.184,160.853l-2.526.403-2.072-1.501-.348-2.18c.391-.108.771-.276,1.119-.529l.008-.006,1.227-.894.308.423,1.729,2.373c.325.446.739.785,1.197,1.024l-.643.886Z"/>
  <path d="M141.73,185.728h0l-7.748-2.507c-.357-.115-.718-.168-1.074-.167-1.456.005-2.807.935-3.28,2.395-.007.02-.011.041-.018.061-.082.269-.13.541-.146.81-.087,1.533.86,2.991,2.389,3.486l3.361,1.088h0l-1.045,3.229h0l-.156.08h0l-8.963,4.58-1.018-1.993,8.294-4.239.071-.218-1.232-.398c-1.414-.458-2.548-1.431-3.231-2.665,0,0,0,0,0-.001h0c-.207.242-.433.465-.674.667-.007.005-.013.011-.02.016-.079.066-.16.129-.242.19-.002.002-.004.003-.006.005-.066.048-.131.098-.2.141-.026.017-.052.034-.077.051-.082.054-.165.105-.249.154-.005.002-.01.005-.015.008-.077.045-.156.087-.236.128-.021.011-.042.022-.064.033-.085.042-.17.084-.257.122-.003.003-.007.005-.01.008-.21.092-.427.172-.649.239-1.112.334-2.284.321-3.389-.037l-1.411-.457c-.054.076-.11.15-.167.223h-.002c-1.098,1.389-2.801,2.202-4.584,2.168-.017,0-.034,0-.051,0-.532.023-1.076-.045-1.612-.219,0,0,0,0-.001,0-.805-.262-1.337-.642-1.648-.922,0,0-.002-.001-.003-.002-.124-.093-.244-.191-.359-.294-.003-.002-.006-.004-.008-.007-.002-.001-.004-.003-.005-.005-.849-.762-1.449-1.762-1.726-2.858-.008-.033-.016-.066-.024-.099-.01-.043-.02-.085-.029-.128-.016-.078-.031-.155-.044-.233-.003-.019-.006-.038-.009-.057-.012-.073-.027-.192-.035-.265,0-.002,0-.003,0-.005-.052-.483-.042-.977.034-1.471h0c.015-.098.032-.195.053-.292.001-.007.003-.013.004-.02.017-.082.037-.163.058-.245.005-.021.01-.042.016-.062.024-.088.049-.176.078-.264l.76-2.348-4.077.885c-1.12-1.398-2.666-2.479-4.516-3.021-3.669-1.074-7.473.283-9.687,3.127l6.055,1.96,1.217.394,1.217.394,1.164,2.278-.788,2.434-2.278,1.164-1.217-.394-1.217-.394-6.055-1.959c.133,3.793,2.661,7.242,6.503,8.367,4.747,1.39,9.719-1.29,11.182-5.995l3.31-.719-1.104,3.411c-.539,1.665-.226,3.487.836,4.877l1.417,1.854h0l-22.745,70.015,3.277,1.064,19.031-58.572,3.987-.908-15.73,48.413,3.277,1.064,16.343-50.297-.119-.039,4.033-.918-13.65,42.01,3.277,1.064,14.285-43.965.704-2.176.595-1.838.019-.058.956-2.954,7.896-4.035.49-.25c.546-.279.958-.763,1.147-1.346l.406-1.256v-.004s2.259-6.977,2.259-6.977v-.004s.386-1.189.386-1.189c.393-1.214-.273-2.517-1.487-2.91Z"/>
  <polygon points="113.937 192.618 113.93 192.615 113.936 192.618 113.937 192.618"/>
  <path d="M161.093,186.066l-.938,1.294c-1.121,1.547-.776,3.71.771,4.831l.024.017,1.36.985-.151.208-1.879,2.593c-1.121,1.547-.776,3.71.771,4.831l2.905,2.105,4.958,3.593c.833.604,1.843.781,2.774.577.326-.072.642-.19.937-.354.411-.228.781-.544,1.081-.942.013-.018.026-.034.039-.051.01-.014.019-.028.029-.042,1.085-1.544.733-3.678-.8-4.79l-.423-.307,1.202-1.658.828-1.143c.428-.591.642-1.271.657-1.949.025-1.098-.472-2.189-1.428-2.882l-1.483-1.075c-2.638-1.912-3.227-5.601-1.315-8.239l.598-.825,2.03-2.801h0l2.03-2.801-10.673-7.734-.008-.006c-.403-.292-.847-.479-1.304-.577-.417-.195-.851-.367-1.307-.5-4.752-1.391-9.729,1.296-11.187,6.01l-3.715.807-3.027,9.354,8.338-1.81c1.119,1.393,2.661,2.469,4.506,3.009,1.275.373,2.565.447,3.801.272ZM157.326,177.641l.788-2.434,1.966-1.005c.223.339.501.649.849.901l.008.006,1.229.891-.307.424-1.723,2.377c-.324.447-.518.946-.604,1.455l-1.042-.337-1.164-2.278Z"/>
</svg>