<?xml version="1.0" encoding="UTF-8"?>
<svg id="a" data-name="Layer 1 copy" xmlns="http://www.w3.org/2000/svg" width="3001" height="3001" viewBox="0 0 300.1 300.1">
  <g id="b" data-name="&amp;lt;Radial Repeat&amp;gt;">
    <path d="M113.986,102.195s0,0,0,0v-.008s0,.005,0,.007ZM91.015,108.189l2.29,3.838h-55.638s0,3.766,0,3.766h57.803s0-.137,0-.137l2.316,3.882h-48.279s0,3.766,0,3.766h50.526s2.5-.003,2.5-.003l2.112-.003h.066s3.393-.004,3.393-.004l6.861,6.845.426.425c.474.473,1.117.738,1.787.738l1.443-.002s.003,0,.005,0l8.014-.01s.003,0,.005,0l1.366-.002c1.395-.002,2.524-1.134,2.523-2.529h0s-.011-8.901-.011-8.901c0-.41-.068-.803-.189-1.173-.496-1.512-1.919-2.603-3.597-2.601-.023,0-.046.002-.069.002-.307.006-.606.047-.891.122-1.623.427-2.819,1.905-2.817,3.661l.005,3.861h0s-3.71.005-3.71.005h0s0,0,0,0l-.136-.136h0s-7.789-7.77-7.789-7.77l1.728-1.732,7.207,7.19h.251s-.002-1.415-.002-1.415c-.002-1.624.626-3.132,1.678-4.258,0,0,0-.001.001-.002,0,0,0,0,0,0-.322-.133-.629-.293-.921-.476-.008-.005-.016-.01-.024-.015-.095-.06-.188-.122-.28-.187-.002-.002-.005-.003-.007-.005-.072-.052-.146-.103-.214-.16-.026-.021-.053-.042-.079-.063-.083-.067-.165-.135-.244-.206-.004-.004-.009-.008-.013-.012-.073-.065-.144-.133-.213-.202-.019-.018-.037-.037-.056-.055-.073-.074-.145-.149-.214-.226-.004-.003-.008-.006-.012-.008-.167-.187-.323-.385-.467-.594-.723-1.043-1.105-2.266-1.107-3.536l-.002-1.621c-.097-.03-.193-.064-.288-.099,0,0,0-.002,0-.003-1.816-.672-3.236-2.168-3.803-4.032-.005-.018-.011-.035-.016-.053-.203-.545-.316-1.134-.317-1.749,0,0,0-.001,0-.002h0c0-.925.216-1.606.402-2.024v-.003c.057-.161.118-.318.186-.472.002-.004.003-.008.005-.011.001-.002.002-.005.003-.007.505-1.14,1.342-2.101,2.388-2.76.031-.02.063-.039.095-.058.041-.025.082-.049.123-.073.075-.043.151-.085.228-.125.019-.01.038-.019.057-.028.071-.037.191-.093.264-.126.002,0,.003-.001.005-.002.484-.217,1.001-.374,1.541-.461,0,0,0,0,0,0,.106-.017.213-.032.32-.043.007,0,.015-.001.022-.002.091-.009.182-.017.274-.022.023-.001.047-.003.07-.004.1-.005.2-.008.301-.008l2.697-.003-2.297-3.939c1.076-1.637,1.677-3.608,1.615-5.715-.123-4.177-2.818-7.673-6.523-9.013l.008,6.957.002,1.398.002,1.398-1.975,1.979-2.796.003-1.979-1.975-.002-1.398-.002-1.398-.008-6.956c-3.898,1.419-6.629,5.213-6.5,9.586.159,5.404,4.624,9.667,10.008,9.599l1.865,3.198-3.919.005c-1.912.002-3.701.943-4.788,2.516h0s-1.449,2.099-1.449,2.099l-.811,1.175.781.083.792-1.257-81.224.004v3.766s67.313,0,67.313,0ZM117.674,96.619c-.015.007-.029.013-.044.02M117.121,96.9c-.041.024-.082.048-.123.073M117.398,96.751c-.016.008-.033.016-.049.024M119.903,96.086c-.023.001-.047.003-.07.004M119.216,96.157s0,0,0,0M119.537,96.114c.007,0,.015-.001.022-.002M145.471,134.78l-2.093-3.59-10.746.013,4.698,8.056c-1.07,1.634-1.668,3.6-1.606,5.701.123,4.177,2.818,7.673,6.523,9.013l-.008-6.957-.002-1.398-.002-1.398,1.975-1.979,2.796-.003,1.979,1.975.002,1.398.002,1.398.008,6.956c3.898-1.419,6.629-5.213,6.5-9.586-.159-5.41-4.633-9.676-10.026-9.598ZM117.383,99.795c-.242.273-.445.581-.601.915-.217.466-.341.983-.351,1.528,0,.023-.002.047-.002.07,0,.019.001.037.001.056.032,2.063,1.715,3.724,3.784,3.721h.571s.003,2.238.003,2.238l.002,1.542c0,.797.249,1.536.671,2.146.683.987,1.823,1.632,3.114,1.631l2.003-.002c3.561-.004,6.452,2.879,6.456,6.44v1.114s.006,3.781.006,3.781h0s.005,3.781.005,3.781l14.406-.017h.011c2.088-.003,3.779-1.697,3.777-3.786s-1.697-3.779-3.786-3.777h-.011s-1.659.002-1.659.002v-.572s-.005-3.209-.005-3.209c-.002-1.721-1.154-3.171-2.728-3.627-.336-.097-.691-.15-1.058-.15l-1.726.002v-.904s-.005-2.877-.005-2.877c-.002-2.088-1.697-3.779-3.786-3.777h-.032s-1.835.002-1.835.002v-.282s-.005-3.5-.005-3.5c-.002-2.088-1.697-3.779-3.786-3.777l-3.921.005-6.692.008c-1.124.001-2.132.493-2.823,1.272Z"/>
  </g>
  <g id="c" data-name="&amp;lt;Radial Repeat&amp;gt;">
    <path d="M189.647,110.988s0,0,0,0l.008-.002s-.005.001-.007.002ZM176.849,90.994l-2.943,3.364-17.193-52.915-3.582,1.164,17.862,54.974.13-.042-2.976,3.403-14.919-45.916-3.582,1.164,15.613,48.053.775,2.376.655,2.008.021.063,1.052,3.226-4.389,8.64-.272.536c-.303.597-.357,1.29-.149,1.927l.447,1.372s0,.003.002.005l2.486,7.619s.001.003.002.005l.424,1.298c.433,1.326,1.858,2.05,3.185,1.618h0s8.462-2.761,8.462-2.761c.389-.127.743-.313,1.057-.542,1.284-.939,1.882-2.63,1.362-4.224-.007-.022-.016-.043-.023-.065-.101-.29-.232-.562-.392-.81-.907-1.411-2.682-2.092-4.352-1.547l-3.671,1.197h0s-1.151-3.527-1.151-3.527h0s0,0,0,0l.087-.171h0s4.983-9.808,4.983-9.808l2.181,1.108-4.611,9.076.078.239,1.345-.439c1.544-.504,3.172-.372,4.569.28,0,0,.001,0,.002,0,0,0,0,0,0,0,.027-.347.084-.689.168-1.023.002-.009.004-.018.007-.027.028-.109.058-.217.092-.324,0-.003.002-.005.003-.008.027-.085.053-.17.086-.253.012-.031.024-.063.035-.094.038-.1.078-.198.121-.296.002-.006.005-.011.008-.016.04-.089.082-.178.126-.265.012-.023.024-.047.036-.07.048-.092.097-.183.149-.273.001-.005.003-.009.004-.014.127-.216.267-.426.421-.628.769-1.009,1.813-1.751,3.021-2.145l1.541-.503c-.001-.102,0-.203.005-.305,0,0,.002,0,.003,0,.078-1.935,1.062-3.748,2.659-4.863.015-.011.03-.022.045-.032.456-.362.981-.651,1.566-.842,0,0,.001,0,.002,0h0c.88-.285,1.594-.291,2.049-.243h.004c.17.003.339.013.506.03.004,0,.008,0,.012,0,.003,0,.005,0,.008,0,1.24.128,2.413.627,3.363,1.419.028.024.057.048.085.072.036.031.072.063.108.095.064.058.127.117.189.178.015.015.029.03.044.045.057.057.147.152.201.212.001.001.002.003.004.004.356.394.665.837.915,1.323,0,0,0,0,0,0,.049.095.096.192.14.291.003.007.006.014.009.02.037.083.072.168.106.254.009.022.017.044.026.065.035.093.07.187.101.283l.837,2.564,3.036-3.401c1.889.517,3.95.48,5.934-.23,3.935-1.408,6.426-5.051,6.557-8.989l-6.614,2.158-1.329.434-1.329.434-2.493-1.266-.867-2.658,1.266-2.493,1.329-.434,1.329-.434,6.613-2.157c-2.554-3.269-7.006-4.694-11.126-3.22-5.09,1.821-7.765,7.384-6.036,12.485l-2.465,2.762-1.215-3.726c-.593-1.818-2.04-3.229-3.873-3.776h0s-2.444-.729-2.444-.729l-1.368-.408.163.768,1.44.364-25.103-77.247-3.582,1.164,20.801,64.018ZM196.091,112.773c-.011-.012-.022-.024-.033-.036M195.652,112.334c-.035-.032-.071-.063-.108-.095M195.88,112.551c-.013-.013-.025-.026-.038-.039M197.287,114.727c-.008-.022-.017-.044-.026-.065M197.006,114.097s0,0,0,0M197.146,114.388c.003.007.006.014.009.02M168.387,151.001l2.767-3.1-3.333-10.216-6.21,6.957c-1.885-.512-3.939-.474-5.918.234-3.935,1.408-6.426,5.051-6.557,8.989l6.614-2.158,1.329-.434,1.329-.434,2.493,1.266.867,2.658-1.266,2.493-1.329.434-1.329.434-6.613,2.157c2.554,3.269,7.006,4.694,11.126,3.22,5.096-1.823,7.771-7.396,6.031-12.501ZM192.98,113.477c-.334-.146-.69-.244-1.056-.289-.51-.062-1.04-.021-1.562.139-.022.007-.045.013-.067.02-.018.006-.035.013-.052.019-1.952.668-3.011,2.781-2.37,4.749l.177.543-2.128.694-1.466.478c-.758.247-1.384.712-1.833,1.302-.727.955-.989,2.239-.589,3.466l.621,1.904c1.105,3.386-.745,7.025-4.13,8.13l-1.059.346-3.594,1.173h0s-3.595,1.173-3.595,1.173l4.468,13.696.003.01c.648,1.985,2.782,3.07,4.767,2.422s3.07-2.782,2.422-4.767l-.003-.011-.515-1.577.544-.178,3.051-.995c1.636-.534,2.659-2.077,2.606-3.715-.011-.349-.071-.703-.184-1.052l-.535-1.641.86-.28,2.735-.892c1.985-.648,3.07-2.782,2.422-4.767l-.01-.03-.569-1.745.268-.087,3.327-1.085c1.985-.648,3.07-2.782,2.422-4.767l-1.216-3.728-2.076-6.362c-.349-1.068-1.128-1.875-2.082-2.292Z"/>
  </g>
  <g id="d" data-name="&amp;lt;Radial Repeat&amp;gt;">
    <path d="M204.666,185.664s0,0,0,0l.005.007s-.003-.004-.004-.006ZM219.727,167.313l-4.109-1.759,45.012-32.703-2.214-3.047-46.764,33.976.08.11-4.156-1.779,39.058-28.378-2.214-3.047-40.876,29.699-2.021,1.472-1.707,1.244-.054.039-2.743,1.998-9.574-1.505-.594-.093c-.662-.104-1.338.059-1.879.454l-1.166.849s-.003.002-.004.003l-6.478,4.718s-.003.002-.004.003l-1.104.804c-1.128.821-1.376,2.401-.555,3.529h0s5.24,7.195,5.24,7.195c.241.331.527.61.842.838,1.29.931,3.083.978,4.438-.01.019-.014.036-.028.054-.042.245-.185.463-.394.649-.623,1.062-1.299,1.161-3.198.127-4.617l-2.273-3.121h0s2.999-2.184,2.999-2.184h0s0,0,0,0l.19.03h0s10.868,1.708,10.868,1.708l-.38,2.416-10.057-1.581-.203.148.833,1.144c.956,1.313,1.334,2.902,1.145,4.432,0,0,0,.001,0,.002,0,0,0,0,0,0,.338-.081.681-.133,1.025-.157.009,0,.019-.001.028-.002.112-.007.224-.012.336-.013.003,0,.006,0,.009,0,.089,0,.178-.002.267.003.034.002.067.003.101.005.106.005.213.013.319.023.006,0,.012.002.018.002.097.01.194.023.291.038.026.004.052.008.077.012.102.017.204.035.306.057.005,0,.01,0,.014,0,.245.054.488.122.727.206,1.198.419,2.226,1.183,2.974,2.21l.954,1.31c.096-.032.194-.062.291-.09,0,0,0,.002,0,.003,1.864-.524,3.892-.148,5.447,1.026.015.011.03.022.044.033.485.321.922.732,1.285,1.229,0,0,0,0,0,.001h0c.543.749.77,1.426.865,1.874v.004c.051.162.093.326.129.491,0,.004.002.008.003.012,0,.003,0,.005.002.008.262,1.219.149,2.489-.31,3.637-.014.034-.028.069-.042.103-.019.044-.037.088-.057.132-.035.079-.072.157-.111.235-.009.019-.02.037-.029.056-.036.072-.099.187-.139.257,0,.002-.002.003-.003.005-.264.46-.59.891-.976,1.279,0,0,0,0,0,0-.076.076-.153.151-.234.223-.005.005-.011.01-.017.015-.068.061-.137.121-.209.179-.018.015-.036.03-.054.045-.078.063-.157.124-.238.183l-2.18,1.588,4.173,1.837c.092,1.956.764,3.905,2.052,5.573,2.555,3.307,6.79,4.551,10.575,3.458l-4.096-5.623-.823-1.13-.823-1.13.434-2.762,2.26-1.646,2.762.434.823,1.13.823,1.13,4.095,5.623c2.319-3.439,2.299-8.114-.376-11.576-3.305-4.278-9.422-5.103-13.739-1.883l-3.389-1.491,3.168-2.307c1.546-1.126,2.44-2.938,2.394-4.85h0s-.062-2.549-.062-2.549l-.034-1.427-.681.392.098,1.482,65.709-47.745-2.214-3.047-54.457,39.566ZM204.96,192.343c.008-.014.016-.028.024-.042M205.242,191.791c.02-.044.038-.087.057-.132M205.106,192.074c.008-.016.017-.032.025-.048M203.47,194.084c.018-.015.036-.03.054-.045M203.983,193.623s0,0,0,0M203.75,193.846c-.005.005-.011.01-.017.015M160.041,177.809l3.803,1.674,8.686-6.327-8.536-3.756c-.095-1.951-.767-3.893-2.051-5.556-2.555-3.307-6.79-4.551-10.575-3.458l4.096,5.623.823,1.13.823,1.13-.434,2.762-2.26,1.646-2.762-.434-.823-1.13-.823-1.13-4.095-5.623c-2.319,3.439-2.299,8.113.376,11.576,3.308,4.283,9.436,5.105,13.753,1.872ZM203.328,189.602c.036-.363.019-.731-.052-1.094-.098-.504-.302-.996-.615-1.442-.013-.019-.026-.039-.04-.058-.011-.015-.023-.029-.034-.044-1.238-1.65-3.576-2.005-5.249-.786l-.462.336-1.318-1.809-.908-1.247c-.469-.645-1.105-1.096-1.804-1.341-1.133-.396-2.435-.249-3.478.511l-1.619,1.179c-2.879,2.097-6.912,1.463-9.008-1.416l-.656-.901-2.226-3.056h0s-2.226-3.057-2.226-3.057l-11.645,8.482-.009.006c-1.688,1.229-2.06,3.595-.83,5.283s3.594,2.06,5.282.83l.009-.007,1.341-.977.337.463,1.889,2.594c1.013,1.391,2.797,1.887,4.339,1.331.329-.119.647-.284.944-.501l1.395-1.016.532.731,1.694,2.325c1.229,1.688,3.594,2.06,5.282.83l.026-.019,1.483-1.08.166.228,2.06,2.829c1.229,1.688,3.594,2.06,5.282.83l3.169-2.308,5.409-3.94c.908-.662,1.435-1.652,1.536-2.689Z"/>
  </g>
  <g id="e" data-name="&amp;lt;Radial Repeat&amp;gt;">
    <path d="M138.286,223.023s0,0,0,0l-.005.006s.003-.004.004-.006ZM160.393,231.676l.403-4.451,45.012,32.703,2.214-3.047-46.764-33.976-.08.11.408-4.502,39.059,28.378,2.214-3.047-40.876-29.698-2.024-1.467-1.71-1.239-.054-.039-2.747-1.991-1.528-9.57-.095-.594c-.106-.661-.47-1.254-1.012-1.647l-1.168-.847s-.003-.002-.004-.003l-6.489-4.703s-.003-.002-.004-.003l-1.106-.801c-1.129-.819-2.709-.567-3.527.563h0s-5.223,7.207-5.223,7.207c-.24.332-.418.69-.536,1.06-.487,1.515.023,3.234,1.381,4.218.019.014.038.025.057.039.252.176.518.318.793.425,1.564.608,3.4.116,4.431-1.306l2.266-3.126h0s3.004,2.177,3.004,2.177h0s0,0,0,0l.03.19h0s1.734,10.864,1.734,10.864l-2.415.386-1.605-10.053-.203-.147-.83,1.146c-.953,1.315-2.347,2.165-3.861,2.459,0,0-.001,0-.002,0,0,0,0,0,0,0,.182.297.337.607.466.926.003.009.007.017.011.026.042.104.08.21.116.316,0,.003.002.006.003.008.028.085.057.169.079.255.008.033.018.065.027.097.028.103.054.206.076.31.001.006.002.012.004.018.02.096.038.192.054.288.004.026.008.052.012.077.016.103.03.205.04.308.002.005.003.009.005.014.025.249.035.502.029.755-.028,1.268-.438,2.483-1.183,3.511l-.951,1.313c.061.082.119.165.175.249,0,0-.002.001-.002.002,1.074,1.611,1.344,3.656.707,5.498-.006.017-.012.035-.018.052-.156.561-.411,1.103-.772,1.601,0,0,0,0-.001.001h0c-.544.748-1.118,1.173-1.515,1.401l-.003.002c-.139.097-.282.189-.427.274-.004.002-.007.004-.01.006-.002.001-.005.003-.007.004-1.079.625-2.321.911-3.554.829-.037-.002-.074-.005-.111-.008-.048-.004-.095-.008-.143-.013-.086-.009-.172-.02-.257-.033-.021-.003-.042-.007-.062-.01-.08-.012-.209-.037-.288-.053-.002,0-.004,0-.005-.001-.519-.109-1.03-.286-1.518-.533,0,0,0,0,0,0-.096-.048-.191-.099-.284-.153-.006-.004-.013-.008-.019-.011-.079-.046-.157-.093-.235-.143-.02-.013-.04-.025-.059-.038-.084-.055-.166-.111-.248-.17l-2.184-1.583-.457,4.536c-1.832.692-3.478,1.933-4.666,3.674-2.356,3.451-2.23,7.864-.021,11.126l4.082-5.633.82-1.132.82-1.132,2.761-.441,2.264,1.641.441,2.761-.82,1.132-.82,1.132-4.082,5.633c3.988,1.143,8.427-.321,10.894-3.934,3.048-4.465,1.941-10.538-2.455-13.648l.371-3.684,3.173,2.3c1.548,1.122,3.549,1.413,5.352.778h0s2.406-.846,2.406-.846l1.346-.474-.583-.526-1.379.552,65.714,47.739,2.214-3.047-54.457-39.566ZM132.024,225.366c.016.003.032.006.048.01M132.637,225.464c.047.005.095.009.143.013M132.326,225.422c.018.003.036.006.054.009M129.908,224.488c.02.013.039.025.059.038M130.506,224.833s0,0,0,0M130.221,224.68c-.006-.004-.013-.008-.019-.011M131.967,178.155l-.416,4.134,8.701,6.306.935-9.279c1.826-.693,3.466-1.932,4.65-3.668,2.356-3.451,2.23-7.864.021-11.126l-4.082,5.633-.82,1.132-.82,1.132-2.761.441-2.264-1.641-.441-2.761.82-1.132.82-1.132,4.082-5.633c-3.988-1.143-8.427.321-10.894,3.934-3.051,4.47-1.939,10.551,2.469,13.658ZM134.127,222.968c.356-.078.702-.208,1.024-.387.449-.249.854-.595,1.182-1.03.014-.019.029-.037.043-.056.011-.015.021-.031.032-.046,1.186-1.688.802-4.02-.874-5.235l-.463-.335,1.314-1.813.905-1.249c.468-.646.701-1.389.718-2.131.027-1.2-.516-2.392-1.561-3.15l-1.622-1.175c-2.884-2.09-3.527-6.121-1.437-9.005l.654-.902,2.219-3.061h0s2.219-3.062,2.219-3.062l-11.665-8.454-.009-.006c-1.691-1.225-4.055-.848-5.281.843s-.848,4.055.843,5.28l.009.007,1.343.974-.336.463-1.883,2.598c-1.01,1.394-.93,3.244.075,4.538.215.276.47.527.768.743l1.397,1.013-.531.732-1.688,2.33c-1.225,1.691-.848,4.055.843,5.28l.026.019,1.486,1.077-.165.228-2.054,2.834c-1.225,1.691-.848,4.055.843,5.28l3.175,2.301,5.419,3.927c.91.659,2.014.854,3.032.63Z"/>
  </g>
  <g id="f" data-name="&amp;lt;Radial Repeat&amp;gt;">
    <path d="M82.243,171.437s0,0,0,0l-.008-.003s.005.002.007.002ZM80.844,195.135l4.358-.992-17.193,52.915,3.582,1.164,17.862-54.974-.13-.042,4.408-1.003-14.919,45.916,3.582,1.164,15.613-48.053.77-2.378.65-2.01.02-.063,1.045-3.228,8.63-4.41.535-.274c.596-.305,1.047-.834,1.254-1.471l.444-1.373s.001-.003.002-.005l2.467-7.625s0-.003.002-.005l.42-1.299c.429-1.327-.298-2.751-1.625-3.181h0s-8.468-2.74-8.468-2.74c-.39-.126-.785-.184-1.173-.183-1.591.005-3.068,1.021-3.585,2.617-.007.022-.012.044-.019.066-.089.294-.142.591-.159.885-.095,1.675.94,3.269,2.612,3.81l3.673,1.189h0s-1.142,3.53-1.142,3.53h0s0,0,0,0l-.171.087h0s-9.797,5.006-9.797,5.006l-1.113-2.178,9.065-4.633.077-.239-1.346-.436c-1.545-.5-2.785-1.563-3.531-2.912,0,0,0-.001-.001-.002,0,0,0,0,0,0-.226.265-.473.508-.737.729-.007.006-.014.012-.021.018-.086.072-.175.141-.265.208-.002.002-.005.003-.007.005-.072.053-.143.107-.218.154-.028.018-.056.037-.084.055-.089.058-.18.115-.272.168-.005.003-.011.006-.016.009-.085.049-.171.095-.258.14-.023.012-.046.024-.07.036-.093.046-.186.092-.281.133-.004.003-.008.006-.012.009-.229.101-.466.188-.709.261-1.215.365-2.496.351-3.705-.04l-1.542-.499c-.059.083-.12.164-.183.244,0,0-.002-.001-.002-.002-1.2,1.52-3.062,2.408-5.01,2.371-.018,0-.037,0-.055,0-.581.025-1.176-.05-1.762-.239,0,0-.001,0-.002,0h0c-.88-.287-1.461-.701-1.801-1.008l-.003-.002c-.136-.102-.266-.21-.392-.322-.003-.003-.006-.005-.009-.008-.002-.002-.004-.004-.006-.005-.928-.833-1.583-1.926-1.887-3.124-.009-.036-.018-.072-.026-.108-.011-.047-.022-.093-.031-.14-.018-.085-.034-.17-.048-.255-.003-.021-.006-.042-.009-.063-.013-.079-.03-.21-.038-.29,0-.002,0-.004,0-.005-.057-.528-.046-1.068.038-1.608,0,0,0,0,0,0,.016-.106.036-.212.058-.318.002-.007.003-.014.005-.022.019-.089.04-.178.063-.267.006-.023.012-.045.018-.068.026-.096.054-.193.085-.288l.83-2.566-4.456.967c-1.224-1.529-2.913-2.71-4.936-3.302-4.011-1.174-8.168.309-10.588,3.418l6.619,2.142,1.33.43,1.33.43,1.272,2.49-.861,2.66-2.49,1.272-1.33-.43-1.33-.43-6.618-2.142c.145,4.146,2.909,7.915,7.108,9.145,5.188,1.519,10.622-1.41,12.222-6.552l3.618-.785-1.207,3.729c-.589,1.819-.247,3.812.914,5.331h0s1.548,2.026,1.548,2.026l.867,1.134.32-.717-.951-1.141-25.096,77.25,3.582,1.164,20.801-64.018ZM78.079,166.206c.002.016.004.032.005.048M78.176,166.818c.01.047.021.093.031.14M78.119,166.51c.003.018.005.036.008.054M78.261,163.922c-.006.023-.012.045-.018.068M78.117,164.597s0,0,0,0M78.174,164.279c.002-.007.003-.014.005-.022M122.962,151.562l-4.061.882-3.308,10.224,9.113-1.978c1.224,1.522,2.909,2.699,4.925,3.289,4.011,1.174,8.168-.309,10.588-3.418l-6.619-2.142-1.33-.43-1.33-.43-1.272-2.49.861-2.66,2.49-1.272,1.33.43,1.33.43,6.618,2.142c-.145-4.146-2.909-7.915-7.108-9.145-5.194-1.52-10.634,1.416-12.227,6.569ZM81.01,167.464c.185.315.415.603.685.854.376.35.829.628,1.345.806.022.008.044.016.066.023.018.006.036.01.053.016,1.972.607,4.071-.48,4.708-2.449l.176-.544,2.13.689,1.468.475c.759.246,1.538.238,2.248.025,1.149-.345,2.116-1.23,2.513-2.458l.617-1.905c1.096-3.388,4.732-5.246,8.12-4.15l1.06.343,3.597,1.164h0s3.597,1.164,3.597,1.164l4.435-13.706.003-.01c.643-1.987-.446-4.119-2.433-4.762s-4.119.447-4.762,2.433l-.003.011-.511,1.579-.545-.176-3.053-.988c-1.637-.53-3.372.118-4.292,1.474-.196.289-.356.61-.469.96l-.531,1.642-.86-.278-2.737-.886c-1.987-.643-4.119.447-4.762,2.433l-.01.03-.565,1.746-.268-.087-3.33-1.077c-1.987-.643-4.119.447-4.762,2.433l-1.207,3.73-2.06,6.367c-.346,1.069-.19,2.18.337,3.078Z"/>
  </g>
</svg>