<?xml version="1.0" encoding="UTF-8"?>
<svg id="a" data-name="Layer 1 copy" xmlns="http://www.w3.org/2000/svg" width="3001" height="3001" viewBox="0 0 300.1 300.1">
  <path d="M201.986,76.792h-103.356c-15.566,0-28.255,12.32-28.255,27.37v91.848c0,15.271,12.246,27.296,27.96,27.296h103.43c15.713,0,27.96-12.025,27.96-27.296v-91.848c0-15.345-12.173-27.37-27.739-27.37ZM226.627,196.01h-.074c0,13.574-10.918,24.124-24.861,24.124h-103.356c-13.943.074-24.788-10.55-24.788-24.124v-91.848c0-13.574,10.992-24.271,25.083-24.271h103.43c13.795,0,24.566,10.624,24.566,24.271v91.848Z"/>
  <path d="M188.219,144.073l-11.656,19.771h-6.373s-3.909-2.635-2.153-11.747l5.09-20.217h-25.063l-2.779,11.04h6.893c-.677,2.688-1.389,4.893-2.136,6.615-.747,1.724-1.521,3.067-2.32,4.031-.8.963-1.645,1.621-2.532,1.971-.889.35-1.855.526-2.9.526-1.462,0-2.548-.32-3.256-.964-.709-.642-1.083-1.781-1.124-3.417-.042-1.635.218-3.84.778-6.616.558-2.773,1.369-6.265,2.427-10.471,1.059-4.205,2.006-7.696,2.845-10.471.836-2.773,1.688-4.979,2.553-6.615.864-1.635,1.847-2.773,2.949-3.417,1.102-.642,2.452-.964,4.054-.964,2.297,0,3.565.906,3.807,2.716.312,1.519.051,3.942-.787,7.272h18.797c.957-3.797,1.175-7.023.663-9.682-.515-2.657-1.604-4.833-3.265-6.527-1.663-1.694-3.843-2.921-6.541-3.68-2.697-.758-5.752-1.139-9.163-1.139-5.709,0-10.554.716-14.534,2.146-3.981,1.432-7.344,3.52-10.088,6.265-2.745,2.747-4.99,6.134-6.735,10.164-1.746,4.031-3.281,8.675-4.604,13.932-1.309,5.2-2.28,9.814-2.911,13.844-.633,4.03-.563,7.419.208,10.164.771,2.747,2.409,4.806,4.919,6.178,2.508,1.372,6.232,2.059,11.177,2.059l26.374-.125,8.648,9.154-9.812,21.025,20.952-12.468,15.64,12.025-2.877-19.845,18.001-12.615h-19.993l-3.172-19.919ZM152.089,160.462c.026-.037.057-.069.083-.106h.208l-.292.106ZM202.236,166.943l-11.951,8.336,2.139,14.607-11.509-8.927-14.607,8.706,6.64-14.386-8.115-8.558h13.353l8.484-14.238,2.287,14.386h13.206l-.105.074h.179Z"/>
  <path d="M226.219,220.105h1.29v.284c0,.591-.503,1.017-1.301,1.017-.887,0-1.502-.663-1.502-1.691,0-1.118.598-1.751,1.497-1.751.503,0,1.083.195,1.242.929l.532-.071c-.136-.656-.609-1.325-1.774-1.325-1.154,0-2.058.763-2.058,2.224,0,1.414.987,2.165,2.052,2.165,1.088,0,1.81-.609,1.833-1.473v-.792h-1.81v.485Z"/>
  <path d="M228.651,217.112c-.329-.323-.713-.576-1.152-.76s-.907-.276-1.403-.276-.967.092-1.408.276c-.442.184-.83.437-1.162.76-.333.323-.595.704-.789,1.142-.193.439-.29.913-.29,1.423,0,.522.097,1.005.29,1.447.194.442.457.826.789,1.152.332.326.72.579,1.162.76.441.181.911.271,1.408.271s.964-.09,1.403-.271.823-.434,1.152-.76.59-.709.784-1.152c.194-.442.291-.924.291-1.447,0-.51-.097-.984-.291-1.423-.193-.438-.455-.819-.784-1.142ZM228.84,220.91c-.152.377-.362.705-.629.982-.268.278-.583.496-.944.653-.361.158-.751.237-1.171.237-.426,0-.821-.079-1.186-.237-.364-.158-.681-.375-.948-.653-.268-.277-.478-.605-.629-.982-.151-.377-.227-.789-.227-1.234,0-.433.076-.835.227-1.21.152-.374.362-.699.629-.973s.584-.49.948-.648c.365-.158.76-.237,1.186-.237.419,0,.81.079,1.171.237s.676.375.944.648c.268.274.478.599.629.973.151.375.227.777.227,1.21,0,.445-.076.856-.227,1.234Z"/>
</svg>