<?xml version="1.0" encoding="UTF-8"?>
<svg id="a" data-name="Layer 1 copy" xmlns="http://www.w3.org/2000/svg" width="3001" height="3001" viewBox="0 0 300.1 300.1">
  <path d="M181.614,173.872l-.607-.423-.772-.257-.092.018-.294.074.625.643.239.625.037.239-.257,1.323-.386.735-.441.643-1.36,1.158-.735.441-1.893.717-1.783.404-1.066.074-2.15-.092-1.911-.551-1.25-.662-.221-.349-.018-.404-.202-.386-.067-1.222c-.24.158-.635.097-.804-.179l.062.463.129.79.129.147v.276l-.625-.368-.386-.423-.551-.606-.221-.423-.441-.588-.404-.845-.551-2.224-.073-.845-.074-1.378v-.074l.092-1.103.239-1.213-.037-.129.184-.827.11-.221.165-1.103.625-1.158.404-.937.441-.79.467-.678c-.204.781-.123,1.275-.158,2.126-.046,1.125-.162,2.289-.167,3.414-.002.472.098.959.08,1.413-.015.386-.145.759-.185,1.141-.106.999.035,3.546.252,4.521.019.084.042.307.126.334.005-.23.095-.447.111-.676.12-1.743-.108-3.608-.059-5.376.051-1.822.116-3.677.307-5.487.044-.422.196-.887.238-1.401.099-1.203.073-2.482.052-3.691-.021-1.184-.046-1.863-.34-3.019-.107-.421-.11-.864-.237-1.282l-.64-.716c-.421.659.107,1.241.229,1.831.199.96.134,2.147.291,3.127.004.026.01.05.016.074l-.861.67-.643.588-.404.57-.441.551-.588.827-.386.607-.551,1.103.018.184-.129.11-.312.864-.092.551-.294.772-.184,1.084-.055,1.268v-.074l-.037.092.037,1.158.276,2.095.092.588.533,1.599.129.129.588,1.268.57,1.029.68.864,1.066,1.048.79.662,1.452,1.029.22.478.257.717.147.294.423.901.202.294.129.055.257.202.202-.092.073-.165-.312-.625-.165-.257-.129-.478-.294-.882.331.129,1.562.441.827.092,2.922.165.717-.129.992-.165.974-.276,1.084-.349.349-.129,1.489-.772.901-.625.882-.937.551-.919.129-.221-.092-.165.202-.074.239-1.305-.239-.607-.276-.478Z"/>
  <path d="M168.643,189.881c-.2-1.192-.592-2.364-.744-3.57-.293.002-.331.336-.33.57.007,2.068.617,4.665-.011,6.658-.028.089-.093.274-.183.305-.122.042-.529.034-.619-.069-.106-.122-.435-1.02-.472-1.21-.328-1.662-.008-3.634-.297-5.183-.01-.052-.159-.419-.182-.423-.19.074-.509.094-.552.313-.05.255-.012.638-.016.914-.021,1.477-.226,2.947-.251,4.425-.013.74-.008,1.499.139,2.228.053.265.126.533.259.77.109.195.065.374.121.591.059.228.185.437.348.605.119.123.258.226.412.3.518.249,1.138.208,1.681.02.254-.088.503-.211.69-.405.248-.258.364-.622.387-.979.018-.28-.028-.548-.057-.825-.022-.207.05-.393.066-.601.037-.499.028-1.002-.005-1.501-.065-.985-.223-1.961-.386-2.933"/>
  <path d="M173.706,146.84c.527-.206.925-.434,1.407-.709.274-.157.609-.173.884-.31.868-.432,1.71-.946,2.573-1.387.357-.183.518-.313.819-.483.19-.108,1.05-.208.759-.488-.17-.163-.901.037-1.109.138-.784.381-1.629.611-2.425.994-.436.21-.86.501-1.287.721-.452.232-1.276.49-1.643.853-.102.102-.109.245-.221.322-.174.12-.522.073-.68.296.2.319.628.171.923.055"/>
  <path d="M182.385,160.511l-.386-.643-1.231-1.305-1.25-.79-.919-.459-.221-.018-.202-.202-1.323-.496-1.011-.239-.055-.018-.331-.055-.092-.11.919-.772.662-.533-.129-.276-.202-.147-.129-.202-.331.055-.533.606-.221.037-.11.257-.404.257h-.165l-.331.386-.221.202h-1.084l-.974.092-.974.037-.882.276-.535.136c.008-.064.017-.128.028-.193.07-.409.286-.626.321-1.035.034-.403,0-.888,0-1.302,0-.009-.053-.159-.108-.135-.023.235-.176,1.71-.282,1.78-.041.027-.147-.003-.206.035-.183.117-.196,1.21-.231,1.452-.058.393-.246.595-.351.897-.219.627-.154,1.728-.355,2.467-.307,1.132-.478,2.326-.637,3.487-.391,2.869-.705,5.962-.54,8.842.021.369-.02.746-.002,1.115.564.074.332-.479.384-.837.024-.163.122-.255.152-.39.183-.809.065-1.728.112-2.546.108-1.87.337-3.722.598-5.569l.071-.043.018-.276.221-.386.202-.239.312-.901.147-.147.129-.386.735-1.011.165-.312.423-.459.092-.165.753-.882,1.342-1.433.441-.441.276-.092.845-.055.184.074.276-.018,1.764.147,1.434.515.79.294.956.643,1.14,1.268.478,1.029.129.607.165.974-.165,1.103-.276.809-.827,1.525-.551.717-1.434,1.213-.735.478-1.544.57-.901.129-.864.092-.901-.221-.349-.147-.551-.625-.055-.147-.221-.937.202-.827.202-.515.129-.478.717-.735.312-.037.092-.11.459-.257.404-.294.221.055.184-.239.239.074.147-.074.625.018.294.129.349.239.055-.074v-.11l-.827-.992-.772-.717-.496-.312-.386-.037-.129.074-.588.037-.037.11-.974.404-.276.257-.662.551-.698.882-.018.441-.22.735-.055.937.184.68.57,1.287.459.423.515.441.809.459.698.184h.331l.349.092.974-.092.368-.055,1.121-.294,1.415-.643,1.176-.735.754-.827.055-.147.643-.662.074-.092.202-.441.276-.423.11-.331.404-.809.184-1.709-.11-1.213-.386-1.231ZM171.854,158.471l-.845.882-.459.57-.294.423-.625.864-.496.753-.183.319c.045-.303.09-.606.134-.909.067-.458.107-2.026.255-2.295.049-.089.089-.177.124-.264l.018-.011,1.268-.607.588-.221.901-.221.165-.018.147-.037-.698.772Z"/>
  <path d="M162.148,146.703c-.016.15.165.185.205.31.172.538.198.341.47.724.375.529.68,1.137,1.03,1.683.312.487.127.609.736,1.001.173.111.247.137.275-.107.054-.458-.251-1.129-.461-1.552-.307-.619-1.034-1.743-1.659-2.031-.161-.074-.418-.006-.596-.028"/>
  <path d="M151.252,166.741l.221-.11.625-.735-.037-.129-.478-.239h-.662l-.368.147-1.911.349-.239.055-.441.037-.551-.662-1.213-2.095-.57-.037-.386.221.018.276-.257,1.029-.221.68-.165.625-.257.57-.037.533-.257.257-3.014.937.074.165-.037.165.11.276.68.386,1.25.459.735.423.184,2.408v1.342l.276.662.57.276.551-1.103.423-.386,1.084-1.378.478-.459v-.147l.129-.092.57.147.68.018,1.158.239.165-.018.608.248c.077.484.161.967.239,1.447.098.607.122,1.406.612,1.775l.194.646c.005-.225-.006-.452.001-.677.03-.987-.17-1.991-.272-2.984-.114-1.103-.242-1.824-.472-2.892-.131-.611-.192-1.239-.288-1.856l-.153.09c.009.321-.098.656-.117.968-.023.373-.023.746-.008,1.118l-.767-1.043-.055-.184,1.011-1.176.588-.57ZM150.59,166.484l-.276.386-.551.459-.992,1.176.074.294.221.239.772.974.147.129.368.974v.129l-.551-.184-1.195-.165-.919-.276-.533.037-.423.79-.294.092v.221l-.607.901-.845.845-.11-.055-.018-.588-.055-2.518-.129-.404-.202-.092-.919-.515-1.434-.368.165-.147,2.426-.919.312-.515.074-.496.312-1.139.459-1.286h.11l.588,1.048.368.331.588,1.029.147-.129,2.959-.423-.037.165Z"/>
  <path d="M158.107,166.962l-.459-1.011-.037-.257-.79-1.305-.864-.956-.46-.276-.055.147.11.147.496,1.066.276.901.276,1.783-.055.312-.165,2.463-.643,1.985-.184.11-.221.662-.452.758c-.125-.526-.258-1.042-.409-1.504-.09-.274-.241-.457-.315-.716-.062-.216-.184-1.35-.341-1.398-.137-.019-.323.173-.347.298.025.501.046,1.015.114,1.511.157,1.141.566,2.462.878,3.572.062.222.105.498.14.728.318,2.141.723,3.965-.621,5.877-.069.099-.585.669-.661.696-.173.062-.458.093-.614-.012-.109-.073-.468-.627-.534-.768-.274-.589-.086-1.3-.979-1.377-.07.051-.163.652-.162.777.003.368.462,2.329.647,2.613.074.114.455.551.57.678.516.572,1.248.714,2.007.65,2.042-.174,2.167-2.546,2.089-4.149-.071-1.473-.383-2.933-.727-4.367l.085-.099.459-.404.68-.974v-.184l.331-.441.331-.864-.055-.165.441-.643.331-1.415.221-1.342-.055-1.819-.276-1.286Z"/>
  <path d="M161.567,145.358c.237.11.574.09.813.218.137.074.188.22.338.261.204.003.18-.59.057-.711-.081-.08-.323-.169-.45-.256-.231-.158-1.022-.71-1.247-.761-2.417-.545-4.158.78-5.05,2.904-.035.084-.14.138-.164.216-.054.181-.004.433.043.613.126.021.151-.117.255-.151.102-.033.19.009.317-.063.312-.175,1.128-1.355,1.407-1.686.242-.287.78-.784,1.11-.952.729-.369,1.19-.323,1.93-.025.279.112.432.297.639.392"/>
  <path d="M271.502,175.534l-.311-.471-1.201-.982-.099-.164.687-1.391.428-.698.186-.162.423-.867-.068-.115-.522-.113-.641.164-.319.234-1.765.813-.218.113-.418.145-.699-.504-1.696-1.728-.561.106-.319.31.086.262.007,1.061-.045.714-.005.646-.108.616.097.525-.185.313-2.686,1.657.112.142.005.169.175.24.755.205,1.325.134.817.227.776,2.286.334,1.3.432.572.62.125.26-1.205.313-.479.708-1.605.349-.564-.037-.142.102-.121h.588s.663-.15.663-.15l1.181-.056.156-.059,1.062.145.582-.244.101-.273-1.04-.872-.389-.261ZM270.673,176.373l-1.198.137-.959-.039-.507.168-.213.871-.262.162.055.214-.364,1.023-.609,1.029-.12-.026-.164-.565-.679-2.425-.225-.36-.219-.039-1.018-.27h-1.48s.124-.183.124-.183l2.121-1.493.175-.576-.052-.499.019-1.181.125-1.36.107-.027.83.868.438.229.826.851.11-.161,2.761-1.145.006.169-.171.442-.42.582-.669,1.386.144.267.273.177.99.752.174.088.598.852.032.125-.58-.041Z"/>
  <polygon points="260.223 166.962 259.763 165.951 259.726 165.694 258.936 164.389 258.072 163.433 257.613 163.158 257.558 163.305 257.668 163.452 258.164 164.518 258.44 165.418 258.716 167.201 258.661 167.513 258.495 169.976 257.852 171.961 257.668 172.071 257.448 172.733 256.878 173.689 256.473 174.313 255.113 175.912 252.853 177.695 251.989 178.118 250.556 178.614 249.71 178.816 249.232 178.908 248.736 179.018 247.817 179.055 246.181 178.908 244.84 178.669 243.296 177.916 241.807 176.831 241.036 176.096 240.76 175.747 240.429 175.545 240.374 175.287 240.061 174.81 239.584 173.872 239.308 173.211 238.959 171.667 238.775 170.178 239.032 167.201 239.437 166.08 239.896 164.812 240.723 163.305 241.219 162.717 242.01 161.834 242.322 161.559 242.726 161.228 243.737 160.474 244.142 160.364 244.307 160.088 244.417 160.199 245.777 159.353 247.817 158.839 248.773 158.618 248.957 158.6 251.291 158.618 251.75 158.673 253.349 159.114 253.919 159.317 254.36 159.629 255.242 160.144 255.904 160.769 256.198 160.879 256.271 161.173 256.731 161.614 256.749 161.32 256.492 161.007 256.492 160.842 255.573 159.684 254.544 158.673 253.772 158.14 252.577 157.497 251.272 157.019 251.107 157.038 250.942 156.909 250.5 156.78 250.353 156.799 249.839 156.633 249.582 156.652 248.699 156.56 247.964 156.541 245.005 156.927 244.748 157.129 243.847 157.332 242.855 157.828 242.781 157.846 240.613 159.335 239.179 160.732 238.481 161.669 237.544 163.58 236.919 165.032 236.496 167.127 236.441 168.396 236.698 170.215 236.992 171.52 237.36 172.714 238.003 173.928 238.646 174.957 239.584 176.096 240.282 176.813 240.686 177.199 240.778 177.291 242.157 178.32 242.248 178.32 244.068 179.404 245.134 179.845 246.567 180.305 247.321 180.544 248.295 180.507 249.03 180.599 250.206 180.581 252.467 180.176 253.018 179.9 253.753 179.717 254.029 179.551 255.205 178.945 256.179 178.173 256.951 177.511 257.815 176.501 258.275 176.096 258.955 175.122 258.955 174.938 259.285 174.497 259.616 173.633 259.561 173.468 260.002 172.825 260.333 171.41 260.554 170.068 260.498 168.249 260.223 166.962"/>
  <path d="M253.368,166.741l.221-.11.625-.735-.037-.129-.478-.239h-.662l-.368.147-1.911.349-.239.055-.441.037-.551-.662-1.213-2.095-.57-.037-.386.221.018.276-.257,1.029-.221.68-.165.625-.257.57-.037.533-.257.257-3.014.937.074.165-.037.165.11.276.68.386,1.25.459.735.423.184,2.408v1.342l.276.662.57.276.551-1.103.423-.386,1.084-1.378.478-.459v-.147l.129-.092.57.147.68.018,1.158.239.165-.018.992.404.625-.092.165-.239-.79-1.103-.312-.349-.184-.533-.919-1.25-.055-.184,1.011-1.176.588-.57ZM252.706,166.484l-.276.386-.551.459-.992,1.176.073.294.221.239.772.974.147.129.368.974v.129l-.551-.184-1.195-.165-.919-.276-.533.037-.423.79-.294.092v.221l-.607.901-.845.845-.11-.055-.018-.588-.055-2.518-.129-.404-.202-.092-.919-.515-1.434-.368.165-.147,2.426-.919.312-.515.074-.496.312-1.139.459-1.286h.11l.588,1.048.368.331.588,1.029.147-.129,2.959-.423-.037.165Z"/>
  <path d="M182.712,138.699c-.225-.248-.755-.869-.846-1.165-.2-.652.867-.303,1.15-.278.651.058,1.258-.012,1.809.47.115.101.229.353.367.393.404.118,1.045.067,1.482.2.973.296,1.954.96,2.859,1.428.332.172,1.225.781.858-.153-.059-.15-.696-.676-.869-.813-.109-.087-.25-.115-.349-.193-.125-.099-.755-.602-.789-.676-.103-.225.006-.669.257-.772.263-.108.461.014.716.016.495.003.967-.08,1.47-.059.652.027,1.296.176,1.953.167.791-.011,2.151-.104,2.902-.299.096-.025.203-.021.269-.111-.36-.571-1.157-.54-1.763-.514-2.522.11-6.335.737-8.684-.107-.45-.162-.895-.299-.719-.887.084-.281,1.093-.276,1.412-.378,2.186-.698,5.598-2.736,7.041-4.516.081-.1.281-.238.329-.322.083-.146.049-.374.152-.538-.306-.417-.453-.011-.715.139-.202.115-.503.134-.685.237-.127.072-.242.257-.4.359-.946.614-2.847,1.295-3.943,1.754-1.58.661-4.337,1.791-5.998,1.924-.2.016-.659.067-.68-.192l.029-.131c.353-.354.669-.743,1.002-1.116.229-.257.328-.346.554-.64.166-.215.545-.611.654-.811.169-.311.501-1.395.57-1.763.054-.291.134-1.134-.05-1.355-.044-.053-.525-.192-.587-.042-.849,2.126-1.899,4.271-4.012,5.375-.309.162-1.166.595-1.412.271-.238-.313.02-.575.085-.893.256-1.259.3-2.108.073-3.388-.066-.372-.553-1.323-.859-1.528-.16-.107-.466-.14-.654-.241-.294.549.093.861.225,1.375.556,2.178-.909,4.098-2.898,4.769-.126.042-.257.151-.364.179-.164.042-.654.083-.734-.083-.104-.213.002-1.551-.028-1.926-.026-.33-.13-.873-.325-1.14l-.542-.515c-.305.755-.112,1.56-.365,2.321-.079.235-.371.947-.493,1.134-.182.277-.479.329-.797.346-.921.05-1.888-.036-2.824-.006-3.357.109-6.955.652-10.202,1.463-5.721,1.429-11.156,3.792-16.624,5.893-3.201,1.231-6.454,2.328-9.81,3.049-.312.067-.669.062-1.001.139-.362.083-.713.275-1.061.35-.179.039-1.641.164-1.64.312.222.153.575.221.841.243,3.125.262,7.02-.828,10.01-1.708,3.609-1.062,7.029-2.477,10.824-2.794,1.098-.092,2.688-.182,3.646.368.139.08.823.75.907.884.195.313.259.889.385,1.245l.051.037.492-.148c.147-.574-.486-1.104-.073-1.619.255-.086,1.294.285,1.295-.145,0-.064-.043-.097-.079-.139-.033-.039-.564-.52-.599-.54-.183-.11-.427-.09-.644-.224-.069-.043-.694-.599-.713-.643-.13-.307.045-.712.351-.84,1.001-.417,3.731.287,4.816.61.469.139,1.115.335,1.561.501.282.105.5.298.795.398.28.095.641.089.874.156.154.044.084.242.254.207.014-.132-.014-.439-.09-.543-.072-.097-.201-.146-.292-.241-.372-.384-.766-.614-1.242-.874-.576-.314-1.32-.534-1.9-.867l-.332-.641c.396-.28.971-.197,1.444-.2,1.834-.013,4.155.013,5.929.528.237.069.451.259.65.326.716.24,1.393.321,2.111.711.175.095.273.29.431.383.134.079.299.09.436.161.23.12.373.345.54.437.172.094.451.141.636.271.377-.331.045-.774-.209-1.078-.148-.178-.971-.908-.996-1.014-.016-.069.073-.456.125-.507.348-.143.715-.1,1.073-.039,1.442.248,2.28.565,3.574,1.201.247.121,1.611.717,1.612.928-.204.331-.674.661-1.037.799-.866.329-1.714.637-2.588.938-.316.109-.871.473-1.002.789-.173.417-.167,1.447-.193,1.923-.043.78-.09,1.549,0,2.335.013.118.04.218.137.296.074-.062.107-.149.146-.233.203-.438.258-.742.397-1.177.121-.379.301-1.152.552-1.401.291-.29.741-.455,1.102-.633-.193-.323-.76-.107-.746-.581.013-.455.326-.671.667-.91.986.012,1.619.168,2.496-.38.661-.412,1.465-1.377,2.169-.491.442-.348-.013-.794.586-1.04.372-.153.999-.412,1.282-.725.093-.103.099-.212.249-.348.615-.556,1.388-.401,2.087-.083.153.07.334.258.474.288.159.035.526-.008.559-.18.062-.318-.181-.327-.327-.488M179.985,138.713c-.074.059-.486.108-.626.16-.356.133-.742.277-1.095.424-.362.151-.397.365-.829.229-.313-.098-.883-.934-1.126-1.207-.113-.126-.457-.27-.427-.476.018-.119.275-.391.402-.417.414-.086,1.387.043,1.826.124.452.083,1.767.429,1.973.853l.015.07c-.038.058-.07.206-.114.241"/>
  <path d="M273.208,159.558l.03-.179-3.152-.159-.313-.185-.168-.507-.391-.488-.316-.564-.383-.604-.505-.933-.051-.272-.429-.118-.543.177-.654,2.331-.37.778-.436.074-.245.006-1.938.137-.393-.051-.641.164-.403.35-.004.134.788.557.241.052.711.406,1.272.888-.008.192-.579,1.439-.046.562-.216.416-.491,1.265.22.19.628-.066.861-.638.165-.023,1.062-.519.654-.187.515-.284.147.057.037.142.577.326,1.393,1.066.505.269.808.931.483-.409.103-.709-.334-1.3-.42-2.378.607-.592,1.096-.756.563-.543.038-.294-.077-.151ZM271.036,160.855l-.762.727-.173.139-.024.424.572,2.452.128.574-.093.081-1.029-.609-.811-.721-.055-.214-.308-.016-.606-.66-.525.097-.822.495-1.116.457-.488.315-.032-.125.114-1.035.11-.161.506-1.135.154-.286-.002-.303-1.254-.893-.648-.308-.363-.305-.077-.151,2.971-.326.174.088.314-1.143.274-.412.309-1.161.107-.027.765,1.132.586,1.026.195.462.43.421,2.578.287.197.101-1.297.712Z"/>
  <path d="M237.307,156.137l-.386-.772-.368-.257-.018.294-.349.331-.772.239-.901.055v-.57l-.074-.239-.184-.092-.386.037.018.441-.184.551-.368.092-.643-.018-.276.073h-1.433l-.165.074-.092-.092-.349.092-.276-.074-1.231-.073-.349-.018-.184-.147-.221.037-.845-.257-.919-.68-.037.864.129.459.331.368.735.055.239.018.184-.055,1.084.018-.018,1.176-.092.294.129.165-.129,1.544-.092.11-.092,1.213-.257,2.444v.331l-.147.901-.018.368-.129,2.095.037.588-.221.533.055.331-.147.239.055.79-.055,1.011-.074,1.176.129.57-.184.165-.11,1.176-.037.919-.165,1.967.11,1.636-.772.165-.68.11-.772.165-.919.331-.018.349.202.423.368.809.496.386.313.11h.202l-.018-.092-.276-.221-.147-.496.478-.386h.294l.312-.294,1.268-.331,1.029-.239.092-.092.974-.129.055.312-.147.698.018.276-.129.698.202.717.165-.551.11-.331-.018-.257.129-.202.147-.992.294-.478,1.25.037.331.073.901-.055.074.276-.386.092-.22.257-.441.294.239.018.074.074.331-.037.165-.11.221.11.937-.276.11-.239-.147-.404-.331-.312-1.397-.368-.294.055-.441-.11-.864.018-.129-.11.184-.79.349-2.408-.018-.368.165-.386.11-.974.368-1.58.074-1.029-.037-.257.092-.092.202-.956-.073-.166.11-.165.129-.79-.037-.165.165-.349-.055-.496.129-.184-.074-.147.147-.386.092-1.103.129-.11.129-1.103.165-.607.055-.68.221-.919.037-.68.074-.257.147-.79.074-.294.221-1.452.055-.57.184-1.066.11-.404,1.489-.239,1.231-.184.165-.092ZM233.448,157.865l-.257,1.452-.165,1.544-.312,1.709-.092.092-.11.919-.055.11-.147,1.36-.11.331.018.625-.147.698-.129.992-.184.459.074.221-.331,1.103.055.092-.165,1.047-.037.331.092.294-.147.202.073.147-.147.184-.018.882-.165.386.037.441-.129.478-.129.919-.055.496v.294l-.202,1.029-.11.221-.092.717-.257.901-.129-.074-.312.037-.129-.092-.037.073-1.14.11-.073-.055.368-1.121.312-.717.037-.386.165-.312-.055-.129.404-1.562.129-.312-.055-.331.184-.698.184-.901.092-.478.11-.147.074-1.011-.11-.147.165-.551.276-.845.165-1.231.037-.919.423-1.286-.092-.294.092-1.323-.037-.404.147-.129.11-.643-.11-.312.184-.055.018-.312.037-.515.092-.331-.184-.441.037-.606.257-.404-.092-.312.073-.11-.073-.165v-.974l-.423-.515-.037-.276-.57-.129-.239-.184h-.202l-.018-.11.772.018.404-.11.882-.092.129-.092.294.037.441-.11.386.055.165.165-.184,1.084Z"/>
  <path d="M191.611,165.584l.129-.11.129-1.103.165-.607.055-.68.221-.919.037-.68.074-.257.147-.79.074-.294.221-1.452.055-.57.184-1.066.11-.404,1.489-.239,1.231-.184.165-.092-.386-.772-.368-.257-.018.294-.349.331-.772.239-.9.055v-.57l-.073-.239-.184-.092-.386.037.018.441-.184.551-.368.092-.643-.018-.276.073h-1.433l-.166.074-.092-.092-.349.092-.276-.074-1.231-.073-.349-.018-.184-.147-.221.037-.845-.257-.919-.68-.037.864.129.459.331.368.735.055.239.018.184-.055,1.084.018-.018,1.176-.092.294.129.165-.129,1.544-.092.11-.092,1.213-.257,2.444v.331l-.147.901-.018.368-.129,2.095.037.588-.221.533.055.331-.147.239.055.79-.055,1.011-.073,1.176.129.57-.184.165-.11,1.176-.037.919-.166,1.966.11,1.636-.772.166-.68.11-.772.165-.919.331-.018.349.202.423.368.809.496.386.313.11h.202l-.018-.092-.276-.22-.147-.496.478-.386h.294l.312-.294,1.268-.331,1.029-.239.092-.092.974-.129.055.312-.147.698.018.276-.129.698.202.717.165-.551.11-.331-.018-.257.129-.202.147-.992.294-.478,1.25.037.331.074.901-.055.073.276-.386.092-.221.257-.441.294.239.018.074.074.331-.037.165-.11.221.11.937-.276.11-.239-.147-.404-.331-.312-1.397-.368-.294.055-.441-.11-.864.018-.129-.11.184-.79.349-2.408-.018-.368.165-.386.11-.974.368-1.58.074-1.029-.037-.257.092-.092.202-.956-.073-.165.11-.165.129-.79-.037-.165.165-.349-.055-.496.129-.184-.073-.147.147-.386.092-1.103ZM191.409,162.661l-.11.919-.055.11-.147,1.36-.11.331.018.625-.147.698-.129.992-.184.459.074.221-.331,1.103.055.092-.165,1.047-.037.331.092.294-.147.202.073.147-.147.184-.018.882-.165.386.037.441-.129.478-.129.919-.055.496v.294l-.202,1.029-.11.221-.092.717-.257.901-.129-.074-.312.037-.129-.092-.037.073-1.14.11-.074-.055.368-1.121.312-.717.037-.386.165-.312-.055-.129.404-1.562.129-.312-.055-.331.184-.698.184-.901.092-.478.11-.147.073-1.011-.11-.147.166-.551.276-.845.165-1.231.037-.919.423-1.286-.092-.294.092-1.323-.037-.404.147-.129.11-.643-.11-.312.184-.055.018-.312.037-.515.092-.331-.184-.441.037-.606.257-.404-.092-.312.074-.11-.074-.165v-.974l-.423-.515-.037-.276-.57-.129-.239-.184h-.202l-.018-.11.772.018.404-.11.882-.092.129-.092.294.037.441-.11.386.055.165.165-.184,1.084-.257,1.452-.165,1.544-.312,1.709-.092.092Z"/>
  <polygon points="225.09 157.35 224.722 156.744 224.244 156.302 223.803 156.247 223.031 156.394 222.223 157.019 221.598 157.718 221.322 158.214 220.881 158.875 219.833 160.824 219.392 161.963 218.933 163.158 218.584 164.058 218.51 164.132 218.345 164.812 217.995 166.061 217.407 167.513 217.444 167.697 217.26 168.249 217.132 168.708 216.654 170.013 216.507 170.748 216.194 171.593 215.919 171.336 215.79 170.913 215 169.315 214.504 168.01 214.228 167.477 213.823 166.613 213.695 166.356 212.537 163.746 212.133 162.68 211.839 162.239 210.387 158.967 209.67 157.46 209.321 157.332 208.604 157.497 208.953 157.773 209.358 158.416 211.71 163.488 212.482 165.143 213.254 166.925 214.081 168.855 215.275 171.428 215.459 171.924 215.79 172.935 215.698 173.248 215.551 173.946 215.312 175.232 215.367 175.435 215.184 175.673 215.11 176.023 214.742 175.949 214.485 175.251 214.393 174.975 214.246 174.387 214.026 173.891 213.621 172.806 213.493 172.733 213.272 171.796 213.107 171.502 212.666 170.546 212.316 170.123 212.316 169.406 211.986 168.579 211.581 167.807 211.618 167.513 211.195 166.631 211.067 166.061 210.81 165.841 210.644 165.179 210.038 163.617 209.56 162.753 209.523 162.514 208.439 160.511 208.365 160.456 207.832 159.574 207.593 159.445 207.06 159.151 206.876 158.655 206.876 158.526 207.171 158.361 207.354 158.379 208.163 157.993 207.005 157.993 206.821 158.177 206.491 158.085 205.719 158.343 204.451 158.489 204.083 158.71 202.999 158.857 202.319 158.967 201.877 159.133 200.426 159.5 199.856 159.684 199.066 159.85 198.257 160.07 197.945 160.309 197.687 160.677 198.955 161.945 199.396 162.386 200.113 162.68 200.223 162.57 199.672 161.963 199.691 161.54 199.837 161.467 200.04 161.007 201.051 160.401 201.216 160.456 201.363 160.364 202.282 159.941 202.76 159.794 203.146 159.629 203.991 159.298 204.138 159.188 204.708 159.261 205.167 159.941 205.204 160.713 205.057 163.801 204.598 167.201 204.598 167.44 204.414 168.414 204.34 168.781 204.175 169.517 203.881 170.601 203.734 171.355 203.476 172.09 203.311 172.917 202.631 174.516 202.392 175.159 202.135 175.729 201.694 176.684 201.253 177.548 200.407 178.632 199.966 179.221 199.58 179.478 199.507 179.68 198.68 180.433 198.147 180.746 197.595 181.095 197.062 181.334 196.511 181.426 195.776 181.242 195.445 180.948 195.353 180.562 195.463 179.404 195.647 179.202 196.235 178.063 196.548 177.989 196.768 177.916 196.97 178.743 197.32 178.926 197.963 178.779 198.073 178.632 198.808 177.861 198.643 177.548 198.643 177.346 198.257 176.886 197.467 176.409 197.32 176.574 197.173 176.574 196.658 176.813 196.272 177.162 195.831 177.438 195.537 177.934 195.353 178.044 194.894 178.761 194.82 179.184 194.71 179.257 194.581 180.213 194.692 180.378 194.692 180.856 195.206 181.646 195.923 182.106 196.254 182.087 196.915 182.216 197.669 181.959 197.798 181.977 198.386 181.573 198.716 181.591 198.9 181.316 199.268 180.966 199.396 180.856 199.562 180.911 200.279 180.195 200.462 179.772 200.628 179.735 200.903 179.515 201.124 179.092 201.253 179.037 201.565 178.522 201.841 178.283 202.447 177.052 202.723 176.629 202.668 176.482 202.98 175.894 203.109 175.894 203.495 174.993 203.476 174.828 203.789 174.424 203.844 174.001 203.954 173.891 204.248 172.972 204.395 172.788 204.377 172.568 204.726 171.52 204.8 171.207 205.094 170.215 205.204 169.903 205.388 169.223 205.48 168.396 205.682 168.046 205.553 167.844 205.682 167.771 205.737 167.201 205.939 166.209 206.068 164.94 206.16 164.407 206.252 164.26 206.325 162.919 206.417 162.478 206.582 162.478 207.06 163.268 207.06 163.433 207.336 163.856 207.373 164.113 207.63 164.536 207.961 165.565 208.089 165.584 208.31 166.319 208.512 166.484 208.696 166.87 209.155 168.175 209.376 168.561 209.762 169.553 209.927 169.958 210.773 172.016 211.232 173.064 211.416 173.78 212.022 175.14 212.004 175.232 212.206 175.581 212.169 175.729 213.162 178.118 213.291 178.614 213.419 178.688 213.548 179.386 213.732 179.588 213.713 179.698 213.915 180.25 215.331 180.397 215.441 180.25 216.066 180.397 215.919 180.213 216.286 180.286 216.066 179.643 216.047 179.423 215.937 177.934 215.864 177.769 215.992 177.603 215.992 176.997 216.084 176.831 216.139 175.655 216.341 174.92 216.525 174.35 217.499 176.574 217.499 176.758 217.959 177.052 218.161 176.868 216.801 173.045 216.911 172.09 217.021 172.016 217.297 170.858 217.389 170.546 217.885 169.057 217.83 168.947 217.959 168.8 218.878 165.896 219.043 165.381 219.447 164.168 220.054 162.772 220.054 162.606 220.146 162.294 220.403 161.871 220.863 160.805 220.863 160.713 221.028 160.53 221.267 159.813 221.359 159.611 222.186 158.306 222.774 157.993 223.086 158.287 223.068 158.434 223.288 158.802 223.564 158.931 224.299 158.728 224.667 158.324 225.09 157.35"/>
  <path d="M153.625,146.183c-.065.452-.282.34-.389.533-.158.286-.123.851-.253,1.158-.074.174-.215.171-.289.308-.101.189-.11.553-.202.775-.081.195-.228.289-.314.446-.177.323-.153.646-.255.939-.052.148-.253.304-.328.486-.232.569-.625,2.026-.678,2.632-.039.451-.076,1.717.079,2.09.051.122.176.188.192.324.11-.033.123-.166.147-.259.134-.515.104-1.174.185-1.714.153-1.013.592-1.918.876-2.868.086-.286.099-.598.2-.885.09-.258.27-.472.353-.732.097-.303.085-.689.173-.967.059-.185.215-.247.301-.404.127-.233.566-1.641.588-1.908.031-.369-.027-.706-.111-1.06-.144-.013-.088-.002-.107.081-.087.386-.114.647-.168,1.026"/>
  <path d="M115.215,145.968c-.12.061-.556.635-.585.774-.058.277-.067.898,0,1.169.058.229.887,1.189,1.097,1.399.606.608,1.702,1.367,2.443,1.789.599.341,1.32.58,2.016.643.366.033.89.017,1.106-.318-.337-.094-.768-.108-1.085-.245-.171-.074-.294-.217-.46-.3-.296-.148-.637-.147-.883-.257-.144-.064-.262-.264-.399-.361-.968-.686-2.012-1.338-2.816-2.23-.187-.207-.206-.519-.428-.713.116-.253.314-.768.305-1.035-.003-.094-.183-.382-.311-.317"/>
  <path d="M104.33,115.014c.214-.144.224-.43.348-.633,1.953-3.215,4.556-6.172,7.579-8.427.397-.296.958-.824,1.366-1.076.185-.114.489-.151.667-.256.13-.076.248-.24.421-.338.551-.313,1.431-.519,1.367-1.276-.132-.165-.239-.196-.438-.186-.493.025-.423.231-.747.397-.213.109-.465.104-.669.199-.13.06-.265.208-.419.287-2.922,1.48-6.377,3.734-8.163,6.541-.653,1.027-1.007,1.961-1.444,3.059-.175.44-.437,1.481.132,1.709"/>
  <path d="M99.885,120.769c.4,1.612,2.389,2.84,4.016,2.71.08-.006.425-.056.463-.079.106-.063-.161-.541-.219-.597-.091-.087-.72-.313-.918-.439-.505-.32-1.182-1.006-1.576-1.463-.239-.277-1.255-1.757-1.49-1.794-.425-.066-.562.221-.513.597.032.248.171.797.237,1.064"/>
  <path d="M133.979,127.858c.679.153,1.217.309,1.936.397,1.693.206,3.387.412,5.102.328,3.706-.182,7.209-.703,10.85-1.304,3.715-.614,7.445-1.217,11.17-1.744.145-.021.445-.036.522-.155-1.181-.093-2.421-.234-3.607-.163-.844.05-1.671.269-2.503.372-1.344.167-2.675.302-4.007.496-4.969.723-9.943,1.485-14.974,1.629-1.677.048-4.187-.14-5.714-.747-.219-.087-1.035-.147-1.287-.123-.034.003-.409.042-.299.161.099.107.792.166,1.026.304.694.408,1.014.374,1.786.547"/>
  <path d="M131.655,130.67c.052-.089.094-.331.116-.345.041-.026.17.005.262-.035.292-.128.108-.449-.16-.325-.143.066-.148.275-.219.325-.062.045-.183.027-.256.069-1.13.653-3.104,3.161-3.752,4.333-.27.489-.507,1.167-.755,1.632-.08.15-.214.225-.293.412-.096.229-.111.631-.216.814-.058.101-.193.115-.238.25-.038.115-.128.814.058.817.225-.181.12-.576.273-.811.093-.142.244-.071.346-.197.107-.132.155-.45.254-.614,1.047-1.737,2.396-3.644,3.659-5.239.269-.34.709-.722.921-1.086"/>
  <path d="M126.448,148.846c.078.096.158.162.27.218.348.173,1.647.545,2.033.571.582.041,1.268.087,1.845.109.268.01.607-.066.813-.054.167.01.294.185.439.212.607.112,1.566-.177,2.223-.214.819-.046,1.404-.053,2.231-.156.993-.124,1.975-.258,2.964-.4.638-.092,1.904-.416,2.537-.61.087-.027.486-.144.487-.218-.287-.404-.645-.394-1.095-.391-4.313.032-8.023,2.22-12.403,1.031-.724-.196-1.716-.799-2.342-.098"/>
  <path d="M151.695,179.682c-.007-.913-.043-1.824-.014-2.732l-.945.745-.864.423-1.434.496-.845.202-.478.092-.496.11-.919.037-1.636-.147-1.342-.239-1.544-.754-1.489-1.084-.772-.735-.276-.349-.331-.202-.055-.257-.312-.478-.478-.937-.276-.662-.349-1.544-.184-1.489.257-2.977.404-1.121.459-1.268.827-1.507.496-.588.79-.882.312-.276.404-.331,1.011-.754.404-.11.165-.276.11.11,1.36-.845,2.04-.515.956-.221.184-.018,2.334.018.459.055,1.599.441.57.202.441.313.845.493c.008.159.03.317.081.47.03.09.066.258.188.218.013-.135.028-.271.043-.407l.387.365.294.11.074.294.459.441.018-.294-.257-.312v-.165l-.895-1.127c.117-.995.22-1.997.08-2.988l-.231-.311c-.244-.01-.185,2.345-.188,2.578-.001.119-.01.24-.019.362l-.696-.684-.772-.533-1.195-.643-1.305-.478-.165.018-.166-.129-.441-.129-.147.018-.515-.165-.257.018-.882-.092-.735-.018-2.959.386-.257.202-.901.202-.992.496-.074.018-2.169,1.489-1.434,1.397-.698.937-.937,1.911-.625,1.452-.423,2.095-.055,1.268.257,1.819.294,1.305.368,1.195.643,1.213.643,1.029.937,1.139.698.717.404.386.092.092,1.378,1.029h.092l1.819,1.084,1.066.441,1.434.459.754.239.974-.037.735.092,1.176-.018,2.261-.404.551-.276.735-.184.058-.035Z"/>
  <path d="M35.729,164.249l.165-.018.992.404.625-.092.165-.239-.79-1.103-.312-.349-.184-.533-.919-1.25-.055-.184,1.011-1.176.588-.57.221-.11.625-.735-.037-.129-.478-.239h-.662l-.368.147-1.911.349-.239.055-.441.037-.551-.662-1.213-2.095-.57-.037-.386.221.018.276-.257,1.029-.221.68-.165.625-.257.57-.037.533-.257.257-3.014.937.074.165-.037.165.11.276.68.386,1.25.459.735.423.184,2.408v1.342l.276.662.57.276.551-1.103.423-.386,1.084-1.378.478-.459v-.147l.129-.092.57.147.68.018,1.158.239ZM33.45,163.018l-.533.037-.423.79-.294.092v.221l-.607.901-.845.845-.11-.055-.018-.588-.055-2.518-.129-.404-.202-.092-.919-.515-1.434-.368.165-.147,2.426-.919.312-.515.074-.496.312-1.139.459-1.286h.11l.588,1.048.368.331.588,1.029.147-.129,2.959-.423-.037.165-.276.386-.551.459-.992,1.176.074.294.221.239.772.974.147.129.368.974v.129l-.551-.184-1.195-.165-.919-.276Z"/>
  <path d="M112.808,120.45c-.516.066-1.02.26-1.534.311-.353.035-.776-.055-1.105.088-.348.152-.383.727-.68.785-.608.118-.44-.299-.678-.404-.071-.031-.262-.057-.318-.021-.027.017-.109.382-.115.454-.02.255.058.442.058.651,0,.373-.142.7-.106,1.132.036.421.166.507.304.835.082.196.229.757.433.815.441.127,1.19-.033,1.71.026.994.112,2.046.682,2.991.97,1.769.539,5.3.379,7.164.147,4.845-.603,8.983-3.542,12.727-6.426.506-.39,1.048-.766,1.55-1.163.186-.147.358-.412.543-.542.228-.161.589-.275.857-.445,5.333-3.369,10.627-7.106,16.666-9.052,6.131-1.975,12.443-2.031,18.734-.881,2.584.472,5.157,1.01,7.716,1.616.436.103,1.277.199,1.708.131.131-.021.218-.09.3-.187-.002-.131-.958-.225-1.154-.31-.248-.107-.31-.254-.634-.343-.867-.237-1.54-.438-2.388-.759-1.703-.644-3.344-1.366-5.06-1.994-2.301-.842-4.669-1.721-7.136-2.034-.218-.028-.7-.065-.857.091-.251.249.311,1.034-.051,1.306-.191.143-.984.168-1.288.231-.923.191-1.64.282-2.559.426-2.573.402-5.25.815-7.78,1.389-3.059.695-5.874,1.889-8.656,3.28-4.036,2.018-7.838,4.48-11.956,6.383-4.492,2.076-9.287,3.709-14.317,3.593-1.635-.038-3.483-.308-5.09-.103"/>
  <polygon points="120.159 177.511 117.512 177.879 117.788 176.905 117.953 176.666 117.861 176.151 118.266 175.82 118.21 175.398 118.486 174.626 118.376 174.552 118.431 174.313 118.67 173.082 118.651 172.567 118.964 172.071 119.093 171.465 119.148 170.674 119.589 169.719 119.773 168.947 119.993 168.396 119.938 168.267 120.011 167.918 120.195 166.944 120.508 166.19 120.691 165.492 120.949 165.106 120.949 164.481 121.077 164.407 121.059 163.764 121.28 163.268 121.372 163.066 121.592 162.588 121.831 161.357 122.015 160.879 121.776 160.107 121.519 159.978 121.482 159.684 121.224 159.408 119.607 158.453 118.523 158.177 118.394 158.398 118.1 161.981 117.935 162.717 117.494 165.767 117.53 166.135 117.108 169.609 117.034 169.829 116.979 170.913 116.758 172.2 116.685 172.99 116.667 173.523 116.501 174.13 116.244 176.041 116.281 176.592 115.913 178.302 114.369 178.834 113.983 178.853 112.973 179.184 112.219 179.551 111.907 179.974 112.109 180.691 112.495 181.132 112.44 181.334 112.476 181.426 113.064 181.849 113.156 181.757 113.009 181.555 112.844 181.058 113.248 180.525 115.288 179.386 115.38 179.368 117.053 178.743 118.155 178.43 118.247 178.467 119.938 178.228 119.203 179.276 119.552 179.294 119.864 179.037 120.048 179.073 120.453 178.945 121.077 178.063 120.471 177.585 120.159 177.511"/>
  <path d="M135.229,181.794l-.827-.239-.551.349-.202.404.074.57.257.368.331.165.404-.037.11.11-.221.496-.735.423h-.533l-.662-.165-.037-.147-.11-.037-.276-.368-.239-.11-.478-.717-.643-1.525h-.018l-.129-.735-.165-.625-.22-.386.092-.184-.11-.147-.625-2.665-.11-.404-.165-1.489-.294-.662-.276-1.434-.184-.515-.459-1.029-.018-.184-.496-.956-.312-.276v-.147l-.368-.349.037-.092-.404-.386.368-.165h.11l1.048-.257.294-.331.827-.423,1.048-.937.662-.625.276-.349.018-.331.46-.992.312-.533-.092-.239.092-.147.11-1.103-.055-1.176-.276-.551-.129-.551-.459-1.011-.294-.533-.772-.882-1.378-1.195-1.231-.643-.698-.423-.607-1.084-.717-.018-.018.11.478.772-.441-.073-1.378-.202-1.084-.018-2.812.147-.129-.018-1.342.257-.901.11-.386.221-.827.165-2.702,1.195-1.875,1.397-.992,1.048-.809,1.084-.478.809-.312.79-.312,1.14.018.331v1.029l.331,1.103.312.625.551.662.809.588.276-.074.147.129.845.055.423-.018.533-.184.404-.11.827-.551.515-.257.11-.349.368-.239.276-.754-.055-.901.037-.312h-.165l-.037-.368-.533-.588-.533-.349-.147.074-.018.092.257.423-.165.79-.349.79-1.066.882-.294.074-1.415.239-.662-.129-.533-.496-.276-.717-.055-.864.129-.974.055-.11.625-1.433,1.36-1.801,1.948-1.562,1.967-1.084,1.213-.423,1.213-.368.074-.037,1.783-.331.404-.055,2.996-.239,2.297.441.294.184.459.937.074.496.459,2.224-.092,1.415.074.239-.092.698-.092.845-.276.974.055.22-.202.753-.276.827-.643,1.47v.202l-.294.257-.423-.312-.184.074-.074-.294-1.342-.294-.257.037-1.139.074-.864.349-.221.662.11.441.331.386.937.459.662-.11.239.165,1.434-.073h.423l.165.404.551,2.536.202,1.397.184,1.452.276,1.195.551,1.893.257.57.202,1.011.423,1.011.588,1.066.478.68,1.139,1.415,1.011.772,1.103.551,1.195.129.717-.11.845-.404v-.092l.11-.092.607-.864.092-.772-.202-.478-.404-.533ZM123.044,168.304l-.753-.092-.423-.459.257-.423.533-.147.349.092.165-.129.79.202.864.662-1.783.294ZM126.444,167.403l.698-1.36.312-.974.147-.294v-.404l.129-.055v-.129l.147-1.084.239-1.084v-1.544l-.129-1.066.074-.165-.276-1.397-.055-.074.037-.11-.331-.937.055-.386.643.312.919.625.717.956.257.257.092.331.165.184-.055.092.423,1.654.055.404-.221,1.709-.625,1.231-.11.331-1.378,1.581-.864.68-1.066.717Z"/>
  <path d="M109.279,157.938l.202-.974.643-.074-.239-.11-.092-.11-.441.037-.46-.092-.606-.404-.717-.184-.018.772-.294.11-.312-.055-.496-.055-.662.129-.607.037-.092.055-1.654.11-.055-.092-.974.11-.092.165h-.257l-.074-.11.037-.129.221-.992-.386-.147-.239.055-.165.276-.018.312.092.184-.165.478h-.074l-.625.165-.423-.037-.992.184-.901.092-.257.073-.129-.073-.68.092-1.342.055-1.875.11-.643.11-1.985.092-.368-.386-.625-.331-.423-.11-.11-.11-.147.018-.129.515-.165.092.184.202.055.827-.074,2.113-.221,1.801-.037,1.139-.018.625-.092.937.165-.092.221-.368.147-.79.129-.055.331-1.011.055-.331.11-.294.184-.478-.074-.276.202-.11.018-.423.129-.129.202-.772.092-.092.441-.772.202-.037.092-.202.147.11.404-.092.79-.073,1.617-.257,1.434-.147.239-.073.074.037h.202l-.129.368-.018,1.213.018.974-.129,2.242-.184,1.783-.018.312-.165,1.305.018.735-.22,1.286.018.239.055.772-.202,1.967-.037,1.195-.294,2.536.092.092-.11.349.055.239-.147.551.055.239-.11.809-.037,1.378-.827.11-.57.239-.331.129-1.213.533v.092l-.129.055-.018.276.165.404.018.331.184.184v.257l.551.551.276.129.165-.074-.257-.221-.055-.331.147-.459.184-.018.515-.423.606-.331.055-.147.184.018.202-.257.478-.073.165-.202.956-.313.901-.349.221.018-.147.607.055.147-.184,1.452-.129.423.349-.129v-.147l.349-.79-.074-.257.147-.331-.073-.147.11-.147.147-.974.735-.055.147-.165.901-.184.165.092.46-.221.055.074.956-.018-.129.202-.625.754-.165.312.643-.221.368.018.165-.165.11.073.478-.349.147-.331-.257-.551-.533-.404-.57-.129-1.103.018-.055.147-.662.11-.992.147-.055-.11.037-.735.129-.331.147-.404-.037-.239.129-.276.147-1.415v-.459l.147-.386.018-.294.257-1.305v-.643l.276-.937-.055-.367.202-.239-.129-.257.147-.166-.018-.57.074-.037.221-1.397.165-.735-.092-.294.092-.349.202-.79.018-.735.257-.901.184-1.103.074-1.084.294-1.911.129-.459.221-1.286.404-.184.404.037.772-.147.588-.221.827-.037.533-.037,2.077-.257v.331l-.129,1.047v.423l-.129,1.397-.312,1.672-.055.827v.073l-.202,1.14.055.368.129-.018-.018-.129.202-.515.165-.11v-.202l.294-.79.202-.221.055-.643.147-.11.074-.404.184-.165.404-1.268.018-.165.184-.331-.074-.073.368-.643.239-.772ZM101.247,159.243l-.202.073-.037,1.176-.11.221.037.368-.221,1.029-.239,1.286-.129.901-.129.717-.257,1.048.037.239-.147.11-.055.864-.11.202.018.055-.184,1.195-.055.882-.074.166-.221,1.011-.055.901-.165.404.055.202-.239,1.342.055.184-.331,2.003-.037.221-.147.901-.221,1.581-.11-.037-.68.165-.533.184-.165.074-.312-.018.092-.147-.074-.129.074-.551.423-2.04.184-.331.165-.79.092-.092.018-.312.092-.882.147-.037.165-.754-.11-.386.386-1.893.312-1.691.276-.386.018-.845.092-.129-.037-.129.221-1.195v-.386l.018-.386.22-.496-.22-.625.239-.441-.239-.037.184-.735.129-.717.055-1.176.312-.515-.129-.459.074-.662-.074-.257-.092.018-.055-.055.037-.239-.551-.239.055-.312.147-.166h.551l.074-.129.845-.092.202.018.551-.11h.147l.074-.018-.257.974.129.312Z"/>
  <path d="M86.453,156.155l-.129.845-.441.11-1.029.092-1.048.221-.68-.276-.257-.202-.68-.055-.037.845-.331.11-.992.165-.055.073-.184-.018-.992.166-.129-.018-1.378.368-.129.129-.221-.074-1.636.441-.073.055-.459.055-.276.147-.147-.018-.551.202-.349-.037-.184.184-.515.074-1.268.257-.698.221-.992.092-.202.074-.312.441.202.11-.055.166.129.294.533.864.772.515.165-.092-.331-.459-.018-.221.312-.441.57-.202.478-.276.349-.073,1.268-.459,1.011-.294.294-.018.754-.312.092-.11.79-.184.974-.368.055.11,1.452-.588-.055.404-.937,2.463-.717,1.562-.074.294-.312.607h-.074l-.551.919-.588.956-.184.073-.055.276-.202.129-.184.368-.092.074-.074.165-.184.092-.478.956-1.048,1.323-.459.478-.055.313-.294.092-.754,1.158-.092.018-.515.551-.386.312-.11.404-.478.294-.276.459-.753.662-.478.68-.827.698-.221.294-.404.257-.257.404-.809.717-.368.368-1.764,1.378-.368.184-1.029.607-.202.239-1.048.312-.294-.037-.257-.257-.055-.294.257-.496.331.147.055.165,1.139-.753.129-.221.092-.607-.257-.478-.68-.073-.79.294-.551.515-.478.974-.055,1.103.037.165.625.625.643.184.588-.312.239.018.165-.184.809-.312.441-.221.147-.184.956-.588.57-.423.312-.331,1.691-1.323.496-.588.717-.478.092-.257,1.985-1.967.276-.459.607-.662h.11l.551-.735.349-.202.202.312.735,1.158.919.533h.312l-.202-.386-.129-.037v-.184l-.092-.22.147-.349.294-.184.129-.184.864-.441,1.599-.515.809-.276.809-.257.331-.11.588-.055-.202,1.415-.147.864-.129.129-.11.717.092.166-.129.184-.074.386-.221,1.489-.349,1.268-.018.331-.092.147.037.202-.147.331-1.783.735-.202.202-.404.055-.037.478.294.459.735.845.956.239.221-.092-.515-.404-.165-.312.294-.551.331-.368.165-.037.625-.441.57-.129.221-.202.184-.037,1.489-.662.165.221-.147.221.11.184-.147.165.221.294.202-.202.257-.717v-.184l.257-.239.79-.202.11.037.092-.055.257.055.662-.165.11.257-.331.551-.662.607v.129l.588-.184,1.139-.882.423-.551.074-.331-.147-.257-.643-.166-1.176.074-.257.147-.423-.073-.257.147-.11-.092.312-1.084v-.147l.937-3.768.221-.882.092-.68.165-.441.735-3.602.423-1.985.184-.992.515-2.352.368-1.783.441-2.702-.533-.515-.478.018ZM79.028,170.564l-.239.129-.165-.092-.404.184-1.599.147-.055.092-2.849.368-.11-.165.239-.092-.037-.22.607-.625.257-.441.551-.478.055-.276.202-.074.129-.221.717-.956.478-.882.496-.423.772-.937.459-.919.441-.459-.018-.129.312-.331.239-.643.221-.184.055-.221.79-1.25.588-1.47-.533-.753-.57-.441.478-.055.349-.074.312-.239.202.037.625-.092.037.515-.147,1.654-.092.515-.165,1.673-.11.11-.129,1.709-.276,1.967.037.257-.147.386-.165,1.397-.221,1.011.037.294-.092.533-1.562.165ZM85.994,159.629l-.129,1.066-.092.404-.79,4.484-.074.165.037.423-.129.055v.239l-.147.643-.037.386-.404,1.893-.312,1.856-.037.57-.11.165-.386,1.856-.11.276-.165.809-.625,2.371-.239.129-.551.037-.129.092-.809.184-.239.202-.607.037.055-.239.312-.515.312-1.011.606-1.342-.055-.11.331-1.213.276-.625.349-1.489.11-.901.11-.239.092-.588.147-.221.202-1.25.459-1.305.147-1.948.312-1.158.165-1.36.239-.331-.018-.459.184-1.783.018-.625.092-.533-.092-.79.423-.312,1.617-.459-.312,2.463Z"/>
  <path d="M42.365,172.958l-.257-.257-.037-.533-.257-.57-.165-.625-.221-.68-.257-1.029.018-.276-.386-.221-.57.037-1.213,2.095-.551.662-.441-.037-.239-.055-1.911-.349-.368-.147h-.662l-.478.239-.037.129.625.735.221.11.588.57,1.011,1.176-.055.184-.919,1.25-.184.533-.312.349-.79,1.103.165.239.625.092.992-.404.165.018,1.158-.239.68-.018.57-.147.129.092v.147l.478.459,1.084,1.378.423.386.551,1.103.57-.276.276-.662v-1.342l.184-2.408.735-.423,1.25-.459.68-.386.11-.276-.037-.165.074-.165-3.014-.937ZM42.88,174.777l-.919.515-.202.092-.129.404-.055,2.518-.018.588-.11.055-.845-.845-.607-.901v-.221l-.294-.092-.423-.79-.533-.037-.919.276-1.195.165-.551.184v-.129l.368-.974.147-.129.772-.974.221-.239.074-.294-.992-1.176-.551-.459-.276-.386-.037-.165,2.959.423.147.129.588-1.029.368-.331.588-1.048h.11l.459,1.286.312,1.139.074.496.312.515,2.426.919.165.147-1.434.368Z"/>
  <polygon points="55.841 177.861 55.014 177.695 54.628 177.603 53.966 177.64 53.084 177.769 51.761 178.007 52.275 177.089 52.404 176.445 52.551 175.673 52.771 175.435 52.698 175.085 52.974 174.111 53.066 173.413 53.066 172.273 53.213 171.116 53.213 170.417 53.396 169.958 53.231 169.884 53.396 169.388 53.396 169.039 53.268 167.973 53.36 167.348 53.286 166.962 53.323 166.723 53.213 166.539 53.543 165.253 53.433 164.371 53.488 163.764 53.58 163.397 53.654 163.323 53.415 161.981 53.599 161.099 53.672 161.007 53.599 160.419 53.396 160.033 53.249 159.923 53.323 159.758 53.102 159.243 53.029 159.151 52.606 158.563 52.312 158.489 51.761 158.048 51.338 157.883 50.272 157.644 49.849 157.663 49.96 158.03 50.198 160.915 50.401 164.058 50.364 164.297 50.474 165.014 50.548 166.319 50.676 169.553 50.75 170.178 50.731 170.674 50.897 173.394 50.97 175.802 51.044 176.17 50.989 176.262 51.044 177.695 51.062 178.228 50.493 178.522 49.555 178.926 47.993 179.68 47.313 180.158 47.129 180.47 47.589 181.224 49.059 182.124 49.28 182.051 49.243 181.885 48.875 181.573 48.71 181.205 48.967 180.764 49.243 180.562 50.033 180.048 50.474 179.864 51.081 179.533 51.503 179.257 51.614 179.257 51.889 179 52.073 179.037 52.257 178.871 52.477 178.871 53.323 178.577 53.819 178.504 54.738 178.467 55.197 178.577 54.609 179.257 54.793 179.386 55.363 179.073 56.245 178.338 56.043 178.007 55.841 177.861"/>
  <path d="M62.108,167.587l.864-1.011.57-1.084.239-.827.165-.294.018-.625-.074-.184.184-.165.018-.459-.092-.257.165-.037v-.312l-.129-.478v-.643l-.129-.386-.11-.625-.331-.423.11-.055v-.221l-.533-1.011h-.11v-.165l-.331-.331v-.165l-.202-.11-.294-.441-.827-.754h-.129l-.073-.221-1.268-.882h-.165l-.588-.423-1.452-.551-.147-.184-.79-.974-.588-.367h-.496l-.202.018.57.515.57.717-.423-.037-1.581-.092-.11.055-1.489.165-3.069.625-.809.312-.257.092-1.985.809-1.82,1.176-1.195,1.084-.662.79-1.139,1.838-.496,1.342-.074.459-.018.974.202.974.57,1.176.129.055.055.165.698.607.901.441,1.048.092.643-.018.092-.074.772-.184.459-.368h.184l.754-.662.459-.625.092-.496-.129-.147.239-.11.037-.074-.092-.698-.074-.073.055-.202-.202-.166v-.184l-.533-.478-.956-.404-.423-.073-.312.257.312.073.074.184.165.037.147.57-.147.864-.478.827-.588.533-.845.368-.974-.018-.349-.018-.147-.257-.184-.018-.459-.57-.165-.625-.129-.478-.037-.184.018-.496.129-.919.257-1.084.423-.533.754-1.139,1.084-1.121.57-.459.698-.643,1.36-.809.809-.404.79-.312.588-.147.57-.202,1.47-.404.294-.074,2.316-.239,1.507-.018.221.018.956.276.074.055.551,1.103.386.717.754,2.536.092.129.239,1.25.202,1.176v.239l.165,1.507.129,1.084.037,1.213v.901l-.018.386-.901.717-1.176.551-.992.294-.662.018-.441-.202-.368-.478v-.22l.331-.147.735.129.441-.202.184-.313.074-.423-.257-.57-.459-.276-.551.037-.496.073-.184.294-.11.037-.533.588v.459l.055.754.202.607.386.441.459.331.57.184.515.074.68-.092.312.11,1.213-.368.312-.11-.129.459-.368.901-.074.184-.276.551.184.221.147-.018.11.092.092-.092.221-.588.368-.459v-.239l.11-.037.533-1.342,1.489-.901.68-.809ZM60.637,166.484l-.221.129-.037-.165.018-1.728-.092-.165.055-.092-.202-2.352-.129-.992-.184-1.029-.864-2.536-.882-2.187.441.129.735.349.864.698.68.551.441.68.312.423.165.423.735,1.93v.606l-.055,1.195-.037.368-.129.147.018.276-.129.607-.349.698v.147l-.11.239-.533.827-.515.827Z"/>
</svg>