<?xml version="1.0" encoding="UTF-8"?>
<svg id="a" data-name="Layer 1 copy" xmlns="http://www.w3.org/2000/svg" width="3001" height="3001" viewBox="0 0 300.1 300.1">
  <path d="M46.956,185.117c.01-.375.027-.707.048-.996.021-.29.043-.509.064-.659.086-.75.3-1.301.643-1.654.343-.354.889-.584,1.638-.691.129-.022.375-.038.74-.049.364-.01.814-.021,1.349-.032.536-.01,1.124-.021,1.767-.032s1.306-.016,1.992-.016l2.313.032h1.638c.964,0,1.643.177,2.04.53.396.354.616.969.659,1.847h6.393c0-1.113-.07-2.066-.209-2.859-.14-.792-.375-1.461-.707-2.008-.333-.546-.777-.985-1.333-1.317-.557-.331-1.252-.605-2.088-.819-.343-.085-.734-.155-1.172-.209-.44-.053-.996-.096-1.671-.129-.674-.032-1.515-.053-2.521-.064-1.007-.01-2.239-.016-3.695-.016-2.056,0-3.742.022-5.06.064-1.316.044-2.35.118-3.098.225-1.386.193-2.478.52-3.277.98-.798.461-1.444,1.108-1.934,1.943-.213.386-.389.798-.527,1.237-.139.439-.251.964-.336,1.573-.085.611-.144,1.328-.176,2.153-.032.825-.048,1.815-.048,2.972,0,1.007.011,1.863.032,2.57s.064,1.322.128,1.847c.064.525.143.985.24,1.381.096.397.228.777.399,1.14.362.9.9,1.606,1.615,2.12.713.515,1.657.9,2.829,1.156.341.065.724.124,1.152.177.426.053.956.096,1.588.129.632.032,1.386.053,2.265.064.878.01,1.927.016,3.148.016h3.983c1.071,0,1.944-.006,2.619-.016.674-.011,1.194-.022,1.557-.032.364-.011.632-.027.804-.048,1.349-.15,2.42-.477,3.212-.98.792-.503,1.37-1.258,1.735-2.265.106-.278.192-.583.257-.916.064-.331.117-.723.16-1.172.043-.45.075-.985.097-1.606.021-.621.032-1.37.032-2.249v-2.955h-14.617v3.983h8.256v.948c0,.097-.011.209-.032.338-.086,1.049-.761,1.681-2.024,1.895-.193.043-.359.07-.498.08-.14.011-.338.022-.595.032-.257.011-.621.016-1.092.016h-1.992c-1.392,0-2.479-.005-3.26-.016-.783-.01-1.381-.021-1.799-.032-.418-.01-.729-.037-.932-.08-.204-.043-.413-.097-.627-.161-.429-.128-.777-.3-1.044-.514s-.482-.514-.642-.9c-.161-.386-.274-.878-.338-1.477-.064-.6-.096-1.338-.096-2.217,0-.343.005-.712.016-1.108.01-.396.021-.782.032-1.156"/>
  <rect x="70.979" y="191.591" width="6.393" height="5.975"/>
  <polygon points="98.825 190.37 91.018 176.139 80.674 176.139 80.674 197.566 86.97 197.566 86.777 181.021 96.126 197.566 101.33 197.566 110.839 181.021 110.518 197.566 116.879 197.566 116.879 176.139 106.599 176.139 98.825 190.37"/>
  <rect x="120.4" y="176.139" width="6.521" height="21.427"/>
  <polygon points="153.797 192.426 140.818 176.139 130.442 176.139 130.442 197.566 136.706 197.566 136.546 181.439 149.332 197.566 159.804 197.566 159.804 176.139 153.636 176.139 153.797 192.426"/>
  <polygon points="169.747 188.924 186.066 188.924 186.066 184.716 169.747 184.716 169.747 180.989 187.062 180.989 187.062 176.138 163.322 176.138 163.322 197.566 187.287 197.566 187.287 192.715 169.747 192.715 169.747 188.924"/>
  <rect x="190.239" y="176.139" width="6.521" height="21.427"/>
  <path d="M224.406,188.796c.352-.117.639-.246.863-.385.224-.139.431-.305.623-.497.894-.963,1.342-2.578,1.342-4.845,0-1.669-.219-3.005-.658-4.011-.439-1.006-1.129-1.722-2.07-2.15-.321-.15-.658-.273-1.011-.369-.353-.097-.755-.177-1.204-.241-.449-.064-.963-.107-1.54-.128-.578-.022-1.252-.033-2.021-.033h-18.45v21.428h6.522v-5.397h9.967c.876,0,1.496.028,1.859.081.364.053.673.166.93.337.299.215.507.498.625.852.117.353.176.841.176,1.461v2.667h6.618v-3.38c0-.922-.07-1.652-.209-2.188-.14-.537-.37-.988-.691-1.353-.321-.386-.745-.66-1.268-.82-.526-.161-1.344-.274-2.458-.339-.086,0-.225-.005-.418-.016s-.407-.027-.643-.048c.724-.107,1.336-.209,1.837-.305.5-.096.927-.203,1.278-.321M220.569,185.687c-.097.319-.283.569-.561.75-.278.18-.657.303-1.138.367-.481.064-1.116.095-1.907.095h-10.16v-5.493h10.385c.491,0,.897.006,1.217.017.321.011.593.042.818.095.224.053.406.118.545.192.138.074.272.176.401.303.213.234.357.522.432.862.075.34.113.852.113,1.533,0,.532-.049.959-.145,1.278"/>
  <path d="M257.432,178.05c-.847-.91-2.096-1.514-3.747-1.815-.386-.064-.809-.117-1.27-.16s-1.05-.075-1.769-.097c-.718-.021-1.603-.037-2.653-.048-1.051-.01-2.348-.016-3.891-.016-1.416,0-2.616.011-3.602.032-.986.022-1.838.054-2.556.097-.718.043-1.329.107-1.834.192-.504.086-.98.193-1.431.322-1.222.365-2.165.868-2.83,1.509-.665.643-1.146,1.542-1.447,2.699-.107.365-.188.707-.241,1.028-.054.321-.097.696-.129,1.124-.032.429-.054.943-.064,1.541-.011.601-.016,1.349-.016,2.249,0,1.178.016,2.174.048,2.988.032.815.085,1.515.161,2.104.075.59.177,1.098.306,1.526.128.429.3.836.514,1.22.408.793.97,1.419,1.689,1.88.718.461,1.678.798,2.878,1.012.643.129,1.667.219,3.072.273,1.404.053,3.382.081,5.933.081h1.673c.601,0,1.179-.006,1.737-.017.557-.011,1.071-.021,1.543-.032s.858-.027,1.158-.048c1.565-.064,2.83-.23,3.795-.498.965-.268,1.769-.68,2.412-1.236.45-.386.83-.814,1.141-1.285.311-.471.558-1.044.74-1.719.182-.675.311-1.482.386-2.425.075-.943.113-2.056.113-3.341,0-2.591-.065-4.325-.193-5.204-.236-1.713-.777-3.026-1.625-3.936M252.696,188.433c-.022.511-.064.948-.129,1.31-.064.362-.144.665-.241.911-.096.245-.22.463-.369.655-.193.255-.429.463-.707.622-.279.16-.686.282-1.221.367-.535.086-1.247.144-2.136.176-.889.032-2.04.048-3.453.048-1.22,0-2.228-.011-3.02-.032-.793-.021-1.435-.064-1.928-.128-.493-.064-.878-.149-1.156-.255-.278-.107-.525-.245-.739-.416-.193-.17-.359-.377-.498-.622-.14-.245-.252-.558-.338-.942-.085-.384-.144-.847-.176-1.39-.032-.543-.049-1.209-.049-1.997,0-.766.017-1.416.049-1.949.032-.531.091-.979.176-1.341.086-.362.204-.66.354-.895.15-.234.332-.436.546-.607.214-.148.471-.271.771-.367.3-.095.707-.175,1.221-.239.514-.064,1.167-.107,1.96-.128.792-.021,1.787-.032,2.988-.032,2.013,0,3.565.032,4.658.096,1.092.064,1.895.266,2.41.606.514.341.819.879.916,1.614.096.734.144,1.773.144,3.115,0,.702-.011,1.309-.032,1.82"/>
  <path d="M243.785,102.309l2.48,8.003-4.097,3.143.002.028h-.002s.324,6.928.324,6.928c4.393-.447,7.939.2,11.24,1.659v45.033h-46.11c-5.262-1.77-10.247-4.6-16.44-8.577-4.078-2.62-12.067,1.872-16.516-2.62,2.424-4.388,5.359-8.224,9.696-10.844-1.099,1.926-5.838,8.4-4.192,10.097.26.269,1.034.464,1.461.397l9.167-1.452c1.399-.222,2.903.08,4.246.508,7.024,2.239,14.337,3.18,21.754,1.715-7.645.131-15.093-1.191-21.937-4.762-1.113-.58-2.504-.778-3.696-.622l-4.243.553c-.393.051-1.312-.424-1.476-.756,2.35-1.813,4.27-3.467,6.206-5.498,2.621-2.749,5.799-4.69,9.357-6.542-.721,4.461.516,8.731,3.7,11.696,1.968,1.833,4.499,3.025,7.137,3.292.614.099,1.243.152,1.886.152,6.298,0,11.437-4.959,11.726-11.186.238-1.846-.054-3.76-.371-5.742,4.216,1.755,7.869,3.753,11.047,6.71-1.232,3.896-4.061,6.532-7.081,9.32,3.889-1.645,7.015-3.959,10.294-6.476l7.752,1.821c-4.358-5.1-7.516-8.394-13.077-12.373,5.056.557,9.424,2.721,14.055,5.509-3.551-4.986-9.257-8.068-15.742-9.298l-.562-.13c-5.434-1.029-10.508-1.525-15.988-1.539l9.057-4.437c3.042-1.49,5.928-2.668,9.268-3.795l-.091.379c.321-.206.651-.394.991-.568-.608-1.701-3.43-11.113-3.43-11.113l3.02-3.092-1.705-5.519H40.387v70.312h218.863v-70.312h-15.465ZM145.396,122.985l-2.463-15.158h18.429c-.654,2.224-1.136,4.2-1.12,5.126.002.177.019.318.057.417,1.268,3.334,2.44,6.201,4.007,9.438,0-.011,0-.021,0-.032,0,0,0,.003,0,.003-.121-2.707-.575-4.922-1.006-7.416-.072-.97-.14-1.977-.139-2.978,0-.601.027-1.199.092-1.786l.307-2.773h25.771c-2.77,2.432-5.622,4.793-8.571,7.122,4.246-2.057,8.207-4.46,11.975-7.122h25.333c-1.765.835-3.474,1.696-5.08,2.535-10.165,5.306-20.32,10.218-31.067,14.23-3.378,1.261-6.524,2.043-10.092,2.337.394,2.876,1.541,5.199,2.745,7.669-2.887-2.102-4.883-4.846-6.673-7.923-.103,3.591,1.462,6.353,2.865,9.611-5.766-4.783-9.603-10.685-13.447-17.256.419,4.1,1.209,8.033,2.155,12.03.514,2.167,1.429,4.158,2.252,6.419-3.108.035-5.752-1.261-8.597-2.807,2.892,4.885,7.047,5.591,11.981,7.072-7.338,4.571-9.824,2.54-16.099-1.733-3.663,1.84-8.438,5.074-12.724,3.351l6.1-10.643c1.021-1.781,1.834-3.591,2.681-5.478.592-1.322.567-2.797.33-4.255M105.418,107.828c3.388,2.374,6.922,4.522,10.656,6.406.006-.015.013-.03.019-.044.012-.027.021-.05.03-.071.028-.066.055-.132.082-.198-2.555-1.979-5.028-4.006-7.437-6.094h32.756c-.416,6.102-.385,12.095-.19,18.343-2.354,3.518-5.005,6.826-8.174,9.745-2.222,2.048-5.245,2.654-8.139,2.798,2.873-3.514,4.866-7.682,5.049-12.273-1.931,3.171-3.938,5.719-6.685,7.976,1.218-2.638,2.353-5.051,2.731-7.875-3.695-.215-6.826-1.029-10.193-2.294-1.354-.508-2.697-1.03-4.032-1.566.004-.008.009-.015.013-.024-9.117-3.653-17.836-7.912-26.604-12.466-1.588-.825-3.172-1.615-4.762-2.366h24.881ZM45.905,167.103v-46.12c2.868-1.026,5.952-1.424,9.554-.992,9.118,1.093,17.977,5.789,26.292,9.917-10.645.342-25.286,1.39-31.686,10.952,1.217-.7,2.419-1.378,3.623-2.003.003.008.006.017.008.025,3.191-1.657,6.404-2.94,9.992-3.268-5.316,3.844-9.124,7.629-12.925,12.299l7.875-1.793c.061.051.122.099.184.148-.004.007-.007.014-.01.021,3.114,2.538,6.173,4.393,9.675,6.289l.354-.207c-.008-.005-.013-.011-.021-.017l.021-.012c-2.911-2.315-5.06-4.686-6.698-7.916-.111-.218-.163-.445-.165-.669.007-.498.263-.979.686-1.323,3.14-2.558,6.524-4.512,10.385-5.98-.52,1.553-.761,3.114-.734,4.63.05,3.37,1.41,6.524,3.928,8.898,3.584,3.38,8.921,4.447,13.586,2.317,4.544-2.075,7.178-6.414,7.207-11.358,0-.108,0-.216,0-.323,0-.042,0-.083-.002-.125-.017-.712-.087-1.435-.213-2.165,4.548,1.983,8.147,5.103,11.512,8.594,1.303,1.353,2.881,2.26,4.307,3.591-1.689,1.546-6.618-.733-8.7.318-5.46,2.752-11.127,4.386-17.154,4.952.01-.011.019-.021.029-.032-1.819.172-3.672.248-5.561.226.054.01.108.019.162.03-.054,0-.108,0-.162,0,7.304,1.4,14.756.391,21.861-1.888,1.325-.425,2.757-.569,4.107-.36l9.056,1.403c.466.072,1.274-.135,1.569-.417,1.606-1.534-3.063-8.003-4.109-9.699l-.095-.393c4.212,2.742,7.225,6.481,9.659,10.866-2.422,2.995-8.572,2.158-12.212,1.795-1.9-.189-3.413.22-4.981,1.238-6.364,4.132-11.524,6.908-17.071,8.554h-43.132ZM98.813,167.103l9.178-4.263c3.138-1.457,6.532-2.095,9.931-1.462,5.733,2.06,16.935-7.249,16.935-7.249,2.206.383,4.123.756,6.37.593-4.014-2.207-7.123-3.235-9.639-7.329,5.947,1.431,6.513,2.048,12.285-.147,6.246-2.374,8.414,1.118,15.174,1.501,2.245.127,4.197-.682,6.611-1.07-2.538,2.699-5.242,4.667-8.374,6.736,2.325-.147,4.55-.715,7.053-1.39l-2.084,4.942c8.961-1.757,11.253,4.169,17.776,3.745,3.039-.198,5.845.004,8.641,1.028,3.338,1.222,6.505,2.837,9.669,4.364h-99.526Z"/>
</svg>