<?xml version="1.0" encoding="UTF-8"?>
<svg id="a" data-name="Layer 1 copy" xmlns="http://www.w3.org/2000/svg" width="3001" height="3001" viewBox="0 0 300.1 300.1">
  <path d="M274.293,157.44l-84.629.108-3.415-16.534-13.309,5.971v-6.409h-33.469v10.334h15.363c-.086.346-.271.685-.564,1.015-.417.468-1.004.911-1.764,1.327-.76.417-1.67.791-2.731,1.124-1.062.333-2.243.625-3.544.874-1.301.25-2.706.437-4.215.562-1.509.125-3.086.188-4.73.188-1.791,0-3.481-.104-5.073-.312-1.592-.208-3.086-.51-4.48-.905-1.395-.395-2.649-.9-3.762-1.514-1.114-.614-2.066-1.337-2.856-2.17-.792-.833-1.405-1.78-1.842-2.841s-.656-2.237-.656-3.528v-.062c0-1.291.224-2.466.671-3.528.447-1.062,1.087-2.003,1.92-2.826.833-.822,1.811-1.524,2.935-2.107,1.124-.583,2.357-1.072,3.7-1.467,1.342-.395,2.768-.687,4.277-.874,1.509-.188,3.054-.281,4.636-.281,1.395,0,2.867.068,4.418.203,1.55.135,3.044.338,4.48.608,1.437.271,2.763.63,3.981,1.077,1.218.448,2.211.984,2.981,1.608h20.106c-.77-2.436-2.284-4.621-4.542-6.557-2.259-1.936-5.032-3.564-8.32-4.886-3.289-1.322-6.983-2.331-11.084-3.028s-8.378-1.046-12.832-1.046c-5.537,0-10.579.505-15.127,1.515-4.548,1.01-8.445,2.493-11.692,4.449-3.247,1.957-5.771,4.371-7.571,7.244-.54.862-.989,1.767-1.367,2.706-5.684-11.34-15.723-18.88-23.698-17.85-1.132.146-2.245.486-3.282,1.013-2.542,1.245-3.617,3.404-4.021,5.004v-.381h-11.994c5.424,4.268,5.925,6.597,5.925,6.597-2.583-2.584-5.33-4.793-8.12-6.597-10.116-6.542-20.801-7.762-26.359-2.204-5.194,5.194-4.469,14.868.989,24.369v14.278c0,.709.228,1.291.684,1.747.455.456,1.037.683,1.746.683h10.23c-6.073-4.537-9.688-12.187-9.688-12.187.615.827,1.266,1.646,1.952,2.456.903,1.065,1.866,2.113,2.888,3.134,2.583,2.584,5.331,4.793,8.12,6.597,10.116,6.542,20.801,7.762,26.359,2.204,1.944-1.944,3.058-4.516,3.406-7.47,4.607,7.81,10.91,11.669,16.867,10.899.792-.102,1.635-.276,2.408-.573,2.54-.859,4.782-2.766,6.445-5.432l21.148,4.347-40.687,15.819,77.412-9.686,37.692,11.262-3.758-15.576,81.442-12.488ZM69.185,134.978v-6.992c.12.128.266.197.412.178.459.006.961-.713,1.217-1.596.606-1.975,1.603-4.064,4.86-4.747,5.275-1.14,13.134,2.944,18.926,18.54,1.865,4.924,2.963,9.62,3.36,13.622.121,1.217.167,2.367.154,3.457h-5.124c.057-1.53.035-3.495-.187-5.732-.314-3.163-1.026-6.863-2.436-10.668-3.085-7.97-8.023-14.392-13.23-13.719-.566.073-1.062.268-1.616.47-3.559,1.503-5.888,5.83-5.841,12.141-.021-.032-.037-.063-.058-.094-1.072-1.644-2.284-3.271-3.63-4.859h3.192ZM75.196,148.165c-.888-3.743-1.485-6.869-1.742-9.451-.577-5.809.562-8.768,3.756-9.507,4.54-1.044,10.147,6.926,12.503,15.055.798,2.838,1.224,5.398,1.436,7.529.232,2.337.216,4.211.134,5.649h-12.895c-1.242-2.643-2.313-5.739-3.193-9.275ZM61.923,134.978c1.501,1.581,2.861,3.211,4.071,4.859h-16.932v-4.859h12.861ZM32.056,139.838c-.709,0-1.291.254-1.746.759-.217.216-.381.456-.495.719-2.836-6.741-2.833-12.936.657-16.425,3.869-3.869,11.064-3.453,18.643.37h-7.34c-.709,0-1.291.254-1.746.759-.456.456-.683,1.013-.683,1.67v12.148h-7.289ZM39.345,154.415v-4.859h31.937c.215.701.454,1.414.718,2.139.559,2.03.826,3.967.781,5.746h-1.853v-3.025h-31.583ZM70.083,164.502c-3.87,3.87-11.065,3.453-18.643-.37h18.988c-.112.126-.226.25-.345.37ZM70.928,163.51v-5.939l1.812.373c-.128,2.141-.705,4.046-1.812,5.566ZM92.092,167.621c-5.22.588-9.508-2.434-12.755-8.322l17.928,3.686c-.941,2.671-2.657,4.346-5.173,4.636ZM103.523,157.363c.022.026.049.05.072.077h-.087c.005-.026.01-.051.016-.077Z"/>
</svg>