<?xml version="1.0" encoding="UTF-8"?>
<svg id="a" data-name="Layer 1 copy" xmlns="http://www.w3.org/2000/svg" width="3001" height="3001" viewBox="0 0 300.1 300.1">
  <path d="M95.837,231.093c6.844,4.606,14.211,8.282,21.942,10.993,6.82-15.209,17.145-23.646,30.015-24.552v-14.156c-18.999.706-36.469,10.014-51.957,27.715Z"/>
  <path d="M151.93,221.649v25.879c9.222-.169,18.131-1.611,26.565-4.181-6.254-13.719-15.171-21.009-26.565-21.699Z"/>
  <path d="M147.794,115.257v-14.399c-20.359-.704-38.959-10.604-55.341-29.462-3.962,2.918-7.737,6.143-11.281,9.688-2.027,2.026-3.949,4.157-5.773,6.326,15.514,17.301,41.699,27.358,72.395,27.848Z"/>
  <path d="M147.794,119.393c-31.582-.491-58.659-10.868-75.005-28.732-6.051,7.847-10.823,16.479-14.2,25.658,28.229,14.763,62.139,17.048,89.205,17.164v-14.09Z"/>
  <path d="M75.399,212.691c1.825,2.168,3.747,4.276,5.773,6.304,3.544,3.545,7.32,6.792,11.281,9.71,16.383-18.859,34.982-28.759,55.341-29.462v-14.399c-30.694.488-56.88,10.545-72.395,27.848Z"/>
  <path d="M72.789,209.439c16.348-17.865,43.423-28.242,75.005-28.732v-14.112c-27.066.116-60.977,2.424-89.205,17.186,3.377,9.18,8.149,17.811,14.2,25.658Z"/>
  <path d="M121.738,243.391c8.359,2.531,17.109,3.904,26.056,4.114v-25.835c-11.154.883-19.9,8.189-26.056,21.721Z"/>
  <path d="M204.396,69.007c-6.846-4.605-14.212-8.284-21.942-10.993-6.913,15.419-17.407,23.868-30.524,24.574v14.156c19.206-.548,36.832-9.87,52.466-27.737Z"/>
  <path d="M224.834,87.409c-1.825-2.168-3.723-4.298-5.751-6.326-3.543-3.545-7.319-6.77-11.281-9.688-16.527,19.024-35.305,28.937-55.872,29.484v14.399c30.926-.38,57.299-10.467,72.904-27.87Z"/>
  <path d="M147.794,96.721v-14.156c-12.87-.904-23.196-9.343-30.015-24.552-7.731,2.709-15.098,6.388-21.942,10.993,15.488,17.701,32.958,27.01,51.957,27.715Z"/>
  <path d="M227.466,90.661c-16.44,17.966-43.725,28.374-75.536,28.755v14.068c27.152-.088,61.322-2.303,89.736-17.164-3.376-9.18-8.149-17.812-14.2-25.658Z"/>
  <path d="M147.794,78.429v-25.835c-8.946.209-17.697,1.583-26.056,4.114,6.157,13.533,14.903,20.838,26.056,21.721Z"/>
  <path d="M178.517,56.709c-8.526-2.582-17.454-3.971-26.587-4.136v25.879c11.406-.691,20.332-7.996,26.587-21.743Z"/>
  <path d="M178.653,150.375c2.817.131,4.771.168,7.423-.051l-3.809-5.895-3.615,5.946Z"/>
  <path d="M226.11,144.357l-7.073.037.031,4.695c2.698-.259,10.69,1.273,9.466-3.023-.275-.967-1.301-1.715-2.424-1.709Z"/>
  <path d="M151.93,203.356v14.156c13.104.706,23.587,9.143,30.502,24.53,7.807-2.75,15.183-6.454,21.942-10.993-15.625-17.838-33.253-27.146-52.444-27.693Z"/>
  <path d="M242.861,120.278c-28.703,14.812-62.729,17.195-90.002,17.341v-.066h-5.685v.066c-27.265-.148-61.247-2.539-89.935-17.341-8.517,22.959-5.068,46.223,0,59.544,28.688-14.803,62.67-17.194,89.935-17.341v.044h5.685v-.044c27.272.144,61.297,2.53,90.002,17.341,5.068-13.321,8.517-36.586,0-59.544ZM83.925,156.929c-4.565,2.649-11.677,2.574-16.415,1.342-3.955-1.029-6.496-4.129-6.549-7.944-.145-10.263,14.473-10.15,21.813-8.468,1.609.369,2.786.344,4.435-.029l-2.612,5.719c-3.634-3.327-8.299-4.516-12.779-2.885-2.086.76-3.011,2.914-3.239,4.714-.279,2.202.496,4.266,2.341,5.546,2.273,1.577,5.273,1.756,7.794.678,1.177-.503,2-1.869,1.496-3.196l-5.228-.031.011-3.16,12.42.016.003,9.218-3.492-1.519ZM92.631,158.884c-1.811.076-3.029-1.158-3.048-2.631-.02-1.574,1.218-2.7,2.892-2.729,1.62-.028,2.851.933,3.003,2.5.14,1.449-.998,2.782-2.847,2.86ZM122.056,158.626c-.154-4.163.125-7.849-.3-12.388l-7.865,12.236-2.837.117-8.974-12.656c-.168,2.828-.153,5.064-.146,7.533.008,2.857,1.813,4.212,4.564,4.952l-8.223.168-.058-17.094,9.117-.062,7.042,9.686,6.333-9.639,11.523-.017c-1.045.513-1.917.869-2.48,1.339-.901.751-.674,1.983-.689,3.072l-.121,8.57c-.108,2.255,1.187,3.28,3.339,4.095l-10.225.089ZM133.544,158.597l-.066-17.119,9.697.051c-1.991,1.062-2.792,1.815-2.796,3.694l-.022,8.731c-.006,2.502,1.002,3.453,3.205,4.579l-10.018.063ZM168.216,158.543c-6.999.133-6.574.922-10.985-3.824l-8.321-8.954.011,7.833c.004,2.769,1.882,3.946,4.756,4.832l-8.418.119-.025-17.089,9.34.006,10.025,10.922.14-10.928,6.894.04c-2.238.847-3.446,2.042-3.442,4.369l.024,12.674ZM194.379,158.66c-1.616.01-3.036-.506-3.97-1.842l-2.243-3.204-11.251.029c-.534.001-1.252,1.277-1.274,1.775-.025.561.484,1.412.94,2.022l3.184,1.086-10.391.017,10.748-17.059,8.497-.009,9.248,13.748c.66.981,1.371,1.706,2.34,2.694.355-1.58.161-2.863.17-4.461l.07-11.993,10.334.008c-1.977.79-3.409,1.628-3.254,3.748v9.366c-.001,2.26,1.415,2.838,3.264,3.973l-16.411.102ZM228.886,158.64l-5.345-6.44-4.418.022c-.23,1.819-.122,3.722,1.146,5.042l2.428,1.286-10.606.076-.019-17.171,19.29.108c2.429.014,4.423,1.918,4.771,3.85.425,2.356-.778,4.585-3.071,5.389l-2.211.774,3.466,3.565c1.381,1.42,2.957,2.368,4.822,3.4l-10.255.1Z"/>
  <path d="M151.93,180.685c31.791.38,59.047,10.766,75.492,28.71,5.942-7.723,10.765-16.339,14.2-25.636-28.408-14.847-62.549-17.075-89.692-17.164v14.09Z"/>
  <path d="M151.93,184.821v14.399c20.551.547,39.311,10.424,55.828,29.418,6.303-4.634,12.031-9.988,17.054-15.97-15.61-17.383-41.974-27.468-72.882-27.848Z"/>
</svg>