<?xml version="1.0" encoding="UTF-8"?>
<svg id="a" data-name="Layer 1 copy" xmlns="http://www.w3.org/2000/svg" width="3001" height="3001" viewBox="0 0 300.1 300.1">
  <path d="M216.047,163.641c.63-3.078,1.044-6.216,1.24-9.374h4.349v-8.435h-33.742v8.435h4.009c-.543,5.473-2.133,10.637-4.565,15.291l-6.333-6.333c.006-.013.011-.026.017-.039.863-2.04,1.526-4.175,1.97-6.345.455-2.222.685-4.507.685-6.791s-.231-4.569-.685-6.791c-.444-2.17-1.107-4.305-1.97-6.345-.006-.013-.011-.026-.017-.039l6.333-6.333,6.201-6.201,6.132-6.132,4.295-4.295c.951.19,1.923.286,2.908.286.08,0,.16-.002.24-.003,1.906-.03,3.758-.419,5.508-1.159,1.758-.744,3.337-1.808,4.691-3.162,1.354-1.354,2.418-2.933,3.162-4.691.771-1.823,1.162-3.756,1.162-5.747,0-3.094-.948-6.057-2.741-8.569-1.375-1.927-3.162-3.473-5.234-4.544-1.071-2.072-2.618-3.859-4.544-5.234-2.512-1.793-5.475-2.741-8.569-2.741-1.991,0-3.925.391-5.747,1.162-1.758.744-3.337,1.808-4.691,3.162-1.354,1.354-2.418,2.933-3.162,4.691-.74,1.749-1.129,3.601-1.159,5.508-3.056-1.919-6.271-3.597-9.584-4.998-4.076-1.724-8.342-3.048-12.679-3.936-3.078-.63-6.216-1.044-9.374-1.24v-4.349h-8.435v4.349c-3.158.196-6.296.61-9.374,1.24-4.337.887-8.603,2.212-12.679,3.936-3.313,1.401-6.527,3.079-9.583,4.998-.03-1.906-.419-3.758-1.159-5.508-.744-1.758-1.808-3.337-3.162-4.691-1.354-1.354-2.933-2.418-4.691-3.162-1.823-.771-3.756-1.162-5.747-1.162-3.094,0-6.057.948-8.569,2.741-1.927,1.375-3.473,3.162-4.544,5.234-2.072,1.071-3.859,2.618-5.234,4.544-1.793,2.512-2.741,5.475-2.741,8.569,0,1.991.391,3.925,1.162,5.747.744,1.758,1.808,3.337,3.162,4.691,1.354,1.354,2.933,2.418,4.691,3.162,1.749.74,3.601,1.129,5.508,1.159-1.919,3.056-3.597,6.271-4.998,9.583-1.724,4.076-3.048,8.342-3.936,12.679-.63,3.078-1.044,6.216-1.24,9.374h-4.349v8.435h4.349c.196,3.158.61,6.296,1.24,9.374.887,4.337,2.212,8.603,3.936,12.679,1.401,3.313,3.079,6.527,4.998,9.584-1.906.03-3.758.419-5.508,1.159-1.758.744-3.337,1.808-4.691,3.162-1.354,1.354-2.418,2.933-3.162,4.691-.771,1.823-1.162,3.756-1.162,5.747,0,3.094.948,6.057,2.741,8.569,1.375,1.927,3.162,3.473,5.234,4.544,1.071,2.072,2.618,3.859,4.544,5.234,2.512,1.793,5.475,2.741,8.569,2.741,1.991,0,3.925-.391,5.747-1.162,1.758-.744,3.337-1.808,4.691-3.162,1.354-1.354,2.418-2.933,3.162-4.691.74-1.749,1.129-3.601,1.159-5.508,3.056,1.919,6.271,3.597,9.583,4.998,4.076,1.724,8.342,3.048,12.679,3.936,3.078.63,6.216,1.044,9.374,1.24v4.349h8.435v-4.349c3.158-.196,6.296-.61,9.374-1.24,4.337-.887,8.603-2.212,12.679-3.936,3.313-1.401,6.527-3.079,9.584-4.998.03,1.906.419,3.758,1.159,5.508.744,1.758,1.808,3.337,3.162,4.691s2.933,2.418,4.691,3.162c1.823.771,3.756,1.162,5.747,1.162,3.094,0,6.057-.948,8.569-2.741,1.927-1.375,3.473-3.162,4.544-5.234,2.072-1.071,3.859-2.618,5.234-4.544,1.793-2.512,2.741-5.475,2.741-8.569,0-1.991-.391-3.925-1.162-5.747-.744-1.758-1.808-3.337-3.162-4.691s-2.933-2.418-4.691-3.162c-1.749-.74-3.601-1.129-5.508-1.159,1.919-3.056,3.597-6.271,4.998-9.584,1.724-4.076,3.048-8.342,3.936-12.679ZM188.599,105.42l5.977-5.977,1.251-1.251-1.109-2.618c-.33-.779-.497-1.608-.497-2.464,0-3.489,2.838-6.327,6.327-6.327,2.656,0,5.047,1.677,5.951,4.172l.673,1.857,1.857.673c2.496.904,4.172,3.295,4.172,5.951,0,3.489-2.838,6.327-6.327,6.327-.856,0-1.686-.167-2.464-.497l-2.618-1.109-1.251,1.251-5.977,5.977-5.983,5.983-5.989,5.989-6.003,6.003c-.865-1.113-1.8-2.174-2.795-3.169-.995-.995-2.056-1.93-3.169-2.795l6.003-6.003,5.989-5.989,5.983-5.983ZM175.24,150.05c0,2.828-.464,5.548-1.32,8.087-2.518,7.471-8.428,13.381-15.899,15.899-2.539.856-5.259,1.32-8.087,1.32s-5.548-.464-8.087-1.32c-7.471-2.518-13.381-8.428-15.899-15.899-.856-2.539-1.32-5.259-1.32-8.087s.464-5.548,1.32-8.087c2.518-7.471,8.428-13.381,15.899-15.899,2.54-.856,5.259-1.32,8.087-1.32s5.548.464,8.087,1.32c7.471,2.518,13.381,8.428,15.899,15.899.856,2.54,1.32,5.259,1.32,8.087ZM154.152,91.151c10.126.715,19.548,3.982,27.624,9.163l-6.132,6.132c-1.934-1.142-3.945-2.156-6.006-3.028-3.058-1.294-6.259-2.287-9.512-2.953-1.965-.402-3.962-.686-5.974-.853v-8.461ZM154.152,112.09v-4.009c5.473.543,10.637,2.133,15.291,4.565l-6.333,6.333c-.013-.006-.026-.011-.039-.017-2.04-.863-4.175-1.526-6.345-1.97-2.222-.455-4.507-.685-6.791-.685s-4.569.231-6.791.685c-2.17.444-4.305,1.107-6.345,1.97-.013.006-.026.011-.039.017l-6.333-6.333c4.654-2.433,9.819-4.022,15.291-4.565v4.009h8.435ZM145.716,91.151v8.461c-2.011.166-4.009.451-5.974.853-3.254.666-6.454,1.659-9.512,2.953-2.061.872-4.072,1.886-6.006,3.028l-6.132-6.132c8.076-5.181,17.498-8.448,27.624-9.163ZM86.668,99.437c0-2.656,1.677-5.048,4.172-5.951l1.857-.672.673-1.857c.904-2.496,3.295-4.172,5.951-4.172,3.489,0,6.327,2.838,6.327,6.327,0,.856-.167,1.686-.497,2.464l-1.109,2.618,1.251,1.251,5.977,5.977,5.983,5.983,5.989,5.989,6.003,6.003c-1.113.865-2.174,1.8-3.169,2.795-.995.995-1.93,2.056-2.795,3.169l-6.003-6.003-5.989-5.989-5.983-5.983-5.977-5.977-1.251-1.251-2.618,1.109c-.779.33-1.608.497-2.464.497-3.489,0-6.327-2.838-6.327-6.327ZM116.878,156.841c.444,2.17,1.107,4.305,1.97,6.345.006.013.011.026.017.039l-6.333,6.333c-2.433-4.654-4.022-9.819-4.565-15.291h4.009v-8.435h-4.009c.543-5.473,2.133-10.637,4.565-15.291l6.333,6.333c-.006.013-.011.026-.017.039-.863,2.04-1.526,4.175-1.97,6.345-.455,2.222-.685,4.507-.685,6.791s.231,4.569.685,6.791ZM100.198,118.208l6.132,6.132c-1.142,1.934-2.156,3.945-3.028,6.006-1.294,3.058-2.287,6.259-2.953,9.512-.402,1.965-.686,3.962-.853,5.974h-8.461c.715-10.126,3.982-19.548,9.163-27.624ZM91.035,154.267h8.461c.166,2.011.451,4.009.853,5.974.666,3.254,1.659,6.454,2.953,9.512.872,2.061,1.886,4.072,3.028,6.006l-6.132,6.132c-5.181-8.076-8.448-17.498-9.163-27.624ZM111.269,194.679l-5.977,5.977-1.251,1.251,1.109,2.618c.33.779.497,1.608.497,2.464,0,3.489-2.838,6.327-6.327,6.327-2.656,0-5.048-1.677-5.951-4.172l-.672-1.857-1.857-.673c-2.496-.904-4.172-3.295-4.172-5.951,0-3.489,2.838-6.327,6.327-6.327.856,0,1.686.167,2.464.497l2.618,1.109,1.251-1.251,5.977-5.977,5.983-5.983,5.989-5.989,6.003-6.003c.865,1.113,1.8,2.174,2.795,3.169.995.995,2.056,1.93,3.169,2.795l-6.003,6.003-5.989,5.989-5.983,5.983ZM145.716,208.948c-10.126-.715-19.548-3.982-27.624-9.163l6.132-6.132c1.934,1.142,3.945,2.156,6.006,3.028,3.058,1.294,6.259,2.287,9.512,2.953,1.965.402,3.962.686,5.974.853v8.461ZM145.716,188.009v4.009c-5.473-.543-10.637-2.133-15.291-4.565l6.333-6.333c.013.006.026.011.039.017,2.04.863,4.175,1.526,6.345,1.97,2.222.455,4.507.685,6.791.685s4.569-.231,6.791-.685c2.17-.444,4.305-1.107,6.345-1.97.013-.006.026-.011.039-.017l6.333,6.333c-4.654,2.433-9.819,4.022-15.291,4.565v-4.009h-8.435ZM154.152,208.948v-8.461c2.011-.166,4.009-.451,5.974-.853,3.254-.666,6.454-1.659,9.512-2.953,2.061-.872,4.072-1.886,6.006-3.028l6.132,6.132c-8.076,5.181-17.498,8.448-27.624,9.163ZM213.2,200.662c0,2.656-1.677,5.047-4.172,5.951l-1.857.673-.673,1.857c-.904,2.496-3.295,4.172-5.951,4.172-3.489,0-6.327-2.838-6.327-6.327,0-.856.167-1.686.497-2.464l1.109-2.618-1.251-1.251-5.977-5.977-5.983-5.983-5.989-5.989-6.003-6.003c1.113-.865,2.174-1.8,3.169-2.795.995-.995,1.93-2.056,2.795-3.169l6.003,6.003,5.989,5.989,5.983,5.983,5.977,5.977,1.251,1.251,2.618-1.109c.779-.33,1.608-.497,2.464-.497,3.489,0,6.327,2.838,6.327,6.327ZM199.67,181.891l-6.132-6.132c1.142-1.934,2.156-3.945,3.028-6.006,1.294-3.058,2.287-6.259,2.953-9.512.402-1.965.686-3.962.853-5.974h8.461c-.715,10.126-3.982,19.548-9.163,27.624Z"/>
  <path d="M152.082,159.808c1.788,1.788,4.259,2.895,6.988,2.895,5.458,0,9.883-4.425,9.883-9.883,0-2.729-1.106-5.2-2.895-6.988l-13.976,13.976Z"/>
  <path d="M130.954,152.82c0,5.458,4.425,9.883,9.883,9.883,2.729,0,5.2-1.106,6.988-2.895l-13.976-13.976c-1.788,1.788-2.895,4.259-2.895,6.988Z"/>
</svg>