<?xml version="1.0" encoding="UTF-8"?>
<svg id="a" data-name="Layer 1 copy" xmlns="http://www.w3.org/2000/svg" width="3001" height="3001" viewBox="0 0 300.1 300.1">
  <path d="M155.684,178.465c-1.927-.109-1.889-11.208-1.889-11.539v-13.846c0-.22.039-5.385.501-8.352.231-1.538.424-2.307.771-3.516h1.851c.347,0,1.041-1.099.848-1.539-.578-1.209-.887-.22-1.812-1.758-.771-1.318-.963-5.055-.963-6.154v-2.088c0-1.868.308-3.626.115-9.23-.231-6.484-2.159-9.231-4.742-9.89-2.312-.549-4.395,2.308-5.435,7.362l-.54,2.637c-1.119-6.043-3.123-9.67-5.667-9.67-1.927,0-3.546.989-4.51,5.604l-.732,3.517c-2.121-7.143-4.549-8.901-7.864-9.45-4.703-.989-7.941,6.813-8.173,18.461-.115,4.835-.039,8.572,1.89,12.858l2.467,5.494c.848,1.978.963,4.945.424,7.252-.81,3.297-2.853,2.527-1.966,3.517,1.657,1.979,5.204-5.714,5.358-14.615.077-5.825-.655-8.132-1.927-11.538l-2.004-5.495c-.386-1.099-1.118-2.417-1.311-5.934-.192-2.967,1.08-7.472,2.428-7.363,5.012.66,4.781,25.165,4.781,27.363v36.374c0,.77-.116,1.759-.424,1.869-.424.219-.655-.77-.887-1.539l-3.199-12.418-5.783,23.077c-.077.22-.154.77-.039.989.077.22.309-.439.424-.879l1.812-6.813c.077-.33.192-.33.347-.33.308-.11,1.002,2.088,1.002,2.198l3.74,12.747c.192-.769,1.619-8.681,3.007-13.406,3.816-13.297,6.553-21.209,6.9-41.979.116-5.714-.347-12.637-.347-14.835v-4.725c0-.879.81-5.385,1.85-5.604,1.696-.44,2.005,6.593,2.043,10.879l.54,42.856c0,1.539.347,10.11-.27,12.088-.231.66-1.08-1.538-1.118-1.648l-3.123-11.648c-1.002,4.066-1.657,6.374-2.775,10.22-1.311,4.506-3.547,11.429-3.547,11.539,0,0-.385,1.209-.192,1.539.154.22.308-.33.424-.769l2.428-8.022c.078-.329.271-.439.424-.439.27,0,.463.22.655.879l4.163,13.077c.155-.769,1.157-5.275,2.043-8.681.733-2.967,2.043-7.583,2.159-7.912l2.274-6.923c2.583-7.802,3.123-20.55,3.277-33.187.077-6.264-.271-10.11-.463-16.044-.039-2.198,1.156-8.242,2.428-7.912,1.195.33,1.619,2.967,1.619,6.154v7.033c0,.22.077,3.956.463,6.044.578,2.856,1.696,4.834,2.352,5.274l1.156.879s.116,1.209.039,1.759c-.077.549-.231.879-.386,1.098l-2.736,4.176c-.116.11-1.234,1.648-1.658,3.517-.925,3.956-.925,11.429-.925,12.417v14.615c0,.439,0,4.286.347,6.813.308,2.308.655,3.956,1.233,5.494l2.275,5.715,6.515-18.572c.154-.439.231-.879.308-1.539.309-2.417-1.349,2.417-2.274,2.417Z"/>
  <path d="M167.208,181.762c-.231-.549-.81-2.637-.81-7.253v-22.967c0-8.242,3.045-7.363,2.12-8.681-3.508-5.166-4.818-9.891-4.896-9.781-.038-.11-5.011,11.209-5.127,11.869-.887,3.626,2.043-5.055,2.043,6.264v24.945c0,.66-.038,9.121.887,13.626.694,3.077,1.465,4.616,2.699,6.044l1.735-4.285c.27-.55,4.317-9.121,4.317-9.451.077-3.406-1.349,3.077-2.968-.33Z"/>
  <path d="M163.623,129.894l1.234-2.857c.27-.66,2.197-5.275,2.12-9.67-.039-4.835-1.735-6.813-3.315-6.484-1.812.439-2.93,2.527-3.045,6.703-.077,3.407,1.465,7.912,1.465,8.022l1.542,4.286Z"/>
  <path d="M190.067,182.532c-.771-.33-1.388-4.286-1.388-7.583v-19.45c0-1.759,0-3.957.424-5.935.925-4.396,2.467-2.967,1.58-4.506-2.814-4.725-4.471-11.868-4.548-11.758-1.272,2.967-2.082,4.725-3.431,7.363-1.273,2.527-2.043,4.065-3.393,6.264,0-.77-.501-6.593-1.388-9.671-.54-2.088-1.388-3.736-1.812-4.395l-5.282,12.527c-.308.66-.27,1.318-.116,1.318.386.22,1.234-2.307,2.121.55.385,1.319.424,2.308.424,6.703v22.638c0,.11.231,5.055-1.427,7.362-.192.33.964,1.539,2.197,4.615.849,1.978,1.889,6.704,1.966,7.253.077-.22.81-2.967,2.198-6.264.963-2.308,2.736-4.835,2.544-4.945-1.388-1.758-1.581-8.022-1.581-8.352v-22.198c0-5.714.347-6.154,1.85-8.132,2.352-3.187,1.966,7.143,1.966,10.22v22.748c0,.769-.039,7.143.617,10,1.234,5.275,2.197,6.484,2.429,6.923l5.32-12.197c.154-.44.231-.55.347-1.209.385-2.528-.656.439-1.619.11Z"/>
  <path d="M203.289,132.531s-1.002,1.429-1.734,2.308c-.81,1.099-2.506,2.527-3.2,3.077l-2.313,1.978c-.732.549-2.12,2.308-2.737,5.604-.733,4.066-1.041,10.33-1.041,12.528v11.539c0,2.637-.077,7.912.848,12.857.925,5.055,3.161,9.34,3.701,10.219l2.043,3.187,6.746-11.648c.655-1.208,1.773-3.736,1.619-4.396-.193-.549.039-.11-1.002,1.099-1.426,1.539-3.663,3.187-5.436-1.319-1.195-2.967-2.236-6.374-2.428-12.088l9.02-13.296-4.086-21.648ZM198.277,165.718v-20.989c0-.659.039-1.319.231-1.648.192-.549.463-.329.617.33.078.22.193.55.231.879l2.622,15.825-3.701,5.604Z"/>
  <path d="M213.08,129.894l1.233-2.857c.271-.66,2.198-5.275,2.121-9.67-.039-4.835-1.734-6.813-3.315-6.484-1.812.439-2.93,2.527-3.045,6.703-.077,3.407,1.464,7.912,1.464,8.022l1.542,4.286Z"/>
  <path d="M216.664,181.762c-.231-.549-.809-2.637-.809-7.253v-22.967c0-8.242,3.045-7.363,2.12-8.681-3.508-5.166-4.819-9.891-4.896-9.781-.039-.11-5.012,11.209-5.127,11.869-.887,3.626,2.043-5.055,2.043,6.264v24.945c0,.66-.039,9.121.886,13.626.694,3.077,1.465,4.616,2.699,6.044l1.734-4.285c.271-.55,4.318-9.121,4.318-9.451.077-3.406-1.35,3.077-2.969-.33Z"/>
  <path d="M230.195,146.927c.347-.33.462,0,.616.769l2.352,12.857,4.279-10.989-3.2-15.385c-.116.439-1.311,3.846-2.313,6.703-1.388,3.846-2.043,5.166-3.045,7.253,0-.22-.193-7.583-1.542-11.539-.732-2.198-1.58-3.736-2.004-4.176l-5.088,12.967c-.155.33-.116.66.038.66.424,0,1.735-1.429,2.198,1.098.462,2.308.385,5.495.385,5.935v21.648c0,.109.077,3.736-.385,4.835-1.08,2.857-2.043,1.648-1.542,2.637,2.004,3.846,3.932,7.363,5.937,12.527l.501,1.319c2.544-5.495,2.968-6.264,3.238-6.923,1.349-2.967,3.123-6.264,3.392-7.033.078-.109.27-.55.386-.989.886-3.736-1.696,3.517-3.855.88-.771-.88-1.658-3.077-1.658-9.122v-21.978c-.039-.439.54-3.297,1.311-3.956Z"/>
  <path d="M254.788,144.07c-.693-4.505-2.968-10.33-3.045-10.439-2.158,3.736-3.431,5.385-5.821,7.252-2.352,1.758-3.045,2.418-6.477,2.308v32.087c0,.11,0,2.638-.347,3.736-1.041,3.187-1.734,2.198-1.002,3.187,2.429,3.077,5.551,8.901,5.898,9.67l1.773,3.956c.848-2.637,1.542-5.055,2.506-5.934,2.274-2.308,4.472-1.648,5.898-5.824,1.08-3.187,1.002-10.989,1.002-11.319l.155-19.011c.039-2.857-.077-6.703-.54-9.67ZM248.929,183.74c-.231.22.309,1.538-.617-.33l-2.813-6.813v-31.758s.27-2.417.925-1.648c1.156,1.538,2.814,5.055,2.814,11.099v27.143c0,1.099.038,1.978-.309,2.308Z"/>
  <path d="M115.685,186.583l-34.363-34.372c-7.461-7.594-9.542-18.123-2.883-27.032,5.943-7.951,15.184-10.832,24.582-7.164,6.181,2.412,9.706,6.813,12.534,12.618.051.104-.049.213.174.169l-.136-11.241c-1.74-2.919-4.151-5.419-7.014-7.257-10.908-7.001-25.13-2.263-37.235-4.035-3.551-.52-6.908-2.157-9.498-4.618l-15.661,15.657c-1.94,2.295-1.884,5.517.115,7.755l69.39,69.386c.019-2.217.089-4.457.08-6.669-.004-.888.061-2.103-.003-2.937-.007-.095-.029-.179-.082-.26Z"/>
  <path d="M113.024,134.704c-1.931-1.307-3.124-1.122-5.276-1.121-5.157.003-10.286.096-15.426.153l-13.125.146c-.19.137-.336.891-.395,1.148-.939,4.167,1.37,9.297,3.99,12.47l32.936,32.98c-.054-12.343-.01-24.401-.08-36.68-.02-3.493.752-6.812-2.625-9.098Z"/>
</svg>