<?xml version="1.0" encoding="UTF-8"?>
<svg id="a" data-name="Layer 1 copy" xmlns="http://www.w3.org/2000/svg" width="3001" height="3001" viewBox="0 0 300.1 300.1">
  <rect x="76.172" y="221.657" width="6.909" height="5.614"/>
  <path d="M69.987,214.805h-10.832v4.418h5.757c1.749,0,1.919,2.481-.044,2.435h-9.255c-1.364,0-2.857-1.553-2.941-2.603v-5.683c0-.738.767-2.266,2.302-2.315h17.743v-5.517h0s-20.344-.001-20.344-.001c-3.668,0-6.398,3.558-6.611,5.924v8.452c-.043,2.362,2.134,6.828,6.355,6.852h17.913c.982-.308,3.369-1.884,3.285-4.179l.084-4.034c-.084-.954-.384-3.463-3.412-3.749Z"/>
  <path d="M120.167,205.827h-34.056v21.444h0s6.909.001,6.909.001v-14.687c0-.572.639-1.477,2.218-1.477h4.915c1.065,0,2.218.904,2.303,1.861v14.303h6.396v-14.687h0c0-.572.639-1.477,2.218-1.477h4.915c1.065,0,2.218.904,2.303,1.861v14.303h6.396v-16.503c-.04-1.504-2.001-4.73-4.518-4.942Z"/>
  <path d="M192.841,205.994l-15.781-.046c-3.665,0-6.566,3.226-6.566,5.802v9.839c0,2.269,3.496,5.683,6.27,5.683h20.685v-5.351l-16.761.073c-1.623.191-3.457-1.504-3.457-2.793l-.044-4.728c.045-1.219,1.281-3.416,2.987-3.392l9.426.027c1.792.069,1.919,3.292-.041,3.292h-10.834v4.779h13.818c2.942-.096,5.117-2.963,5.117-4.54v-5.465c0-.766-1.961-3.25-4.818-3.179Z"/>
  <path d="M209.879,211.055v15.951h6.867v-13.634c0-1.074.299-2.22,1.45-2.22l4.904-.046v-5.566h0s-6.398-.001-6.398-.001c-1.023,0-6.653,1.219-6.824,5.517Z"/>
  <path d="M247.198,205.549h-15.098c-3.795,0-6.865,3.057-6.865,6.855v7.521c0,3.773,3.07,6.83,6.865,6.83h15.098c3.837,0,6.909-3.057,6.909-6.83v-7.521c0-3.798-3.072-6.855-6.909-6.855ZM247.282,218.084c0,2.007-1.619,3.607-3.624,3.607h-7.977c-2.005,0-3.624-1.6-3.624-3.607v-3.961c0-1.983,1.619-3.607,3.624-3.607h7.977c2.005,0,3.624,1.623,3.624,3.607v3.961Z"/>
  <rect x="128.479" y="205.539" width="6.909" height="21.732"/>
  <rect x="128.479" y="200.691" width="6.909" height="2.533"/>
  <rect x="200.314" y="205.539" width="6.909" height="21.732"/>
  <rect x="200.314" y="200.691" width="6.909" height="2.533"/>
  <path d="M162.772,205.827h-23.501v21.444h0s6.909.001,6.909.001v-14.687c0-.572.639-1.477,2.218-1.477h10.193c1.065,0,2.218.904,2.303,1.861v14.303h6.396v-16.503c-.04-1.504-2.001-4.73-4.518-4.942Z"/>
  <path d="M71.776,160.925c1.182,18.071,14.84,34.266,33.315,35.883l89.963-.01c18.131-1.714,31.445-17.184,33.116-34.895-.203-16.808.948-34.25.208-51.015-.878-19.891-14.652-37.068-35.289-38.06l-86.942.067c-18.632.881-33.334,17.649-34.368,35.818-.972,17.07.753,35.048-.001,52.212ZM207.797,184.524c-4.149,2.728-8.724,4.522-13.722,4.968h-88.194c-14.993-1.272-25.725-14.42-26.779-28.974l.031-20.725c6.882-5.242,16.685-3.12,24.521-1.454,4.483.953,10.193,2.203,14.331,4.056,5.885,2.636,10.897,7.753,16.736,10.35,3.286,1.462,7.163,1.679,10.735,2.116,5.656.692,14.408.778,19.559,2.386,2.653.828,2.783,1.95,4.432,3.674,5.345,5.585,11.348,8.848,18.398,11.851,4.946,2.106,14.272,4.481,17.691,8.208.39.425,2.502,3.201,2.26,3.544ZM132.877,93.594c-.567-.063-.829-.442-1.48-.409-.522.026-.938.464-1.378.418-.54-.056-3.627-2.815-4.259-3.366,2.131.437,3.999.365,6.128,0,.078.382-.307.6-.361.929-.16.981,1.021,1.634,1.351,2.429ZM162.258,112.399c1.167.002,4.369,1.78,5.762,2.302,2.415.904,5.531,1.873,8.081,2.199,2.285.293,1.681-.104,3.826.918,2.448,1.167,5.459,1.213,8.2,1.29,2.423.068,4.82-.207,7.235-.118,3.405,2.315.548,4.195-.963,6.374-2.194,3.165-4.24,6.54-5.222,10.298-.908.932-3.926-.792-5.008-1.129-2.719-.846-6.075-1.322-8.913-1.763-7.477-1.161-17.232-1.042-23.799-4.671-3.316-1.832-6.558-4.693-3.637-8.587,2.263-3.016,10.705-7.122,14.437-7.114ZM158.284,90.527c1.031-.23,3.038.771,3.724,1.53,1.368,1.513-1.72,1.674-2.72,1.517-1.78-.278-2.958-2.611-1.005-3.047ZM167.278,103.286l28.073,9.688c.047.344-.449.186-.688.195-3.525.141-11.507-1.69-15.373-2.423-4.629-.878-9.547-3.336-12.012-7.46ZM212.454,180.386c-1.262-1.776-2.429-3.622-3.694-5.396-2.393-3.356-6.35-7.732-7.679-11.499-2.188-6.203-.956-13.438-4.74-19.081.6-.439,4.13.951,4.936,1.29,1.916.804,4.049,1.998,5.873,3.024,4.785,2.691,9.381,5.832,13.605,9.329.473,8.153-2.921,16.328-8.301,22.335ZM220.854,108.526v38.451c-8.984-2.564-17.984-5.135-27.126-7.123-.754-1.13-1.816-1.792-2.936-2.5-.222-1.058,3.526-6.01,4.368-7.077.916-1.16,4.778-6.023,5.619-6.639.289-.212.702-.184,1.009-.375,1.884-1.173,2.78-4.609,2.858-6.732l2.174.397-.593,2.568,6.523-.989-4.448-5.135-.992,2.372c-.131,0-2.362-.814-2.463-.898-.219-.184-.24-.626-.489-.895-.277-.298-1.125-.86-1.196-.979-.114-.191-.403-2.779-.552-3.402-.454-1.894-1.13-3.925-1.717-5.795-2.487-7.92-5.722-15.61-8.504-23.423,15.382-.126,27.157,13.48,28.466,28.175ZM108.254,80.144l83.216.035.291.302c2.215,7.061,4.642,14.126,6.07,21.412.522,2.663,1.162,5.922,1.275,8.609.048,1.132.081,2.127-1.383,1.996l-33.062-11.44c-.302-.251-1.119-.657-1.652-1.054-.006-.003-.013-.004-.019-.007-.159-.074-.306-.165-.454-.258-.076-.048-.152-.096-.23-.141-.05-.029-.331-.162-.072-.053-.08-.034-.152-.07-.22-.109.141-.293.295-.601.476-.921.241-.425,1.25-1.595,1.307-1.786.008-.027.734-.806.305-2.372-.186-.68-.933-1.067-.588-1.607.059-.092.974-.257,1.142-.833.12-.412.081-1.873.042-2.376-.722-9.287-15.772-10.596-16.675-.68-.159,1.75,1.294,5.053-.372,6.077-1.689.971-6.2-3.399-6.723-3.757-9.155-6.272-19.734-11.287-31.183-9.842-.091,3.874,2.763,7.518,5.237,10.284,2.825,3.157,6.808,6.176,9.39,9.393,4.68,5.832-1.236,8.142-2.815,13.586-1.263,4.356.521,9.263-4.421,11.791-9.13,4.67-21.696-4.06-31.513,1.504-2.612,1.48-4.364,4.02-6.519,6.034v-24.613c1.072-15.49,13.091-29.086,29.152-29.172ZM79.39,136.096c.558-.635,3.43-2.299,4.323-2.795,2.39-1.327,5.288-2.621,7.996-3.076,5.969-1.003,11.959,1.026,17.813,1.948.087.315.097,1.044-.285,1.137-3.445-.538-6.843-1.449-10.299-1.92-4.198-.572-6.336-.391-10.389.814-3.419,1.017-6.638,2.706-9.445,4.886-.049-.447-.012-.654.288-.996Z"/>
</svg>