<?xml version="1.0" encoding="UTF-8"?>
<svg id="a" data-name="Layer 1 copy" xmlns="http://www.w3.org/2000/svg" width="3001" height="3001" viewBox="0 0 300.1 300.1">
  <path d="M290.103,281.576h-74.821l-1.533-6.355h79.395v-2.126h-79.908l-1.442-5.98,81.442-12.488-84.629.108-3.415-16.534-13.309,5.97v-6.409h-33.469v10.334h15.363c-.086.346-.271.685-.564,1.015-.417.468-1.004.911-1.764,1.327s-1.67.791-2.732,1.124-2.243.624-3.543.874c-1.301.25-2.706.437-4.215.562-1.509.125-3.086.188-4.73.188-1.791,0-3.481-.104-5.074-.312-1.592-.208-3.086-.51-4.48-.905-1.395-.395-2.649-.9-3.762-1.514-1.114-.614-2.066-1.337-2.857-2.17s-1.405-1.78-1.842-2.841-.656-2.237-.656-3.528v-.062c0-1.291.224-2.466.671-3.528.447-1.061,1.087-2.003,1.92-2.825.832-.822,1.811-1.524,2.935-2.107,1.124-.583,2.357-1.072,3.7-1.467,1.342-.396,2.768-.687,4.277-.875,1.509-.187,3.054-.281,4.636-.281,1.394,0,2.867.067,4.418.203,1.55.136,3.044.339,4.48.609,1.436.271,2.763.63,3.98,1.077,1.218.448,2.211.983,2.982,1.608h20.106c-.77-2.435-2.285-4.621-4.542-6.556-2.259-1.936-5.032-3.564-8.32-4.886-3.289-1.322-6.983-2.331-11.084-3.029-.86-.146-1.732-.268-2.607-.384,1.947-1.311,3.663-2.956,5.119-4.925,2.234-3.022,3.562-6.422,3.948-10.107.385-3.682-.154-7.276-1.602-10.681-1.449-3.409-3.717-6.27-6.74-8.504l-1.726-1.275-17.091,23.123,3.489,2.402,14.301-19.348c1.944,1.769,3.376,3.927,4.259,6.418.918,2.591,1.191,5.284.812,8.003-.379,2.717-1.419,5.24-3.089,7.5-1.784,2.413-4.072,4.229-6.801,5.398-1.87.801-3.805,1.247-5.779,1.351-.333.002-.655.017-.985.023-.584-.004-1.171-.03-1.761-.095-2.925-.321-5.648-1.399-8.092-3.206-2.413-1.783-4.227-4.058-5.392-6.761s-1.596-5.572-1.279-8.526c.317-2.952,1.382-5.673,3.166-8.085,1.76-2.38,4.062-4.199,6.845-5.405,2.672-1.188,5.525-1.615,8.48-1.271l.279.032.522-4.215-.29-.028c-1.814-.175-3.672-.13-5.52.133-1.853.265-3.604.762-5.2,1.476-3.42,1.465-6.287,3.74-8.521,6.762-2.258,3.054-3.598,6.47-3.983,10.154-.265,2.534-.079,5.02.532,7.431-6.79-3.679-15.073-5.712-23.946-7.222-8.367-1.423-16.098-1.899-25.88-1.899-.114,0-.228,0-.342,0-6.654.007-11.716.366-17.42,1.059-1.848.224-3.697.49-5.535.784,4.716-6.077,3.633-16.308-2.146-26.368-.462-.804-.954-1.607-1.476-2.407-1.211-1.857-2.58-3.697-4.102-5.49h3.607v-10.981h-13.552c6.129,4.823,6.695,7.455,6.695,7.455-2.92-2.919-6.023-5.416-9.176-7.455-3.259-2.107-6.567-3.708-9.781-4.799.728-.313,1.419-.679,2.069-1.104,2.473-1.617,4.552-4.163,6.238-7.638l-.385-.221c-1.923,1.771-3.769,3.062-5.537,3.875s-3.623,1.218-5.564,1.218c-.385,0-.765-.013-1.141-.042-.375-.027-.737-.068-1.085-.125l-.028-15.084h8.849c.292-.623.755-1.58,1.388-2.872.632-1.291,1.103-2.285,1.415-2.981h-5.908l7.639-8.354c-.183,0-.384.005-.604.014-.22.009-.559.014-1.017.014-2.033,0-3.916-.238-5.647-.715-1.731-.477-3.311-1.19-4.74-2.143l-10.827,9.25v13.876c0,.922-.051,1.634-.151,2.131-.101.499-.271.914-.508,1.247-1.062-1.305-1.874-2.808-2.432-4.507-.559-1.7-.838-3.505-.838-5.416,0-2.572.563-4.924,1.69-7.056s2.834-4.07,5.125-5.816l-.11-.219c-3.5,1.268-6.279,3.455-8.34,6.561-2.061,3.106-3.092,6.663-3.092,10.669,0,4.889,1.548,8.905,4.644,12.048,1.099,1.116,2.311,2.023,3.625,2.743-1.792.659-3.396,1.625-4.729,2.958-5.869,5.87-5.049,16.799,1.118,27.535v16.133c0,.801.257,1.458.772,1.973.515.515,1.171.772,1.973.772h11.56c-6.862-5.127-10.946-13.771-10.946-13.771.695.934,1.431,1.86,2.206,2.774,1.02,1.204,2.108,2.387,3.263,3.542,2.919,2.919,6.023,5.415,9.175,7.454,4.322,2.795,8.735,4.727,12.893,5.713-.287.103-.587.198-.87.304-3.433,1.283-7.009,3.06-9.788,5.186-1.487,1.138-3.145,2.686-4.144,4.633-4.487-5.416-10.169-8.61-14.935-7.994-.912.118-1.808.392-2.642.815-2.773,1.359-3.381,4.069-3.409,5.178-.075.642.229.918.503.883.37.004.774-.574.98-1.285.488-1.589,1.29-3.272,3.913-3.822,4.248-.917,10.575,2.371,15.238,14.927,1.502,3.964,2.385,7.746,2.706,10.968.62,6.236-.937,10.543-4.725,10.98-6.345.715-10.991-5.16-13.604-15.665-.715-3.014-1.196-5.531-1.402-7.609-.465-4.677.453-7.06,3.024-7.655,3.655-.841,8.17,5.576,10.067,12.122.643,2.286.986,4.347,1.156,6.062.315,3.17.066,5.308-.054,6.429-.089.959.236,1.443.565,1.506.278.017.571-.285.743-.886.15-.809.434-3.53.078-7.116-.253-2.547-.826-5.526-1.962-8.59-2.484-6.417-6.459-11.588-10.652-11.046-.456.059-.856.216-1.301.378-3.233,1.366-5.211,5.622-4.596,11.806.248,2.495.891,5.254,2.067,8.26,3.675,9.579,10.026,14.496,15.95,13.73.638-.083,1.316-.223,1.939-.461,4.778-1.618,8.271-7.807,7.481-15.758-.079-.792-.207-1.603-.375-2.426.778.462,1.572.904,2.394,1.32,8.771,4.45,20.426,6.783,31.554,7.889,5.472.544,11.144.803,17.567.803,6.607,0,12.235-.444,17.603-1.059,5.615-.644,11.127-1.583,16.282-2.927-1.017,2.318-1.525,4.876-1.525,7.676v.062c0,2.477.4,4.767,1.202,6.869.801,2.103,1.94,4.007,3.419,5.713.039.044.083.085.122.13h-33.306l51.903,10.669-40.687,15.819,44.324-5.546c-.043.207-.068.421-.068.641v12.961c0,1.718,1.397,3.116,3.115,3.116h142.284c1.718,0,3.116-1.398,3.116-3.116v-4.48c0-1.718-1.398-3.115-3.116-3.115ZM24.523,119.665l6.375,2.528-6.375,6.979v-9.507ZM142.065,219.729c.041.026.083.049.125.075-.05.009-.099.02-.149.028.008-.034.016-.069.024-.103ZM47.565,165.641c1.696,1.786,3.233,3.627,4.6,5.49h-19.131v-5.49h14.532ZM19.632,136.261c.824-1.522,1.236-3.28,1.236-5.273v-10.471l2.363-1.923v27.008c-1.594-.332-3.055-.871-4.383-1.619-1.329-.748-2.505-1.702-3.531-2.865,2.052-1.716,3.49-3.335,4.314-4.857ZM13.818,171.131c-.802,0-1.458.287-1.973.858-.245.245-.431.516-.559.812-3.205-7.617-3.201-14.616.742-18.559,4.372-4.373,12.502-3.902,21.065.417h-8.294c-.802,0-1.458.287-1.973.858-.515.515-.772,1.145-.772,1.887v13.726h-8.235ZM22.053,187.603v-5.491h36.129c2.286,6.293,2.281,12.027-.442,15.768v-10.277H22.053ZM35.721,198.583h21.455c-.126.142-.255.282-.39.417-.876.876-1.91,1.55-3.062,2.045-1.423.3-2.831.618-4.208.966-4.024.274-8.834-.926-13.795-3.428ZM102.555,232.888c-6.225.713-11.505,1.032-17.12,1.032-6.242,0-11.852-.256-17.147-.783-5.865-.583-11.283-1.457-16.104-2.598-1.063-.251-2.097-.517-3.102-.794v-23.235c4.985-1.349,10.694-2.428,16.851-3.176,5.958-.723,10.859-1.021,16.914-1.028h.337c10.198,0,17.49.533,25.168,1.839,4.553.774,8.267,1.569,11.561,2.476v23c-.41.117-.823.231-1.243.343-4.708,1.254-10.131,2.238-16.116,2.924ZM177.859,271.43l5.575,1.666h-18.887l13.312-1.666ZM291.093,289.172c0,.546-.444.99-.99.99h-142.284c-.545,0-.989-.444-.989-.99v-12.961c0-.545.444-.989.989-.989h42.73l21.269,6.355h-58.042v2.126h136.328c.546,0,.99.443.99.989v4.48Z"/>
</svg>